<svg preserveAspectRatio="none" width="100%" height="100%" overflow="visible" style="display: block;" viewBox="0 0 64 64" fill="none" xmlns="http://www.w3.org/2000/svg">
<g id="tools/after-effects">
<path d="M0 16C0 7.16344 7.16344 0 16 0H48C56.8366 0 64 7.16344 64 16V48C64 56.8366 56.8366 64 48 64H16C7.16344 64 0 56.8366 0 48V16Z" fill="#00005B"/>
<path d="M26.2892 38.8298H16.3692L14.3425 45.1231C14.2892 45.3631 14.076 45.5231 13.836 45.4966H8.8225C8.52925 45.4966 8.44925 45.3366 8.52925 45.0166L17.116 20.4031C17.196 20.1366 17.276 19.8966 17.3825 19.5766C17.4892 19.0166 17.5425 18.4298 17.5425 17.8431C17.516 17.7098 17.6225 17.5766 17.7558 17.5498H24.6625C24.8493 17.5498 24.9825 17.6298 25.0093 17.7631L34.7425 44.9631C34.8225 45.2566 34.7425 45.3898 34.476 45.3898H28.9025C28.716 45.4166 28.5292 45.2831 28.476 45.0966L26.2892 38.6966V38.8298ZM17.916 33.5231H24.6893C24.5293 32.9631 24.3158 32.2966 24.0758 31.6031C23.8358 30.8831 23.5957 30.1098 23.3557 29.3098C23.0892 28.4831 22.8493 27.6831 22.5825 26.8566C22.3158 26.0301 22.076 25.2566 21.8625 24.4831C21.6492 23.7366 21.4625 23.0431 21.2757 22.4031H21.2225C20.9825 23.5498 20.6893 24.6966 20.3158 25.8431C19.9158 27.1231 19.5158 28.4566 19.0893 29.7898C18.7425 31.1498 18.3158 32.4031 17.916 33.5231ZM50.4492 36.4298H41.996C42.1025 37.2566 42.3692 38.0831 42.8225 38.8031C43.3025 39.5231 43.9692 40.0831 44.7692 40.4031C45.836 40.8566 47.0092 41.0966 48.1825 41.0698C49.116 41.0431 50.0493 40.9631 50.956 40.7766C51.7693 40.6702 52.5663 40.4641 53.3293 40.1631C53.4625 40.0566 53.5425 40.1098 53.5425 40.3766V44.4566C53.5425 44.5631 53.516 44.6698 53.4893 44.7766C53.436 44.8566 53.3825 44.9098 53.3025 44.9631C52.4497 45.3377 51.5542 45.6063 50.636 45.7631C49.3886 46.003 48.1193 46.1103 46.8493 46.0831C44.8225 46.0831 43.116 45.7631 41.7293 45.1498C40.4225 44.5898 39.276 43.7098 38.3693 42.6166C37.525 41.5891 36.8989 40.4005 36.5293 39.1231C36.156 37.8698 35.9692 36.5631 35.9692 35.2298C35.9692 33.7898 36.1825 32.3766 36.636 30.9898C37.0611 29.6546 37.7402 28.4141 38.636 27.3366C39.516 26.2698 40.6092 25.4166 41.8625 24.8031C43.116 24.1898 44.6093 23.9766 46.316 23.9766C47.7293 23.9498 49.1425 24.2166 50.4492 24.8031C51.5425 25.2831 52.5025 26.0031 53.2492 26.9366C53.9425 27.8431 54.5025 28.8566 54.8493 29.9766C55.196 31.0431 55.356 32.1366 55.356 33.2298C55.356 33.8698 55.3293 34.4298 55.3025 34.9366C55.2493 35.4431 55.2225 35.8166 55.196 36.0566C55.1692 36.2431 55.0092 36.4031 54.8225 36.4031C54.6625 36.4031 54.3693 36.4298 53.9425 36.4566C53.516 36.5098 53.0092 36.5366 52.396 36.5366C51.7825 36.5366 51.1425 36.4298 50.4492 36.4298ZM41.996 32.5366H47.6225C48.316 32.5366 48.8225 32.5366 49.1425 32.5098C49.356 32.4831 49.5693 32.4298 49.756 32.2966V32.0298C49.7568 31.6944 49.7028 31.361 49.596 31.0431C49.116 29.5498 47.7025 28.5366 46.1292 28.5898C45.4055 28.5493 44.6855 28.719 44.0562 29.0787C43.4268 29.4383 42.915 29.9724 42.5825 30.6166C42.2625 31.2298 42.076 31.8698 41.996 32.5366Z" fill="var(--fill-0, #9999FF)" fill-opacity="0.9"/>
</g>
</svg>
