<svg preserveAspectRatio="none" width="100%" height="100%" overflow="visible" style="display: block;" viewBox="0 0 64 64" fill="none" xmlns="http://www.w3.org/2000/svg">
<g id="tools/illustrator">
<path d="M0 16C0 7.16344 7.16344 0 16 0H48C56.8366 0 64 7.16344 64 16V48C64 56.8366 56.8366 64 48 64H16C7.16344 64 0 56.8366 0 48V16Z" fill="#330000"/>
<path d="M31.0135 38.1461H21.096L19.078 44.5647C19.0506 44.6818 18.9841 44.7854 18.89 44.8577C18.7959 44.9299 18.6802 44.9663 18.5628 44.9605H13.5395C13.2532 44.9605 13.153 44.7992 13.239 44.4767L21.8258 19.1537C21.9116 18.89 21.9974 18.5896 22.0833 18.2526C22.1958 17.6658 22.2533 17.0698 22.255 16.4721C22.2492 16.4303 22.2529 16.3876 22.2659 16.3476C22.279 16.3075 22.3009 16.2711 22.3301 16.2412C22.3592 16.2113 22.3948 16.1888 22.4339 16.1754C22.473 16.162 22.5147 16.1582 22.5555 16.1641H29.382C29.582 16.1641 29.6965 16.2375 29.7255 16.3843L39.4713 44.5207C39.5571 44.8143 39.4713 44.9609 39.2138 44.9605H33.6323C33.5364 44.9712 33.4401 44.9459 33.3611 44.8893C33.2821 44.8327 33.226 44.7487 33.203 44.6528L31.0135 38.1461ZM22.6415 32.6067H29.425L29.3283 32.2798L29.173 31.7622L29.0623 31.3987L28.8855 30.8263L28.5098 29.6213L27.321 25.7703C27.1074 25.0785 26.9024 24.384 26.706 23.6869L26.549 23.1212L26.3655 22.4522L26.0855 21.4154L26.033 21.2201H25.9903C25.7754 22.2754 25.5138 23.3201 25.2063 24.351L24.5693 26.4492L23.865 28.7818C23.8012 28.9938 23.7374 29.2034 23.6738 29.4106L23.4838 30.0245L23.2948 30.624L23.1068 31.2087L22.9198 31.7788C22.8578 31.9666 22.7958 32.1517 22.734 32.3343L22.6415 32.6067ZM45.2668 20.8243C44.8289 20.8423 44.3922 20.7654 43.9854 20.5987C43.5785 20.4321 43.2105 20.1794 42.9055 19.8572C42.6015 19.5208 42.3654 19.1263 42.2107 18.6962C42.0559 18.2662 41.9856 17.8091 42.0038 17.3512C41.9882 16.8978 42.0662 16.4462 42.2326 16.0258C42.3991 15.6054 42.6503 15.2257 42.9698 14.9115C43.586 14.3057 44.4067 13.9667 45.261 13.9651L45.3525 13.9661C46.383 13.9661 47.1917 14.2811 47.7785 14.9112C48.0746 15.2387 48.3048 15.6228 48.4558 16.0415C48.6068 16.4602 48.6757 16.9052 48.6585 17.3512C48.6767 17.811 48.6043 18.2698 48.4458 18.7004C48.2872 19.1309 48.0457 19.5244 47.7355 19.8574C47.4225 20.1733 47.051 20.4218 46.6427 20.5885C46.2345 20.7551 45.7979 20.8364 45.3585 20.8277L45.2668 20.8243ZM42.3043 44.5207V23.5062C42.3041 23.2423 42.4186 23.1104 42.6478 23.1104H47.9288C48.1576 23.1104 48.2721 23.2423 48.2723 23.5062V44.5207C48.2723 44.8143 48.1578 44.9609 47.9288 44.9605H42.6908C42.4468 44.9605 42.3183 44.8289 42.3055 44.5658L42.3043 44.5207Z" fill="var(--fill-0, #FF9A00)" fill-opacity="0.9"/>
</g>
</svg>
