<svg preserveAspectRatio="none" width="100%" height="100%" overflow="visible" style="display: block;" viewBox="0 0 64 64" fill="none" xmlns="http://www.w3.org/2000/svg">
<g id="tools/xd">
<path d="M0 16C0 7.16344 7.16344 0 16 0H48C56.8366 0 64 7.16344 64 16V48C64 56.8366 56.8366 64 48 64H16C7.16344 64 0 56.8366 0 48V16Z" fill="#470137"/>
<path d="M33.6444 16.6036L25.6587 30.1007L34.2024 44.4329C34.2574 44.5332 34.2727 44.651 34.2454 44.7626C34.2322 44.8102 34.2037 44.822 34.1599 44.8238L34.1114 44.823L34.0524 44.8215C34.0204 44.8215 33.9847 44.823 33.9449 44.8297H27.7849L27.6639 44.8276C27.3319 44.8187 27.0927 44.77 26.9469 44.5207C26.377 43.3836 25.8045 42.2479 25.2294 41.1136C24.7151 40.1018 24.1867 39.0976 23.6444 38.1012L23.4049 37.6624C22.7564 36.4821 22.1195 35.295 21.4944 34.1015H21.4514C20.8742 35.2826 20.2802 36.455 19.6697 37.6184C19.0539 38.7909 18.4456 39.956 17.8449 41.1136C17.2438 42.2719 16.6284 43.4223 15.9989 44.5647C15.8977 44.7977 15.7294 44.8463 15.4952 44.8543L15.3977 44.8558H9.51593L9.49043 44.8566L9.40643 44.8642C9.35968 44.8671 9.33168 44.8568 9.32268 44.7846C9.30667 44.6774 9.32962 44.5679 9.38718 44.4769L17.6732 30.5403L9.60168 16.5601C9.51602 16.4434 9.50168 16.3481 9.55868 16.2744C9.59037 16.2368 9.63015 16.2074 9.67488 16.1882C9.71962 16.1691 9.76808 16.161 9.81643 16.1643H15.8699C16.0019 16.157 16.1339 16.1796 16.2564 16.2304C16.3589 16.29 16.4472 16.3727 16.5139 16.4723C17.0291 17.6448 17.6016 18.8171 18.2314 19.9892C18.8563 21.1538 19.4932 22.3116 20.1419 23.4624C20.7808 24.5954 21.3751 25.754 21.9237 26.9355H21.9667C22.5288 25.7543 23.1085 24.5818 23.7054 23.4186C24.2918 22.2755 24.8928 21.125 25.5084 19.9672C26.1161 18.8244 26.7101 17.674 27.2902 16.5163C27.3232 16.4078 27.3822 16.3095 27.4619 16.2304C27.568 16.1754 27.6871 16.1524 27.8054 16.1643H33.4297C33.4814 16.1511 33.5359 16.1555 33.585 16.1767C33.6341 16.198 33.6751 16.235 33.7019 16.2821C33.7286 16.3293 33.7397 16.3841 33.7335 16.4383C33.7272 16.4925 33.704 16.5432 33.6672 16.5826L33.6444 16.6036ZM46.2619 45.3967L45.9659 45.4C43.9898 45.431 42.0317 45.0105 40.2342 44.1692C38.5596 43.3756 37.1598 42.0801 36.2199 40.4541C35.2721 38.8422 34.7859 36.8339 34.7612 34.4292L34.7602 34.2333C34.7441 32.2155 35.2476 30.2291 36.2202 28.4741C37.1935 26.7371 38.6124 25.3059 40.3232 24.3356L40.4704 24.2537C42.3304 23.1984 44.5773 22.6708 47.2109 22.6708L47.3259 22.6721L47.4574 22.6765L47.6049 22.6831L47.7689 22.6928L48.0444 22.7128L48.3564 22.7384L48.5847 22.7589V14.0979C48.5847 13.8929 48.6705 13.7904 48.8422 13.7902H54.2519C54.2869 13.785 54.3226 13.7883 54.3561 13.7998C54.3896 13.8112 54.4201 13.8305 54.4451 13.8561C54.4701 13.8816 54.4889 13.9128 54.5001 13.9472C54.5112 13.9815 54.5144 14.018 54.5094 14.0539V40.0366C54.5094 40.473 54.5259 40.9427 54.5589 41.4456L54.6389 42.5861L54.6814 43.2458C54.6867 43.3372 54.6649 43.428 54.6189 43.5065C54.573 43.585 54.5049 43.6474 54.4237 43.6856C53.0281 44.2815 51.5745 44.7236 50.0874 45.0043C48.825 45.243 47.5455 45.3743 46.2619 45.3967ZM48.5847 39.9485V27.9465C48.3527 27.8821 48.1157 27.838 47.8764 27.8146C47.584 27.7844 47.2901 27.7697 46.9962 27.7706C45.9543 27.7599 44.9247 28.0009 43.9909 28.4741C43.0815 28.9374 42.3049 29.6342 41.7369 30.4965C41.1701 31.3454 40.877 32.4539 40.8577 33.8219L40.8567 33.9696C40.8359 34.9279 40.9887 35.8818 41.3074 36.7831C41.567 37.5094 41.9773 38.1694 42.5099 38.7177C43.0197 39.2221 43.6369 39.5983 44.3129 39.8167C45.027 40.0534 45.7734 40.1722 46.5239 40.1687C46.9244 40.1687 47.2965 40.1539 47.6402 40.1244C47.9143 40.1033 48.1861 40.057 48.4522 39.9862L48.5847 39.9485Z" fill="var(--fill-0, #FF61F6)" fill-opacity="0.9"/>
</g>
</svg>
