<svg width="18" height="27" viewBox="0 0 18 27" fill="none" xmlns="http://www.w3.org/2000/svg">
<path d="M4.75 0.5H9V9H4.75C3.62283 9 2.54183 8.55223 1.7448 7.7552C0.947766 6.95817 0.5 5.87717 0.5 4.75C0.5 3.62283 0.947766 2.54183 1.7448 1.7448C2.54183 0.947766 3.62283 0.5 4.75 0.5Z" fill="#5C5C5C"/>
<path d="M13.25 9H9V0.5H13.25C14.3772 0.5 15.4582 0.947766 16.2552 1.7448C17.0522 2.54183 17.5 3.62283 17.5 4.75C17.5 5.87717 17.0522 6.95817 16.2552 7.7552C15.4582 8.55223 14.3772 9 13.25 9Z" fill="#5C5C5C"/>
<path d="M9 13.25C9 15.5972 10.9028 17.5 13.25 17.5C15.5972 17.5 17.5 15.5972 17.5 13.25C17.5 10.9028 15.5972 9 13.25 9C10.9028 9 9 10.9028 9 13.25Z" fill="#5C5C5C"/>
<path d="M4.75 9H9V17.5H4.75C3.62283 17.5 2.54183 17.0522 1.7448 16.2552C0.947766 15.4582 0.5 14.3772 0.5 13.25C0.5 12.1228 0.947766 11.0418 1.7448 10.2448C2.54183 9.44777 3.62283 9 4.75 9Z" fill="#5C5C5C"/>
<path d="M4.75 17.5H9V21.75C9 22.8772 8.55223 23.9582 7.7552 24.7552C6.95817 25.5522 5.87717 26 4.75 26C3.62283 26 2.54183 25.5522 1.7448 24.7552C0.947766 23.9582 0.5 22.8772 0.5 21.75C0.5 20.6228 0.947766 19.5418 1.7448 18.7448C2.54183 17.9478 3.62283 17.5 4.75 17.5Z" fill="#5C5C5C"/>
<path d="M9 0.5H4.75C3.62283 0.5 2.54183 0.947766 1.7448 1.7448C0.947766 2.54183 0.5 3.62283 0.5 4.75C0.5 5.87717 0.947766 6.95817 1.7448 7.7552C2.54183 8.55223 3.62283 9 4.75 9M9 0.5V9M9 0.5H13.25C14.3772 0.5 15.4582 0.947766 16.2552 1.7448C17.0522 2.54183 17.5 3.62283 17.5 4.75C17.5 5.87717 17.0522 6.95817 16.2552 7.7552C15.4582 8.55223 14.3772 9 13.25 9M9 9H4.75M9 9H13.25M9 9V17.5M4.75 9C3.62283 9 2.54183 9.44777 1.7448 10.2448C0.947766 11.0418 0.5 12.1228 0.5 13.25C0.5 14.3772 0.947766 15.4582 1.7448 16.2552C2.54183 17.0522 3.62283 17.5 4.75 17.5M13.25 9C15.5972 9 17.5 10.9028 17.5 13.25C17.5 15.5972 15.5972 17.5 13.25 17.5C10.9028 17.5 9 15.5972 9 13.25C9 10.9028 10.9028 9 13.25 9ZM9 17.5H4.75M9 17.5V21.75C9 22.8772 8.55223 23.9582 7.7552 24.7552C6.95817 25.5522 5.87717 26 4.75 26C3.62283 26 2.54183 25.5522 1.7448 24.7552C0.947766 23.9582 0.5 22.8772 0.5 21.75C0.5 20.6228 0.947766 19.5418 1.7448 18.7448C2.54183 17.9478 3.62283 17.5 4.75 17.5" stroke="white"/>
</svg>
