<svg width="38" height="31" viewBox="0 0 38 31" fill="none" xmlns="http://www.w3.org/2000/svg">
<path d="M14.8033 13.9179L9.61451 16.94L8.79005 12.5447L13.7961 8.48548L14.8033 13.9179Z" fill="#5C5C5C"/>
<path d="M24.7228 7.8443L19.7173 10.7136L18.5579 4.05975L23.5628 0L24.7228 7.8443Z" fill="#5C5C5C"/>
<path d="M31.2547 13.5829L25.8827 15.4135L24.7227 7.8748L29.85 5.06697L31.2547 13.5829Z" fill="#5C5C5C"/>
<path d="M38 21.3962L32.4137 21.9151L31.1933 13.1854L36.5953 11.9041L38 21.3962Z" fill="#5C5C5C"/>
<path d="M27.2869 22.6781L21.8839 23.7462L20.8463 17.2147L26.066 15.017L27.2869 22.6781Z" fill="#5C5C5C"/>
<path d="M33.9098 30.4298L28.3252 30.2775L27.1951 22.6165L32.5965 21.7012L33.9098 30.4298Z" fill="#5C5C5C"/>
<path d="M20.8768 17.2744L15.7185 19.3497L14.7728 13.857L19.8087 10.651L20.8768 17.2744Z" fill="#5C5C5C"/>
<path d="M16.7568 24.9045L11.3847 25.8824L10.4689 21.4871L15.7496 19.4417L16.7568 24.9045Z" fill="#5C5C5C"/>
<path d="M23.0744 30.3684H17.6415L16.6648 24.8137L21.9759 23.7761L23.0744 30.3684Z" fill="#5C5C5C"/>
<path d="M12.3005 30.3075L6.77621 30.0633L5.9822 26.5844L11.3542 25.7904L12.3005 30.3075Z" fill="#5C5C5C"/>
<path d="M10.6212 21.487L5.37153 23.3485L4.48671 19.6858L9.645 16.9693L10.6212 21.487Z" fill="#5C5C5C"/>
<path d="M6.10457 26.7367L0.671642 27.0722L0 24.4477L5.34101 23.3181L6.10457 26.7367Z" fill="#5C5C5C"/>
</svg>
