<svg width="77" height="24" viewBox="0 0 77 24" fill="none" xmlns="http://www.w3.org/2000/svg">
<path d="M49.4368 0.0304402C50.7974 -0.0324802 52.5089 0.0405878 53.8936 0.0183783C54.8219 0.00346794 57.2838 -0.0413793 58.0688 0.133447C58.8024 0.29149 59.4833 0.646295 60.0435 1.16254C61.9925 2.98133 62.076 6.46311 60.3333 8.45763C59.8213 9.0471 59.1633 9.4802 58.4313 9.71018C57.4413 10.0129 56.4221 9.88922 55.4047 9.91428C53.9744 9.94949 52.4096 9.85675 50.9914 9.92771L50.9952 13.6668C50.9956 14.208 50.9926 14.7596 50.9933 15.3001C50.9941 16.1983 50.6967 16.7111 49.8319 16.9476C48.0611 17.0468 48.2581 15.393 48.2603 14.1463L48.2566 9.70249C48.2562 8.25295 48.1141 6.95718 50.094 7.06776C50.3233 7.0806 50.6704 7.07065 50.9076 7.07096L54.9858 7.07537C55.6806 7.07604 56.9962 7.14415 57.6383 6.9815C59.1535 6.59777 59.2614 3.59141 57.8053 3.00858C57.2891 2.80202 56.3183 2.86919 55.7359 2.86978L51.6471 2.8745C50.9832 2.8754 49.4413 2.97724 48.9266 2.6679C48.6224 2.48172 48.4017 2.17824 48.3122 1.82363C48.2152 1.44646 48.2675 1.04454 48.4577 0.707731C48.6886 0.300115 49.0198 0.144376 49.4368 0.0304402Z" fill="#B4B4BF"/>
<path d="M19.1019 0.0275547C19.7351 -0.0060132 20.5567 0.0179138 21.2003 0.0176406L28.396 0.016665C29.0069 0.0167821 30.3818 -0.0803697 30.8756 0.232866C31.1946 0.437826 31.4215 0.766556 31.506 1.14599C31.6949 1.99748 31.1293 2.68879 30.3429 2.86073C29.6887 2.8948 28.8935 2.87392 28.2314 2.87415L21.1284 2.87478C20.5852 2.8747 19.0213 2.94551 18.6095 2.70081C18.2798 2.50401 18.0397 2.17856 17.9426 1.7969C17.7127 0.900281 18.2922 0.231265 19.1019 0.0275547Z" fill="#B4B4BF"/>
<path d="M34.3711 0.0268908C34.7928 -0.00960455 35.6763 0.0175229 36.1279 0.0172887L43.3956 0.0161571C44.0472 0.0163133 45.6657 -0.0943442 46.1835 0.261398C46.4824 0.470222 46.6884 0.794972 46.755 1.16281C46.9196 2.04233 46.3933 2.7087 45.5699 2.86162C44.898 2.89675 44.0648 2.87419 43.3836 2.87443L36.302 2.87478C35.7035 2.87462 34.2916 2.96623 33.8236 2.66892C33.5065 2.4665 33.2797 2.14191 33.1926 1.76626C32.988 0.877292 33.5631 0.215223 34.3711 0.0268908Z" fill="#B4B4BF"/>
<path d="M19.0473 14.1235C19.6078 14.0911 20.3179 14.1106 20.8869 14.1102L28.0465 14.1094C28.5379 14.1096 30.3908 14.0379 30.7379 14.2364C31.9631 14.9368 31.7443 16.5139 30.4121 16.9402C29.9495 16.9839 29.1017 16.9586 28.6169 16.9588L21.3485 16.959C20.7435 16.9589 19.0637 17.0497 18.6044 16.7775C18.2729 16.5798 18.0323 16.2517 17.937 15.8673C17.7274 15.02 18.2719 14.3315 19.0473 14.1235Z" fill="#B4B4BF"/>
<path d="M34.316 14.1223C34.913 14.0883 35.7048 14.1109 36.3134 14.1108H43.4855C44.0532 14.1104 45.6458 14.0277 46.0831 14.2857C46.4057 14.4732 46.6418 14.7876 46.7384 15.1579C46.8347 15.5252 46.7869 15.9171 46.6053 16.2478C46.3767 16.656 46.044 16.8329 45.6225 16.9472C44.9706 16.9796 44.166 16.9582 43.505 16.9584H36.3791C35.6898 16.9586 34.9002 16.9881 34.215 16.915C33.775 16.8681 33.3206 16.3555 33.2053 15.9059C33.1092 15.5273 33.1647 15.1245 33.3592 14.7891C33.5863 14.4012 33.9055 14.2255 34.316 14.1223Z" fill="#B4B4BF"/>
<path d="M18.9699 7.09524C19.4051 7.04649 20.1475 7.0696 20.6125 7.0694L27.7432 7.06905C28.3387 7.06855 30.3911 6.99836 30.7794 7.2141C31.1203 7.40028 31.3745 7.72136 31.4844 8.10466C31.7261 8.95093 31.2052 9.64465 30.4376 9.88786C30.095 9.93306 29.3897 9.91319 29.0289 9.91339L21.9348 9.91409C21.4159 9.91444 19.1046 9.97385 18.7346 9.80347C18.3771 9.63727 18.1012 9.32583 17.9714 8.94214C17.6851 8.09592 18.1914 7.35934 18.9699 7.09524Z" fill="#B4B4BF"/>
<path d="M34.2387 7.0938C34.6848 7.04599 35.5082 7.0696 35.9813 7.06941L43.2226 7.06937C43.8302 7.06941 45.6451 6.97983 46.1007 7.25309C46.4158 7.43803 46.6444 7.74814 46.7339 8.11192C46.9538 8.99043 46.4726 9.67389 45.6556 9.89356C45.292 9.93396 44.5604 9.91343 44.1769 9.9137L37.0223 9.91507C36.2448 9.91484 35.4672 9.91214 34.6897 9.90871C34.0091 9.9057 33.4589 9.6571 33.2267 8.93426C33.1102 8.56517 33.1439 8.16263 33.3201 7.81996C33.525 7.4127 33.8306 7.22374 34.2387 7.0938Z" fill="#B4B4BF"/>
<path d="M77 19.6734C76.7488 20.7062 76.7628 21.177 76.0901 22.1505C75.4371 23.1046 74.4411 23.7447 73.3271 23.9259C72.7928 24.0151 72.0427 23.9881 71.4814 23.9876L68.7233 23.984L66.2813 23.988C65.3101 23.9915 63.9032 24.1925 63.7126 22.8009C63.6566 22.411 63.7551 22.0142 63.9859 21.7011C64.163 21.459 64.4153 21.2877 64.7003 21.2163C65.0966 21.1175 66.1546 21.1522 66.6174 21.1528L70.6866 21.1582C71.3694 21.1589 72.148 21.1872 72.8094 21.1267C74.5708 20.9692 74.7186 17.9293 73.385 17.1703C72.8312 16.855 71.1066 16.9566 70.4479 16.9568L66.3978 16.9563C66.017 16.9573 65.1477 16.9968 64.8044 16.933C64.5935 16.8937 64.3946 16.8013 64.2258 16.6639C63.5239 16.0965 63.687 15.08 63.6901 14.2408L63.6972 11.67L63.6882 9.56526C63.6855 9.15534 63.6682 8.74476 63.7089 8.33039C63.7577 7.71618 64.2909 7.107 64.9003 7.08744C65.5583 7.06632 66.2448 7.07651 66.9084 7.0771L73.8576 7.07768C74.434 7.07796 74.9991 7.06543 75.5743 7.10403C76.2627 7.15024 76.7819 7.69307 76.818 8.40034C76.8383 8.78215 76.7109 9.15655 76.4639 9.44024C76.2522 9.68298 75.9687 9.84575 75.6581 9.90285C75.4848 9.93591 73.5933 9.9153 73.2944 9.91515L68.9515 9.91417C68.1412 9.91417 67.2359 9.89493 66.4328 9.92916L66.4336 14.1107L70.708 14.1115C71.4532 14.111 72.6981 14.0688 73.3887 14.2024C73.988 14.3148 74.5577 14.5576 75.0603 14.915C76.2935 15.8007 76.741 17.0282 77 18.4873V19.6734Z" fill="#B4B4BF"/>
<path d="M0 1.28514C0.217501 0.560973 0.60242 0.033332 1.40836 0.0174848C2.55479 -0.00507596 3.70617 0.0242369 4.85412 0.0222853L7.62706 0.0163139C8.18328 0.0157284 8.73879 0.00632189 9.29373 0.0368843C11.9911 0.185442 14.2525 1.69865 15.4862 4.20075C17.4719 8.22777 16.4359 13.9948 12.3521 16.1459C11.6073 16.5321 10.8047 16.7841 9.97857 16.8911C9.1786 16.9963 1.40962 17.0384 0.935133 16.8755C0.585896 16.7556 0.312869 16.4838 0.154767 16.1424C0.0888222 16 0.0436892 15.8496 0 15.6986V15.3729C0.458774 13.7803 1.56492 14.1104 2.88484 14.1116L7.1128 14.1136C7.78403 14.1137 8.82357 14.146 9.46438 14.0842C9.83359 14.0525 10.1978 13.9752 10.5494 13.8539C15.1737 12.2448 14.6732 3.4737 9.55451 2.91772C8.71548 2.82658 7.78328 2.87248 6.93064 2.87306L2.79212 2.87142C1.47612 2.87798 0.474475 3.17217 0 1.61079V1.28514Z" fill="#B4B4BF"/>
</svg>
