<svg width="61" height="35" viewBox="0 0 61 35" fill="none" xmlns="http://www.w3.org/2000/svg">
<path d="M5.81496 16.2884C4.23679 16.2884 2.9663 15.8504 2.00347 14.9745C1.04789 14.0985 0.570094 12.9402 0.570094 11.4996V4.6802H3.05679V11.1738C3.05679 11.9846 3.31016 12.6398 3.81691 13.1393C4.32366 13.6316 4.98968 13.8777 5.81496 13.8777C6.64024 13.8777 7.30263 13.6316 7.80214 13.1393C8.30165 12.647 8.55141 11.9919 8.55141 11.1738V4.6802H11.0381V11.4996C11.0381 12.9402 10.5603 14.0985 9.60472 14.9745C8.64914 15.8504 7.38588 16.2884 5.81496 16.2884Z" fill="#B4B4BF"/>
<path d="M19.4894 4.4956H19.9129V7.05831H19.4894C18.389 7.05831 17.5239 7.36959 16.8941 7.99217C16.2715 8.60751 15.9602 9.44365 15.9602 10.5006V16.0169H13.4627V4.6802H15.9602V6.34162C16.8651 5.11094 18.0415 4.4956 19.4894 4.4956Z" fill="#B4B4BF"/>
<path d="M27.919 4.40873C28.9614 4.40873 29.9098 4.66934 30.764 5.19057C31.6182 5.70456 32.2879 6.41763 32.7729 7.32978C33.2579 8.23469 33.5004 9.24095 33.5004 10.3486C33.5004 11.4562 33.2579 12.4661 32.7729 13.3782C32.2879 14.2831 31.6182 14.9962 30.764 15.5174C29.9098 16.0314 28.9614 16.2884 27.919 16.2884C27.0937 16.2884 26.3408 16.1219 25.6603 15.7889C24.9798 15.4559 24.4007 14.9817 23.9229 14.3664V16.0169H21.4253V0H23.9229V6.3199C24.3934 5.7118 24.969 5.24124 25.6494 4.90824C26.3372 4.57523 27.0937 4.40873 27.919 4.40873ZM24.9219 12.8678C25.5951 13.5411 26.4313 13.8777 27.4303 13.8777C28.4293 13.8777 29.2618 13.5411 29.9279 12.8678C30.5939 12.1873 30.9269 11.3476 30.9269 10.3486C30.9269 9.34954 30.5939 8.50978 29.9279 7.82929C29.2618 7.1488 28.4293 6.80855 27.4303 6.80855C26.4313 6.80855 25.5951 7.1488 24.9219 7.82929C24.2559 8.50978 23.9229 9.34954 23.9229 10.3486C23.9229 11.3476 24.2559 12.1873 24.9219 12.8678Z" fill="#B4B4BF"/>
<path d="M44.3841 4.6802H46.8817V16.0169H44.3841V14.3881C43.3851 15.655 42.0603 16.2884 40.4098 16.2884C39.3601 16.2884 38.4081 16.0314 37.5539 15.5174C36.6996 14.9962 36.03 14.2831 35.545 13.3782C35.0672 12.4733 34.8283 11.4634 34.8283 10.3486C34.8283 9.23371 35.0672 8.22383 35.545 7.31892C36.03 6.41401 36.6996 5.70456 37.5539 5.19057C38.4081 4.66934 39.3601 4.40873 40.4098 4.40873C42.0676 4.40873 43.3924 5.03854 44.3841 6.29818V4.6802ZM40.8984 13.8777C41.8974 13.8777 42.7263 13.5411 43.3851 12.8678C44.0511 12.1873 44.3841 11.3476 44.3841 10.3486C44.3841 9.3423 44.0511 8.50254 43.3851 7.82929C42.7263 7.1488 41.8974 6.80855 40.8984 6.80855C39.8922 6.80855 39.0524 7.1488 38.3792 7.82929C37.7131 8.50254 37.3801 9.3423 37.3801 10.3486C37.3801 11.3476 37.7131 12.1873 38.3792 12.8678C39.0524 13.5411 39.8922 13.8777 40.8984 13.8777Z" fill="#B4B4BF"/>
<path d="M55.8325 4.40873C57.179 4.40873 58.2613 4.81775 59.0793 5.63579C59.9046 6.45382 60.3172 7.5361 60.3172 8.88261V16.0169H57.8305V9.69703C57.8305 8.82831 57.5735 8.12972 57.0596 7.60125C56.5456 7.07278 55.8615 6.80855 55.0072 6.80855C54.1095 6.80855 53.3856 7.0764 52.8354 7.61211C52.2852 8.14782 52.0102 8.85727 52.0102 9.74046V16.0169H49.5126V4.6802H52.0102V6.14616C52.944 4.98787 54.2181 4.40873 55.8325 4.40873Z" fill="#B4B4BF"/>
<path d="M8.03501 24.8212H4.65366V30.4835C4.65366 31.0337 4.80267 31.4502 5.10068 31.7329C5.40634 32.008 5.83808 32.1455 6.39591 32.1455C6.92317 32.1455 7.46954 32.008 8.03501 31.7329V34.1973C7.38548 34.5259 6.65572 34.6902 5.84573 34.6902C4.58488 34.6902 3.63352 34.3577 2.99164 33.6929C2.34975 33.0281 2.02881 32.0997 2.02881 30.9076V24.8212H0V22.4371H2.02881V19.3308H4.65366V22.4371H8.03501V24.8212Z" fill="#B4B4BF"/>
<path d="M16.4171 22.2422H16.8641V24.9473H16.4171C15.2556 24.9473 14.3424 25.2759 13.6776 25.933C13.0205 26.5826 12.6919 27.4651 12.6919 28.5808V34.4036H10.0556V22.4371H12.6919V24.1908C13.6471 22.8917 14.8888 22.2422 16.4171 22.2422Z" fill="#B4B4BF"/>
<path d="M27.4584 22.4371H30.0947V34.4036H27.4584V32.6843C26.4039 34.0215 25.0055 34.6902 23.2632 34.6902C22.1552 34.6902 21.1504 34.4189 20.2487 33.8763C19.347 33.3262 18.6401 32.5735 18.1282 31.6183C17.6238 30.6631 17.3717 29.5971 17.3717 28.4203C17.3717 27.2435 17.6238 26.1776 18.1282 25.2224C18.6401 24.2672 19.347 23.5183 20.2487 22.9758C21.1504 22.4256 22.1552 22.1505 23.2632 22.1505C25.0131 22.1505 26.4115 22.8153 27.4584 24.1449V22.4371ZM23.779 32.1455C24.8336 32.1455 25.7085 31.7902 26.4039 31.0796C27.1069 30.3613 27.4584 29.4748 27.4584 28.4203C27.4584 27.3582 27.1069 26.4717 26.4039 25.7611C25.7085 25.0428 24.8336 24.6836 23.779 24.6836C22.7169 24.6836 21.8305 25.0428 21.1198 25.7611C20.4168 26.4717 20.0653 27.3582 20.0653 28.4203C20.0653 29.4748 20.4168 30.3613 21.1198 31.0796C21.8305 31.7902 22.7169 32.1455 23.779 32.1455Z" fill="#B4B4BF"/>
<path d="M36.9294 34.6902C35.0037 34.6902 33.3455 34.0788 31.9548 32.8562L33.3188 30.9993C34.3046 31.9392 35.4928 32.4092 36.8836 32.4092C37.5789 32.4092 38.1482 32.2946 38.5914 32.0653C39.0346 31.8284 39.2562 31.5037 39.2562 31.091C39.2562 30.9076 39.2066 30.7433 39.1072 30.5981C39.0155 30.453 38.9009 30.3307 38.7634 30.2314C38.6334 30.132 38.4386 30.0365 38.1788 29.9448C37.919 29.8531 37.6897 29.7805 37.491 29.727C37.3 29.6735 37.0287 29.6048 36.6772 29.5207C36.3257 29.4366 36.0392 29.3679 35.8176 29.3144C35.596 29.2532 35.3171 29.1654 34.9808 29.0507C34.6446 28.9361 34.3657 28.8215 34.1441 28.7069C33.9301 28.5923 33.6971 28.4394 33.4449 28.2484C33.1927 28.0574 32.994 27.851 32.8489 27.6294C32.7037 27.4078 32.5814 27.1442 32.4821 26.8385C32.3827 26.5329 32.3331 26.1967 32.3331 25.8299C32.3331 25.0352 32.5547 24.3551 32.9979 23.7896C33.4411 23.2241 34.0142 22.8115 34.7172 22.5517C35.4202 22.2842 36.2149 22.1505 37.1013 22.1505C38.8512 22.1505 40.3681 22.6816 41.6518 23.7437L40.2649 25.6006C39.3479 24.8212 38.3087 24.4315 37.1472 24.4315C36.5282 24.4315 36.0162 24.5346 35.6112 24.741C35.2139 24.9473 35.0152 25.2491 35.0152 25.6465C35.0152 25.7993 35.042 25.9368 35.0954 26.0591C35.1489 26.1814 35.2406 26.2922 35.3705 26.3915C35.5081 26.4909 35.638 26.5749 35.7603 26.6437C35.8825 26.7125 36.0621 26.785 36.299 26.8615C36.5435 26.9302 36.746 26.9875 36.9065 27.0334C37.0746 27.0716 37.3115 27.1251 37.6171 27.1939C37.961 27.2703 38.2437 27.3391 38.4653 27.4002C38.6946 27.4537 38.9735 27.5377 39.3021 27.6524C39.6383 27.7593 39.9172 27.874 40.1388 27.9962C40.3604 28.1108 40.5935 28.2637 40.838 28.4547C41.0825 28.6381 41.2774 28.8406 41.4226 29.0622C41.5754 29.2762 41.6977 29.536 41.7894 29.8416C41.8887 30.1473 41.9384 30.4797 41.9384 30.8389C41.9384 31.6412 41.713 32.3404 41.2621 32.9364C40.8113 33.5248 40.2114 33.9642 39.4625 34.2546C38.7213 34.545 37.8769 34.6902 36.9294 34.6902Z" fill="#B4B4BF"/>
<path d="M50.4924 22.1505C51.9137 22.1505 53.0561 22.5822 53.9196 23.4457C54.7907 24.3092 55.2263 25.4516 55.2263 26.8729V34.4036H52.6014V27.7326C52.6014 26.8156 52.3302 26.0782 51.7876 25.5204C51.2451 24.9626 50.523 24.6836 49.6213 24.6836C48.6737 24.6836 47.9096 24.9664 47.3288 25.5318C46.7481 26.0973 46.4577 26.8462 46.4577 27.7784V34.4036H43.8214V17.4968H46.4577V24.0532C47.4358 22.7847 48.7807 22.1505 50.4924 22.1505Z" fill="#B4B4BF"/>
<path d="M59.1202 34.587C58.5929 34.587 58.1459 34.4112 57.7791 34.0597C57.42 33.7082 57.2404 33.2688 57.2404 32.7416C57.2404 32.2143 57.42 31.7711 57.7791 31.412C58.1459 31.0452 58.5929 30.8618 59.1202 30.8618C59.6551 30.8618 60.1021 31.0452 60.4613 31.412C60.8204 31.7711 61 32.2143 61 32.7416C61 33.2688 60.8204 33.7082 60.4613 34.0597C60.1021 34.4112 59.6551 34.587 59.1202 34.587Z" fill="#B4B4BF"/>
</svg>
