<svg width="28" height="28" viewBox="0 0 28 28" fill="none" xmlns="http://www.w3.org/2000/svg">
<path d="M9.50746 13.2935L13.2952 9.49534L9.89055 6.07868L8.55556 7.41217C8.40077 7.56697 8.21282 7.65156 7.99171 7.66593C7.77059 7.68031 7.56772 7.59572 7.38308 7.41217C7.19956 7.22862 7.10779 7.03125 7.10779 6.82006C7.10779 6.60887 7.19956 6.4115 7.38308 6.22795L8.70647 4.90441L5.46932 1.66689L1.67164 5.46501L9.50746 13.2935ZM22.4992 26.2966L26.2968 22.4985L23.0614 19.261L21.728 20.5845C21.5666 20.746 21.3764 20.8322 21.1575 20.8433C20.9386 20.8543 20.7374 20.7681 20.5539 20.5845C20.3704 20.401 20.2792 20.2053 20.2803 19.9974C20.2814 19.7895 20.3726 19.5938 20.5539 19.4103L21.8773 18.0768L18.4942 14.7032L14.7048 18.4914L22.4992 26.2966ZM20.1609 4.99066L23.0265 7.85501L25.9221 4.95915L23.0481 2.08485L20.1609 4.99066ZM2.37811 26.9634C1.99337 26.9634 1.67385 26.8362 1.41957 26.5819C1.16528 26.3276 1.03759 26.0081 1.03648 25.6233V22.2779C1.03648 22.0999 1.06744 21.9335 1.12935 21.7787C1.19127 21.6239 1.29409 21.4746 1.43781 21.3309L8.32338 14.4445L0.449419 6.53811C0.149806 6.23846 0 5.88131 0 5.46667C0 5.05203 0.149806 4.69433 0.449419 4.39358L4.39801 0.44618C4.69762 0.146531 5.05473 -0.00218712 5.46932 2.43014e-05C5.88391 0.00223573 6.24102 0.153719 6.54063 0.454473L14.4892 8.36088L21.8972 0.942092C22.0796 0.759649 22.272 0.628069 22.4743 0.547352C22.6766 0.466635 22.8922 0.426277 23.1211 0.426277C23.3499 0.426277 23.5655 0.466635 23.7678 0.547352C23.9701 0.628069 24.1631 0.759649 24.3466 0.942092L27.0531 3.75668C27.2366 3.93913 27.3637 4.13152 27.4345 4.33387C27.5052 4.53621 27.5401 4.75183 27.539 4.98071C27.5379 5.20959 27.5025 5.41857 27.4328 5.60765C27.3632 5.79673 27.2371 5.98249 27.0547 6.16493L19.7081 13.5522L27.5522 21.4586C27.8507 21.7582 28 22.1154 28 22.53C28 22.9447 27.8507 23.3018 27.5522 23.6015L23.6036 27.5489C23.304 27.8496 22.9469 28 22.5323 28C22.1177 28 21.7606 27.8502 21.461 27.5505L13.5539 19.6756L6.66832 26.562C6.5246 26.7058 6.37534 26.8086 6.22056 26.8705C6.06578 26.9324 5.89939 26.9634 5.72139 26.9634H2.37811Z" fill="#171717"/>
</svg>
