<svg width="13" height="13" viewBox="0 0 13 13" fill="none" xmlns="http://www.w3.org/2000/svg">
<rect width="13" height="13" fill="#1E1E1E"/>
<g id="About">
<path d="M-561.201 -5802.44C-561.201 -5803.54 -560.306 -5804.44 -559.201 -5804.44H2418.8C2419.9 -5804.44 2420.8 -5803.54 2420.8 -5802.44V4255.56C2420.8 4256.67 2419.9 4257.56 2418.8 4257.56H-559.201C-560.306 4257.56 -561.201 4256.67 -561.201 4255.56V-5802.44Z" fill="#444444"/>
<path d="M-559.201 -5804.44V-5803.44H2418.8V-5804.44V-5805.44H-559.201V-5804.44ZM2420.8 -5802.44H2419.8V4255.56H2420.8H2421.8V-5802.44H2420.8ZM2418.8 4257.56V4256.56H-559.201V4257.56V4258.56H2418.8V4257.56ZM-561.201 4255.56H-560.201V-5802.44H-561.201H-562.201V4255.56H-561.201ZM-559.201 4257.56V4256.56C-559.753 4256.56 -560.201 4256.12 -560.201 4255.56H-561.201H-562.201C-562.201 4257.22 -560.858 4258.56 -559.201 4258.56V4257.56ZM2420.8 4255.56H2419.8C2419.8 4256.12 2419.35 4256.56 2418.8 4256.56V4257.56V4258.56C2420.46 4258.56 2421.8 4257.22 2421.8 4255.56H2420.8ZM2418.8 -5804.44V-5803.44C2419.35 -5803.44 2419.8 -5802.99 2419.8 -5802.44H2420.8H2421.8C2421.8 -5804.09 2420.46 -5805.44 2418.8 -5805.44V-5804.44ZM-559.201 -5804.44V-5805.44C-560.858 -5805.44 -562.201 -5804.09 -562.201 -5802.44H-561.201H-560.201C-560.201 -5802.99 -559.753 -5803.44 -559.201 -5803.44V-5804.44Z" fill="white" fill-opacity="0.1"/>
<g id="Desktop - Personal" clip-path="url(#clip0_136_3016)">
<rect width="1920" height="4235" transform="translate(-481.201 -1298.44)" fill="white"/>
<g id="Content">
<g id="Travel section">
<g id="Travel List Container">
<rect x="-105.201" y="-110.437" width="1168" height="195.395" rx="16" fill="#F7F7F7"/>
<g id="india">
<g id="Airport Code Container">
<g id="Airport Code Icon" clip-path="url(#clip1_136_3016)">
<path id="Vector" d="M6.85297 10.5376L4.83983 12.5552C4.75129 12.6489 4.65413 12.6942 4.54834 12.6912C4.44255 12.6882 4.34665 12.6475 4.26065 12.5691C4.17464 12.4906 4.10424 12.3895 4.04943 12.2656C3.99463 12.1418 3.97336 11.9993 3.98565 11.8381L4.25944 8.33372L2.13208 6.18115C2.03522 6.07913 1.96983 5.95889 1.9359 5.82043C1.90198 5.68198 1.89646 5.54447 1.91934 5.40792C1.94221 5.27136 1.98498 5.15713 2.04764 5.06522C2.1103 4.97331 2.2015 4.91009 2.32124 4.87555L4.83362 4.34269L5.53082 1.00383C5.56166 0.853816 5.61979 0.738241 5.7052 0.657108C5.79061 0.575976 5.88115 0.531226 5.97679 0.522858C6.07244 0.51449 6.16937 0.54284 6.26757 0.607908C6.36577 0.672976 6.44309 0.776701 6.49952 0.919084L7.7659 4.08615L10.3326 4.17464C10.457 4.18832 10.5577 4.23475 10.635 4.31392C10.7123 4.3931 10.7743 4.49817 10.8209 4.62913C10.8675 4.76009 10.8862 4.8967 10.8768 5.03894C10.8674 5.18119 10.8237 5.31073 10.7456 5.42756L9.02439 7.91684L9.90256 11.3204C9.9426 11.4765 9.94641 11.6206 9.91399 11.7526C9.88156 11.8845 9.82979 11.9964 9.75867 12.088C9.68754 12.1797 9.60017 12.2365 9.49656 12.2583C9.39294 12.2801 9.28938 12.2524 9.18588 12.175L6.85297 10.5376Z" fill="#A3A3A3"/>
</g>
</g>
</g>
</g>
</g>
</g>
</g>
</g>
<defs>
<clipPath id="clip0_136_3016">
<rect width="1920" height="4235" fill="white" transform="translate(-481.201 -1298.44)"/>
</clipPath>
<clipPath id="clip1_136_3016">
<rect width="12" height="12" fill="white" transform="translate(0 1.0459) rotate(-5)"/>
</clipPath>
</defs>
</svg>
