<svg width="16" height="16" viewBox="0 0 16 16" fill="none" xmlns="http://www.w3.org/2000/svg">
<path d="M10.2482 4.90135C10.3645 4.90135 10.5628 4.91941 10.843 4.95551C11.1232 4.99162 11.4298 5.09478 11.7629 5.26499C12.1012 5.43005 12.4079 5.706 12.6828 6.09284C12.6669 6.10832 12.5903 6.16505 12.4528 6.26306C12.3154 6.3559 12.162 6.49516 11.9929 6.68085C11.8237 6.86138 11.6757 7.09349 11.5488 7.37718C11.4219 7.65571 11.3584 7.98839 11.3584 8.37524C11.3584 8.81883 11.4377 9.19536 11.5964 9.50484C11.7602 9.81431 11.9479 10.0645 12.1594 10.2553C12.3762 10.441 12.5665 10.5777 12.7304 10.6654C12.8996 10.7531 12.9894 10.7995 13 10.8046C12.9947 10.8253 12.926 11.0084 12.7938 11.354C12.6669 11.6995 12.4555 12.0838 12.1594 12.5068C11.9003 12.873 11.6201 13.2108 11.3188 13.5203C11.0227 13.8298 10.6659 13.9845 10.2482 13.9845C9.96801 13.9845 9.73804 13.9458 9.55829 13.8685C9.37854 13.7859 9.1935 13.706 9.00317 13.6286C8.81285 13.5461 8.55644 13.5048 8.23394 13.5048C7.92202 13.5048 7.66032 13.5461 7.44885 13.6286C7.24266 13.7112 7.04441 13.7937 6.85408 13.8762C6.66905 13.9587 6.44964 14 6.19588 14C5.80994 14 5.47158 13.8504 5.18081 13.5513C4.89003 13.2521 4.59133 12.8936 4.28469 12.4758C3.93048 11.9807 3.62649 11.3772 3.37272 10.6654C3.12424 9.94842 3 9.22631 3 8.49903C3 7.72018 3.15067 7.0677 3.45202 6.54159C3.75337 6.01032 4.13931 5.61057 4.60983 5.34236C5.08565 5.06899 5.57732 4.9323 6.08485 4.9323C6.35448 4.9323 6.60825 4.97614 6.84615 5.06383C7.08406 5.14636 7.30611 5.23146 7.51229 5.31915C7.72376 5.40683 7.91409 5.45068 8.08327 5.45068C8.24716 5.45068 8.43748 5.40426 8.65424 5.31141C8.871 5.21857 9.1142 5.1283 9.38382 5.04062C9.65345 4.94778 9.94158 4.90135 10.2482 4.90135ZM9.81205 3.91876C9.60587 4.16119 9.34681 4.36493 9.03489 4.52998C8.72297 4.68988 8.42691 4.76983 8.14671 4.76983C8.08855 4.76983 8.03304 4.76467 7.98017 4.75435C7.97489 4.73888 7.9696 4.71051 7.96431 4.66925C7.95903 4.62798 7.95638 4.58414 7.95638 4.53772C7.95638 4.22824 8.02511 3.92908 8.16257 3.64023C8.30003 3.34623 8.45599 3.1038 8.63045 2.91296C8.8525 2.65506 9.1327 2.44101 9.47106 2.27079C9.80941 2.10058 10.1319 2.01032 10.4385 2C10.4544 2.06705 10.4623 2.147 10.4623 2.23985C10.4623 2.54932 10.4015 2.85106 10.2799 3.14507C10.1583 3.43391 10.0024 3.69181 9.81205 3.91876Z" fill="#E8342A"/>
</svg>
