<svg width="16" height="16" viewBox="0 0 16 16" fill="none" xmlns="http://www.w3.org/2000/svg">
<path d="M2.68848 7.55273C2.56797 7.67034 2.5 7.8316 2.5 8C2.5 8.1684 2.56797 8.32966 2.68848 8.44727L7.37454 13.0112C7.62189 13.2521 8.01763 13.2471 8.25879 13C8.49935 12.753 8.49413 12.3577 8.24713 12.1171L4.66211 8.625H13.5C13.8452 8.625 14.125 8.34518 14.125 8C14.125 7.65482 13.8452 7.375 13.5 7.375H4.66211L8.24713 3.88288C8.49413 3.64229 8.49935 3.24703 8.25879 3C8.01763 2.75291 7.62189 2.74789 7.37454 2.98879L2.68848 7.55273Z" fill="#5C5C5C"/>
</svg>
