<svg width="16" height="16" viewBox="0 0 16 16" fill="none" xmlns="http://www.w3.org/2000/svg">
<path d="M13.9365 7.55273C14.057 7.67034 14.125 7.8316 14.125 8C14.125 8.1684 14.057 8.32966 13.9365 8.44727L9.25046 13.0112C9.00311 13.2521 8.60737 13.2471 8.36621 13C8.12565 12.753 8.13087 12.3577 8.37787 12.1171L11.9629 8.625H3.125C2.77982 8.625 2.5 8.34518 2.5 8C2.5 7.65482 2.77982 7.375 3.125 7.375H11.9629L8.37787 3.88288C8.13087 3.64229 8.12565 3.24703 8.36621 3C8.60737 2.75291 9.00311 2.74789 9.25046 2.98879L13.9365 7.55273Z" fill="#5C5C5C"/>
</svg>
