<svg width="16" height="16" viewBox="0 0 16 16" fill="none" xmlns="http://www.w3.org/2000/svg">
<path d="M7.25 9.84246V3.00067C7.25 2.58645 7.58579 2.25067 8 2.25067C8.41421 2.25067 8.75 2.58645 8.75 3.00067V9.84246C8.74992 10.2566 8.41417 10.5925 8 10.5925C7.58584 10.5925 7.25008 10.2566 7.25 9.84246Z" fill="#5C5C5C"/>
<path d="M10.101 6.89741C10.3939 6.60454 10.8687 6.60457 11.1616 6.89741C11.4545 7.1903 11.4545 7.66506 11.1616 7.95796L8.90277 10.2177C8.66265 10.4553 8.33818 10.5877 8.00042 10.5878C7.66251 10.5878 7.33733 10.4554 7.0971 10.2177L7.09515 10.2148L4.83832 7.95796C4.54542 7.66506 4.54542 7.1903 4.83832 6.89741C5.13121 6.60452 5.60597 6.60452 5.89886 6.89741L7.99945 8.998L10.101 6.89741Z" fill="#5C5C5C"/>
<path d="M1.98719 11.6844V9.05261C1.98719 8.6384 2.32298 8.30261 2.73719 8.30261C3.1514 8.30261 3.48719 8.6384 3.48719 9.05261V11.6844C3.4873 11.8344 3.5472 11.9778 3.65321 12.0839C3.75935 12.19 3.90349 12.2499 4.0536 12.2499H11.9472C12.0971 12.2498 12.2405 12.1899 12.3466 12.0839C12.4526 11.9778 12.5125 11.8344 12.5126 11.6844V9.05261C12.5126 8.63847 12.8485 8.30273 13.2626 8.30261C13.6768 8.30261 14.0126 8.6384 14.0126 9.05261V11.6844C14.0125 12.232 13.7952 12.7571 13.4081 13.1444C13.0207 13.5318 12.495 13.7498 11.9472 13.7499H4.0536C3.50566 13.7499 2.98011 13.5319 2.59266 13.1444C2.20535 12.7571 1.9873 12.2322 1.98719 11.6844Z" fill="#5C5C5C"/>
</svg>
