<svg width="16" height="16" viewBox="0 0 16 16" fill="none" xmlns="http://www.w3.org/2000/svg">
<path d="M6.8916 8.22461C7.13569 7.98069 7.53137 7.98059 7.77539 8.22461C8.01941 8.46863 8.01931 8.86431 7.77539 9.1084L4.50977 12.375H5.77734C6.12252 12.375 6.40234 12.6548 6.40234 13C6.40234 13.3452 6.12252 13.625 5.77734 13.625H3C2.65482 13.625 2.375 13.3452 2.375 13V10.2227C2.375 9.87748 2.65482 9.59766 3 9.59766C3.34518 9.59766 3.625 9.87748 3.625 10.2227V11.4902L6.8916 8.22461ZM13.625 5.77734C13.625 6.12252 13.3452 6.40234 13 6.40234C12.6548 6.40234 12.375 6.12252 12.375 5.77734V4.50879L9.1084 7.77539C8.86431 8.01931 8.46863 8.01941 8.22461 7.77539C7.98059 7.53137 7.98069 7.13569 8.22461 6.8916L11.4902 3.625H10.2227C9.87748 3.625 9.59766 3.34518 9.59766 3C9.59766 2.65482 9.87748 2.375 10.2227 2.375H13C13.3452 2.375 13.625 2.65482 13.625 3V5.77734Z" fill="#5C5C5C"/>
</svg>
