<svg width="16" height="16" viewBox="0 0 16 16" fill="none" xmlns="http://www.w3.org/2000/svg">
<path d="M11.6605 3.70728C11.8289 3.70524 11.991 3.7712 12.11 3.89028C12.2291 4.00935 12.2951 4.17144 12.293 4.33981L12.2067 10.8806C12.2021 11.2258 11.9187 11.5021 11.5735 11.4979C11.2287 11.4933 10.9529 11.2101 10.9575 10.8654L11.0231 5.86106L4.77381 12.1104C4.52974 12.3545 4.13401 12.3545 3.88993 12.1104C3.64585 11.8663 3.64585 11.4706 3.88993 11.2265L10.1393 4.97718L5.13496 5.04287C4.79019 5.04739 4.50701 4.77159 4.50243 4.42682C4.49824 4.08157 4.77452 3.79819 5.11976 3.79364L11.6605 3.70728Z" fill="#5C5C5C"/>
</svg>
