<svg width="16" height="16" viewBox="0 0 16 16" fill="none" xmlns="http://www.w3.org/2000/svg">
<path d="M5.8916 9.22461C6.13569 8.98069 6.53137 8.98059 6.77539 9.22461C7.01941 9.46863 7.01931 9.86431 6.77539 10.1084L4.50977 12.375H5.77734C6.12252 12.375 6.40234 12.6548 6.40234 13C6.40234 13.3452 6.12252 13.625 5.77734 13.625H3C2.65482 13.625 2.375 13.3452 2.375 13V10.2227C2.375 9.87748 2.65482 9.59766 3 9.59766C3.34518 9.59766 3.625 9.87748 3.625 10.2227V11.4902L5.8916 9.22461ZM9.22461 9.22461C9.46863 8.98059 9.86431 8.98069 10.1084 9.22461L12.375 11.4902V10.2227C12.375 9.87748 12.6548 9.59766 13 9.59766C13.3452 9.59766 13.625 9.87748 13.625 10.2227V13C13.625 13.3452 13.3452 13.625 13 13.625H10.2227C9.87748 13.625 9.59766 13.3452 9.59766 13C9.59766 12.6548 9.87748 12.375 10.2227 12.375H11.4902L9.22461 10.1084C8.98069 9.86431 8.98059 9.46863 9.22461 9.22461ZM2.375 5.77734V3C2.375 2.65482 2.65482 2.375 3 2.375H5.77734C6.12252 2.375 6.40234 2.65482 6.40234 3C6.40234 3.34518 6.12252 3.625 5.77734 3.625H4.50977L6.77539 5.8916C7.01931 6.13569 7.01941 6.53137 6.77539 6.77539C6.53137 7.01941 6.13569 7.01931 5.8916 6.77539L3.625 4.50879V5.77734C3.625 6.12252 3.34518 6.40234 3 6.40234C2.65482 6.40234 2.375 6.12252 2.375 5.77734ZM13.625 5.77734C13.625 6.12252 13.3452 6.40234 13 6.40234C12.6548 6.40234 12.375 6.12252 12.375 5.77734V4.50879L10.1084 6.77539C9.86431 7.01931 9.46863 7.01941 9.22461 6.77539C8.98059 6.53137 8.98069 6.13569 9.22461 5.8916L11.4902 3.625H10.2227C9.87748 3.625 9.59766 3.34518 9.59766 3C9.59766 2.65482 9.87748 2.375 10.2227 2.375H13C13.3452 2.375 13.625 2.65482 13.625 3V5.77734Z" fill="#5C5C5C"/>
</svg>
