<svg width="16" height="16" viewBox="0 0 16 16" fill="none" xmlns="http://www.w3.org/2000/svg">
<path d="M6.33333 10.5C6.33333 10.0398 5.96024 9.66667 5.5 9.66667H3.83333C3.3731 9.66667 3 10.0398 3 10.5V12.1667C3 12.6269 3.3731 13 3.83333 13H5.5C5.96024 13 6.33333 12.6269 6.33333 12.1667V10.5ZM7.33333 12.1667C7.33333 13.1792 6.51252 14 5.5 14H3.83333C2.82081 14 2 13.1792 2 12.1667V10.5C2 9.48748 2.82081 8.66667 3.83333 8.66667H5.5C6.51252 8.66667 7.33333 9.48748 7.33333 10.5V12.1667Z" fill="#5C5C5C"/>
<path d="M13 10.5C13 10.0398 12.6269 9.66667 12.1667 9.66667H10.5C10.0398 9.66667 9.66667 10.0398 9.66667 10.5V12.1667C9.66667 12.6269 10.0398 13 10.5 13H12.1667C12.6269 13 13 12.6269 13 12.1667V10.5ZM14 12.1667C14 13.1792 13.1792 14 12.1667 14H10.5C9.48748 14 8.66667 13.1792 8.66667 12.1667V10.5C8.66667 9.48748 9.48748 8.66667 10.5 8.66667H12.1667C13.1792 8.66667 14 9.48748 14 10.5V12.1667Z" fill="#5C5C5C"/>
<path d="M6.33333 3.83333C6.33333 3.3731 5.96024 3 5.5 3H3.83333C3.3731 3 3 3.3731 3 3.83333V5.5C3 5.96024 3.3731 6.33333 3.83333 6.33333H5.5C5.96024 6.33333 6.33333 5.96024 6.33333 5.5V3.83333ZM7.33333 5.5C7.33333 6.51252 6.51252 7.33333 5.5 7.33333H3.83333C2.82081 7.33333 2 6.51252 2 5.5V3.83333C2 2.82081 2.82081 2 3.83333 2H5.5C6.51252 2 7.33333 2.82081 7.33333 3.83333V5.5Z" fill="#5C5C5C"/>
<path d="M13 3.83333C13 3.3731 12.6269 3 12.1667 3H10.5C10.0398 3 9.66667 3.3731 9.66667 3.83333V5.5C9.66667 5.96024 10.0398 6.33333 10.5 6.33333H12.1667C12.6269 6.33333 13 5.96024 13 5.5V3.83333ZM14 5.5C14 6.51252 13.1792 7.33333 12.1667 7.33333H10.5C9.48748 7.33333 8.66667 6.51252 8.66667 5.5V3.83333C8.66667 2.82081 9.48748 2 10.5 2H12.1667C13.1792 2 14 2.82081 14 3.83333V5.5Z" fill="#5C5C5C"/>
</svg>
