<svg width="16" height="16" viewBox="0 0 16 16" fill="none" xmlns="http://www.w3.org/2000/svg">
<path d="M7.99999 13.1451C7.92543 13.1451 7.83754 13.1212 7.73635 13.0732C7.64047 13.0306 7.54993 12.9827 7.46471 12.9294C6.3462 12.2157 5.37682 11.4647 4.55658 10.6764C3.73634 9.88283 3.10519 9.07058 2.66311 8.23968C2.22103 7.40346 1.99999 6.55926 1.99999 5.70706C1.99999 4.98269 2.15179 4.34354 2.45539 3.78961C2.75898 3.23036 3.16644 2.79361 3.67776 2.47936C4.18907 2.15979 4.76164 2 5.39547 2C5.992 2 6.50599 2.1518 6.93741 2.45539C7.37416 2.75899 7.72836 3.15579 7.99999 3.64581C8.27696 3.15047 8.63115 2.75366 9.06258 2.45539C9.494 2.1518 10.008 2 10.6045 2C11.2383 2 11.8109 2.15979 12.3222 2.47936C12.8389 2.79361 13.2463 3.23036 13.5446 3.78961C13.8482 4.34354 14 4.98269 14 5.70706C14 6.55926 13.779 7.40346 13.3369 8.23968C12.8948 9.07058 12.2636 9.88283 11.4434 10.6764C10.6285 11.4647 9.66178 12.2157 8.54327 12.9294C8.45805 12.9827 8.36484 13.0306 8.26364 13.0732C8.16245 13.1212 8.07456 13.1451 7.99999 13.1451Z" fill="white"/>
</svg>
