<svg width="16" height="16" viewBox="0 0 16 16" fill="none" xmlns="http://www.w3.org/2000/svg">
<path d="M8 13.6451C7.92543 13.6451 7.83755 13.6212 7.73635 13.5732C7.64048 13.5306 7.54993 13.4827 7.46471 13.4294C6.3462 12.7157 5.37683 11.9647 4.55659 11.1764C3.73635 10.3828 3.10519 9.57058 2.66311 8.73968C2.22103 7.90346 2 7.05926 2 6.20706C2 5.48269 2.15179 4.84354 2.45539 4.28961C2.75898 3.73036 3.16644 3.29361 3.67776 2.97936C4.18908 2.65979 4.76165 2.5 5.39547 2.5C5.99201 2.5 6.50599 2.6518 6.93741 2.95539C7.37417 3.25899 7.72836 3.65579 8 4.14581C8.27696 3.65047 8.63116 3.25366 9.06258 2.95539C9.49401 2.6518 10.008 2.5 10.6045 2.5C11.2383 2.5 11.8109 2.65979 12.3222 2.97936C12.8389 3.29361 13.2463 3.73036 13.5446 4.28961C13.8482 4.84354 14 5.48269 14 6.20706C14 7.05926 13.779 7.90346 13.3369 8.73968C12.8948 9.57058 12.2636 10.3828 11.4434 11.1764C10.6285 11.9647 9.66178 12.7157 8.54327 13.4294C8.45805 13.4827 8.36484 13.5306 8.26365 13.5732C8.16245 13.6212 8.07456 13.6451 8 13.6451Z" fill="#5C5C5C"/>
</svg>
