<svg width="16" height="16" viewBox="0 0 16 16" fill="none" xmlns="http://www.w3.org/2000/svg">
<path d="M11.5373 3.17884C11.5669 2.99297 11.6499 2.97324 11.8262 3.02419C12.416 3.19472 12.8806 3.59963 12.9378 4.17697C12.9642 4.44246 12.9176 4.65713 12.8286 4.91081C12.9556 5.30543 13.0437 5.60967 13.1186 6.01423C13.1341 5.62933 13.1416 5.29601 13.3517 4.9356C13.5366 4.61822 13.9118 4.3183 14.2877 4.19222C14.3254 4.17959 14.3903 4.17499 14.4229 4.19766C14.5269 4.28004 14.5462 4.4651 14.5674 4.57561C14.7305 5.42935 14.3185 6.1389 13.3407 6.30168C13.2197 6.32182 13.2034 6.26925 13.1663 6.27371C13.1585 6.34966 13.1805 6.46828 13.1853 6.54969C13.1955 6.72377 13.2075 6.89692 13.2071 7.07147C13.2068 7.24112 13.1992 7.41071 13.1847 7.57984C13.1795 7.64706 13.1606 7.75693 13.1652 7.81301C13.187 7.80552 13.2051 7.72211 13.2124 7.69799C13.4151 7.026 13.8923 6.54176 14.6562 6.3856C15.043 6.30656 15.0135 6.47988 14.9847 6.76425C14.9276 7.32895 14.6542 7.91322 14.0185 8.10614C13.8012 8.17184 13.3049 8.26292 13.1187 8.11051C12.9933 8.70224 12.8822 9.08235 12.6173 9.63562C12.8242 9.37798 12.9012 9.2324 13.1872 9.00048C13.5628 8.68244 14.0636 8.58072 14.5648 8.59782C14.7386 8.60337 14.845 8.66437 14.7962 8.83459C14.5713 9.61943 13.8716 10.2898 12.9156 10.0563C12.7437 10.0143 12.6047 10.01 12.4975 9.85787C12.3483 10.2108 11.8981 10.7767 11.6328 11.069C11.5889 11.1116 11.553 11.1467 11.5131 11.1928C11.5681 11.1566 11.6265 11.1209 11.6753 11.0783C11.9005 10.9102 12.1976 10.7407 12.4858 10.6612C12.9011 10.5467 13.4242 10.5873 13.8176 10.7578C13.8628 10.7774 13.9105 10.8214 13.9164 10.8667C13.923 10.9195 13.8951 10.9718 13.8648 11.0143C13.5979 11.3873 13.1797 11.7481 12.6861 11.8404C12.2944 11.9138 11.8983 11.8149 11.5726 11.6138C11.4899 11.5627 11.3595 11.4837 11.3526 11.3926C11.3516 11.3784 11.3519 11.3826 11.338 11.3722C11.2189 11.4797 11.0863 11.6093 10.9642 11.7095C10.4156 12.1564 9.79917 12.53 9.13372 12.8183C8.98932 12.8807 8.84775 12.949 8.69541 12.9924C8.59251 13.0217 8.49238 12.9632 8.49289 12.8703C8.49367 12.7351 8.78333 12.6946 8.87962 12.6354C9.70288 12.2787 10.5 11.8003 11.1247 11.1927C11.1122 11.1886 11.0155 11.1582 11.0114 11.1549C10.433 10.6823 10.1473 9.9514 10.4702 9.2778C10.5204 9.16762 10.6334 9.12646 10.7473 9.19158C11.2796 9.49535 11.7091 9.97312 11.5201 10.5731C11.466 10.7449 11.3969 10.863 11.3065 11.0209C11.4677 10.8349 11.6545 10.6244 11.7985 10.4294C11.8784 10.321 12.2259 9.83405 12.2247 9.74331C12.0669 9.76348 12.0384 9.72264 11.9114 9.65009C11.3085 9.30574 10.9178 8.79296 10.9808 8.12692C10.9935 7.99322 11.0804 7.89961 11.2352 7.93978C11.6097 8.03691 12.0069 8.21611 12.2286 8.5181C12.4628 8.84251 12.4305 9.17541 12.3497 9.5365C12.4452 9.33761 12.5485 9.07134 12.6211 8.86348C12.6601 8.75162 12.849 8.13992 12.8099 8.073C12.6117 8.16926 12.072 7.92845 11.8906 7.83651C11.4947 7.63578 11.2224 7.28812 11.127 6.88761C11.0929 6.74517 11.0523 6.59855 11.2786 6.58923C12.2355 6.58392 12.7933 6.93696 12.8613 7.82435C12.8857 7.65344 12.9081 7.40952 12.9128 7.23847C12.916 7.12057 12.9129 6.35978 12.8557 6.30403C12.8471 6.31284 12.8135 6.34846 12.8022 6.3526C12.6356 6.41351 12.2339 6.37436 12.0753 6.34933C11.6328 6.28446 11.2278 6.07491 10.9816 5.72981C10.8999 5.61068 10.6522 5.31737 10.9188 5.24319C11.4171 5.10451 12.0511 5.0999 12.4399 5.46134C12.642 5.64929 12.717 5.81311 12.8298 6.0445C12.7616 5.69099 12.6673 5.34203 12.5474 5.00002C12.2714 4.83681 12.0406 4.68917 11.8297 4.44087C11.5277 4.08549 11.4891 3.60984 11.5373 3.17884Z" fill="#5C5C5C"/>
<path d="M4.28565 3.00319C4.46758 3.00329 4.45207 3.14676 4.46481 3.27888C4.54418 4.10287 4.20152 4.56791 3.45249 4.99313C3.39052 5.14959 3.16369 5.90076 3.1773 6.0274C3.27738 5.81876 3.32669 5.68081 3.51157 5.49912C3.74485 5.26986 4.06631 5.16208 4.40786 5.15628C4.56761 5.15228 5.05982 5.18592 5.16387 5.29892C5.31783 5.46612 4.81811 5.96049 4.68458 6.05304C4.28128 6.33255 3.78554 6.40311 3.29167 6.37958C3.22331 6.37633 3.18198 6.35141 3.1458 6.30141L3.12599 6.31573C3.10213 6.39524 3.10026 6.5292 3.09457 6.61492C3.06799 7.01501 3.06975 7.41201 3.13121 7.80965C3.19667 6.97839 3.72012 6.60172 4.62628 6.5922C5.01782 6.58808 4.89886 6.79666 4.81515 7.05095C4.62959 7.61459 4.01022 7.97015 3.40389 8.08467C3.29885 8.10449 3.26864 8.12219 3.18275 8.06934C3.12228 8.2424 3.53357 9.31284 3.63611 9.51575C3.53071 9.03149 3.56547 8.59701 4.01904 8.26776C4.21972 8.12207 4.61725 7.94238 4.87184 7.93277C5.08886 7.92458 5.00833 8.46713 4.98177 8.57601C4.88705 9.03609 4.52971 9.37808 4.11343 9.631C4.05587 9.66592 3.89574 9.76619 3.81803 9.75015C3.79521 9.74248 3.79382 9.74295 3.76457 9.7426C3.77546 9.82423 3.99289 10.1406 4.04893 10.2252C4.22843 10.4963 4.45597 10.7558 4.67236 11.0031C4.617 10.8997 4.56609 10.8044 4.51742 10.6967C4.22824 10.0564 4.68821 9.46879 5.29975 9.17081C5.52507 9.06098 5.61238 9.53037 5.63774 9.65271C5.74452 10.1682 5.47829 10.6577 5.11714 11.0411C5.03625 11.1268 5.00604 11.1651 4.87939 11.181C4.87702 11.1869 4.87467 11.1928 4.8723 11.1986C4.91363 11.2377 5.02599 11.3355 5.0618 11.3668C5.49477 11.7446 5.97668 12.0735 6.49698 12.3463C6.70867 12.4566 6.92842 12.5531 7.14858 12.6486C7.23783 12.6873 7.34022 12.7175 7.42328 12.7657C7.45442 12.7837 7.48656 12.8099 7.49731 12.8432C7.50685 12.8726 7.50081 12.9093 7.48349 12.936C7.46454 12.9651 7.43949 12.9812 7.4033 12.9885C7.17086 13.0354 6.31136 12.5552 6.07267 12.4241C5.70203 12.2164 5.35094 11.9648 5.02319 11.7045C4.90586 11.6115 4.76748 11.4582 4.65362 11.3786C4.64953 11.3885 4.64545 11.3983 4.64136 11.4081L4.63547 11.421C4.55577 11.5991 4.09281 11.7869 3.89241 11.8297C3.53292 11.9065 3.16583 11.8559 2.85107 11.6735C2.5667 11.5093 2.20477 11.2032 2.07997 10.9171C1.99193 10.7151 2.63954 10.6248 2.75684 10.6104C3.47249 10.5226 3.92144 10.7948 4.45852 11.1803C4.14733 10.8261 3.67105 10.2789 3.49713 9.85408C3.33974 10.0762 2.79722 10.1168 2.52863 10.0908C2.16111 10.0554 1.82581 9.85573 1.60409 9.59007C1.41401 9.36227 1.20536 9.00895 1.18457 8.71568C1.17868 8.5267 1.89381 8.61459 2.00844 8.63629C2.66287 8.76016 3.03359 9.15075 3.37035 9.64457C3.18064 9.20337 3.00155 8.75367 2.91345 8.28428C2.90711 8.25054 2.89207 8.13682 2.87037 8.11641C2.8589 8.1236 2.79329 8.16454 2.78559 8.16643C2.54654 8.22494 2.15088 8.17126 1.93047 8.09128C1.56784 7.95974 1.32745 7.72371 1.17449 7.39621C1.07308 7.17905 0.946184 6.68092 1.02419 6.43557C1.03282 6.40845 1.08298 6.37402 1.11574 6.36867C1.30709 6.33747 1.68302 6.4802 1.84257 6.55828C2.45732 6.85912 2.64687 7.2888 2.83674 7.86073C2.81045 7.49371 2.76933 7.21725 2.79017 6.83638C2.79627 6.72497 2.83556 6.34885 2.82648 6.28148L2.81572 6.27449C2.7635 6.29699 2.72696 6.31831 2.6656 6.30756C2.00814 6.19237 1.47552 5.7981 1.41267 5.1647C1.3885 4.92106 1.38823 4.44563 1.53731 4.22671C1.6565 4.05168 2.21841 4.45988 2.31459 4.54941C2.66586 4.84399 2.82864 5.25144 2.86075 5.67783C2.86952 5.79431 2.86112 5.91353 2.86499 6.03174C2.95087 5.63303 3.02634 5.31719 3.16429 4.92618C3.01338 4.4563 2.96992 3.99109 3.30104 3.57056C3.52298 3.28868 3.90846 3.06186 4.28565 3.00319Z" fill="#5C5C5C"/>
</svg>
