<svg width="16" height="16" viewBox="0 0 16 16" fill="none" xmlns="http://www.w3.org/2000/svg">
<path d="M13.3333 11.5C13.6095 11.5 13.8333 11.7239 13.8333 12C13.8333 12.2761 13.6095 12.5 13.3333 12.5H2.66667C2.39053 12.5 2.16667 12.2761 2.16667 12C2.16667 11.7239 2.39053 11.5 2.66667 11.5H13.3333ZM13.3333 7.5C13.6095 7.5 13.8333 7.72386 13.8333 8C13.8333 8.27614 13.6095 8.5 13.3333 8.5H2.66667C2.39053 8.5 2.16667 8.27614 2.16667 8C2.16667 7.72386 2.39053 7.5 2.66667 7.5H13.3333ZM13.3333 3.5C13.6095 3.5 13.8333 3.72386 13.8333 4C13.8333 4.27614 13.6095 4.5 13.3333 4.5H2.66667C2.39053 4.5 2.16667 4.27614 2.16667 4C2.16667 3.72386 2.39053 3.5 2.66667 3.5H13.3333Z" fill="#5C5C5C"/>
</svg>
