<svg width="12" height="12" viewBox="0 0 12 12" fill="none" xmlns="http://www.w3.org/2000/svg">
  <path d="M2.51031 2.184C5.20572 -0.372955 8.95362 -0.737438 10.8815 1.36995C11.9219 2.50745 12.2175 4.13217 11.8472 5.78921C6.62995 5.78238 7.09531 3.12186 7.27475 2.27564C7.30301 2.1424 7.22123 2.02817 7.08954 2.00378C6.93688 1.97557 6.79123 2.082 6.76336 2.23746C6.15002 5.65898 4.66679 5.95853 2.19613 5.80448C2.07595 5.79699 1.9678 5.8805 1.94418 6.00074C1.91699 6.13982 2.01226 6.27293 2.14964 6.29628C4.7001 6.72989 4.94315 8.58721 4.7838 9.7205C4.76509 9.8536 4.84244 9.98361 4.96976 10.0191C5.11667 10.0599 5.26562 9.9555 5.28844 9.80221C5.92129 5.52558 8.6257 6.25686 11.7265 6.25733C11.3508 7.51607 10.595 8.76879 9.49126 9.81596C6.79584 12.373 3.04797 12.7374 1.12012 10.63C-0.807622 8.52253 -0.185062 4.74112 2.51031 2.184Z" fill="url(#paint0_linear)" fill-opacity="0.8"/>
  <defs>
    <linearGradient id="paint0_linear" x1="9.8652" y1="0.782859" x2="4.66194" y2="13.4536" gradientUnits="userSpaceOnUse">
      <stop stop-color="#EC6AA8"/>
      <stop offset="0.502906" stop-color="#E8342A"/>
      <stop offset="1" stop-color="#FFCC00"/>
    </linearGradient>
  </defs>
</svg>
