<svg width="16" height="16" viewBox="0 0 16 16" fill="none" xmlns="http://www.w3.org/2000/svg">
<path d="M13.3337 8.66683V7.10483C13.3337 6.5595 13.3337 6.2875 13.2323 6.04216C13.131 5.7975 12.9383 5.60416 12.5523 5.21883L9.39499 2.0615C9.06233 1.72883 8.89633 1.56283 8.68966 1.46416C8.64689 1.44362 8.60304 1.42537 8.55833 1.4095C8.34299 1.3335 8.10766 1.3335 7.63766 1.3335C5.47433 1.3335 4.39233 1.3335 3.65966 1.92416C3.51172 2.04346 3.37695 2.17822 3.25766 2.32616C2.66699 3.06016 2.66699 4.14083 2.66699 6.30416V8.66683M8.66699 1.66683V2.00016C8.66699 3.8855 8.66699 4.82883 9.25299 5.41416C9.83833 6.00016 10.7817 6.00016 12.667 6.00016H13.0003M13.167 10.6668H11.5003C11.3235 10.6668 11.1539 10.7371 11.0289 10.8621C10.9039 10.9871 10.8337 11.1567 10.8337 11.3335V12.6668M10.8337 12.6668V14.6668M10.8337 12.6668H12.8337M2.83366 14.6668V13.0002M2.83366 13.0002V10.6668H4.00033C4.30974 10.6668 4.60649 10.7897 4.82528 11.0085C5.04408 11.2273 5.16699 11.5241 5.16699 11.8335C5.16699 12.1429 5.04408 12.4397 4.82528 12.6585C4.60649 12.8772 4.30974 13.0002 4.00033 13.0002H2.83366ZM6.83366 10.6668H7.83366C8.18728 10.6668 8.52642 10.8073 8.77647 11.0574C9.02652 11.3074 9.16699 11.6465 9.16699 12.0002V13.3335C9.16699 13.6871 9.02652 14.0263 8.77647 14.2763C8.52642 14.5264 8.18728 14.6668 7.83366 14.6668H6.83366V10.6668Z" stroke="#5C5C5C" stroke-linecap="round" stroke-linejoin="round"/>
</svg>
