<svg width="16" height="16" viewBox="0 0 16 16" fill="none" xmlns="http://www.w3.org/2000/svg">
<path d="M4.40098 6.375V3C4.40098 2.44772 4.84869 2 5.40098 2H10.601C11.1533 2 11.601 2.44772 11.601 3V6.375M4.40098 6.375H3.20098C2.88272 6.375 2.57749 6.5067 2.35245 6.74112C2.1274 6.97554 2.00098 7.29348 2.00098 7.625V10.75C2.00098 11.0815 2.1274 11.3995 2.35245 11.6339C2.57749 11.8683 2.88272 12 3.20098 12H4.40098M4.40098 6.375H11.601M11.601 6.375H12.801C13.1192 6.375 13.4245 6.5067 13.6495 6.74112C13.8745 6.97554 14.001 7.29348 14.001 7.625V10.75C14.001 11.0815 13.8745 11.3995 13.6495 11.6339C13.4245 11.8683 13.1192 12 12.801 12H11.601M6.00033 14.0001H10.0003C10.5526 14.0001 11.0003 13.5524 11.0003 13.0001V10.0001C11.0003 9.4478 10.5526 9.00008 10.0003 9.00008H6.00033C5.44804 9.00008 5.00033 9.4478 5.00033 10.0001V13.0001C5.00033 13.5524 5.44804 14.0001 6.00033 14.0001Z" stroke="#E8342A" stroke-linecap="round" stroke-linejoin="round"/>
</svg>
