<svg preserveAspectRatio="none" width="100%" height="100%" overflow="visible" style="display: block;" viewBox="0 0 16 16" fill="none" xmlns="http://www.w3.org/2000/svg">
<g id="Icons/shrink">
<path id="Vector (Stroke)" d="M8.04163 4.55602C8.04163 4.21085 8.32146 3.93102 8.66663 3.93102C9.01181 3.93102 9.29163 4.21085 9.29163 4.55602V5.82458L12.5582 2.55798C12.8023 2.31406 13.198 2.31395 13.442 2.55798C13.686 2.802 13.6859 3.19767 13.442 3.44177L10.1764 6.70837H11.444C11.7892 6.70837 12.069 6.98819 12.069 7.33337C12.069 7.67855 11.7892 7.95837 11.444 7.95837H8.66663C8.32146 7.95837 8.04163 7.67855 8.04163 7.33337V4.55602Z" fill="var(--fill-0, #5C5C5C)"/>
<path id="Vector (Stroke)_2" d="M3.44177 13.442C3.19767 13.6859 2.802 13.686 2.55798 13.442C2.31395 13.198 2.31406 12.8023 2.55798 12.5582L5.8236 9.29163H4.55602C4.21085 9.29163 3.93102 9.01181 3.93102 8.66663C3.93102 8.32146 4.21085 8.04163 4.55602 8.04163H7.33337C7.67855 8.04163 7.95837 8.32146 7.95837 8.66663V11.444C7.95837 11.7892 7.67855 12.069 7.33337 12.069C6.98819 12.069 6.70837 11.7892 6.70837 11.444V10.1764L3.44177 13.442Z" fill="var(--fill-0, #5C5C5C)"/>
</g>
</svg>
