<svg width="16" height="16" viewBox="0 0 16 16" fill="none" xmlns="http://www.w3.org/2000/svg">
<path d="M8.25546 10.3262V12.1631C8.25546 12.6501 8.06172 13.1175 7.71737 13.4619C7.37296 13.8063 6.90561 14 6.41854 14C5.93141 14 5.46417 13.8064 5.11972 13.4619C4.77526 13.1175 4.58163 12.6502 4.58163 12.1631C4.58168 11.676 4.7753 11.2087 5.11972 10.8643C5.46415 10.5199 5.9315 10.3262 6.41854 10.3262H8.25546Z" fill="#5C5C5C"/>
<path d="M8.25546 6.16309V9.83691H6.41854C5.93145 9.83691 5.46416 9.64323 5.11972 9.29883C4.77526 8.95437 4.58163 8.48713 4.58163 8C4.58163 7.51287 4.77526 7.04563 5.11972 6.70117C5.46416 6.35677 5.93145 6.16309 6.41854 6.16309H8.25546Z" fill="#5C5C5C"/>
<path d="M10.5816 6.16309C11.596 6.16309 12.4185 6.9856 12.4185 8C12.4185 9.0144 11.596 9.83691 10.5816 9.83691C9.56723 9.83691 8.74472 9.0144 8.74472 8C8.74472 6.9856 9.56723 6.16309 10.5816 6.16309Z" fill="#5C5C5C"/>
<path d="M8.25546 2V5.67383H6.41854C5.9315 5.67383 5.46415 5.48008 5.11972 5.13574C4.77531 4.79133 4.58168 4.32398 4.58163 3.83691C4.58163 3.34978 4.77526 2.88254 5.11972 2.53809C5.46417 2.19363 5.93141 2 6.41854 2H8.25546Z" fill="#5C5C5C"/>
<path d="M10.5816 2C11.0688 2 11.536 2.19363 11.8805 2.53809C12.2249 2.88253 12.4185 3.34982 12.4185 3.83691C12.4185 4.32398 12.2249 4.79133 11.8805 5.13574C11.536 5.48014 11.0687 5.67383 10.5816 5.67383H8.74472V2H10.5816Z" fill="#5C5C5C"/>
</svg>
