<svg width="16" height="16" viewBox="0 0 16 16" fill="none" xmlns="http://www.w3.org/2000/svg">
<path d="M6.67471 7.26885L5.03616 8.19578L4.7758 6.84767L6.35665 5.60264L6.67471 7.26885Z" fill="#5C5C5C"/>
<path d="M9.8072 5.40598L8.22653 6.28604L7.86038 4.24519L9.44088 3L9.8072 5.40598Z" fill="#5C5C5C"/>
<path d="M11.8699 7.16611L10.1735 7.72757L9.80717 5.41534L11.4263 4.55413L11.8699 7.16611Z" fill="#5C5C5C"/>
<path d="M14 9.56259L12.2359 9.72172L11.8505 7.04418L13.5564 6.6512L14 9.56259Z" fill="#5C5C5C"/>
<path d="M10.6169 9.95575L8.9107 10.2834L8.58303 8.28004L10.2314 7.60599L10.6169 9.95575Z" fill="#5C5C5C"/>
<path d="M12.7084 12.3333L10.9448 12.2866L10.5879 9.93686L12.2936 9.65613L12.7084 12.3333Z" fill="#5C5C5C"/>
<path d="M8.59266 8.29836L6.96373 8.93488L6.66508 7.25017L8.25537 6.26685L8.59266 8.29836Z" fill="#5C5C5C"/>
<path d="M7.29161 10.6386L5.59518 10.9386L5.30597 9.59046L6.97355 8.9631L7.29161 10.6386Z" fill="#5C5C5C"/>
<path d="M9.28665 12.3145H7.57099L7.26255 10.6108L8.93974 10.2925L9.28665 12.3145Z" fill="#5C5C5C"/>
<path d="M5.88437 12.2958L4.13985 12.2209L3.88911 11.1539L5.58554 10.9104L5.88437 12.2958Z" fill="#5C5C5C"/>
<path d="M5.35406 9.59043L3.69627 10.1614L3.41686 9.03797L5.04579 8.20478L5.35406 9.59043Z" fill="#5C5C5C"/>
<path d="M3.92776 11.2006L2.2121 11.3035L2 10.4985L3.68664 10.1521L3.92776 11.2006Z" fill="#5C5C5C"/>
</svg>
