<svg width="24" height="24" viewBox="0 0 24 24" fill="none" xmlns="http://www.w3.org/2000/svg">
<rect width="24" height="24" fill="#1E1E1E"/>
<g id="About">
<path d="M-1588 -8045.35C-1588 -8046.45 -1587.1 -8047.35 -1586 -8047.35H1392C1393.1 -8047.35 1394 -8046.45 1394 -8045.35V2320.65C1394 2321.76 1393.1 2322.65 1392 2322.65H-1586C-1587.1 2322.65 -1588 2321.76 -1588 2320.65V-8045.35Z" fill="#444444"/>
<path d="M-1586 -8047.35V-8046.35H1392V-8047.35V-8048.35H-1586V-8047.35ZM1394 -8045.35H1393V2320.65H1394H1395V-8045.35H1394ZM1392 2322.65V2321.65H-1586V2322.65V2323.65H1392V2322.65ZM-1588 2320.65H-1587V-8045.35H-1588H-1589V2320.65H-1588ZM-1586 2322.65V2321.65C-1586.55 2321.65 -1587 2321.2 -1587 2320.65H-1588H-1589C-1589 2322.31 -1587.66 2323.65 -1586 2323.65V2322.65ZM1394 2320.65H1393C1393 2321.2 1392.55 2321.65 1392 2321.65V2322.65V2323.65C1393.66 2323.65 1395 2322.31 1395 2320.65H1394ZM1392 -8047.35V-8046.35C1392.55 -8046.35 1393 -8045.9 1393 -8045.35H1394H1395C1395 -8047.01 1393.66 -8048.35 1392 -8048.35V-8047.35ZM-1586 -8047.35V-8048.35C-1587.66 -8048.35 -1589 -8047.01 -1589 -8045.35H-1588H-1587C-1587 -8045.9 -1586.55 -8046.35 -1586 -8046.35V-8047.35Z" fill="white" fill-opacity="0.1"/>
<g id="Desktop - Personal" clip-path="url(#clip0_136_3016)">
<rect width="1920" height="5298" transform="translate(-1508 -3482.35)" fill="white"/>
<g id="Content">
<g id="Podcast &#38; Medium">
<g id="Writing Section">
<g id="Writing Content">
<g id="Writing Articles">
<g id="Article">
<mask id="path-3-inside-1_136_3016" fill="white">
<path d="M-528 -24H36V48H-528V-24Z"/>
</mask>
<path d="M-528 -24V-23H36V-24V-25H-528V-24ZM36 48V47H-528V48V49H36V48Z" fill="#E0E0E0" mask="url(#path-3-inside-1_136_3016)"/>
<g id="Arrow Icon">
<path id="Vector (Stroke)" d="M20.9048 11.3291C21.0855 11.5055 21.1875 11.7474 21.1875 12C21.1875 12.2526 21.0855 12.4945 20.9048 12.6709L13.2041 20.1709L12.5493 19.5L11.896 18.8291L17.9443 12.9375H3.75V11.0625H17.9443L11.896 5.1709L12.5493 4.5L13.2041 3.8291L20.9048 11.3291Z" fill="#5C5C5C"/>
</g>
</g>
</g>
</g>
</g>
</g>
</g>
</g>
</g>
<defs>
<clipPath id="clip0_136_3016">
<rect width="1920" height="5298" fill="white" transform="translate(-1508 -3482.35)"/>
</clipPath>
</defs>
</svg>
