<svg width="10" height="10" viewBox="0 0 10 10" fill="none" xmlns="http://www.w3.org/2000/svg">
<rect width="10" height="10" fill="#1E1E1E"/>
<g id="About">
<path d="M-802 -7988.35C-802 -7989.45 -801.105 -7990.35 -800 -7990.35H2178C2179.1 -7990.35 2180 -7989.45 2180 -7988.35V2377.65C2180 2378.76 2179.1 2379.65 2178 2379.65H-800C-801.105 2379.65 -802 2378.76 -802 2377.65V-7988.35Z" fill="#444444"/>
<path d="M-800 -7990.35V-7989.35H2178V-7990.35V-7991.35H-800V-7990.35ZM2180 -7988.35H2179V2377.65H2180H2181V-7988.35H2180ZM2178 2379.65V2378.65H-800V2379.65V2380.65H2178V2379.65ZM-802 2377.65H-801V-7988.35H-802H-803V2377.65H-802ZM-800 2379.65V2378.65C-800.552 2378.65 -801 2378.2 -801 2377.65H-802H-803C-803 2379.31 -801.657 2380.65 -800 2380.65V2379.65ZM2180 2377.65H2179C2179 2378.2 2178.55 2378.65 2178 2378.65V2379.65V2380.65C2179.66 2380.65 2181 2379.31 2181 2377.65H2180ZM2178 -7990.35V-7989.35C2178.55 -7989.35 2179 -7988.9 2179 -7988.35H2180H2181C2181 -7990.01 2179.66 -7991.35 2178 -7991.35V-7990.35ZM-800 -7990.35V-7991.35C-801.657 -7991.35 -803 -7990.01 -803 -7988.35H-802H-801C-801 -7988.9 -800.552 -7989.35 -800 -7989.35V-7990.35Z" fill="white" fill-opacity="0.1"/>
<g id="Desktop - Personal" clip-path="url(#clip0_136_3016)">
<rect width="1920" height="5298" transform="translate(-722 -3425.35)" fill="white"/>
<g id="Content">
<g id="Podcast &#38; Medium">
<g id="Podcast Section">
<g id="Podcast Content">
<g id="Podcast Row">
<g id="Podcast Info">
<g id="Watch Link">
<g id="Icon">
<rect x="-4" y="-4" width="18" height="18" rx="9" fill="#5C5C5C"/>
<g id="SVG">
<path id="Vector" d="M2 8L8 2M8 7V2H3" stroke="#F7F7F7" stroke-width="1.4" stroke-linecap="round"/>
</g>
</g>
</g>
</g>
</g>
</g>
</g>
</g>
</g>
</g>
</g>
<defs>
<clipPath id="clip0_136_3016">
<rect width="1920" height="5298" fill="white" transform="translate(-722 -3425.35)"/>
</clipPath>
</defs>
</svg>
