<svg width="120" height="120" viewBox="0 0 120 120" fill="none" xmlns="http://www.w3.org/2000/svg">
<path d="M33.8273 31.38C54.0429 12.2028 82.1521 9.46922 96.6109 25.2746C104.414 33.8058 106.631 45.9912 103.854 58.4191C64.7247 58.3678 68.2148 38.4139 69.5606 32.0673C69.7726 31.068 69.1592 30.2112 68.1716 30.0284C67.0266 29.8168 65.9342 30.615 65.7252 31.781C61.1251 57.4424 50.001 59.6889 31.471 58.5336C30.5696 58.4774 29.7585 59.1038 29.5814 60.0056C29.3774 61.0487 30.092 62.047 31.1223 62.2221C50.2508 65.4742 52.0736 79.4041 50.8785 87.9037C50.7382 88.902 51.3183 89.8771 52.2732 90.1431C53.375 90.4492 54.4922 89.6663 54.6633 88.5166C59.4097 56.4419 79.6928 61.9264 102.949 61.93C100.131 71.3706 94.4628 80.7659 86.1845 88.6197C65.9688 107.798 37.8598 110.531 23.4009 94.7251C8.94283 78.919 13.612 50.5584 33.8273 31.38Z" fill="#171717"/>
</svg>
