<svg width="120" height="120" viewBox="0 0 120 120" fill="none" xmlns="http://www.w3.org/2000/svg">
<path d="M25.0986 22.5341C52.0499 -2.57282 89.5249 -6.15222 108.802 14.5389C119.208 25.7085 122.183 41.6673 118.479 57.9393C61.9942 57.8732 72.0963 27.2611 73.0908 21.7675C73.1543 21.4162 72.9078 21.1294 72.5566 21.0653L68.8496 20.3915C68.4422 20.3177 68.0513 20.609 67.9834 21.0175C61.9684 57.2103 46.5816 59.7268 20.5058 57.9852C20.1353 57.9605 19.7967 58.2129 19.7236 58.577L19.0879 61.7548C19.0036 62.1763 19.3114 62.5823 19.7373 62.6405C48.2323 66.5232 49.6562 87.0562 47.5605 98.1649C47.4881 98.5489 47.7207 98.9215 48.0976 99.0243L51.6572 99.995C52.092 100.113 52.5336 99.7954 52.5918 99.3485C58.3524 55.1093 85.7612 62.5307 117.256 62.535C113.498 74.8912 105.941 87.1863 94.9062 97.4657C67.9549 122.573 30.479 126.152 11.2021 105.461C-8.0747 84.7692 -1.8528 47.6412 25.0986 22.5341Z" fill="white"/>
</svg>
