<svg width="190" height="56" viewBox="0 0 190 56" fill="none" xmlns="http://www.w3.org/2000/svg">
<path d="M36.9913 8C41.1983 8 43.3024 7.99973 44.9093 8.81836C46.3228 9.53856 47.4723 10.6881 48.1925 12.1016C48.7498 13.1953 48.9237 14.5195 48.9806 16.5801C48.9817 16.5756 48.9834 16.5709 48.9845 16.5664V16.7246C49.0074 17.6591 49.0109 18.7423 49.0109 20.0195V24.751C49.0109 25.7491 49.0101 26.6295 48.9991 27.4131L49.0109 35.7695C49.0109 40.0506 49.011 42.191 48.1779 43.8262C47.445 45.2645 46.2754 46.4341 44.837 47.167C43.2019 48 41.0612 48 36.7804 48H18.1251C17.57 48 17.2922 48.0004 17.0509 47.9121C16.8377 47.8341 16.6455 47.7068 16.4904 47.541C16.3149 47.3534 16.2062 47.0978 15.9894 46.5869L7.78821 27.2617C7.20629 25.8906 6.91526 25.2045 7.02161 24.6523C7.11465 24.1698 7.39689 23.7438 7.80481 23.4697C8.27157 23.1564 9.01663 23.1562 10.506 23.1562H22.7052L18.0509 12.0977C17.4745 10.7283 17.1867 10.0433 17.2941 9.49219C17.388 9.01055 17.6697 8.58582 18.0773 8.3125C18.5436 8.00001 19.2864 8 20.7716 8H36.9913ZM20.0157 32.3828C18.3418 32.383 16.9845 33.74 16.9845 35.4141C16.9847 37.0879 18.3419 38.4451 20.0157 38.4453C21.6898 38.4453 23.0468 37.0881 23.047 35.4141C23.047 33.7399 21.6899 32.3828 20.0157 32.3828Z" fill="#C5A880"/>
<path d="M36.8798 36.5557L30.9539 36.4052C29.9679 36.3801 29.4748 36.3676 29.0477 36.2022C28.6701 36.056 28.3313 35.8247 28.0576 35.5264C27.7479 35.1889 27.5565 34.7344 27.1739 33.8253L22.683 23.1564H40.5484H40.5484C41.7227 23.1564 42.3098 23.1564 42.8297 23.0792C45.304 22.7117 47.4036 21.0723 48.3602 18.7611C48.5612 18.2754 48.9453 16.962 49.0073 15.9208C49.0073 15.9208 49.0112 18.4117 49.0112 20.0196C49.0112 21.8672 49.0046 24.7505 49.0046 24.7505C49.0046 28.9798 48.9884 31.0945 48.1583 32.6935C47.4283 34.0995 46.2653 35.2334 44.8412 35.9274C43.2216 36.7167 41.1077 36.663 36.8798 36.5557Z" fill="#827058"/>
<path d="M20.7488 8H36.9685C41.1758 8 43.2973 8 44.9043 8.8188C46.3178 9.53904 47.2932 10.4043 48.1069 11.9539C48.439 12.5863 48.6387 13.1298 48.8133 13.9308C49.0383 14.963 49.0787 15.5051 48.9451 16.6326C48.8406 17.515 48.561 18.2756 48.36 18.7612C47.4034 21.0725 45.3037 22.7119 42.8295 23.0793C42.3096 23.1566 41.7225 23.1566 40.5482 23.1566H22.6607L18.0278 12.0976C17.4514 10.7282 17.1632 10.0435 17.2705 9.49242C17.3644 9.01065 17.6463 8.58611 18.0539 8.31272C18.5202 8 19.2631 8 20.7488 8Z" fill="#171717"/>
<path d="M75.1836 27.4258C75.1836 28.4648 75.3659 29.1758 75.7305 29.5586C76.1133 29.9232 76.9518 30.1055 78.2461 30.1055H79.5586C81.4362 30.1055 82.9674 29.4036 84.1523 28C85.3372 26.5964 85.9297 24.6094 85.9297 22.0391L85.9023 21.7656C85.9023 19.1771 85.2279 17.1445 83.8789 15.668C82.5299 14.1914 80.8164 13.4531 78.7383 13.4531H78.0547C76.5234 13.4531 75.6211 13.8268 75.3477 14.5742C75.2565 14.8112 75.2109 16.1875 75.2109 18.7031V22.8594L75.1836 23.8984V27.4258ZM64 46.5938C64 45.3359 64.5378 44.3424 65.6133 43.6133C66.6888 42.8659 67.3086 42.0365 67.4727 41.125C67.7279 39.6849 67.8555 35.5742 67.8555 28.793C67.8555 22.0117 67.6914 17.9466 67.3633 16.5977C67.0352 15.2305 66.5703 14.2917 65.9688 13.7812C64.6562 12.6875 64 11.9766 64 11.6484V11.2109C64 10.4635 64.6836 9.98958 66.0508 9.78906C66.4336 9.73438 68.375 9.70703 71.875 9.70703L75.4844 9.65234H76.1953L78.3555 9.73438H80.543C86.9961 9.73438 91.2982 11.7305 93.4492 15.7227C94.2695 17.2539 94.6797 18.8763 94.6797 20.5898V21.3555C94.6797 24.418 93.5586 27.0065 91.3164 29.1211C89.0742 31.2174 85.9115 32.4479 81.8281 32.8125C79.4219 33.0312 78.0638 33.2135 77.7539 33.3594C76.5326 33.9062 75.9219 35.9388 75.9219 39.457C75.9219 41.0794 76.487 42.3464 77.6172 43.2578C79.1302 44.4792 79.8867 45.5091 79.8867 46.3477C79.8867 47.0039 79.1849 47.4596 77.7812 47.7148C76.3958 47.9701 74.3815 48.0977 71.7383 48.0977C66.5794 48.0977 64 47.5964 64 46.5938Z" fill="#171717"/>
<path d="M93.2491 10.0352C93.2491 9.37891 93.723 8.90495 94.6709 8.61328C97.2412 7.82943 99.7022 7.4375 102.054 7.4375C103.439 7.4375 104.205 8.03906 104.351 9.24219C104.387 9.53385 104.405 14.4193 104.405 23.8984C104.405 33.3776 104.56 38.9831 104.87 40.7148C105.198 42.4284 105.636 43.5951 106.183 44.2148C107.568 45.7826 108.261 46.6029 108.261 46.6758C108.261 47.5508 105.818 47.9883 100.933 47.9883H100.386L99.8116 47.9609C96.8949 47.9609 95.1449 47.888 94.5616 47.7422C93.9965 47.5964 93.7139 47.2591 93.7139 46.7305C93.7139 46.1836 94.1605 45.3633 95.0537 44.2695C95.947 43.1576 96.5121 41.9909 96.7491 40.7695C96.986 39.5299 97.1045 34.9727 97.1045 27.0977C97.1045 19.2227 96.9769 14.8568 96.7217 14C96.4665 13.125 95.8194 12.3594 94.7803 11.7031C93.7595 11.0286 93.2491 10.4727 93.2491 10.0352Z" fill="#171717"/>
<path d="M137.236 45.8828C137.236 47.3594 135.149 48.0977 130.975 48.0977C129.735 48.0977 128.887 47.9245 128.432 47.5781C127.976 47.2318 127.602 46.776 127.311 46.2109C127.019 45.6276 126.773 45.3359 126.572 45.3359C126.39 45.3359 125.834 45.6367 124.904 46.2383C123.975 46.8216 122.981 47.3411 121.924 47.7969C120.885 48.2526 119.518 48.4805 117.822 48.4805C116.127 48.4805 114.687 48.1159 113.502 47.3867C112.335 46.6576 111.415 45.6003 110.74 44.2148C110.084 42.8294 109.756 39.7031 109.756 34.8359C109.756 29.9688 109.647 27.3073 109.428 26.8516C109.227 26.3958 108.644 25.9492 107.678 25.5117C106.712 25.0742 106.229 24.5365 106.229 23.8984C106.229 23.0234 106.775 22.4401 107.869 22.1484C109.565 21.6927 111.67 21.4648 114.186 21.4648C115.389 21.4648 116.173 21.9844 116.537 23.0234C116.902 24.0625 117.084 26.9609 117.084 31.7188C117.084 36.4766 117.239 39.4753 117.549 40.7148C117.968 42.4284 118.889 43.4492 120.311 43.7773C120.675 43.8685 121.049 43.9141 121.432 43.9141C122.088 43.9141 122.762 43.7865 123.455 43.5312C124.585 43.1302 125.433 42.5378 125.998 41.7539C126.581 40.9518 126.873 38.9102 126.873 35.6289C126.873 32.3477 126.709 30.0326 126.381 28.6836C126.053 27.3346 125.588 26.2044 124.986 25.293C124.385 24.3815 124.084 23.7344 124.084 23.3516C124.084 22.0755 126.436 21.4375 131.139 21.4375H131.904C132.852 21.4375 133.49 21.6289 133.818 22.0117C134.165 22.3763 134.338 23.3242 134.338 24.8555L134.229 28.8203L134.201 29.6406V33.6875C134.201 37.6979 134.311 40.1771 134.529 41.125C134.748 42.0729 135.249 43.0664 136.033 44.1055C136.835 45.1445 137.236 45.737 137.236 45.8828Z" fill="#171717"/>
<path d="M156.408 22.2031C157.228 22.6771 157.638 23.6797 157.638 25.2109C157.638 26.7422 157.529 27.7539 157.31 28.2461C157.091 28.7383 156.663 28.9844 156.025 28.9844C155.004 28.9844 153.901 28.2461 152.716 26.7695C151.55 25.293 150.073 24.5547 148.287 24.5547C147.266 24.5547 146.455 24.819 145.853 25.3477C145.251 25.8763 144.951 26.4596 144.951 27.0977C144.951 28.1914 145.479 29.1029 146.537 29.832C147.047 30.1784 148.678 30.9349 151.431 32.1016C154.202 33.25 156.18 34.444 157.365 35.6836C158.568 36.9049 159.169 38.5729 159.169 40.6875C159.169 42.8021 158.267 44.6432 156.462 46.2109C154.658 47.7786 152.343 48.5625 149.517 48.5625H148.068C144.531 48.5625 141.879 48.1432 140.111 47.3047C138.871 46.7214 138.251 45.3359 138.251 43.1484C138.251 40.9609 138.662 39.8672 139.482 39.8672C140.521 39.8672 141.806 40.7148 143.337 42.4102C144.887 44.1055 146.564 44.9531 148.369 44.9531C149.462 44.9531 150.383 44.7253 151.13 44.2695C151.896 43.7956 152.279 43.0664 152.279 42.082C152.279 41.0794 151.75 40.1862 150.693 39.4023C150.128 38.9831 148.596 38.2448 146.099 37.1875C143.62 36.112 141.852 35.0729 140.794 34.0703C139.208 32.5755 138.415 30.7435 138.415 28.5742C138.415 26.3867 139.345 24.582 141.205 23.1602C143.064 21.7201 145.233 21 147.712 21H148.451C152.352 21 155.004 21.401 156.408 22.2031Z" fill="#171717"/>
<path d="M189.157 46.2109C189.157 47.0677 188.546 47.6328 187.325 47.9062C186.103 48.1615 184.362 48.2891 182.102 48.2891C179.842 48.2891 178.374 48.1432 177.7 47.8516C177.025 47.5599 176.688 47.0677 176.688 46.375C176.688 46.0833 176.925 45.4909 177.399 44.5977C177.873 43.7044 178.201 42.957 178.383 42.3555C178.566 41.7357 178.657 39.5208 178.657 35.7109C178.657 31.901 178.338 29.3307 177.7 28C177.062 26.651 175.849 25.9766 174.063 25.9766C172.295 25.9766 170.937 26.5781 169.989 27.7812C169.059 28.9661 168.594 31.1354 168.594 34.2891C168.594 35.3281 168.722 36.9323 168.977 39.1016C169.232 41.2708 169.597 42.9206 170.071 44.0508C170.545 45.181 170.782 45.8008 170.782 45.9102C170.782 46.7305 170.29 47.25 169.305 47.4688C167.865 47.7786 165.687 47.9336 162.77 47.9336C159.872 47.9336 158.422 47.487 158.422 46.5938C158.422 45.9557 158.842 45.0443 159.68 43.8594C160.537 42.6745 161.02 41.6445 161.129 40.7695C161.257 39.8945 161.321 35.5195 161.321 27.6445C161.321 19.7695 161.193 15.349 160.938 14.3828C160.701 13.4167 160.309 12.6875 159.762 12.1953C158.468 11.0286 157.821 10.3724 157.821 10.2266C157.821 9.47917 158.213 8.94141 158.997 8.61328C160.674 7.90234 162.898 7.54688 165.668 7.54688C166.999 7.54688 167.856 8.02995 168.239 8.99609C168.476 9.59766 168.594 11.9401 168.594 16.0234C168.594 20.0885 168.631 22.2487 168.704 22.5039C168.886 23.1419 169.26 23.4609 169.825 23.4609C170.062 23.4609 170.581 23.2786 171.383 22.9141C173.607 21.8932 175.631 21.3828 177.454 21.3828C180.753 21.3828 183.086 22.6862 184.454 25.293C185.438 27.1706 185.93 30.3789 185.93 34.918C185.93 39.457 186.058 42.0273 186.313 42.6289C186.568 43.2305 187.106 43.9232 187.926 44.707C188.747 45.4909 189.157 45.9922 189.157 46.2109Z" fill="#171717"/>
</svg>
