<svg preserveAspectRatio="none" width="100%" height="100%" overflow="visible" style="display: block;" viewBox="0 0 8.29284 10.2" fill="none" xmlns="http://www.w3.org/2000/svg">
<path id="Apple -&#62; Icon" d="M6.01083 2.46615C6.10729 2.46615 6.2717 2.4815 6.50406 2.51219C6.73643 2.54288 6.99072 2.63056 7.26692 2.77524C7.54752 2.91554 7.80181 3.1501 8.02979 3.47892C8.01663 3.49207 7.95306 3.5403 7.83907 3.6236C7.72508 3.70251 7.59794 3.82089 7.45764 3.97872C7.31734 4.13217 7.19458 4.32946 7.08936 4.5706C6.98414 4.80735 6.93153 5.09014 6.93153 5.41896C6.93153 5.796 6.99729 6.11605 7.12882 6.37911C7.26473 6.64217 7.42037 6.8548 7.59574 7.01702C7.7755 7.17485 7.93333 7.29104 8.06925 7.36557C8.20954 7.4401 8.28407 7.47956 8.29284 7.48395C8.28846 7.50148 8.23146 7.65712 8.12186 7.95087C8.01663 8.24462 7.84126 8.57124 7.59574 8.93075C7.38092 9.24204 7.14855 9.52921 6.89865 9.79226C6.65313 10.0553 6.35719 10.1868 6.01083 10.1868C5.77847 10.1868 5.58775 10.154 5.43868 10.0882C5.28962 10.0181 5.13617 9.9501 4.97834 9.88433C4.8205 9.81418 4.60787 9.77911 4.34043 9.77911C4.08175 9.77911 3.86473 9.81418 3.68936 9.88433C3.51838 9.95448 3.35397 10.0246 3.19613 10.0948C3.04268 10.1649 2.86073 10.2 2.65029 10.2C2.33024 10.2 2.04965 10.0729 1.80851 9.81857C1.56738 9.56428 1.31966 9.25957 1.06538 8.90445C0.771631 8.48356 0.519536 7.9706 0.309091 7.36557C0.10303 6.75616 0 6.14236 0 5.52418C0 4.86215 0.124952 4.30754 0.374855 3.86035C0.624758 3.40877 0.94481 3.06899 1.33501 2.84101C1.72959 2.60864 2.13733 2.49246 2.55822 2.49246C2.78182 2.49246 2.99226 2.52972 3.18956 2.60426C3.38685 2.6744 3.57099 2.74674 3.74197 2.82128C3.91734 2.89581 4.07518 2.93308 4.21547 2.93308C4.35139 2.93308 4.50922 2.89362 4.68897 2.8147C4.86873 2.73578 5.07041 2.65906 5.294 2.58453C5.5176 2.50561 5.75654 2.46615 6.01083 2.46615ZM5.64913 1.63095C5.47814 1.83701 5.26331 2.01019 5.00464 2.15048C4.74597 2.2864 4.50045 2.35435 4.26808 2.35435C4.21986 2.35435 4.17382 2.34997 4.12998 2.3412C4.1256 2.32805 4.12121 2.30393 4.11683 2.26886C4.11244 2.23378 4.11025 2.19652 4.11025 2.15706C4.11025 1.894 4.16725 1.63972 4.28124 1.3942C4.39523 1.14429 4.52456 0.938233 4.66925 0.776015C4.85338 0.556802 5.08575 0.374855 5.36634 0.230174C5.64694 0.0854932 5.91438 0.00876854 6.16867 0C6.18182 0.0569955 6.18839 0.124952 6.18839 0.203868C6.18839 0.466925 6.13798 0.723404 6.03714 0.973308C5.9363 1.21883 5.80696 1.43804 5.64913 1.63095Z" fill="var(--fill-0, #E8342A)"/>
</svg>
