<svg preserveAspectRatio="none" width="100%" height="100%" overflow="visible" style="display: block;" viewBox="0 0 27 28" fill="none" xmlns="http://www.w3.org/2000/svg">
<g id="cce-logo-icon">
<path d="M13.352 0.0132972L13.3671 0.0111462C13.9835 -0.0705914 14.5617 0.314923 15.0823 0.589418L25.4971 6.08747C25.7081 6.19935 25.952 6.31553 26.1389 6.45989C26.6062 6.81598 26.9097 7.34553 26.9808 7.92842C27.0067 8.14598 26.9981 8.45145 26.9979 8.67864L26.9982 19.3154C26.9982 19.5498 27.0079 19.8762 26.982 20.1014C26.9367 20.5084 26.7758 20.894 26.5182 21.2125C26.3583 21.411 26.165 21.58 25.947 21.7119C25.7341 21.8403 25.4428 21.9841 25.2187 22.1023L16.1897 26.8686L15.1121 27.4389C14.569 27.7277 14.2831 27.9218 13.6574 27.993C12.9025 28.052 12.4303 27.7293 11.7968 27.3928L2.41341 22.4373L1.5815 22.0004C1.30392 21.8547 1.02792 21.7254 0.786121 21.5235C0.344314 21.1587 0.06569 20.6335 0.0116327 20.0635C-0.00734372 19.8481 0.00256209 19.4931 0.00275259 19.2692L0.00244492 8.58259C0.002357 8.36799 -0.00570251 8.09259 0.0218023 7.88638C0.0754639 7.47899 0.246604 7.096 0.514355 6.78413C0.668013 6.60517 0.848853 6.45142 1.05025 6.32851C1.28024 6.19115 1.5807 6.04312 1.82297 5.91548L11.9996 0.543367C12.4681 0.294163 12.8082 0.0590141 13.352 0.0132972ZM0.254253 18.3806C0.586641 18.5266 0.913622 18.6863 1.24644 18.8294C1.8219 19.0776 2.40982 19.2959 3.00783 19.4833C3.25898 19.5624 3.52963 19.63 3.78512 19.6959C3.9692 19.7435 4.18081 19.7795 4.36152 19.8349C4.19885 19.6375 3.92449 19.2741 3.781 19.0609C4.22097 18.7571 4.73801 18.2324 5.1592 17.9538C4.99954 17.6208 4.8731 17.2928 4.79204 16.9311C4.16884 16.9264 3.54576 16.8967 2.92375 16.9001C2.88068 16.3447 2.85433 15.672 2.82996 15.1051C3.40528 14.9799 3.97981 14.8512 4.55352 14.7188C4.56113 14.3945 4.59785 13.8541 4.69002 13.5396L3.06589 12.7727C3.24947 12.2595 3.46003 11.7179 3.65954 11.2087C3.78654 11.2437 3.9705 11.2678 4.10376 11.2895C4.39047 11.3351 4.67682 11.383 4.96277 11.4333C5.08627 11.4545 5.2722 11.4784 5.38926 11.508C5.56147 11.1782 5.78463 10.7996 6.02818 10.5157C5.85333 10.2973 5.63717 10.0644 5.45088 9.85261C5.25102 9.62544 5.04445 9.38077 4.83942 9.15999C5.23147 8.77678 5.65703 8.3205 6.05335 7.95706C6.21504 8.07007 6.43776 8.19519 6.61018 8.29824L7.5746 8.87424C7.89902 8.59757 8.24927 8.39456 8.58562 8.1493C8.42589 7.61516 8.2812 7.06555 8.11825 6.53648C8.56095 6.31784 9.21115 6.13157 9.66739 5.91956C9.97624 6.34881 10.3611 6.87846 10.6467 7.31876C11.1112 7.16466 11.487 7.12719 11.9703 7.05265C12.0679 6.49455 12.1381 5.93418 12.234 5.37609C12.5271 5.41261 12.8447 5.38249 13.1407 5.40286C13.2062 5.40738 13.2764 5.40792 13.3424 5.40722C13.5538 5.40984 13.7653 5.41435 13.9767 5.42078C14.0082 5.67843 14.0717 5.96355 14.1177 6.2212C14.169 6.50863 14.2146 6.80879 14.2755 7.09316C14.705 7.09155 15.1333 7.16417 15.5294 7.33084C15.7718 7.01304 16.0016 6.65794 16.2428 6.33616C16.3418 6.20407 16.4369 6.05474 16.5423 5.92945C17.0196 6.15526 17.5743 6.4445 18.0475 6.65084L17.7596 7.71431C17.7286 7.82674 17.6787 8.04393 17.6407 8.14485C18.1329 8.43386 18.2887 8.50812 18.6951 8.9177C19.1873 8.63794 19.6889 8.30013 20.1761 8.03354C20.5259 8.40127 20.939 8.89529 21.292 9.23532C20.951 9.66524 20.578 10.1019 20.2268 10.5252C20.4432 10.7221 20.7655 11.2871 20.8924 11.5527C21.4546 11.4665 22.0414 11.3877 22.6073 11.3086C22.715 11.6175 22.819 11.9278 22.9195 12.2392C22.9716 12.3984 23.0429 12.6377 23.1068 12.7891C22.5972 13.0629 22.0855 13.3326 21.5717 13.5983C21.6522 13.9779 21.6645 14.3154 21.6598 14.6996C22.2091 14.8696 22.8666 15.027 23.3955 15.2086C23.3221 15.6452 23.3158 16.1183 23.2531 16.5589C23.2405 16.6465 23.2287 16.7547 23.2235 16.8428C22.6867 16.8382 21.9676 16.9081 21.4173 16.9317C21.3462 17.3032 21.1992 17.6513 21.0083 17.9765L22.4547 19.0438L22.0222 19.992C23.3756 19.8074 24.7486 19.4565 25.9868 18.871C26.2837 18.7304 26.4943 18.5645 26.7485 18.4357L26.7487 9.10691C26.7487 8.76159 26.7667 8.17788 26.7113 7.86373C26.64 7.47702 26.4539 7.12065 26.1773 6.84083C25.884 6.5477 25.2745 6.26658 24.8827 6.05968L15.551 1.13389C15.1561 0.925464 14.5579 0.582624 14.1602 0.403648C13.9426 0.304209 13.7059 0.253916 13.4668 0.256353C13.4504 0.257059 13.4341 0.257765 13.4177 0.258472C12.9351 0.30219 12.6454 0.498049 12.2274 0.718624L11.0876 1.32223L2.83643 5.68096C2.30726 5.96447 1.77152 6.23299 1.24112 6.52083C0.764155 6.77968 0.355319 7.33681 0.281142 7.87888C0.232331 8.23554 0.253813 8.68935 0.253799 9.05494L0.254253 18.3806ZM13.5657 19.26C16.3546 19.0965 18.4814 16.7029 18.3138 13.9164C18.1463 11.13 15.7479 9.00807 12.9596 9.17939C10.1768 9.35037 8.05838 11.7412 8.22559 14.5221C8.39282 17.3031 10.7825 19.4231 13.5657 19.26ZM26.7015 20.2222C26.7749 19.8977 26.7479 18.9682 26.7466 18.584C26.4562 18.9637 26.1998 19.2707 25.8438 19.5969C24.4428 20.8807 22.5979 21.5154 20.7442 21.7816C20.0882 21.8759 19.4606 21.8668 18.823 21.9526C17.2152 22.1686 15.5665 22.8426 14.5639 24.1691C14.0613 24.8341 13.8577 25.3465 13.7276 26.1594C13.3774 24.7346 12.7386 23.7543 11.4653 22.9685C10.3727 22.3063 9.07891 21.9566 7.8125 21.8368C7.26047 21.7847 6.75098 21.8223 6.19133 21.7233C4.33473 21.3951 2.56652 20.4291 1.12839 19.2221C0.950153 19.0719 0.777842 18.9146 0.611845 18.7509C0.520612 18.662 0.349003 18.4859 0.254443 18.4165L0.25415 19.3737C0.253681 19.6491 0.238954 19.9286 0.288923 20.2008C0.489458 21.293 1.39545 21.6014 2.26127 22.0592L11.2358 26.799C11.7224 27.0567 12.2172 27.3257 12.7098 27.5714C12.9338 27.6831 13.2417 27.746 13.4923 27.7455C13.7641 27.7457 14.0327 27.6874 14.2798 27.5743C14.6693 27.3995 15.2324 27.0724 15.6261 26.8677L24.9293 21.9562C25.2566 21.784 25.6053 21.6137 25.9162 21.4173C26.2512 21.2057 26.6698 20.6225 26.7015 20.2222ZM13.4575 24.6274L13.4523 24.61C13.3446 24.2462 13.2816 23.778 13.1793 23.4006C12.9031 22.3812 12.2849 21.6027 11.3592 21.0941C10.9967 20.8955 10.6116 20.741 10.2121 20.6342C9.05116 20.3212 7.96023 20.3281 6.77472 20.3544C6.65841 20.357 6.53532 20.3434 6.41862 20.342C5.14298 20.2994 3.90837 20.0343 2.69311 19.6571C2.50861 19.5996 2.32594 19.5362 2.14536 19.4674C2.04326 19.429 1.6671 19.2786 1.59449 19.2707C1.87477 19.4537 2.1651 19.6892 2.46313 19.8844C3.45179 20.5319 4.37958 20.9893 5.51517 21.3107C5.98634 21.4399 6.46965 21.5198 6.95732 21.5495C7.16345 21.5618 7.37125 21.555 7.57567 21.567C9.72577 21.6933 12.3846 22.5845 13.4403 24.634L13.4542 24.6324L13.4575 24.6274ZM14.0274 24.4905C15.2053 22.6287 17.0968 21.8477 19.246 21.6427C19.6525 21.604 20.0637 21.6203 20.4696 21.5585C22.4207 21.3161 24.4126 20.6377 25.839 19.2423L25.8339 19.2302L25.8236 19.2287C25.6174 19.3413 25.164 19.5015 24.9372 19.5794C23.5366 20.0602 22.0737 20.2961 20.6003 20.3999C19.9749 20.4494 19.3499 20.4169 18.7245 20.4576C17.2559 20.5531 15.6436 20.9584 14.7819 22.2606C14.3252 22.9508 14.1826 23.6906 14.0134 24.4814L14.0219 24.4943L14.0274 24.4905ZM16.4296 18.5321C16.6535 18.8137 16.8759 19.1663 17.0906 19.4612C17.2857 19.3117 17.4625 19.2578 17.5362 19.0093C17.4765 18.797 17.1533 18.2721 16.9129 18.2532C16.752 18.2822 16.5654 18.4354 16.4296 18.5321ZM14.2916 8.96824C14.3719 8.92421 14.4156 8.89952 14.4814 8.83111C14.5189 8.70977 14.528 8.60864 14.5523 8.48876C14.6243 8.13368 14.5257 7.91626 14.1222 7.94116C14.0501 7.96227 13.964 8.0026 13.9366 8.07872C13.784 8.5047 13.6696 8.98573 14.2916 8.96824ZM9.26694 10.5879C9.68594 10.4248 9.67102 10.121 9.36217 9.85095C9.23095 9.7362 9.15966 9.61254 8.96646 9.61013C8.5582 9.74863 8.54054 10.0685 8.8378 10.3342C8.99246 10.4725 9.03941 10.5817 9.26694 10.5879ZM8.40648 18.4948L8.54983 18.6096C8.62738 18.5036 8.7591 18.3371 8.84941 18.2386L8.97029 18.3482C8.94585 18.4258 8.92028 18.5037 8.89912 18.5822L8.82208 18.8218C8.87142 18.8675 8.9211 18.9129 8.97112 18.9578C9.01998 18.7909 9.0748 18.607 9.11803 18.439C9.33289 18.4474 9.53744 18.3121 9.5403 18.0759C9.54244 17.8997 9.26694 17.7209 9.12973 17.6144C8.9548 17.8461 8.6016 18.2898 8.40648 18.4948ZM18.7119 13.3406C18.7186 13.4144 18.7249 13.485 18.7351 13.5586C18.8329 13.5442 19.0595 13.4999 19.1402 13.5368C19.1411 13.6217 18.8404 13.7639 18.7721 13.8164C18.7841 13.9013 18.7976 13.9875 18.8061 14.0726C18.932 13.9755 19.064 13.8868 19.2015 13.8069C19.3215 13.9479 19.5118 13.9896 19.6701 13.8711C19.8341 13.7483 19.7514 13.4069 19.7146 13.2278L19.6984 13.2116L19.6578 13.2175C19.3458 13.2607 19.019 13.2962 18.7119 13.3406ZM6.78627 14.2158C7.03487 14.225 7.55498 14.2578 7.79513 14.2936C7.80336 14.2237 7.81413 14.1469 7.81873 14.0773C7.75225 14.07 7.67737 14.0599 7.6113 14.0565C7.56309 14.0524 7.45204 14.0505 7.41544 14.0329L7.40245 14.0099C7.45814 13.9259 7.73553 13.8553 7.84021 13.8107L7.85223 13.5619C7.70568 13.6244 7.57095 13.6827 7.42033 13.7353C7.39303 13.6922 7.36529 13.6465 7.33631 13.6048C7.2029 13.5448 7.16238 13.5383 7.01381 13.549C6.75076 13.6827 6.82645 13.9605 6.78627 14.2158ZM16.5524 9.44864L16.6459 9.28129C16.5586 9.23111 16.4252 9.15955 16.3453 9.10465L16.4532 8.91632C16.5706 8.98381 16.6918 9.05602 16.8102 9.12051C16.8412 9.06952 16.8774 9.00628 16.9123 8.95921C16.7359 8.85571 16.5399 8.74575 16.3686 8.63669C16.2066 8.913 16.0221 9.24408 15.849 9.50962C16.0115 9.60204 16.2407 9.74777 16.3975 9.82577L16.4928 9.65937C16.3829 9.59701 16.2439 9.52344 16.1441 9.44984L16.2261 9.3053L16.2491 9.28074C16.3058 9.2937 16.4878 9.41121 16.5524 9.44864ZM14.9039 19.2389C14.8414 19.2684 14.8051 19.2836 14.7399 19.3056C14.8558 19.6358 15.0047 20.0428 15.099 20.3762C15.1511 20.3589 15.2183 20.3387 15.2683 20.3194C15.2346 20.2179 15.1999 20.1168 15.1643 20.0159L15.2339 19.7964L15.6363 20.2064C15.7126 20.1724 15.7438 20.1585 15.826 20.1365C15.6768 19.9929 15.4208 19.7484 15.2849 19.5965C15.3008 19.5267 15.4154 19.1173 15.4062 19.089L15.4009 19.0855C15.3439 19.1022 15.2871 19.118 15.2309 19.1378C15.1802 19.3476 15.1285 19.5573 15.0758 19.7667C15.0249 19.6009 14.9468 19.3962 14.9039 19.2389ZM16.1796 18.6887L16.0312 18.7653C16.1044 18.9038 16.2249 19.1581 16.3135 19.3021C16.4262 19.4848 16.5118 19.7855 16.2086 19.7079C16.0995 19.6801 15.8287 19.0695 15.7459 18.9105C15.6959 18.9358 15.6631 18.9505 15.6184 18.9839C15.6037 19.0312 15.6081 19.0156 15.6349 19.0747C15.7686 19.3351 16.1607 20.4191 16.6021 19.6384C16.6537 19.547 16.2344 18.7342 16.1796 18.6887ZM10.4333 19.8673C10.6135 19.5312 10.7965 19.1968 10.9823 18.8637L10.8254 18.7818C10.7605 18.9278 10.5378 19.3444 10.4455 19.4718C10.4784 19.2135 10.4804 18.8628 10.4858 18.5966C10.4491 18.5764 10.3954 18.549 10.3625 18.5261C10.2136 18.7858 9.94105 19.2631 9.81671 19.5256L9.96566 19.6041C10.0815 19.3786 10.2114 19.1537 10.3228 18.93C10.3213 19.2108 10.2931 19.5188 10.2947 19.7835C10.338 19.8099 10.3896 19.8434 10.4333 19.8673ZM10.9595 9.41881C11.1365 9.34368 11.366 9.24068 11.5461 9.18044L11.4804 9.01583L11.4632 9.00328C11.3399 9.05009 11.2179 9.09994 11.0971 9.15278C11.0681 9.09481 11.0301 9.02402 11.0047 8.96583C11.109 8.91026 11.2188 8.86536 11.3322 8.83185L11.2648 8.6445C11.1718 8.68274 11.0267 8.7374 10.941 8.78193L10.8552 8.58492C10.9542 8.52724 11.121 8.46628 11.2322 8.42683C11.2137 8.38027 11.1792 8.26465 11.1462 8.24798C10.9741 8.32076 10.756 8.41736 10.5809 8.47612C10.6953 8.78145 10.8606 9.11985 10.9595 9.41881ZM18.6945 12.0398C18.7636 12.0663 18.8299 12.2839 18.857 12.3618L19.0399 12.2825C18.9975 12.1849 18.9461 12.0604 18.8957 11.9683C18.9635 11.9342 19.0249 11.9033 19.0952 11.8733C19.1603 12.0071 19.2043 12.118 19.2579 12.2557L19.437 12.1787C19.4106 12.1136 19.215 11.6199 19.1902 11.6047L18.2664 11.991C18.3391 12.1672 18.4412 12.3938 18.5025 12.5685C18.5599 12.546 18.632 12.5202 18.6868 12.4946C18.635 12.3703 18.5819 12.2337 18.5185 12.116C18.5742 12.0922 18.6408 12.0659 18.6945 12.0398ZM19.4203 14.7349C19.2097 14.8179 18.9771 14.8977 18.773 14.9841L18.754 15.1985C19.0504 15.2259 19.4765 15.2711 19.7673 15.2796L19.7759 15.074C19.5955 15.0605 19.3241 15.0324 19.15 15.0332C19.3599 14.949 19.5856 14.8601 19.8005 14.7913L19.8199 14.5778C19.4861 14.5245 19.1436 14.5211 18.8095 14.4836C18.8051 14.5498 18.802 14.626 18.7947 14.691C18.9802 14.7091 19.2366 14.7317 19.4203 14.7349ZM7.1171 12.9005C7.22662 12.9526 7.29331 12.9919 7.41492 12.9556C7.6121 12.8968 7.61654 12.5662 7.8135 12.6446C7.86536 12.6652 7.85989 12.6654 7.88391 12.7065C7.87434 12.8052 7.78144 12.8699 7.70668 12.9255C7.67973 13 7.69945 13.0431 7.72772 13.116C7.76624 13.1292 7.75256 13.126 7.79384 13.1269C7.93567 13.0687 7.95711 13.038 8.02489 12.8937C8.1588 12.6088 7.95681 12.3261 7.64323 12.4347C7.4901 12.4878 7.49339 12.7826 7.28423 12.7446C7.24707 12.7399 7.24057 12.7136 7.22966 12.6898C7.23833 12.5629 7.28417 12.5274 7.40195 12.5023C7.39272 12.4287 7.38667 12.3793 7.36857 12.3062C7.33732 12.2821 7.35396 12.2902 7.3163 12.2857C7.04805 12.3889 6.94482 12.6626 7.1171 12.9005ZM6.90083 15.6149C6.95811 15.9835 7.07909 15.9927 7.425 15.9615C7.81917 15.9259 8.1829 15.6515 7.79425 15.2723C7.6747 15.2365 7.64125 15.2247 7.51319 15.2379C7.52295 15.2898 7.53927 15.4162 7.56512 15.4514L7.58743 15.4537C7.67454 15.4631 7.74401 15.4675 7.75117 15.579C7.71283 15.6865 7.53816 15.712 7.43577 15.7293C7.32474 15.7482 7.20082 15.7984 7.12178 15.7017C7.11257 15.6501 7.10995 15.6527 7.12777 15.6041C7.18363 15.5477 7.24942 15.5388 7.244 15.4998C7.23588 15.4417 7.21632 15.3623 7.20778 15.3021C7.0334 15.3767 6.94204 15.414 6.90083 15.6149ZM17.8955 18.8805L18.0343 18.7594C17.9931 18.686 17.9564 18.6213 17.9212 18.5447L17.9936 18.469L18.1621 18.3182C18.2351 18.3639 18.3102 18.4089 18.3781 18.4616C18.4231 18.4214 18.4717 18.3761 18.5183 18.3387C18.2153 18.1289 17.8237 17.9063 17.5059 17.7024C17.4693 17.7369 17.4303 17.7751 17.3929 17.8082C17.5749 18.1519 17.7168 18.5324 17.8955 18.8805ZM8.99483 10.6227L8.90058 10.5256C8.85165 10.5953 8.81936 10.6411 8.76196 10.706C8.9709 10.9035 8.73583 11.0141 8.56797 10.8541C8.50526 10.7944 8.17789 10.5689 8.35088 10.475C8.43175 10.4719 8.45027 10.4749 8.52419 10.516C8.56941 10.4459 8.59779 10.3969 8.65695 10.3364C8.55802 10.2817 8.49377 10.237 8.37881 10.2386C8.2647 10.2881 8.15873 10.3457 8.10728 10.4699C8.07545 10.5453 8.0759 10.6304 8.10857 10.7054C8.16547 10.8366 8.50128 11.1112 8.63906 11.1452C8.91626 11.2137 9.17844 10.8956 8.99483 10.6227ZM7.23298 14.9203C7.09509 14.9274 6.95726 14.9361 6.81952 14.9459C6.82361 15.0185 6.82834 15.0912 6.83373 15.1636C7.17286 15.1532 7.50897 15.1106 7.84713 15.0989L7.82476 14.8801C7.69057 14.884 7.55658 14.8929 7.42307 14.9068C7.41879 14.8282 7.41595 14.7418 7.4083 14.6642C7.55117 14.6511 7.67706 14.6466 7.81774 14.6372C7.813 14.5876 7.80855 14.4466 7.78521 14.4176L7.77089 14.4182C7.45831 14.4415 7.1027 14.4693 6.78989 14.4788L6.80439 14.7018C6.94016 14.6921 7.09068 14.6781 7.22564 14.6753C7.22785 14.7522 7.22796 14.8449 7.23298 14.9203ZM11.5517 19.1026C11.4747 19.339 11.3789 19.5709 11.2876 19.8021C11.2196 19.9743 11.109 20.0497 10.9743 19.881C10.9252 19.8611 10.9125 19.8718 10.8618 19.8851L10.8049 19.9001C10.8394 19.9853 10.857 20.0203 10.927 20.0825C11.0833 20.1657 11.1564 20.1772 11.3178 20.1001C11.4262 19.9539 11.6524 19.3529 11.7146 19.1676L11.5517 19.1026ZM14.5629 9.03727C14.6328 9.05534 14.7005 9.07157 14.7689 9.09512C14.813 8.96302 14.8523 8.84688 14.8858 8.71119L15.2185 8.81299C15.2355 8.75418 15.2534 8.68526 15.2724 8.6281C15.1898 8.60401 15.0126 8.54434 14.9379 8.52929C14.9568 8.4588 14.9805 8.37821 14.9957 8.30778C15.1304 8.34408 15.264 8.38428 15.3964 8.42833C15.411 8.36463 15.4247 8.3006 15.443 8.23795C15.2495 8.1803 15.0441 8.12444 14.8539 8.06057C14.745 8.38291 14.6674 8.71261 14.5629 9.03727ZM6.88118 13.3063C7.20759 13.3518 7.55834 13.4246 7.88001 13.4942L7.92724 13.2717C7.62805 13.2289 7.22936 13.1414 6.92362 13.0852L6.88118 13.3063ZM13.1061 19.4517C13.054 19.4488 12.979 19.4469 12.9292 19.44C12.9114 19.821 12.8972 20.2092 12.874 20.5891C13.0162 20.5909 13.3519 20.5972 13.4857 20.6187C13.4874 20.5478 13.4877 20.5158 13.5017 20.4469C13.3545 20.4385 13.2077 20.4284 13.0609 20.4165C13.0718 20.0955 13.0974 19.7683 13.1061 19.4517ZM10.1833 9.62136C10.0801 9.70201 9.96462 9.79707 9.85516 9.86618C9.79115 9.78014 9.42355 9.25988 9.36441 9.21188L9.19619 9.34126C9.3902 9.6083 9.61137 9.88948 9.79672 10.1577C9.90049 10.0777 10.0154 9.98502 10.1225 9.91188L10.2926 9.78175C10.258 9.73263 10.2128 9.67224 10.1833 9.62136ZM7.47612 11.467C7.40234 11.6794 7.29758 11.8993 7.20579 12.1066L7.38638 12.1883C7.41398 12.1172 7.4424 12.0374 7.47603 11.9697C7.66329 12.046 7.84893 12.1262 8.03285 12.2102C8.09514 12.2363 8.16167 12.2628 8.22272 12.2909C8.25573 12.2266 8.29125 12.1621 8.31691 12.0949C8.07057 11.9917 7.80864 11.8684 7.56372 11.7744L7.65668 11.5478L7.47612 11.467ZM12.2736 20.4881C12.3344 20.5027 12.3977 20.5171 12.4578 20.5336C12.4444 20.4207 12.4348 20.2945 12.4312 20.1807C12.4223 19.9056 12.3835 19.6177 12.3829 19.3436C12.3376 19.3328 12.2767 19.3202 12.2333 19.3066C12.0396 19.6461 11.8262 20.0064 11.6438 20.3493C11.7179 20.3616 11.7508 20.3693 11.8224 20.392C11.8573 20.3188 11.8917 20.233 11.9434 20.1727C11.9768 20.1664 11.9646 20.1661 11.9982 20.172C12.0955 20.2014 12.1612 20.2172 12.2611 20.2374L12.2736 20.4881ZM19.804 14.1182C19.6911 14.1205 19.5684 14.1208 19.4565 14.1275C19.2481 14.1328 19.0007 14.1269 18.8 14.1394L18.803 14.3668C18.9061 14.3633 19.0168 14.3571 19.1193 14.3559L19.8178 14.34L19.804 14.1182ZM8.89399 17.3884C8.8639 17.358 8.79537 17.2845 8.76427 17.2629C8.54004 17.4997 8.20724 17.8519 7.96964 18.0645C8.01689 18.1214 8.03649 18.1489 8.09645 18.1952C8.33604 17.9434 8.64278 17.6243 8.89399 17.3884ZM10.078 18.3412C10.027 18.3017 9.98508 18.2687 9.93053 18.2333C9.79296 18.4765 9.46472 18.9405 9.29447 19.1783L9.44309 19.278C9.59925 19.0114 9.89542 18.6027 10.078 18.3412ZM17.6294 10.9875C17.6489 11.0142 17.7436 11.1477 17.7606 11.1612C18.0321 10.9697 18.2998 10.7568 18.5679 10.5583C18.5475 10.53 18.4555 10.3955 18.4357 10.3821C18.1683 10.5857 17.8995 10.7875 17.6294 10.9875ZM10.8989 9.43455C10.8647 9.3787 10.8317 9.32215 10.7999 9.26494C10.6902 9.33567 10.5655 9.41241 10.4467 9.46716C10.4019 9.37974 10.0947 8.81045 10.0452 8.76301L9.85822 8.8593L10.3627 9.75011C10.49 9.66004 10.5965 9.60301 10.7348 9.53204L10.8989 9.43455ZM19.6678 12.9929C19.6418 12.8915 19.5416 12.4523 19.5057 12.3851C19.1815 12.4786 18.8559 12.5668 18.5289 12.6495L18.6997 13.2611C18.7614 13.2422 18.823 13.2228 18.8844 13.2029C18.847 13.0724 18.8104 12.9417 18.7745 12.8109C18.8338 12.7947 18.8989 12.7751 18.9587 12.7631L18.9811 12.7714C19.0149 12.854 19.0504 13.0063 19.0743 13.098C19.1298 13.0809 19.2046 13.0552 19.2591 13.0418C19.2251 12.9287 19.1978 12.8228 19.1692 12.708C19.2421 12.6819 19.3016 12.6596 19.3775 12.6415L19.4812 13.0401L19.6678 12.9929ZM12.0752 8.44859L11.8056 8.51788C11.8208 8.57183 11.8366 8.66905 11.8717 8.69681C11.9407 8.69178 11.945 8.67989 11.9958 8.70681C12.0108 8.75625 11.9974 8.77771 11.9808 8.82715C11.7427 9.09125 11.5819 8.39222 11.729 8.27796C11.8178 8.26297 11.8474 8.29258 11.8956 8.36717L12.1096 8.31287C12.0339 8.15384 11.9861 8.06383 11.7906 8.06156C11.563 8.09915 11.475 8.14912 11.4142 8.38538C11.4619 8.56004 11.5333 8.99855 11.6711 9.04403C12.1985 9.21804 12.2896 8.80889 12.1402 8.44452C12.1062 8.43648 12.1086 8.4373 12.0752 8.44859ZM12.9955 8.71648L12.9788 8.69737C12.851 8.71193 12.7154 8.72572 12.5893 8.74797C12.5779 8.67504 12.5673 8.60531 12.5526 8.53283C12.6702 8.52285 12.7875 8.51002 12.9045 8.49434L12.8856 8.30133C12.7807 8.31346 12.6385 8.33413 12.5358 8.33936C12.528 8.26861 12.5188 8.19557 12.5123 8.12495L12.9182 8.08528C12.9123 8.03484 12.9091 7.91476 12.8816 7.88855L12.8771 7.88865C12.677 7.91252 12.4719 7.93925 12.2716 7.95672C12.3054 8.25833 12.3413 8.68125 12.397 8.96978C12.6039 8.94025 12.8113 8.9139 13.0191 8.89077C13.0095 8.83091 13.0002 8.77717 12.9955 8.71648ZM19.085 15.6231C19.2009 15.6482 19.46 15.6757 19.4613 15.8272C19.4374 15.8738 19.4392 15.8773 19.3968 15.9107C19.3635 15.916 19.3301 15.9206 19.2966 15.9245C19.2728 15.9964 19.2594 16.07 19.2435 16.1441C19.375 16.1545 19.4038 16.1538 19.5284 16.0977C19.6757 15.9173 19.6959 15.7833 19.597 15.5745C19.4521 15.4694 19.0796 15.3702 18.9087 15.3673C18.6974 15.4413 18.5755 15.6394 18.6446 15.8671C18.697 16.0395 18.9672 16.0886 19.1279 16.1201C19.1519 16.0054 19.1785 15.8914 19.2075 15.778C19.1439 15.7613 19.0892 15.7379 19.0292 15.7561C18.9919 15.7886 18.9959 15.7893 18.9809 15.8376C18.9436 15.8507 18.916 15.8346 18.8769 15.8211C18.8218 15.7647 18.812 15.6988 18.8719 15.6397C18.9355 15.5771 19.0095 15.6051 19.085 15.6231ZM14.1489 19.4078C14.0945 19.4177 14.074 19.4107 14.0446 19.4429C13.9917 19.7579 13.9314 20.3298 13.8576 20.6112C13.9235 20.6006 13.9841 20.5894 14.0509 20.5847C14.063 20.4941 14.0736 20.4112 14.0925 20.3216L14.3639 20.2907L14.4001 20.2935C14.4512 20.3531 14.4796 20.4417 14.5117 20.5171C14.5762 20.5055 14.6284 20.4964 14.6939 20.4897C14.5878 20.2666 14.4842 20.0421 14.3831 19.8166C14.3309 19.7018 14.2494 19.5088 14.1855 19.4095L14.1489 19.4078ZM17.7632 9.83239C17.6592 9.87792 17.5717 9.95983 17.4869 10.0319C17.3273 10.1676 17.153 10.339 17.2646 10.5631C17.311 10.6564 17.3812 10.731 17.4825 10.764C17.5669 10.7917 17.6589 10.783 17.7366 10.7401C17.805 10.7027 17.9254 10.5821 17.9851 10.5237C17.9064 10.4226 17.8441 10.3584 17.754 10.266C17.7275 10.29 17.6332 10.3721 17.6155 10.3944C17.6601 10.4451 17.6637 10.4341 17.6763 10.4914C17.628 10.5734 17.5326 10.5592 17.4822 10.5066C17.3446 10.3628 17.81 10.0247 17.9254 10.055C17.9895 10.1217 17.9646 10.1887 17.9301 10.2637C17.9524 10.3167 18.0368 10.3847 18.0803 10.431C18.2163 10.2385 18.2449 10.0689 18.0222 9.89239C17.9449 9.8312 17.8604 9.82385 17.7632 9.83239ZM18.2418 11.8513L19.0711 11.357C19.0378 11.2963 19.0053 11.2352 18.9733 11.1737C18.7935 11.2863 18.6118 11.3959 18.4285 11.5027C18.5569 11.3091 18.6877 11.1173 18.8212 10.9271C18.7929 10.8798 18.737 10.768 18.6939 10.7498C18.4125 10.9206 18.1218 11.088 17.8431 11.2603C17.8774 11.319 17.9111 11.3782 17.9442 11.4377C18.1108 11.3349 18.3094 11.2223 18.4681 11.115C18.3633 11.2957 18.2144 11.5058 18.0951 11.6817C18.1262 11.741 18.1587 11.8157 18.2053 11.8607C18.2358 11.8581 18.2245 11.8636 18.2418 11.8513ZM17.0944 9.07737C16.9732 9.23091 16.5741 9.75673 16.4535 9.86794L16.6207 9.99322C16.7548 9.83474 16.8842 9.6725 17.0091 9.50672C16.9552 9.7258 16.9039 9.96544 16.8441 10.1802C16.8968 10.2176 16.9882 10.3076 17.0295 10.3045C17.1925 10.0993 17.4835 9.71094 17.6513 9.53082C17.6 9.48622 17.549 9.44049 17.4955 9.39869C17.3598 9.5564 17.236 9.72551 17.0997 9.87877C17.1432 9.70268 17.2111 9.37995 17.2653 9.22204C17.2077 9.17464 17.1507 9.12641 17.0944 9.07737Z" fill="#005BA8"/>
<path d="M13.1428 9.45524C13.8389 9.42187 14.5328 9.55541 15.1668 9.84472C16.3506 10.3924 17.2509 11.4736 17.6985 12.6856C17.6132 12.601 17.4995 12.4592 17.4143 12.3636C17.2703 12.2015 17.1169 12.0479 16.9549 11.9035C15.9755 11.0334 14.7823 10.5891 13.463 10.6728C12.5614 10.73 11.3152 11.0718 10.6864 11.7553C10.4714 11.989 10.2593 12.4356 10.2891 12.7595C10.3185 13.0779 10.4758 13.2918 10.7156 13.4899C11.8368 14.4161 13.2209 14.681 14.6392 14.5369C15.6566 14.4571 16.7612 14.1095 17.6835 13.6844C16.9016 14.3836 16.2101 14.8665 15.1924 15.201C13.3049 15.8215 11.2211 15.4941 9.42895 14.7236C9.10786 14.5855 8.85394 14.4485 8.54608 14.2873C8.54678 14.0318 8.59662 13.7032 8.64484 13.4522C8.82413 12.5192 9.2409 11.6731 9.88457 10.9713C10.722 10.0481 11.8967 9.5015 13.1428 9.45524Z" fill="var(--fill-0, #21A7DF)"/>
<path d="M17.959 14.3498C17.9747 14.4442 17.9558 14.6531 17.9419 14.7485C17.6702 16.6197 16.4066 18.3065 14.494 18.7231C13.1991 18.9985 11.8502 18.9143 10.7049 18.1998C9.44172 17.4117 8.87805 16.2686 8.54112 14.8724C9.20235 15.347 10.3096 15.7619 11.0917 15.9325C12.5609 16.293 13.9915 16.0833 15.3816 15.5455C14.0327 16.411 12.8448 17.0061 11.245 17.2985L11.2922 17.3184C13.8698 18.4059 16.417 17.8223 17.622 15.1601C17.7449 14.8882 17.8446 14.6226 17.959 14.3498Z" fill="#8CC641"/>
<path d="M16.8609 18.4384C16.9618 18.438 16.9743 18.4538 17.0393 18.5324C17.0997 18.6093 17.1623 18.6872 17.2152 18.7694C17.3784 19.0233 17.3986 19.0417 17.157 19.2048L17.1346 19.2035C17.0206 19.0805 16.7857 18.7224 16.6816 18.5688C16.7436 18.5149 16.7932 18.4834 16.8609 18.4384Z" fill="#005BA8"/>
<path d="M14.1537 8.14551C14.4379 8.13115 14.3378 8.38735 14.3111 8.57582C14.2993 8.66015 14.2845 8.7101 14.222 8.7695C13.9317 8.81148 14.0878 8.23868 14.1537 8.14551Z" fill="#005BA8"/>
<path d="M8.96119 9.82403C9.07146 9.84434 9.36563 10.1393 9.35651 10.2764C9.33294 10.3333 9.32293 10.3351 9.26939 10.3717C9.17144 10.3542 9.08365 10.2702 9.01628 10.1984C8.88939 10.0631 8.78286 9.95427 8.96119 9.82403Z" fill="#005BA8"/>
<path d="M9.1589 17.8605C9.38306 17.9848 9.4413 18.1419 9.18365 18.2806C9.11664 18.2466 9.01301 18.1636 8.94856 18.1151C9.01672 18.0432 9.09527 17.9399 9.1589 17.8605Z" fill="#005BA8"/>
<path d="M19.5012 13.4643C19.5385 13.4625 19.5223 13.4568 19.5498 13.4812C19.5784 13.5721 19.5806 13.586 19.5435 13.6714C19.4927 13.7129 19.4959 13.7007 19.4209 13.7133C19.3469 13.6802 19.3495 13.5613 19.3386 13.4852L19.5012 13.4643Z" fill="#005BA8"/>
<path d="M7.05143 13.7666C7.10883 13.7686 7.1139 13.7691 7.16961 13.7825C7.25226 13.8477 7.2635 13.9369 7.19828 14.0177C7.14122 14.0196 7.10007 14.0265 7.04783 14.0047C6.97791 13.9294 7.00142 13.8506 7.05143 13.7666Z" fill="#005BA8"/>
<path d="M12.2327 19.6344C12.2562 19.7012 12.252 19.9711 12.2522 20.0572C12.1916 20.0503 12.1409 20.0372 12.0819 20.0235L12.0492 20.016C12.034 19.94 12.1879 19.7065 12.2327 19.6344Z" fill="#005BA8"/>
<path d="M14.1565 19.7355C14.2027 19.768 14.3192 20.0434 14.3215 20.1109L14.2875 20.1253C14.2291 20.1329 14.1693 20.1431 14.1108 20.1522L14.1565 19.7355Z" fill="#005BA8"/>
<path d="M17.6549 17.9918C17.7182 18.0182 17.9789 18.1828 18.01 18.2302L17.954 18.2724C17.9228 18.3061 17.8802 18.3431 17.8456 18.3749C17.7761 18.2517 17.7159 18.1195 17.6549 17.9918Z" fill="#005BA8"/>
<path d="M7.72568 16.2775C7.9081 16.2372 8.08897 16.3511 8.13132 16.533C8.17365 16.7147 8.06168 16.8967 7.88021 16.9411C7.76099 16.9702 7.63531 16.9332 7.55112 16.8439C7.46692 16.7547 7.43722 16.6272 7.47334 16.5099C7.50946 16.3927 7.60582 16.304 7.72568 16.2775Z" fill="var(--fill-0, #21A7DF)"/>
<path d="M18.7368 16.2784C18.919 16.2371 19.1004 16.3498 19.1439 16.5312C19.1874 16.7128 19.0768 16.8954 18.8957 16.9411C18.7765 16.971 18.6507 16.9346 18.5658 16.8459C18.481 16.7573 18.4505 16.6299 18.4858 16.5124C18.5213 16.3949 18.6171 16.3056 18.7368 16.2784Z" fill="var(--fill-0, #21A7DF)"/>
</g>
</svg>
