<svg preserveAspectRatio="none" width="100%" height="100%" overflow="visible" style="display: block;" viewBox="0 0 26 28" fill="none" xmlns="http://www.w3.org/2000/svg">
<path id="ust-logo-icon" fill-rule="evenodd" clip-rule="evenodd" d="M6.66874 0H9.5862V6.13143C9.5862 8.98209 7.8357 10.699 4.81562 10.699C1.67591 10.699 0 8.90917 0 6.13143V0H2.91761V6.14493C2.91761 7.36913 3.63439 8.06616 4.8007 8.06616C5.96673 8.06616 6.66874 7.36913 6.66874 6.14493V0ZM4.94224 21.2319L5.8659 21.4505C8.47083 22.0626 9.4285 23.2396 9.4285 24.7115C9.4285 26.6496 7.65295 28 4.6847 28C3.02371 28 0.976275 27.3217 0.186971 25.9262L1.99589 24.5002C2.72827 25.2239 3.55698 25.6613 4.66951 25.6613C5.6322 25.6613 6.39687 25.348 6.39687 24.7848C6.39687 24.3329 6.04762 24.159 5.09359 23.9258L4.12433 23.6927C1.53459 23.0661 0.53154 21.6426 0.53154 20.2726C0.53154 18.4999 2.1404 16.9986 4.95716 16.9986C6.62375 16.9986 8.28612 17.6871 9.05052 18.9332L7.24176 20.3593C6.62622 19.8189 5.87619 19.4243 4.94224 19.4243C3.93385 19.4243 3.4419 19.8255 3.4419 20.1994C3.4419 20.6949 3.91223 20.9842 4.94224 21.2319ZM16.7282 17.301H26V19.7699H22.8291V27.6698H19.8992V19.7699H16.7282V17.301ZM23.4299 7.1005H19.2984V3.07341H23.4299V7.1005Z" fill="var(--fill-0, #171717)"/>
</svg>
