<svg preserveAspectRatio="none" width="100%" height="100%" overflow="visible" style="display: block;" viewBox="0 0 64 64" fill="none" xmlns="http://www.w3.org/2000/svg">
<g id="tools/photoshop">
<path d="M0 16C0 7.16344 7.16344 0 16 0H48C56.8366 0 64 7.16344 64 16V48C64 56.8366 56.8366 64 48 64H16C7.16344 64 0 56.8366 0 48V16Z" fill="#001E36"/>
<path d="M14.4112 44.6087V16.5158C14.4112 16.3108 14.4971 16.2082 14.669 16.2081L14.9407 16.2073L15.4052 16.2022L16.0507 16.1891L18.2132 16.1423L20.532 16.0983C21.3475 16.0837 22.156 16.0764 22.9575 16.0762C25.1325 16.0762 26.9643 16.3547 28.453 16.9116C29.796 17.3764 31.0208 18.1424 32.038 19.1536C32.9004 20.03 33.5669 21.0875 33.9915 22.2533C34.3929 23.3877 34.5965 24.5856 34.5927 25.7922C34.5927 28.1373 34.0631 30.0718 33.004 31.5955C31.9682 33.082 30.5234 34.2189 28.854 34.861L28.7107 34.9148C26.9675 35.5806 25.037 35.8213 22.9197 35.8364L22.5907 35.8374L22.1025 35.8348L21.8562 35.8312L21.5817 35.8246L21.4162 35.8179L21.3157 35.8126L21.0685 35.8033L20.7662 35.7969L20.3112 35.7936L20.21 35.7934V44.5647C20.2175 44.6185 20.2127 44.6733 20.1959 44.7248C20.1792 44.7763 20.1509 44.8232 20.1134 44.8616C20.0759 44.9 20.0302 44.9289 19.9798 44.9461C19.9295 44.9632 19.876 44.9682 19.8235 44.9605H14.712C14.5113 44.9606 14.4111 44.8434 14.4112 44.6087ZM20.2102 21.4837V30.6465C20.5819 30.676 20.9252 30.6907 21.2402 30.6905H22.6572C23.6342 30.6871 24.6054 30.5381 25.5405 30.2484L25.727 30.1888C26.5777 29.9302 27.3379 29.4265 27.9167 28.7377C28.4547 28.088 28.7334 27.1927 28.7527 26.0518L28.754 25.924C28.7765 25.0736 28.5605 24.2344 28.1312 23.5061C27.6803 22.8016 27.0282 22.2565 26.2637 21.9453C25.2658 21.5479 24.1997 21.361 23.1295 21.3959L22.585 21.3975L22.2415 21.4005L21.9137 21.4049L21.4512 21.4141L21.1137 21.4238L20.9385 21.4305L20.7042 21.4417L20.5047 21.4543L20.391 21.4635L20.2927 21.4732L20.2495 21.4783L20.2102 21.4837ZM51.1927 28.9804C50.4437 28.5864 49.6493 28.2904 48.8282 28.0993L48.6382 28.0573C47.7348 27.8451 46.8126 27.7282 45.886 27.7084L45.6545 27.7056C45.1112 27.6904 44.5688 27.7571 44.0445 27.9034C43.7108 27.9797 43.4142 28.1743 43.207 28.4528C43.067 28.6758 42.9925 28.9353 42.9925 29.2003C43.0003 29.4574 43.0908 29.7046 43.25 29.9036C43.4779 30.1764 43.7518 30.4051 44.0587 30.5786L44.1517 30.6291C44.7639 30.9665 45.3946 31.2674 46.0407 31.5302C47.4815 32.0244 48.8583 32.6961 50.1407 33.5306C51.0144 34.0952 51.7374 34.8733 52.2447 35.7949C52.671 36.6675 52.8846 37.6328 52.8672 38.6083C52.8927 39.8967 52.5331 41.1623 51.8367 42.2356C51.0911 43.325 50.0552 44.1718 48.8527 44.6753C47.5934 45.2419 46.047 45.5348 44.2135 45.5539L44.023 45.5549C42.8863 45.5665 41.7513 45.4646 40.634 45.2508L40.395 45.2032C39.4542 45.0265 38.5385 44.7311 37.6687 44.3238C37.5812 44.2777 37.5073 44.2085 37.4545 44.1235C37.4017 44.0385 37.3719 43.9406 37.3682 43.84V39.0481C37.3631 39.0016 37.3704 38.9546 37.3893 38.912C37.4082 38.8693 37.4381 38.8328 37.4757 38.8062C37.5126 38.7848 37.5549 38.7754 37.5971 38.7793C37.6393 38.7833 37.6793 38.8003 37.7117 38.8282C38.7389 39.4484 39.8542 39.9008 41.0175 40.1692C42.0429 40.4325 43.0947 40.5727 44.1517 40.587C45.1532 40.587 45.8902 40.455 46.3627 40.1912C46.576 40.091 46.7564 39.9298 46.8821 39.727C47.0078 39.5241 47.0735 39.2884 47.0712 39.0481C47.0712 38.6676 46.8566 38.3012 46.4272 37.9491C46.2472 37.8017 45.9891 37.6413 45.653 37.4679L45.4922 37.387L45.3207 37.3043L45.2307 37.2623L45.0422 37.1768L44.944 37.1333L44.739 37.0452L44.6322 37.0004L44.4107 36.9095L44.2957 36.8634L44.0575 36.7695L43.8082 36.674C42.4599 36.1939 41.1817 35.5284 40.0085 34.6956C39.1692 34.098 38.4782 33.3076 37.9907 32.3875C37.5687 31.5212 37.3552 30.5639 37.3682 29.5959C37.3656 28.4326 37.6776 27.2913 38.2697 26.2986C38.9447 25.2055 39.9137 24.3351 41.0605 23.7928C42.3196 23.1484 43.8938 22.8259 45.783 22.8254C46.8895 22.8163 47.995 22.8972 49.089 23.0673C49.8811 23.1703 50.6556 23.3848 51.3905 23.7048C51.5087 23.7396 51.604 23.8289 51.648 23.9467C51.6772 24.054 51.6915 24.1648 51.691 24.2764V28.7168C51.6972 28.8217 51.648 28.9223 51.5622 28.9804C51.5048 29.0097 51.4416 29.0249 51.3775 29.0249C51.3134 29.0249 51.2501 29.0097 51.1927 28.9804Z" fill="var(--fill-0, #31A8FF)" fill-opacity="0.9"/>
</g>
</svg>
