<svg preserveAspectRatio="none" width="100%" height="100%" overflow="visible" style="display: block;" viewBox="0 0 64 64" fill="none" xmlns="http://www.w3.org/2000/svg">
<g id="tools/premiere-pro">
<path d="M0 16C0 7.16344 7.16344 0 16 0H48C56.8366 0 64 7.16344 64 16V48C64 56.8366 56.8366 64 48 64H16C7.16344 64 0 56.8366 0 48V16Z" fill="#00005B"/>
<path d="M13.5 45.4698V18.0031C13.5 17.8166 13.58 17.7098 13.7668 17.7098C14.22 17.7098 14.6468 17.7098 15.26 17.6831C15.9 17.6566 16.5668 17.6566 17.2868 17.6298C18.0068 17.6031 18.78 17.6031 19.6068 17.5766C20.4333 17.5498 21.2333 17.5498 22.0333 17.5498C24.22 17.5498 26.0333 17.8166 27.5268 18.3766C28.8653 18.8312 30.0859 19.5781 31.1 20.5631C31.9591 21.4253 32.623 22.462 33.0467 23.6031C33.4467 24.7231 33.66 25.8698 33.66 27.0698C33.66 29.3631 33.1267 31.2565 32.06 32.7498C30.9933 34.2431 29.5 35.3631 27.7668 36.0031C25.9533 36.6698 23.9533 36.9098 21.7668 36.9098C21.1268 36.9098 20.7 36.9098 20.4333 36.8831C20.1668 36.8566 19.7933 36.8566 19.2868 36.8566V45.4166C19.3133 45.6031 19.18 45.7631 18.9932 45.7898H13.82C13.6067 45.7898 13.5 45.6831 13.5 45.4431V45.4698ZM19.3132 22.8831V31.8431C19.6867 31.8698 20.0333 31.8966 20.3533 31.8966H21.7668C22.8068 31.8966 23.8468 31.7366 24.8333 31.4166C25.6868 31.1766 26.4333 30.6698 27.02 30.0031C27.58 29.3366 27.8468 28.4298 27.8468 27.2566C27.8718 26.4232 27.659 25.5999 27.2332 24.8831C26.78 24.1898 26.14 23.6566 25.3668 23.3631C24.38 22.9631 23.3132 22.8031 22.22 22.8298C21.5267 22.8298 20.9132 22.8298 20.4067 22.8566C19.8732 22.8298 19.5 22.8566 19.3132 22.8831ZM37.5 24.4566H42.1668C42.4335 24.4566 42.6467 24.6431 42.7267 24.8831C42.8067 25.0966 42.86 25.3098 42.8867 25.5498C42.94 25.8166 42.9935 26.1098 43.02 26.3766C43.0468 26.6698 43.0735 26.9898 43.0735 27.3366C43.8741 26.4018 44.8417 25.624 45.9268 25.0431C47.1535 24.3498 48.5667 24.0031 49.98 24.0031C50.1667 23.9766 50.3268 24.1098 50.3535 24.2966V29.6031C50.3535 29.8166 50.22 29.8966 49.9268 29.8966C48.9668 29.8698 47.98 29.9498 47.0467 30.1631C46.2734 30.3231 45.5268 30.5631 44.8068 30.8831C44.3 31.1231 43.82 31.4431 43.4468 31.8698V45.4698C43.4468 45.7366 43.34 45.8431 43.1 45.8431H37.8467C37.6335 45.8698 37.4467 45.7366 37.42 45.5231V30.6431C37.42 30.0031 37.42 29.3366 37.3935 28.6431C37.3668 27.9498 37.3668 27.2566 37.34 26.5631C37.34 25.9498 37.2868 25.3631 37.2335 24.7498C37.2068 24.6166 37.2867 24.4831 37.42 24.4566C37.42 24.4298 37.4735 24.4298 37.5 24.4566Z" fill="var(--fill-0, #9999FF)" fill-opacity="0.9"/>
</g>
</svg>
