<svg preserveAspectRatio="none" width="100%" height="100%" overflow="visible" style="display: block;" viewBox="0 0 113.159 113.159" fill="none" xmlns="http://www.w3.org/2000/svg">
<path id="Vector" d="M2.08151 14.0912C0.887148 12.4988 1.04551 10.2704 2.45308 8.86281L8.86281 2.45308C10.2704 1.04551 12.4988 0.887149 14.0912 2.08151L20.2318 6.68692C21.654 7.75358 23.6096 7.75358 25.0318 6.68692L31.5477 1.8C32.9699 0.733333 34.9254 0.733334 36.3477 1.8L42.8636 6.68692C44.2858 7.75358 46.2413 7.75358 47.6636 6.68692L54.1794 1.8C55.6017 0.733333 57.5572 0.733334 58.9794 1.8L65.4953 6.68692C66.9176 7.75358 68.8731 7.75358 70.2953 6.68692L76.8112 1.8C78.2335 0.733333 80.189 0.733334 81.6112 1.8L88.1271 6.68692C89.5493 7.75358 91.5049 7.75358 92.9271 6.68692L99.0677 2.08151C100.66 0.887148 102.889 1.04552 104.296 2.45308L110.706 8.86281C112.113 10.2704 112.272 12.4988 111.077 14.0912L106.472 20.2318C105.405 21.654 105.405 23.6096 106.472 25.0318L111.359 31.5477C112.426 32.9699 112.426 34.9254 111.359 36.3477L106.472 42.8636C105.405 44.2858 105.405 46.2413 106.472 47.6636L111.359 54.1795C112.426 55.6017 112.426 57.5572 111.359 58.9794L106.472 65.4953C105.405 66.9176 105.405 68.8731 106.472 70.2953L111.359 76.8112C112.426 78.2335 112.426 80.189 111.359 81.6112L106.472 88.1271C105.405 89.5493 105.405 91.5049 106.472 92.9271L111.077 99.0677C112.272 100.66 112.113 102.889 110.706 104.296L104.296 110.706C102.889 112.113 100.66 112.272 99.0677 111.077L92.9271 106.472C91.5049 105.405 89.5493 105.405 88.1271 106.472L81.6112 111.359C80.189 112.426 78.2335 112.426 76.8112 111.359L70.2953 106.472C68.8731 105.405 66.9176 105.405 65.4953 106.472L58.9794 111.359C57.5572 112.426 55.6017 112.426 54.1794 111.359L47.6636 106.472C46.2413 105.405 44.2858 105.405 42.8636 106.472L36.3477 111.359C34.9254 112.426 32.9699 112.426 31.5477 111.359L25.0318 106.472C23.6096 105.405 21.654 105.405 20.2318 106.472L14.0912 111.077C12.4988 112.272 10.2704 112.113 8.86281 110.706L2.45308 104.296C1.04551 102.889 0.887149 100.66 2.08151 99.0677L6.68692 92.9271C7.75358 91.5049 7.75358 89.5493 6.68692 88.1271L1.8 81.6112C0.733333 80.189 0.733334 78.2335 1.8 76.8112L6.68692 70.2953C7.75358 68.8731 7.75358 66.9176 6.68692 65.4953L1.8 58.9794C0.733333 57.5572 0.733334 55.6017 1.8 54.1794L6.68692 47.6636C7.75358 46.2413 7.75358 44.2858 6.68692 42.8636L1.8 36.3477C0.733334 34.9254 0.733334 32.9699 1.8 31.5477L6.68692 25.0318C7.75358 23.6096 7.75358 21.654 6.68692 20.2318L2.08151 14.0912Z" stroke="var(--stroke-0, #A3A3A3)" stroke-width="2" stroke-linecap="round" stroke-linejoin="round"/>
</svg>
