<svg width="121" height="121" viewBox="0 0 121 121" fill="none" xmlns="http://www.w3.org/2000/svg">
<path d="M44.201 38.5559L45.1175 38.4757L45.7276 45.4491L44.8111 45.5292L44.201 38.5559ZM48.7934 38.1541L49.7199 38.073L50.33 45.0464L49.4035 45.1275L48.7934 38.1541ZM44.8679 41.5893L49.7692 41.1605L49.8389 41.9574L44.9376 42.3863L44.8679 41.5893ZM54.8571 44.8109C54.1199 44.8754 53.4781 44.7676 52.9316 44.4875C52.3911 44.2002 51.964 43.7925 51.6501 43.2646C51.3362 42.7366 51.1496 42.1339 51.0904 41.4565C51.0468 40.9584 51.0789 40.4838 51.1867 40.0327C51.3005 39.5743 51.489 39.1663 51.7521 38.8087C52.0153 38.4511 52.3513 38.1607 52.76 37.9376C53.1749 37.7072 53.6612 37.5676 54.2191 37.5188C54.7703 37.4706 55.2669 37.5242 55.7088 37.6796C56.1567 37.8278 56.5413 38.0551 56.8626 38.3616C57.1839 38.6681 57.437 39.0374 57.6221 39.4696C57.8132 39.8946 57.9305 40.3561 57.9741 40.8542C58.0334 41.5316 57.9543 42.1576 57.7368 42.732C57.5194 43.3065 57.1695 43.7821 56.6872 44.159C56.2043 44.5291 55.5943 44.7464 54.8571 44.8109ZM54.7812 43.9443C55.3325 43.896 55.7794 43.7264 56.122 43.4355C56.4713 43.1439 56.7172 42.7811 56.8599 42.347C57.0087 41.9057 57.0613 41.436 57.0177 40.9379C56.9747 40.4464 56.842 39.9996 56.6194 39.5975C56.4029 39.1881 56.0977 38.8736 55.7037 38.6537C55.3157 38.4267 54.8461 38.3373 54.2949 38.3855C53.7437 38.4337 53.2935 38.6036 52.9442 38.8951C52.601 39.1795 52.355 39.5423 52.2063 39.9836C52.0569 40.4183 52.0037 40.8813 52.0467 41.3728C52.0903 41.8709 52.2237 42.3243 52.4468 42.7331C52.6694 43.1352 52.9746 43.4498 53.3625 43.6769C53.7571 43.9034 54.23 43.9925 54.7812 43.9443ZM62.0146 44.0241L59.2228 37.2416L60.1792 37.158L62.8912 43.9474L62.0146 44.0241ZM63.3096 43.9108L62.423 43.9884L63.9248 36.8303L64.8712 36.7475L63.3096 43.9108ZM58.7446 37.2835L59.6113 37.2076L60.2214 44.181L59.3547 44.2568L58.7446 37.2835ZM64.4827 36.7815L65.3594 36.7048L65.9695 43.6781L65.0928 43.7548L64.4827 36.7815ZM67.2784 43.5636L66.6683 36.5902L71.44 36.1728L71.5115 36.9896L67.6562 37.3269L67.8523 39.5684L71.3091 39.2659L71.3806 40.0828L67.9238 40.3853L68.1234 42.6665L72.0185 42.3258L72.09 43.1426L67.2784 43.5636Z" fill="#A3A3A3"/>
<path d="M30.06 52.0399L33.3115 51.7554L34.7758 68.4915L31.5242 68.776L30.06 52.0399ZM46.4238 67.4724L37.0697 51.4266L40.6082 51.1171L49.9862 67.1608L46.4238 67.4724ZM35.8503 51.5333L38.9824 51.2593L40.4466 67.9954L37.3146 68.2694L35.8503 51.5333ZM46.5853 50.5941L49.7413 50.318L51.2055 67.0541L48.0496 67.3302L46.5853 50.5941ZM52.2409 50.0993L55.4924 49.8149L56.8186 64.973L53.567 65.2574L52.2409 50.0993ZM56.7077 63.7058L59.5529 63.4569L59.8018 66.302L56.9567 66.5509L56.7077 63.7058ZM59.5529 63.4569C60.6845 63.3579 61.5867 63.022 62.2593 62.4492C62.932 61.8764 63.3987 61.1529 63.6595 60.2789C63.9203 59.4048 64.0075 58.4737 63.921 57.4854C63.836 56.5132 63.5891 55.6193 63.1805 54.8038C62.7719 53.9883 62.1873 53.3649 61.4268 52.9335C60.6649 52.4862 59.7182 52.3121 58.5865 52.4111L58.3376 49.5659C60.1068 49.4112 61.6372 49.6467 62.9286 50.2725C64.2187 50.8824 65.2376 51.789 65.9853 52.9924C66.7316 54.1799 67.1752 55.5786 67.3161 57.1884C67.4583 58.8142 67.2657 60.2846 66.7383 61.5996C66.2109 62.9145 65.3657 63.9923 64.2025 64.8329C63.0379 65.6575 61.571 66.1472 59.8018 66.302L59.5529 63.4569ZM53.6037 49.9801L58.3376 49.5659L58.5865 52.4111L53.8526 52.8252L53.6037 49.9801ZM68.538 48.6735L71.7896 48.389L73.2538 65.1251L70.0022 65.4096L68.538 48.6735ZM78.6797 47.7862L81.7879 47.5143L78.3508 64.6792L75.0275 64.9699L78.6797 47.7862ZM83.2702 47.3846L89.8987 63.6689L86.5515 63.9617L80.1621 47.6565L83.2702 47.3846ZM77.3578 58.2854L86.3713 57.4968L86.6182 60.318L77.6046 61.1066L77.3578 58.2854Z" fill="#A3A3A3"/>
<g clip-path="url(#clip0_417_1683)">
<path d="M46.7739 83.5561L44.7607 85.5738C44.6722 85.6674 44.575 85.7128 44.4692 85.7098C44.3634 85.7067 44.2676 85.666 44.1815 85.5876C44.0955 85.5092 44.0251 85.4081 43.9703 85.2842C43.9155 85.1603 43.8943 85.0178 43.9065 84.8567L44.1803 81.3523L42.053 79.1997C41.9561 79.0977 41.8907 78.9774 41.8568 78.839C41.8229 78.7005 41.8174 78.563 41.8402 78.4265C41.8631 78.2899 41.9059 78.1757 41.9685 78.0838C42.0312 77.9919 42.1224 77.9286 42.2421 77.8941L44.7545 77.3612L45.4517 74.0224C45.4826 73.8724 45.5407 73.7568 45.6261 73.6757C45.7115 73.5945 45.802 73.5498 45.8977 73.5414C45.9933 73.533 46.0903 73.5614 46.1885 73.6265C46.2867 73.6915 46.364 73.7953 46.4204 73.9376L47.6868 77.1047L50.2535 77.1932C50.3779 77.2069 50.4786 77.2533 50.5559 77.3325C50.6332 77.4117 50.6952 77.5167 50.7418 77.6477C50.7884 77.7786 50.8071 77.9153 50.7977 78.0575C50.7883 78.1997 50.7446 78.3293 50.6665 78.4461L48.9453 80.9354L49.8235 84.339C49.8635 84.4951 49.8673 84.6391 49.8349 84.7711C49.8025 84.9031 49.7507 85.0149 49.6796 85.1066C49.6084 85.1983 49.5211 85.255 49.4175 85.2768C49.3138 85.2987 49.2103 85.2709 49.1068 85.1935L46.7739 83.5561Z" fill="#A3A3A3"/>
</g>
<path d="M64.9217 78.482C64.9287 79.2041 64.8004 79.8497 64.537 80.4189C64.2816 80.9873 63.8922 81.447 63.3688 81.7979C62.8526 82.1402 62.2001 82.3459 61.4111 82.4149C60.5265 82.4923 59.7563 82.3629 59.1005 82.0268C58.452 81.682 57.9394 81.1928 57.5627 80.5592C57.1861 79.9257 56.9622 79.2024 56.8911 78.3895C56.8388 77.7918 56.8773 77.2223 57.0066 76.681C57.1432 76.131 57.3694 75.6414 57.6852 75.2122C58.001 74.7831 58.4041 74.4346 58.8947 74.1668C59.3925 73.8904 59.9761 73.7229 60.6455 73.6643C61.7692 73.566 62.672 73.7882 63.3539 74.3308C64.0431 74.8648 64.4953 75.6283 64.7107 76.6213L63.5392 76.7238C63.4756 76.4563 63.3766 76.1959 63.242 75.9427C63.1147 75.6808 62.942 75.451 62.7239 75.2532C62.5052 75.0475 62.2308 74.8948 61.9009 74.7952C61.5789 74.6949 61.1908 74.6646 60.7365 74.7043C60.075 74.7622 59.5348 74.9661 59.1157 75.3159C58.6959 75.6578 58.3967 76.0936 58.2182 76.6231C58.0469 77.144 57.9871 77.6994 58.0387 78.2891C58.091 78.8868 58.247 79.4313 58.5068 79.9225C58.7739 80.4051 59.1442 80.7823 59.6177 81.054C60.0912 81.3258 60.6586 81.4327 61.3201 81.3749C61.8063 81.3323 62.2104 81.2247 62.5326 81.052C62.8541 80.8713 63.1036 80.6487 63.2812 80.3842C63.4668 80.119 63.5942 79.8308 63.6633 79.5196C63.7404 79.2077 63.7774 78.8953 63.7741 78.5824L64.9217 78.482ZM70.3708 81.631C69.4862 81.7084 68.716 81.5791 68.0602 81.2429C67.4117 80.8981 66.8991 80.409 66.5224 79.7754C66.1458 79.1418 65.9219 78.4185 65.8508 77.6057C65.7985 77.0079 65.837 76.4384 65.9663 75.8971C66.1029 75.3471 66.3291 74.8575 66.6449 74.4284C66.9607 73.9992 67.3638 73.6507 67.8543 73.383C68.3521 73.1065 68.9358 72.939 69.6052 72.8805C70.2667 72.8226 70.8626 72.8869 71.3928 73.0734C71.9304 73.2512 72.3919 73.524 72.7774 73.8918C73.163 74.2596 73.4667 74.7028 73.6888 75.2215C73.9181 75.7314 74.0589 76.2852 74.1112 76.883C74.1823 77.6959 74.0874 78.447 73.8265 79.1363C73.5656 79.8257 73.1457 80.3965 72.567 80.8486C71.9875 81.2928 71.2554 81.5536 70.3708 81.631ZM70.2798 80.591C70.9413 80.5331 71.4776 80.3296 71.8887 79.9804C72.3078 79.6306 72.603 79.1952 72.7742 78.6743C72.9528 78.1447 73.0159 77.5811 72.9636 76.9834C72.912 76.3936 72.7527 75.8575 72.4856 75.3749C72.2258 74.8837 71.8595 74.5062 71.3867 74.2424C70.9212 73.9699 70.3577 73.8626 69.6962 73.9205C69.0347 73.9784 68.4944 74.1822 68.0753 74.5321C67.6635 74.8733 67.3683 75.3086 67.1898 75.8382C67.0106 76.3598 66.9468 76.9155 66.9984 77.5053C67.0507 78.103 67.2107 78.6471 67.4785 79.1376C67.7455 79.6202 68.1118 79.9977 68.5774 80.2702C69.0508 80.5419 69.6183 80.6489 70.2798 80.591ZM75.0359 72.5981L76.1357 72.5018L76.8678 80.8699L75.768 80.9661L75.0359 72.5981ZM81.1923 72.0594L76.3394 79.3742L76.1078 77.8285L79.8415 72.1776L81.1923 72.0594ZM78.2991 75.6131L82.1396 80.4087L80.729 80.5321L77.8141 76.6795L78.2991 75.6131Z" fill="#A3A3A3"/>
<path d="M2.02145 22.4382C0.692836 20.9559 0.656385 18.7222 1.93592 17.1973L7.76261 10.2533C9.04214 8.72844 11.2482 8.37647 12.9388 9.42749L19.4573 13.4802C20.9671 14.4188 22.9152 14.2484 24.2391 13.0618L30.3042 7.62562C31.6281 6.43906 33.5762 6.26862 35.086 7.20727L42.003 11.5077C43.5128 12.4464 45.4609 12.2759 46.7847 11.0893L52.8499 5.65313C54.1737 4.46657 56.1218 4.29613 57.6316 5.23478L64.5486 9.53521C66.0584 10.4739 68.0065 10.3034 69.3304 9.11686L75.3955 3.68064C76.7194 2.49408 78.6675 2.32364 80.1773 3.26229L87.0943 7.56272C88.6041 8.50137 90.5522 8.33093 91.876 7.14437L97.5918 2.0213C99.0742 0.692693 101.308 0.656241 102.833 1.93578L109.777 7.76247C111.302 9.042 111.654 11.2481 110.603 12.9386L106.55 19.4572C105.611 20.967 105.782 22.9151 106.968 24.2389L112.404 30.3041C113.591 31.6279 113.761 33.576 112.823 35.0858L108.522 42.0028C107.584 43.5126 107.754 45.4607 108.941 46.7846L114.377 52.8497C115.563 54.1736 115.734 56.1217 114.795 57.6315L110.495 64.5485C109.556 66.0583 109.727 68.0064 110.913 69.3302L116.349 75.3954C117.536 76.7193 117.706 78.6674 116.768 80.1771L112.467 87.0942C111.529 88.6039 111.699 90.552 112.886 91.8759L118.009 97.5917C119.337 99.074 119.374 101.308 118.094 102.833L112.268 109.777C110.988 111.301 108.782 111.653 107.091 110.602L100.573 106.55C99.0631 105.611 97.115 105.782 95.7911 106.968L89.726 112.404C88.4021 113.591 86.454 113.761 84.9442 112.823L78.0272 108.522C76.5174 107.584 74.5693 107.754 73.2455 108.941L67.1803 114.377C65.8565 115.563 63.9084 115.734 62.3986 114.795L55.4816 110.495C53.9718 109.556 52.0237 109.726 50.6998 110.913L44.6346 116.349C43.3108 117.536 41.3627 117.706 39.8529 116.768L32.9359 112.467C31.4261 111.529 29.478 111.699 28.1542 112.886L22.4384 118.009C20.956 119.337 18.7223 119.374 17.1975 118.094L10.2535 112.267C8.72859 110.988 8.37661 108.782 9.42763 107.091L13.4803 100.573C14.419 99.063 14.2485 97.1148 13.062 95.791L7.62576 89.7258C6.4392 88.402 6.26876 86.4539 7.20742 84.9441L11.5078 78.0271C12.4465 76.5173 12.2761 74.5692 11.0895 73.2453L5.65327 67.1802C4.46671 65.8563 4.29627 63.9082 5.23493 62.3984L9.53535 55.4814C10.474 53.9716 10.3036 52.0235 9.117 50.6997L3.68078 44.6345C2.49422 43.3107 2.32378 41.3625 3.26244 39.8528L7.56286 32.9358C8.50151 31.426 8.33108 29.4779 7.14451 28.154L2.02145 22.4382Z" stroke="#A3A3A3" stroke-width="2" stroke-linecap="round" stroke-linejoin="round"/>
<defs>
<clipPath id="clip0_417_1683">
<rect width="12" height="12" fill="white" transform="translate(39.9209 74.0645) rotate(-5)"/>
</clipPath>
</defs>
</svg>
