<svg width="36" height="24" viewBox="0 0 36 24" fill="none" xmlns="http://www.w3.org/2000/svg">
<g clip-path="url(#clip0_382_1124)">
<path d="M0 0H36V24H0V0Z" fill="white"/>
<path d="M0 0H36V8H0V0Z" fill="#FF6820"/>
<path d="M0 16H36V24H0V16Z" fill="#046A38"/>
<path d="M18 15.7C20.0435 15.7 21.7 14.0435 21.7 12C21.7 9.95655 20.0435 8.3 18 8.3C15.9565 8.3 14.3 9.95655 14.3 12C14.3 14.0435 15.9565 15.7 18 15.7Z" fill="#07038D"/>
<path d="M18 15.2C19.7673 15.2 21.2 13.7673 21.2 12C21.2 10.2327 19.7673 8.8 18 8.8C16.2327 8.8 14.8 10.2327 14.8 12C14.8 13.7673 16.2327 15.2 18 15.2Z" fill="white"/>
<path d="M18 12.64C18.3535 12.64 18.64 12.3535 18.64 12C18.64 11.6465 18.3535 11.36 18 11.36C17.6465 11.36 17.36 11.6465 17.36 12C17.36 12.3535 17.6465 12.64 18 12.64Z" fill="#07038D"/>
<path d="M18 8.8L18.12 10.7256L18 11.6791L17.88 10.7256L18 8.8Z" fill="#07038D"/>
<path d="M18.3994 8.96618C18.4761 8.97627 18.5464 8.92231 18.5565 8.84565C18.5666 8.76899 18.5126 8.69867 18.436 8.68857C18.3593 8.67848 18.289 8.73244 18.2789 8.8091C18.2688 8.88576 18.3228 8.95609 18.3994 8.96618Z" fill="#07038D"/>
<path d="M18 15.2L17.88 13.2744L18 12.3209L18.12 13.2744L18 15.2Z" fill="#07038D"/>
<path d="M17.6006 15.0338C17.5239 15.0237 17.4536 15.0777 17.4435 15.1543C17.4334 15.231 17.4874 15.3013 17.564 15.3114C17.6407 15.3215 17.711 15.2676 17.7211 15.1909C17.7312 15.1142 17.6772 15.0439 17.6006 15.0338Z" fill="#07038D"/>
<path d="M18.8282 8.90904L18.4457 10.8001L18.0831 11.69L18.2139 10.738L18.8282 8.90904Z" fill="#07038D"/>
<path d="M19.171 9.17293C19.2424 9.20252 19.3243 9.16859 19.3539 9.09716C19.3835 9.02573 19.3496 8.94383 19.2782 8.91424C19.2067 8.88465 19.1248 8.91857 19.0952 8.99001C19.0657 9.06144 19.0996 9.14334 19.171 9.17293Z" fill="#07038D"/>
<path d="M17.1718 15.091L17.5543 13.1999L17.9169 12.31L17.7861 13.262L17.1718 15.091Z" fill="#07038D"/>
<path d="M16.829 14.8271C16.7576 14.7975 16.6757 14.8314 16.6461 14.9028C16.6165 14.9743 16.6504 15.0562 16.7218 15.0858C16.7933 15.1153 16.8752 15.0814 16.9048 15.01C16.9343 14.9386 16.9004 14.8567 16.829 14.8271Z" fill="#07038D"/>
<path d="M19.6 9.22872L18.7411 10.9564L18.1605 11.7221L18.5333 10.8364L19.6 9.22872Z" fill="#07038D"/>
<path d="M19.8628 9.57234C19.9242 9.61941 20.012 9.60784 20.0591 9.5465C20.1062 9.48515 20.0946 9.39727 20.0333 9.3502C19.9719 9.30313 19.884 9.3147 19.837 9.37604C19.7899 9.43738 19.8015 9.52527 19.8628 9.57234Z" fill="#07038D"/>
<path d="M16.4 14.7713L17.2589 13.0436L17.8395 12.2779L17.4667 13.1636L16.4 14.7713Z" fill="#07038D"/>
<path d="M16.1372 14.4277C16.0758 14.3806 15.988 14.3922 15.9409 14.4535C15.8938 14.5148 15.9054 14.6027 15.9667 14.6498C16.0281 14.6969 16.116 14.6853 16.163 14.624C16.2101 14.5626 16.1985 14.4747 16.1372 14.4277Z" fill="#07038D"/>
<path d="M20.2627 9.73726L18.986 11.1837L18.2269 11.7731L18.8163 11.014L20.2627 9.73726Z" fill="#07038D"/>
<path d="M20.4277 10.1372C20.4747 10.1985 20.5626 10.2101 20.624 10.163C20.6853 10.116 20.6969 10.0281 20.6498 9.96674C20.6027 9.90539 20.5148 9.89382 20.4535 9.94089C20.3922 9.98796 20.3806 10.0758 20.4277 10.1372Z" fill="#07038D"/>
<path d="M15.7373 14.2627L17.014 12.8163L17.7731 12.2269L17.1837 12.986L15.7373 14.2627Z" fill="#07038D"/>
<path d="M15.5723 13.8628C15.5253 13.8015 15.4374 13.7899 15.376 13.837C15.3147 13.884 15.3031 13.9719 15.3502 14.0333C15.3973 14.0946 15.4852 14.1062 15.5465 14.0591C15.6078 14.012 15.6194 13.9242 15.5723 13.8628Z" fill="#07038D"/>
<path d="M20.7713 10.4L19.1636 11.4667L18.2779 11.8395L19.0436 11.2589L20.7713 10.4Z" fill="#07038D"/>
<path d="M20.8271 10.829C20.8567 10.9004 20.9386 10.9343 21.01 10.9048C21.0814 10.8752 21.1153 10.7933 21.0858 10.7218C21.0562 10.6504 20.9743 10.6165 20.9028 10.6461C20.8314 10.6757 20.7975 10.7576 20.8271 10.829Z" fill="#07038D"/>
<path d="M15.2287 13.6L16.8364 12.5333L17.7221 12.1605L16.9564 12.7411L15.2287 13.6Z" fill="#07038D"/>
<path d="M15.1729 13.171C15.1433 13.0996 15.0614 13.0657 14.99 13.0952C14.9186 13.1248 14.8847 13.2067 14.9142 13.2782C14.9438 13.3496 15.0257 13.3835 15.0972 13.3539C15.1686 13.3243 15.2025 13.2424 15.1729 13.171Z" fill="#07038D"/>
<path d="M21.091 11.1718L19.262 11.7861L18.31 11.9169L19.1999 11.5543L21.091 11.1718Z" fill="#07038D"/>
<path d="M21.0338 11.6006C21.0439 11.6772 21.1142 11.7312 21.1909 11.7211C21.2676 11.711 21.3215 11.6407 21.3114 11.564C21.3013 11.4874 21.231 11.4334 21.1544 11.4435C21.0777 11.4536 21.0237 11.5239 21.0338 11.6006Z" fill="#07038D"/>
<path d="M14.909 12.8282L16.738 12.2139L17.69 12.0831L16.8001 12.4457L14.909 12.8282Z" fill="#07038D"/>
<path d="M14.9662 12.3994C14.9561 12.3228 14.8858 12.2688 14.8091 12.2789C14.7324 12.289 14.6785 12.3593 14.6886 12.436C14.6987 12.5126 14.769 12.5666 14.8456 12.5565C14.9223 12.5464 14.9763 12.4761 14.9662 12.3994Z" fill="#07038D"/>
<path d="M21.2 12L19.2744 12.12L18.3209 12L19.2744 11.88L21.2 12Z" fill="#07038D"/>
<path d="M21.0338 12.3994C21.0237 12.4761 21.0777 12.5464 21.1544 12.5565C21.231 12.5666 21.3013 12.5126 21.3114 12.436C21.3215 12.3593 21.2676 12.289 21.1909 12.2789C21.1142 12.2688 21.0439 12.3228 21.0338 12.3994Z" fill="#07038D"/>
<path d="M14.8 12L16.7256 11.88L17.6791 12L16.7256 12.12L14.8 12Z" fill="#07038D"/>
<path d="M14.9662 11.6006C14.9763 11.5239 14.9223 11.4536 14.8457 11.4435C14.769 11.4334 14.6987 11.4874 14.6886 11.564C14.6785 11.6407 14.7324 11.711 14.8091 11.7211C14.8858 11.7312 14.9561 11.6772 14.9662 11.6006Z" fill="#07038D"/>
<path d="M21.091 12.8282L19.1999 12.4457L18.31 12.0831L19.262 12.2139L21.091 12.8282Z" fill="#07038D"/>
<path d="M20.8271 13.171C20.7975 13.2424 20.8314 13.3243 20.9028 13.3539C20.9743 13.3835 21.0562 13.3496 21.0858 13.2782C21.1154 13.2067 21.0814 13.1248 21.01 13.0952C20.9386 13.0657 20.8567 13.0996 20.8271 13.171Z" fill="#07038D"/>
<path d="M14.909 11.1718L16.8001 11.5543L17.69 11.9169L16.738 11.7861L14.909 11.1718Z" fill="#07038D"/>
<path d="M15.1729 10.829C15.2025 10.7576 15.1686 10.6757 15.0972 10.6461C15.0257 10.6165 14.9438 10.6504 14.9143 10.7218C14.8847 10.7933 14.9186 10.8752 14.99 10.9048C15.0615 10.9343 15.1434 10.9004 15.1729 10.829Z" fill="#07038D"/>
<path d="M20.7713 13.6L19.0436 12.7411L18.2779 12.1605L19.1636 12.5333L20.7713 13.6Z" fill="#07038D"/>
<path d="M20.4277 13.8628C20.3806 13.9242 20.3922 14.012 20.4535 14.0591C20.5148 14.1062 20.6027 14.0946 20.6498 14.0333C20.6969 13.9719 20.6853 13.884 20.624 13.837C20.5626 13.7899 20.4747 13.8015 20.4277 13.8628Z" fill="#07038D"/>
<path d="M15.2287 10.4L16.9564 11.2589L17.7221 11.8395L16.8364 11.4667L15.2287 10.4Z" fill="#07038D"/>
<path d="M15.5723 10.1372C15.6194 10.0758 15.6078 9.98796 15.5465 9.94089C15.4852 9.89382 15.3973 9.90539 15.3502 9.96674C15.3031 10.0281 15.3147 10.116 15.376 10.163C15.4374 10.2101 15.5253 10.1985 15.5723 10.1372Z" fill="#07038D"/>
<path d="M20.2627 14.2627L18.8163 12.986L18.2269 12.2269L18.986 12.8163L20.2627 14.2627Z" fill="#07038D"/>
<path d="M19.8628 14.4277C19.8015 14.4747 19.7899 14.5626 19.837 14.624C19.884 14.6853 19.9719 14.6969 20.0333 14.6498C20.0946 14.6027 20.1062 14.5148 20.0591 14.4535C20.012 14.3922 19.9242 14.3806 19.8628 14.4277Z" fill="#07038D"/>
<path d="M15.7373 9.73726L17.1837 11.014L17.7731 11.7731L17.014 11.1837L15.7373 9.73726Z" fill="#07038D"/>
<path d="M16.1372 9.57234C16.1985 9.52527 16.2101 9.43738 16.163 9.37604C16.116 9.3147 16.0281 9.30313 15.9667 9.3502C15.9054 9.39727 15.8938 9.48515 15.9409 9.54649C15.988 9.60784 16.0758 9.61941 16.1372 9.57234Z" fill="#07038D"/>
<path d="M19.6 14.7713L18.5333 13.1636L18.1605 12.2779L18.7411 13.0436L19.6 14.7713Z" fill="#07038D"/>
<path d="M19.171 14.8271C19.0996 14.8567 19.0657 14.9386 19.0952 15.01C19.1248 15.0814 19.2067 15.1153 19.2782 15.0858C19.3496 15.0562 19.3835 14.9743 19.3539 14.9028C19.3243 14.8314 19.2424 14.7975 19.171 14.8271Z" fill="#07038D"/>
<path d="M16.4 9.22872L17.4667 10.8364L17.8395 11.7221L17.2589 10.9564L16.4 9.22872Z" fill="#07038D"/>
<path d="M16.829 9.17293C16.9004 9.14334 16.9343 9.06144 16.9048 8.99001C16.8752 8.91858 16.7933 8.88465 16.7218 8.91424C16.6504 8.94383 16.6165 9.02573 16.6461 9.09716C16.6757 9.1686 16.7576 9.20252 16.829 9.17293Z" fill="#07038D"/>
<path d="M18.8282 15.091L18.2139 13.262L18.0831 12.31L18.4457 13.1999L18.8282 15.091Z" fill="#07038D"/>
<path d="M18.3994 15.0338C18.3228 15.0439 18.2688 15.1142 18.2789 15.1909C18.289 15.2676 18.3593 15.3215 18.436 15.3114C18.5126 15.3013 18.5666 15.231 18.5565 15.1543C18.5464 15.0777 18.4761 15.0237 18.3994 15.0338Z" fill="#07038D"/>
<path d="M17.1718 8.90904L17.7861 10.738L17.9169 11.69L17.5543 10.8001L17.1718 8.90904Z" fill="#07038D"/>
<path d="M17.6006 8.96618C17.6772 8.95609 17.7312 8.88576 17.7211 8.8091C17.711 8.73244 17.6407 8.67848 17.564 8.68857C17.4874 8.69867 17.4334 8.76899 17.4435 8.84565C17.4536 8.92231 17.5239 8.97627 17.6006 8.96618Z" fill="#07038D"/>
</g>
<defs>
<clipPath id="clip0_382_1124">
<rect width="36" height="24" fill="white"/>
</clipPath>
</defs>
</svg>
