<svg width="170" height="114" viewBox="0 0 170 114" fill="none" xmlns="http://www.w3.org/2000/svg">
<rect x="9.62461" y="1.08335" width="159" height="98" rx="49" transform="rotate(5 9.62461 1.08335)" stroke="#E8342A" stroke-width="2"/>
<path d="M73.9401 39.8364C73.9903 39.3388 74.1105 38.9211 74.3007 38.583C74.4908 38.245 74.7229 37.9641 74.9967 37.7405C75.2712 37.5102 75.5654 37.3218 75.8794 37.1753C76.2006 37.0227 76.517 36.8864 76.8286 36.7664C77.1469 36.647 77.4356 36.5217 77.6947 36.3905C77.9604 36.2598 78.1781 36.1049 78.3477 35.9256C78.5173 35.7464 78.614 35.5206 78.6378 35.2483C78.6727 34.8499 78.5608 34.5222 78.3022 34.2653C78.0442 34.0019 77.6827 33.8498 77.2178 33.8091C76.6533 33.7597 76.2227 33.8626 75.926 34.1177C75.636 34.3734 75.4549 34.7223 75.3827 35.1643L74.4364 35.0815C74.4776 34.61 74.6265 34.2081 74.8831 33.8759C75.1403 33.537 75.4735 33.2851 75.8828 33.1201C76.2921 32.9552 76.7458 32.8945 77.2439 32.9381C77.8084 32.9874 78.2679 33.128 78.6223 33.3598C78.9835 33.5922 79.2428 33.8792 79.4003 34.2209C79.5644 34.5632 79.6299 34.9236 79.5968 35.3021C79.5636 35.6807 79.4594 35.9928 79.284 36.2384C79.1152 36.4846 78.8998 36.69 78.6378 36.8544C78.3764 37.0123 78.0929 37.1548 77.7873 37.2819C77.4817 37.4091 77.1726 37.5393 76.8598 37.6726C76.5542 37.7998 76.2695 37.9556 76.0058 38.1399C75.742 38.3243 75.5207 38.5593 75.3418 38.8448C75.1696 39.1308 75.0643 39.493 75.0259 39.9314L73.9401 39.8364ZM74.8384 39.0918L79.2515 39.4779L79.18 40.2948L73.9401 39.8364L74.8384 39.0918ZM82.9223 40.7828C82.2449 40.7235 81.7012 40.512 81.2914 40.1483C80.8888 39.7784 80.6053 39.3086 80.441 38.7388C80.2833 38.1695 80.2342 37.5462 80.2934 36.8688C80.337 36.3707 80.4344 35.9074 80.5857 35.479C80.7441 35.0445 80.9574 34.6716 81.2256 34.3605C81.5004 34.0499 81.8318 33.8179 82.22 33.6645C82.6088 33.5045 83.0555 33.4465 83.5603 33.4907C84.065 33.5348 84.4916 33.6692 84.84 33.8937C85.1957 34.1122 85.4785 34.398 85.6885 34.751C85.9052 35.1045 86.0505 35.5087 86.1245 35.9636C86.2057 36.4124 86.2245 36.8858 86.1809 37.3839C86.1217 38.0613 85.9617 38.6663 85.7009 39.199C85.4468 39.7322 85.0861 40.1456 84.6187 40.4394C84.1585 40.727 83.5931 40.8415 82.9223 40.7828ZM82.9981 39.9161C83.4232 39.9533 83.7925 39.8618 84.1063 39.6417C84.4272 39.4154 84.6823 39.0998 84.8717 38.6948C85.0611 38.2897 85.1787 37.8249 85.2246 37.3002C85.2699 36.7822 85.2345 36.3073 85.1183 35.8755C85.0022 35.4438 84.8055 35.092 84.5281 34.8201C84.2574 34.5488 83.9095 34.3945 83.4844 34.3574C83.0528 34.3196 82.6767 34.4105 82.3564 34.6301C82.0427 34.8502 81.7911 35.1628 81.6018 35.5679C81.4124 35.9729 81.2951 36.4344 81.2498 36.9525C81.2039 37.4771 81.239 37.9553 81.3551 38.3871C81.4713 38.8189 81.6644 39.1737 81.9346 39.4517C82.2119 39.7235 82.5664 39.8784 82.9981 39.9161ZM86.6548 40.9488C86.705 40.4512 86.8252 40.0335 87.0154 39.6954C87.2056 39.3574 87.4376 39.0765 87.7115 38.8529C87.9859 38.6226 88.2801 38.4342 88.5941 38.2876C88.9153 38.1351 89.2317 37.9988 89.5433 37.8788C89.8616 37.7594 90.1503 37.6341 90.4094 37.5029C90.6751 37.3722 90.8928 37.2173 91.0624 37.038C91.232 36.8588 91.3287 36.633 91.3525 36.3607C91.3874 35.9623 91.2755 35.6346 91.0169 35.3777C90.7589 35.1142 90.3974 34.9622 89.9325 34.9215C89.368 34.8721 88.9374 34.975 88.6407 35.2301C88.3507 35.4858 88.1696 35.8346 88.0975 36.2767L87.1511 36.1939C87.1923 35.7224 87.3412 35.3205 87.5978 34.9883C87.855 34.6494 88.1883 34.3975 88.5975 34.2325C89.0068 34.0676 89.4605 34.0069 89.9586 34.0504C90.5231 34.0998 90.9826 34.2404 91.3371 34.4722C91.6982 34.7046 91.9575 34.9916 92.115 35.3333C92.2791 35.6755 92.3446 36.036 92.3115 36.4145C92.2784 36.7931 92.1741 37.1052 91.9987 37.3508C91.8299 37.597 91.6145 37.8024 91.3525 37.9668C91.0911 38.1247 90.8076 38.2672 90.502 38.3943C90.1965 38.5215 89.8873 38.6517 89.5745 38.785C89.2689 38.9122 88.9842 39.068 88.7205 39.2523C88.4567 39.4367 88.2354 39.6717 88.0565 39.9571C87.8843 40.2432 87.779 40.6054 87.7406 41.0438L86.6548 40.9488ZM87.5531 40.2042L91.9662 40.5903L91.8948 41.4072L86.6548 40.9488L87.5531 40.2042ZM96.4902 34.7825L97.3867 34.8609L96.7767 41.8343L95.8801 41.7559L96.4902 34.7825ZM93.1609 38.9883L98.1818 39.4276L98.1112 40.2345L93.0903 39.7953L93.1609 38.9883ZM96.1913 34.7564L97.1277 34.8383L93.2796 39.8118L92.7516 39.7656L92.8144 39.0484L96.1913 34.7564Z" fill="#E8342A"/>
<path d="M35.4798 58.5553L32.4492 41.426L35.7964 41.7189L38.5641 58.8252L35.4798 58.5553ZM40.0703 58.9569L36.9622 58.685L42.6821 42.3213L46.0054 42.612L40.0703 58.9569ZM30.5604 41.2608L33.6925 41.5348L32.2283 58.2709L29.0962 57.9968L30.5604 41.2608ZM44.7861 42.5053L47.9181 42.7794L46.4539 59.5154L43.3219 59.2414L44.7861 42.5053ZM54.8046 43.3819L57.9127 43.6538L51.5472 59.961L48.2239 59.6703L54.8046 43.3819ZM59.395 43.7835L63.0951 60.9714L59.7479 60.6785L56.2869 43.5115L59.395 43.7835ZM51.6795 53.492L60.6931 54.2805L60.4463 57.1018L51.4327 56.3132L51.6795 53.492ZM66.3067 44.3882L69.5583 44.6726L68.0941 61.4087L64.8425 61.1242L66.3067 44.3882ZM68.1995 58.551L75.3243 59.1744L75.0754 62.0195L67.9506 61.3962L68.1995 58.551ZM82.6591 45.8188L85.7673 46.0907L79.4018 62.398L76.0784 62.1072L82.6591 45.8188ZM87.2496 46.2204L90.9496 63.4083L87.6024 63.1155L84.1415 45.9485L87.2496 46.2204ZM79.5341 55.9289L88.5476 56.7175L88.3008 59.5387L79.2873 58.7501L79.5341 55.9289ZM96.0721 59.1345L91.3882 46.5825L94.7354 46.8753L97.9865 55.9773L97.1258 55.902L101.884 47.5008L105.231 47.7936L98.439 59.3416L96.0721 59.1345ZM95.9274 55.5563L99.2029 55.8428L98.4833 64.0674L95.2078 63.7809L95.9274 55.5563ZM108.084 59.5349C108.099 60.0984 108.248 60.6013 108.53 61.0436C108.813 61.4859 109.199 61.8409 109.69 62.1087C110.198 62.3619 110.779 62.5171 111.432 62.5743C112.309 62.651 113.055 62.5637 113.671 62.3125C114.305 62.0467 114.65 61.587 114.707 60.9335C114.748 60.4713 114.596 60.0966 114.252 59.8095C113.925 59.5079 113.465 59.2509 112.874 59.0385C112.299 58.8116 111.668 58.5957 110.979 58.3909C110.292 58.1701 109.599 57.9168 108.901 57.6309C108.219 57.3464 107.6 56.9871 107.044 56.5529C106.489 56.1029 106.056 55.543 105.746 54.8734C105.451 54.2051 105.346 53.3769 105.433 52.3887C105.517 51.4323 105.869 50.612 106.491 49.9276C107.115 49.2272 107.939 48.7131 108.963 48.3851C110.005 48.0426 111.172 47.9279 112.463 48.0408C113.69 48.1482 114.768 48.4915 115.697 49.0706C116.626 49.6498 117.34 50.3949 117.839 51.3058C118.337 52.2167 118.539 53.2141 118.444 54.2979L115.001 53.9967C115.013 53.1304 114.776 52.4432 114.29 51.9349C113.822 51.4121 113.086 51.1068 112.082 51.0189C111.077 50.9311 110.296 51.0474 109.738 51.368C109.182 51.6727 108.878 52.1119 108.828 52.6857C108.783 53.1958 108.924 53.6096 109.249 53.9272C109.592 54.2302 110.05 54.5031 110.623 54.746C111.198 54.9729 111.829 55.1888 112.518 55.3936C113.223 55.5998 113.916 55.8452 114.598 56.1297C115.281 56.3982 115.901 56.7496 116.457 57.1837C117.031 57.6033 117.466 58.1393 117.762 58.7916C118.074 59.4453 118.188 60.2583 118.103 61.2306C117.967 62.7766 117.272 63.9285 116.017 64.686C114.779 65.4449 113.115 65.733 111.027 65.5503C109.736 65.4374 108.594 65.0885 107.601 64.5038C106.624 63.9204 105.871 63.1719 105.34 62.2582C104.826 61.3459 104.593 60.3377 104.641 59.2337L108.084 59.5349ZM121.315 49.2008L124.567 49.4853L123.103 66.2213L119.851 65.9369L121.315 49.2008ZM131.457 50.0881L134.565 50.36L128.2 66.6673L124.876 66.3765L131.457 50.0881ZM136.048 50.4897L139.748 67.6776L136.4 67.3847L132.939 50.2178L136.048 50.4897ZM128.332 60.1982L137.346 60.9868L137.099 63.808L128.085 63.0194L128.332 60.1982Z" fill="#E8342A"/>
<g clip-path="url(#clip0_417_1695)">
<path d="M69.6785 77.6618L67.3456 79.2992C67.2421 79.3761 67.1386 79.4038 67.0349 79.3825C66.9313 79.3612 66.8439 79.3044 66.7728 79.2122C66.7017 79.1201 66.6499 79.0083 66.6175 78.8768C66.585 78.7453 66.5888 78.6012 66.6289 78.4446L67.5071 75.0411L65.7858 72.5518C65.7081 72.4345 65.6646 72.3047 65.6553 72.1625C65.6459 72.0202 65.6643 71.8838 65.7106 71.7533C65.7568 71.6228 65.8188 71.5178 65.8964 71.4381C65.9741 71.3585 66.0749 71.3121 66.1988 71.2988L68.7656 71.2104L70.032 68.0433C70.0884 67.9009 70.1657 67.7972 70.2639 67.7321C70.3621 67.667 70.459 67.6387 70.5547 67.6471C70.6503 67.6554 70.7409 67.7002 70.8263 67.7813C70.9117 67.8624 70.9698 67.978 71.0006 68.128L71.6978 71.4669L74.2102 71.9998C74.3303 72.0348 74.4215 72.098 74.4838 72.1894C74.5462 72.2808 74.5889 72.3951 74.6121 72.5321C74.6353 72.6692 74.6299 72.807 74.596 72.9454C74.5621 73.0839 74.4966 73.2039 74.3994 73.3054L72.272 75.4579L72.5458 78.9623C72.5581 79.123 72.5369 79.2655 72.482 79.3898C72.4272 79.5142 72.3568 79.6153 72.2708 79.6933C72.1849 79.7712 72.089 79.8119 71.9831 79.8154C71.8773 79.8189 71.7801 79.7736 71.6916 79.6794L69.6785 77.6618Z" fill="#E8342A"/>
</g>
<path d="M81.4226 70.2036L82.5224 70.2998L81.7903 78.6679L80.6905 78.5717L81.4226 70.2036ZM87.5791 70.7422L81.5297 77.1032L81.57 75.5408L86.2282 70.6241L87.5791 70.7422ZM84.1127 73.7395L87.0621 79.1291L85.6515 79.0057L83.4499 74.7054L84.1127 73.7395ZM94.7468 76.1877C94.6778 76.9767 94.5109 77.6447 94.2462 78.1917C93.9902 78.7314 93.6138 79.1321 93.1171 79.3938C92.6284 79.6562 91.9975 79.7536 91.2245 79.686C90.4514 79.6184 89.8431 79.4126 89.3993 79.0686C88.9556 78.7246 88.6546 78.2646 88.4962 77.6886C88.3385 77.1046 88.2941 76.4182 88.3632 75.6292L89.463 75.7254C89.4121 76.3072 89.4283 76.8105 89.5115 77.2354C89.6035 77.653 89.7915 77.9826 90.0755 78.2243C90.3602 78.458 90.7735 78.5986 91.3155 78.646C91.8494 78.6927 92.2769 78.6257 92.5979 78.445C92.9195 78.2563 93.1579 77.964 93.313 77.568C93.4768 77.1647 93.5841 76.6722 93.635 76.0904L94.7468 76.1877ZM88.7815 70.8474L89.8813 70.9437L89.463 75.7254L88.3632 75.6292L88.7815 70.8474ZM94.0534 71.3087L95.1651 71.4059L94.7468 76.1877L93.635 76.0904L94.0534 71.3087ZM96.6686 71.5375L97.7684 71.6337L97.0363 80.0017L95.9365 79.9055L96.6686 71.5375ZM96.7026 78.9968L100.994 79.3723L100.909 80.3406L96.6179 79.9651L96.7026 78.9968Z" fill="#E8342A"/>
<defs>
<clipPath id="clip0_417_1695">
<rect width="12" height="12" fill="white" transform="translate(64.5779 67.124) rotate(5)"/>
</clipPath>
</defs>
</svg>
