<svg width="36" height="24" viewBox="0 0 36 24" fill="none" xmlns="http://www.w3.org/2000/svg">
<g clip-path="url(#clip0_328_1036)">
<rect width="36" height="24" rx="4.8" fill="white"/>
<path d="M36.2155 10.3325V12.062H13.013V10.3325H36.2155ZM36.2155 6.90281V8.63199H13.013V6.90281H36.2155ZM36.2155 3.47313V5.2023H13.013V3.47313H36.2155ZM36.2155 0.0431481V1.77262H13.013V0.0431481H36.2155Z" fill="#CC0000"/>
<path d="M0 0H13.013V13.8H0V0Z" fill="#000066"/>
<path d="M36.2155 20.4705V22.2H0V20.4705H36.2155ZM36.2155 17.1416V18.8711H0V17.1416H36.2155ZM36.2155 13.8127V15.5422H0V13.8127H36.2155Z" fill="#CC0000"/>
<path d="M8.66154 4.4543L8.89344 6.04073L9.79068 4.71221L9.30955 6.24229L10.6944 5.4339L9.5978 6.60422L11.1972 6.47635L9.70183 7.05501L11.1972 7.63366L9.5978 7.5058L10.6944 8.67611L9.30955 7.86773L9.79068 9.39781L8.89344 8.06928L8.66154 9.65571L8.42965 8.06928L7.53241 9.39781L8.01354 7.86773L6.62866 8.67611L7.72529 7.5058L6.12586 7.63366L7.62126 7.05501L6.12586 6.47635L7.72529 6.60422L6.62866 5.4339L8.01354 6.24229L7.53241 4.71221L8.42965 6.04073L8.66154 4.4543ZM7.36119 4.51932C6.93885 4.33193 6.4764 4.25299 6.01581 4.28968C5.55522 4.32638 5.11109 4.47753 4.72375 4.72943C4.3364 4.98132 4.01811 5.32598 3.79777 5.7321C3.57743 6.13823 3.46202 6.59296 3.46202 7.05501C3.46202 7.51705 3.57743 7.97178 3.79777 8.37791C4.01811 8.78403 4.3364 9.12869 4.72375 9.38059C5.11109 9.63248 5.55522 9.78364 6.01581 9.82033C6.4764 9.85702 6.93885 9.77808 7.36119 9.59069C6.89484 9.9253 6.34524 10.1248 5.77284 10.1673C5.20043 10.2098 4.6274 10.0936 4.11677 9.83147C3.60613 9.56937 3.17766 9.17152 2.87849 8.68168C2.57931 8.19184 2.42102 7.62898 2.42102 7.05501C2.42102 6.48103 2.57931 5.91817 2.87849 5.42833C3.17766 4.93849 3.60613 4.54064 4.11677 4.27854C4.6274 4.01644 5.20043 3.90024 5.77284 3.94272C6.34524 3.9852 6.89484 4.18472 7.36119 4.51932Z" fill="#FFCC00"/>
</g>
<defs>
<clipPath id="clip0_328_1036">
<rect width="36" height="24" rx="4.8" fill="white"/>
</clipPath>
</defs>
</svg>
