<svg width="109" height="109" viewBox="0 0 109 109" fill="none" xmlns="http://www.w3.org/2000/svg">
<path d="M43.5367 37.1764C43.5869 36.6789 43.7071 36.2611 43.8973 35.9231C44.0875 35.585 44.3195 35.3042 44.5933 35.0805C44.8678 34.8502 45.162 34.6618 45.476 34.5153C45.7972 34.3627 46.1136 34.2264 46.4252 34.1065C46.7435 33.9871 47.0322 33.8618 47.2913 33.7305C47.557 33.5999 47.7747 33.4449 47.9443 33.2657C48.1139 33.0864 48.2106 32.8607 48.2344 32.5884C48.2693 32.1899 48.1574 31.8622 47.8988 31.6054C47.6408 31.3419 47.2793 31.1898 46.8144 31.1491C46.2499 31.0998 45.8193 31.2026 45.5226 31.4577C45.2326 31.7134 45.0515 32.0623 44.9793 32.5044L44.033 32.4216C44.0742 31.95 44.2231 31.5482 44.4797 31.2159C44.7369 30.877 45.0701 30.6251 45.4794 30.4602C45.8887 30.2952 46.3424 30.2345 46.8405 30.2781C47.405 30.3275 47.8645 30.4681 48.2189 30.6998C48.5801 30.9322 48.8394 31.2192 48.9969 31.5609C49.161 31.9032 49.2265 32.2636 49.1934 32.6422C49.1603 33.0207 49.056 33.3328 48.8806 33.5785C48.7118 33.8247 48.4964 34.03 48.2344 34.1945C47.973 34.3523 47.6895 34.4948 47.3839 34.622C47.0783 34.7492 46.7692 34.8794 46.4564 35.0126C46.1508 35.1398 45.8661 35.2956 45.6024 35.48C45.3386 35.6644 45.1173 35.8993 44.9384 36.1848C44.7662 36.4709 44.6609 36.8331 44.6225 37.2714L43.5367 37.1764ZM44.435 36.4319L48.8481 36.818L48.7766 37.6348L43.5367 37.1764L44.435 36.4319ZM52.5189 38.1229C51.8415 38.0636 51.2979 37.8521 50.888 37.4883C50.4854 37.1185 50.2019 36.6486 50.0376 36.0788C49.8799 35.5096 49.8308 34.8863 49.89 34.2088C49.9336 33.7107 50.031 33.2475 50.1823 32.819C50.3407 32.3845 50.554 32.0117 50.8222 31.7005C51.097 31.39 51.4284 31.158 51.8166 31.0046C52.2054 30.8445 52.6521 30.7866 53.1569 30.8307C53.6616 30.8749 54.0882 31.0092 54.4366 31.2338C54.7923 31.4523 55.0751 31.738 55.2851 32.091C55.5018 32.4446 55.6471 32.8488 55.7211 33.3036C55.8023 33.7524 55.8211 34.2258 55.7775 34.7239C55.7183 35.4013 55.5583 36.0064 55.2975 36.539C55.0434 37.0722 54.6827 37.4857 54.2153 37.7794C53.7551 38.0671 53.1897 38.1815 52.5189 38.1229ZM52.5947 37.2562C53.0198 37.2934 53.3891 37.2019 53.7029 36.9817C54.0238 36.7555 54.2789 36.4399 54.4683 36.0348C54.6577 35.6298 54.7753 35.1649 54.8212 34.6403C54.8665 34.1222 54.8311 33.6474 54.715 33.2156C54.5988 32.7838 54.4021 32.432 54.1247 32.1601C53.854 31.8888 53.5061 31.7346 53.0811 31.6974C52.6494 31.6596 52.2733 31.7505 51.953 31.9701C51.6393 32.1903 51.3877 32.5029 51.1984 32.9079C51.009 33.313 50.8917 33.7745 50.8464 34.2925C50.8005 34.8172 50.8356 35.2954 50.9517 35.7272C51.0679 36.1589 51.261 36.5138 51.5312 36.7917C51.8085 37.0636 52.163 37.2184 52.5947 37.2562ZM56.2514 38.2888C56.3016 37.7913 56.4218 37.3735 56.612 37.0355C56.8022 36.6974 57.0342 36.4166 57.3081 36.1929C57.5825 35.9626 57.8767 35.7742 58.1907 35.6277C58.5119 35.4751 58.8283 35.3388 59.1399 35.2189C59.4582 35.0995 59.7469 34.9742 60.006 34.8429C60.2717 34.7123 60.4894 34.5573 60.659 34.3781C60.8286 34.1988 60.9253 33.9731 60.9491 33.7008C60.984 33.3023 60.8721 32.9746 60.6135 32.7178C60.3555 32.4543 59.994 32.3022 59.5292 32.2615C58.9646 32.2122 58.534 32.315 58.2373 32.5701C57.9473 32.8258 57.7662 33.1747 57.6941 33.6168L56.7477 33.534C56.7889 33.0624 56.9379 32.6605 57.1945 32.3283C57.4516 31.9894 57.7849 31.7375 58.1941 31.5726C58.6034 31.4076 59.0571 31.3469 59.5552 31.3905C60.1197 31.4399 60.5792 31.5805 60.9337 31.8122C61.2948 32.0446 61.5541 32.3316 61.7116 32.6733C61.8757 33.0156 61.9412 33.376 61.9081 33.7546C61.875 34.1331 61.7707 34.4452 61.5953 34.6909C61.4265 34.9371 61.2111 35.1424 60.9491 35.3069C60.6877 35.4647 60.4042 35.6072 60.0986 35.7344C59.7931 35.8616 59.4839 35.9918 59.1711 36.125C58.8655 36.2522 58.5808 36.408 58.3171 36.5924C58.0533 36.7768 57.832 37.0117 57.6531 37.2972C57.4809 37.5833 57.3756 37.9455 57.3372 38.3838L56.2514 38.2888ZM57.1497 37.5443L61.5628 37.9304L61.4914 38.7472L56.2514 38.2888L57.1497 37.5443ZM65.4978 34.3798C66.0557 34.4286 66.5113 34.5755 66.8646 34.8206C67.2185 35.059 67.4757 35.3693 67.6364 35.7514C67.797 36.1335 67.857 36.557 67.8163 37.0219C67.7768 37.4735 67.6379 37.8763 67.3994 38.2302C67.1616 38.5775 66.8342 38.8399 66.4171 39.0176C66.0067 39.1958 65.5192 39.2602 64.9547 39.2109C64.4765 39.169 64.0436 39.0308 63.6559 38.7961C63.2748 38.562 62.9771 38.2549 62.7628 37.8747C62.5551 37.4952 62.4716 37.073 62.5122 36.6081L63.4287 36.6883C63.4248 36.9623 63.4794 37.218 63.5925 37.4554C63.7122 37.6935 63.8955 37.8935 64.1423 38.0556C64.3891 38.2178 64.7018 38.3154 65.0803 38.3485C65.4456 38.3805 65.7539 38.3372 66.0052 38.2186C66.2637 38.094 66.4631 37.9174 66.6036 37.6888C66.7507 37.4607 66.837 37.2006 66.8626 36.9084C66.9044 36.4302 66.7912 36.0422 66.5228 35.7443C66.2616 35.4404 65.8654 35.2652 65.3341 35.2187C64.9223 35.1827 64.5628 35.2382 64.2554 35.3853C63.9547 35.533 63.7313 35.7544 63.585 36.0494L63.0271 36.0006C63.0792 35.8647 63.1673 35.6984 63.2916 35.5018C63.4225 35.3058 63.5897 35.1163 63.7931 34.9333C64.0031 34.7509 64.2501 34.6052 64.534 34.4962C64.8179 34.3872 65.1392 34.3484 65.4978 34.3798ZM62.6386 35.9666L63.7457 31.9177L64.6622 31.9979L63.5252 36.0442L62.6386 35.9666ZM63.9051 31.9317L67.5811 32.2533L67.5105 33.0602L63.8345 32.7386L63.9051 31.9317Z" fill="#E8342A"/>
<path d="M27.566 58.2488C25.7967 58.094 24.3247 57.5717 23.1497 56.6819C21.9922 55.7776 21.1525 54.636 20.6306 53.2573C20.1088 51.8786 19.919 50.3763 20.0613 48.7505C20.1658 47.5551 20.4395 46.4467 20.8822 45.4254C21.3422 44.3896 21.9578 43.5039 22.7288 42.7683C23.4998 42.0327 24.4149 41.4863 25.4741 41.1293C26.5506 40.7577 27.7583 40.6305 29.0971 40.7476C30.4201 40.8634 31.5714 41.197 32.5511 41.7485C33.5481 42.2854 34.3623 42.983 34.9939 43.8413C35.6255 44.6996 36.07 45.6781 36.3272 46.7767C36.6017 47.8608 36.6867 49.0005 36.5822 50.1959C36.4399 51.8217 35.9921 53.2682 35.2388 54.5354C34.4855 55.8025 33.4604 56.7809 32.1633 57.4705C30.8677 58.1441 29.3352 58.4036 27.566 58.2488ZM27.8275 55.2602C28.9432 55.3578 29.8834 55.167 30.6481 54.6878C31.4141 54.1927 32.0029 53.5215 32.4143 52.6741C32.8431 51.8122 33.1007 50.8871 33.1871 49.8989C33.2722 48.9266 33.1777 47.9868 32.9038 47.0795C32.6471 46.1576 32.1839 45.3943 31.5141 44.7896C30.8442 44.185 29.9514 43.8338 28.8357 43.7362C27.704 43.6372 26.7479 43.8266 25.9672 44.3044C25.2026 44.7835 24.6138 45.4548 24.201 46.3181C23.7896 47.1655 23.5414 48.0753 23.4563 49.0476C23.3698 50.0358 23.4549 50.9908 23.7115 51.9127C23.9696 52.8187 24.4328 53.5819 25.1013 54.2026C25.787 54.8086 26.6958 55.1612 27.8275 55.2602ZM44.1693 59.3159L41.1387 42.1866L44.4859 42.4794L47.2535 59.5857L44.1693 59.3159ZM48.7598 59.7175L45.6516 59.4456L51.3716 43.0818L54.6949 43.3726L48.7598 59.7175ZM39.2499 42.0213L42.3819 42.2954L40.9177 59.0314L37.7857 58.7574L39.2499 42.0213ZM53.4755 43.2659L56.6076 43.5399L55.1434 60.276L52.0113 60.002L53.4755 43.2659ZM63.494 44.1424L66.6022 44.4143L60.2367 60.7216L56.9134 60.4309L63.494 44.1424ZM68.0845 44.544L71.7846 61.7319L68.4373 61.4391L64.9764 44.2721L68.0845 44.544ZM60.369 54.2525L69.3826 55.0411L69.1357 57.8623L60.1222 57.0738L60.369 54.2525ZM82.6411 62.6818L76.2155 45.2554L79.754 45.565L86.2035 62.9934L82.6411 62.6818ZM74.9962 45.1487L78.1282 45.4227L76.664 62.1588L73.5319 61.8848L74.9962 45.1487ZM85.7312 46.0879L88.8871 46.364L87.4229 63.1001L84.2669 62.824L85.7312 46.0879Z" fill="#E8342A"/>
<g clip-path="url(#clip0_417_1703)">
<path d="M37.302 74.8293L34.9691 76.4667C34.8657 76.5436 34.7621 76.5713 34.6584 76.55C34.5548 76.5286 34.4674 76.4719 34.3963 76.3797C34.3253 76.2876 34.2735 76.1757 34.241 76.0442C34.2086 75.9127 34.2124 75.7687 34.2524 75.6121L35.1306 72.2085L33.4094 69.7192C33.3317 69.602 33.2882 69.4722 33.2788 69.3299C33.2694 69.1877 33.2879 69.0513 33.3341 68.9208C33.3804 68.7903 33.4423 68.6852 33.52 68.6056C33.5976 68.526 33.6984 68.4796 33.8224 68.4663L36.3891 68.3778L37.6555 65.2108C37.7119 65.0684 37.7892 64.9647 37.8874 64.8996C37.9856 64.8345 38.0826 64.8062 38.1782 64.8145C38.2739 64.8229 38.3644 64.8677 38.4498 64.9488C38.5352 65.0299 38.5933 65.1455 38.6242 65.2955L39.3214 68.6344L41.8338 69.1672C41.9538 69.2023 42.045 69.2655 42.1074 69.3569C42.1697 69.4483 42.2125 69.5625 42.2357 69.6996C42.2588 69.8367 42.2535 69.9744 42.2196 70.1129C42.1856 70.2514 42.1201 70.3713 42.0229 70.4728L39.8956 72.6254L40.1694 76.1298C40.1817 76.2905 40.1604 76.433 40.1056 76.5573C40.0507 76.6817 39.9803 76.7828 39.8944 76.8607C39.8084 76.9387 39.7125 76.9794 39.6067 76.9829C39.5008 76.9864 39.4037 76.9411 39.3152 76.8469L37.302 74.8293Z" fill="#E8342A"/>
</g>
<path d="M51.6012 76.0267L49.7153 67.4296L50.8629 67.53L52.6532 76.1188L51.6012 76.0267ZM53.1552 76.1627L52.0913 76.0696L55.3577 67.9233L56.4934 68.0227L53.1552 76.1627ZM49.1415 67.3794L50.1815 67.4704L49.4494 75.8385L48.4094 75.7475L49.1415 67.3794ZM56.0272 67.9819L57.0791 68.0739L56.347 76.4419L55.2951 76.3499L56.0272 67.9819ZM65.8905 73.8438C65.7719 74.5562 65.5336 75.1698 65.1753 75.6845C64.8251 76.1999 64.3618 76.585 63.7854 76.8397C63.2176 77.0872 62.5393 77.1764 61.7503 77.1074C60.8657 77.03 60.1296 76.7689 59.5422 76.324C58.9634 75.8718 58.5435 75.301 58.2826 74.6117C58.0217 73.9223 57.9268 73.1712 57.9979 72.3583C58.0502 71.7606 58.187 71.2064 58.4084 70.6957C58.6384 70.1778 58.9462 69.7349 59.3317 69.3671C59.7172 68.9993 60.1748 68.7262 60.7043 68.5477C61.2426 68.3619 61.8464 68.2983 62.5159 68.3568C63.6396 68.4551 64.4901 68.8307 65.0674 69.4835C65.6533 70.129 65.9662 70.9594 66.0058 71.9748L64.8343 71.8723C64.8182 71.5978 64.7658 71.3242 64.6772 71.0514C64.5973 70.7714 64.4672 70.5151 64.2868 70.2825C64.1071 70.0419 63.8634 69.8439 63.5558 69.6885C63.2561 69.5338 62.8791 69.4366 62.4249 69.3968C61.7634 69.339 61.1959 69.4459 60.7224 69.7177C60.2496 69.9815 59.8794 70.3586 59.6116 70.8492C59.3525 71.3324 59.1971 71.8689 59.1455 72.4587C59.0932 73.0564 59.1524 73.6197 59.3229 74.1486C59.5022 74.6702 59.8013 75.1059 60.2204 75.4558C60.6395 75.8056 61.1798 76.0095 61.8413 76.0674C62.3274 76.1099 62.7441 76.0741 63.0914 75.9599C63.4394 75.8378 63.7238 75.6619 63.9446 75.4323C64.1735 75.2033 64.3489 74.9416 64.4711 74.6472C64.6012 74.3534 64.6918 74.0521 64.7429 73.7434L65.8905 73.8438ZM69.4022 69.152L70.502 69.2482L69.7699 77.6163L68.6701 77.5201L69.4022 69.152ZM66.7483 68.9198L73.1559 69.4804L73.0711 70.4487L66.6636 69.8881L66.7483 68.9198Z" fill="#E8342A"/>
<path d="M96.2542 40.9007C102.644 44.9065 106.578 51.6276 105.94 58.9237C105.301 66.2251 100.26 72.161 93.2721 74.9858C95.0047 82.2891 92.997 89.8765 87.3946 94.5775C81.7921 99.2785 73.9759 99.8859 67.0799 96.9637C63.1316 103.359 56.3582 107.288 49.0621 106.65C41.766 106.011 35.8301 100.97 32.9948 93.9816C25.7065 95.6629 18.1093 93.707 13.4031 88.1041C8.70208 82.5016 8.10516 74.6864 11.0692 67.794C4.68384 63.7939 0.697715 57.0682 1.33604 49.7721C1.97437 42.476 7.06262 36.5442 14.0565 33.7093C12.3234 26.4113 14.2736 18.8189 19.8813 14.1183C25.4842 9.41207 33.3045 8.75762 40.243 11.7363C44.196 5.34677 50.9124 1.40725 58.2137 2.04604C65.5151 2.68482 71.4976 7.73535 74.2758 14.7138C81.5791 12.9811 89.167 14.9836 93.8675 20.5913C98.5685 26.1937 99.2282 34.0145 96.2542 40.9007Z" stroke="#E8342A" stroke-width="2" stroke-linecap="round" stroke-linejoin="round"/>
<defs>
<clipPath id="clip0_417_1703">
<rect width="12" height="12" fill="white" transform="translate(32.2014 64.2915) rotate(5)"/>
</clipPath>
</defs>
</svg>
