<svg preserveAspectRatio="none" width="100%" height="100%" overflow="visible" style="display: block;" viewBox="0 0 107.003 107.003" fill="none" xmlns="http://www.w3.org/2000/svg">
<path id="Vector" d="M94.7837 36.3914C101.499 39.825 106.003 46.1777 106.003 53.5017C106.003 60.8309 101.499 67.1836 94.7837 70.6067C97.1463 77.7312 95.8075 85.4647 90.6361 90.6361C85.4647 95.8075 77.7312 97.0938 70.6067 94.7837C67.2309 101.499 60.8256 106.003 53.5017 106.003C46.1777 106.003 39.825 101.499 36.3914 94.7837C29.2774 97.0938 21.5387 95.8075 16.362 90.6361C11.1906 85.4647 9.91478 77.7312 12.2669 70.6067C5.55714 67.1784 1 60.8256 1 53.5017C1 46.1777 5.55189 39.825 12.2721 36.3914C9.90953 29.2721 11.1906 21.5387 16.3672 16.3672C21.5387 11.1906 29.2721 9.85703 36.4439 12.2196C39.825 5.50989 46.1724 1 53.5017 1C60.8309 1 67.2309 5.50989 70.6067 12.2196C77.7312 9.85703 85.4647 11.1906 90.6361 16.3672C95.8075 21.5387 97.1463 29.2721 94.7837 36.3914Z" stroke="var(--stroke-0, #E8342A)" stroke-width="2" stroke-linecap="round" stroke-linejoin="round"/>
</svg>
