<svg width="133" height="111" viewBox="0 0 133 111" fill="none" xmlns="http://www.w3.org/2000/svg">
<rect x="9.62461" y="1.08335" width="122" height="98" rx="11" transform="rotate(5 9.62461 1.08335)" stroke="#E8342A" stroke-width="2"/>
<path d="M56.0115 38.2678C56.0617 37.7703 56.1819 37.3525 56.3721 37.0145C56.5623 36.6764 56.7943 36.3956 57.0682 36.1719C57.3426 35.9416 57.6368 35.7532 57.9508 35.6067C58.272 35.4541 58.5884 35.3178 58.9 35.1979C59.2183 35.0785 59.507 34.9532 59.7661 34.8219C60.0318 34.6913 60.2495 34.5363 60.4191 34.3571C60.5887 34.1778 60.6854 33.9521 60.7092 33.6798C60.7441 33.2813 60.6322 32.9536 60.3736 32.6968C60.1156 32.4333 59.7541 32.2812 59.2893 32.2406C58.7247 32.1912 58.2941 32.294 57.9974 32.5491C57.7074 32.8048 57.5263 33.1537 57.4542 33.5958L56.5078 33.513C56.549 33.0414 56.6979 32.6396 56.9545 32.3073C57.2117 31.9684 57.545 31.7165 57.9542 31.5516C58.3635 31.3866 58.8172 31.3259 59.3153 31.3695C59.8798 31.4189 60.3393 31.5595 60.6938 31.7913C61.0549 32.0236 61.3142 32.3106 61.4717 32.6523C61.6358 32.9946 61.7013 33.355 61.6682 33.7336C61.6351 34.1121 61.5308 34.4242 61.3554 34.6699C61.1866 34.9161 60.9712 35.1214 60.7092 35.2859C60.4478 35.4437 60.1643 35.5862 59.8587 35.7134C59.5532 35.8406 59.244 35.9708 58.9312 36.104C58.6256 36.2312 58.3409 36.387 58.0772 36.5714C57.8134 36.7558 57.5921 36.9907 57.4132 37.2762C57.241 37.5623 57.1357 37.9245 57.0973 38.3628L56.0115 38.2678ZM56.9098 37.5233L61.3229 37.9094L61.2515 38.7262L56.0115 38.2678L56.9098 37.5233ZM64.9937 39.2143C64.3163 39.155 63.7727 38.9435 63.3628 38.5797C62.9602 38.2099 62.6767 37.74 62.5124 37.1702C62.3548 36.601 62.3056 35.9777 62.3648 35.3003C62.4084 34.8022 62.5058 34.3389 62.6571 33.9104C62.8155 33.4759 63.0289 33.1031 63.297 32.7919C63.5718 32.4814 63.9033 32.2494 64.2914 32.096C64.6802 31.9359 65.1269 31.878 65.6317 31.9221C66.1364 31.9663 66.563 32.1006 66.9114 32.3252C67.2671 32.5437 67.5499 32.8294 67.7599 33.1824C67.9766 33.536 68.1219 33.9402 68.1959 34.395C68.2771 34.8438 68.2959 35.3172 68.2523 35.8153C68.1931 36.4928 68.0331 37.0978 67.7723 37.6304C67.5182 38.1636 67.1575 38.5771 66.6901 38.8708C66.2299 39.1585 65.6645 39.273 64.9937 39.2143ZM65.0695 38.3476C65.4946 38.3848 65.864 38.2933 66.1777 38.0731C66.4986 37.8469 66.7538 37.5313 66.9431 37.1262C67.1325 36.7212 67.2501 36.2563 67.296 35.7317C67.3413 35.2136 67.3059 34.7388 67.1898 34.307C67.0736 33.8752 66.8769 33.5234 66.5995 33.2515C66.3288 32.9802 65.9809 32.826 65.5559 32.7888C65.1242 32.751 64.7482 32.8419 64.4278 33.0615C64.1141 33.2817 63.8625 33.5943 63.6732 33.9993C63.4838 34.4044 63.3665 34.8659 63.3212 35.3839C63.2753 35.9086 63.3104 36.3868 63.4265 36.8186C63.5427 37.2503 63.7358 37.6052 64.006 37.8831C64.2833 38.155 64.6378 38.3098 65.0695 38.3476ZM70.9501 32.548L71.8666 32.6282L71.2565 39.6016L70.34 39.5214L70.9501 32.548ZM69.2765 32.4016L71.2191 32.5716L71.1485 33.3785L69.2059 33.2085L69.2765 32.4016ZM68.737 38.5681L70.6796 38.738L70.609 39.5449L68.6664 39.375L68.737 38.5681ZM71.0581 38.7711L73.0007 38.9411L72.9301 39.748L70.9875 39.578L71.0581 38.7711ZM76.929 32.9105C77.4603 32.957 77.9104 33.0901 78.2793 33.3097C78.6549 33.53 78.9353 33.8054 79.1205 34.1362C79.3124 34.4675 79.392 34.8191 79.3595 35.191C79.3293 35.5364 79.2153 35.8443 79.0177 36.1147C78.8272 36.3791 78.5367 36.5645 78.1459 36.6709C78.5388 36.8458 78.8088 37.0869 78.9559 37.3942C79.103 37.7016 79.1612 38.0312 79.1304 38.3832C79.0979 38.7551 78.9617 39.0878 78.7219 39.3814C78.4887 39.6755 78.1647 39.8981 77.7499 40.0492C77.3418 40.2009 76.8555 40.252 76.291 40.2027C75.7332 40.1538 75.2631 40.019 74.8809 39.7982C74.4987 39.5774 74.215 39.3016 74.0298 38.9709C73.8512 38.6407 73.7782 38.2897 73.8107 37.9178C73.8415 37.5658 73.956 37.2512 74.1543 36.9741C74.3525 36.697 74.6603 36.5065 75.0776 36.4024C74.7113 36.2298 74.454 35.9965 74.3057 35.7025C74.1646 35.4024 74.1092 35.0797 74.1394 34.7343C74.172 34.3624 74.3082 34.0297 74.548 33.7361C74.7945 33.4432 75.1217 33.2208 75.5299 33.0692C75.938 32.9175 76.4043 32.8646 76.929 32.9105ZM74.7732 37.9317C74.7523 38.1708 74.7965 38.3922 74.9058 38.5958C75.0218 38.8 75.198 38.966 75.4344 39.0938C75.6775 39.2221 75.9883 39.3028 76.3669 39.336C76.7388 39.3685 77.0489 39.3421 77.2973 39.2568C77.5523 39.172 77.7447 39.0383 77.8745 38.8555C78.0042 38.6728 78.0795 38.4619 78.1005 38.2228C78.1336 37.8443 78.0296 37.5407 77.7886 37.3122C77.5549 37.0776 77.1524 36.9353 76.5813 36.8853C76.0035 36.8348 75.5658 36.9036 75.2683 37.0917C74.9713 37.2732 74.8063 37.5532 74.7732 37.9317ZM75.0984 34.7881C75.0653 35.1667 75.1789 35.4744 75.4392 35.7113C75.7068 35.9422 76.1095 36.0812 76.6475 36.1282C77.1788 36.1747 77.5962 36.1075 77.8998 35.9266C78.204 35.7391 78.3726 35.456 78.4058 35.0775C78.4348 34.7454 78.3062 34.4564 78.0199 34.2105C77.7402 33.9652 77.3513 33.8208 76.8532 33.7772C76.3551 33.7336 75.9437 33.808 75.619 34.0005C75.301 34.1935 75.1274 34.456 75.0984 34.7881Z" fill="#E8342A"/>
<path d="M37.0221 59.0757C35.2528 58.9209 33.7808 58.3986 32.6058 57.5089C31.4482 56.6045 30.6085 55.463 30.0867 54.0843C29.5649 52.7055 29.3751 51.2033 29.5173 49.5775C29.6219 48.3821 29.8956 47.2737 30.3383 46.2524C30.7983 45.2165 31.4138 44.3308 32.1849 43.5952C32.9559 42.8596 33.871 42.3133 34.9302 41.9563C36.0067 41.5847 37.2143 41.4574 38.5532 41.5746C39.8762 41.6903 41.0275 42.0239 42.0071 42.5754C43.0041 43.1123 43.8184 43.81 44.45 44.6683C45.0816 45.5266 45.526 46.5051 45.7833 47.6037C46.0578 48.6877 46.1428 49.8275 46.0382 51.0229C45.896 52.6487 45.4482 54.0952 44.6949 55.3623C43.9416 56.6295 42.9164 57.6079 41.6194 58.2974C40.3238 58.9711 38.7913 59.2305 37.0221 59.0757ZM35.139 61.8743L35.4967 57.7859L38.7004 58.0662L38.3428 62.1545L35.139 61.8743ZM38.2152 63.613L38.4641 60.7678L41.5483 61.0377L41.2994 63.8828L38.2152 63.613ZM37.2835 56.0871C38.1124 56.1597 38.8436 56.063 39.4772 55.7972C40.1267 55.5328 40.6664 55.1464 41.0964 54.6379C41.5436 54.1149 41.8849 53.5184 42.1202 52.8484C42.3729 52.1638 42.5312 51.4549 42.5954 50.7217C42.6581 50.0044 42.6239 49.2947 42.4926 48.5926C42.3786 47.876 42.1461 47.2292 41.795 46.6524C41.4613 46.0611 40.9968 45.5868 40.4017 45.2296C39.8239 44.8578 39.1206 44.6357 38.2918 44.5632C37.447 44.4893 36.6998 44.5845 36.0503 44.8489C35.4167 45.1147 34.877 45.5011 34.4311 46.0082C33.9852 46.5153 33.636 47.1111 33.3833 47.7957C33.1321 48.4643 32.9751 49.1573 32.9124 49.8745C32.8482 50.6077 32.8811 51.3334 33.011 52.0514C33.1423 52.7535 33.3828 53.4009 33.7325 53.9937C34.0836 54.5705 34.548 55.0448 35.1258 55.4165C35.7195 55.7897 36.4388 56.0132 37.2835 56.0871ZM52.2402 43.1575L55.3483 43.4294L48.9828 59.7367L45.6595 59.4459L52.2402 43.1575ZM56.8306 43.5591L60.5307 60.747L57.1835 60.4542L53.7225 43.2872L56.8306 43.5591ZM49.1151 53.2676L58.1287 54.0562L57.8819 56.8774L48.8683 56.0888L49.1151 53.2676ZM66.2747 44.3854L69.5502 44.6719L68.086 61.408L64.8105 61.1214L66.2747 44.3854ZM61.0626 43.9294L74.7623 45.1279L74.5134 47.9731L60.8137 46.7745L61.0626 43.9294ZM78.974 45.4964L82.0821 45.7683L75.7166 62.0756L72.3933 61.7848L78.974 45.4964ZM83.5644 45.898L87.2645 63.0859L83.9173 62.7931L80.4563 45.6261L83.5644 45.898ZM75.8489 55.6065L84.8625 56.3951L84.6157 59.2163L75.6021 58.4277L75.8489 55.6065ZM93.0207 54.8683L95.555 55.09L95.3082 57.9113L92.7739 57.6895L93.0207 54.8683ZM95.555 55.09C96.3679 55.1612 97.0682 55.1421 97.656 55.0329C98.2597 54.9251 98.7297 54.6932 99.066 54.3372C99.4182 53.9825 99.6236 53.4705 99.6822 52.801C99.7408 52.1316 99.6274 51.5917 99.3421 51.1812C99.0727 50.7722 98.6494 50.4702 98.0722 50.2751C97.5124 50.0655 96.826 49.9252 96.0131 49.854L96.262 47.0089C97.7125 47.1358 98.9643 47.422 100.017 47.8675C101.087 48.3144 101.889 48.9628 102.425 49.8127C102.978 50.6481 103.196 51.7432 103.077 53.0981C102.96 54.4369 102.555 55.4856 101.862 56.2442C101.187 56.9881 100.284 57.4873 99.1536 57.7418C98.0404 57.9817 96.7586 58.0382 95.3082 57.9113L95.555 55.09ZM93.7277 46.7872L96.262 47.0089L96.0131 49.854L93.4788 49.6323L93.7277 46.7872ZM95.8081 56.0518L99.0597 56.3362L102.138 64.3871L98.4319 64.0629L95.8081 56.0518ZM93.5896 48.3652L92.2635 63.5233L89.0119 63.2388L90.3381 48.0807L93.5896 48.3652Z" fill="#E8342A"/>
<g clip-path="url(#clip0_417_1687)">
<path d="M49.2566 75.8752L46.9237 77.5126C46.8203 77.5895 46.7167 77.6172 46.613 77.5959C46.5094 77.5745 46.422 77.5178 46.3509 77.4256C46.2798 77.3335 46.2281 77.2216 46.1956 77.0901C46.1631 76.9586 46.1669 76.8146 46.207 76.658L47.0852 73.2544L45.3639 70.7651C45.2863 70.6479 45.2427 70.5181 45.2334 70.3758C45.224 70.2336 45.2425 70.0972 45.2887 69.9667C45.3349 69.8362 45.3969 69.7311 45.4746 69.6515C45.5522 69.5719 45.653 69.5254 45.7769 69.5122L48.3437 69.4237L49.6101 66.2567C49.6665 66.1143 49.7438 66.0106 49.842 65.9455C49.9402 65.8804 50.0371 65.8521 50.1328 65.8604C50.2284 65.8688 50.319 65.9136 50.4044 65.9947C50.4898 66.0758 50.5479 66.1914 50.5788 66.3414L51.276 69.6803L53.7883 70.2131C53.9084 70.2482 53.9996 70.3114 54.0619 70.4028C54.1243 70.4942 54.1671 70.6084 54.1903 70.7455C54.2134 70.8826 54.2081 71.0203 54.1741 71.1588C54.1402 71.2973 54.0747 71.4172 53.9775 71.5187L51.8501 73.6713L52.1239 77.1757C52.1363 77.3364 52.115 77.4789 52.0602 77.6032C52.0053 77.7276 51.9349 77.8287 51.8489 77.9066C51.763 77.9846 51.6671 78.0253 51.5613 78.0288C51.4554 78.0323 51.3583 77.987 51.2698 77.8928L49.2566 75.8752Z" fill="#E8342A"/>
</g>
<path d="M60.9209 68.41L62.0207 68.5062L61.3598 76.0614L60.26 75.9652L60.9209 68.41ZM61.3744 75.894L62.9524 76.0321L62.8666 77.0123L61.2886 76.8743L61.3744 75.894ZM62.9524 76.0321C63.6298 76.0913 64.2002 75.9967 64.6636 75.7481C65.135 75.5003 65.4956 75.1423 65.7453 74.6743C66.003 74.207 66.158 73.6745 66.2103 73.0768C66.2619 72.487 66.2011 71.9437 66.0277 71.4467C65.863 70.9424 65.5701 70.5273 65.1489 70.2013C64.7357 69.8761 64.1904 69.6838 63.513 69.6246L63.5987 68.6443C64.4833 68.7217 65.2164 68.9705 65.798 69.3908C66.3803 69.8031 66.8033 70.338 67.067 70.9955C67.3314 71.645 67.4284 72.3723 67.358 73.1772C67.2868 73.9901 67.0643 74.6974 66.6905 75.2991C66.3166 75.9008 65.8068 76.3581 65.1611 76.671C64.5161 76.976 63.7512 77.0897 62.8666 77.0123L62.9524 76.0321ZM61.7578 68.4832L63.5987 68.6443L63.513 69.6246L61.672 69.4635L61.7578 68.4832ZM72.1172 78.0144C71.2326 77.937 70.4965 77.6758 69.9091 77.231C69.3303 76.7788 68.9104 76.208 68.6495 75.5187C68.3886 74.8293 68.2937 74.0782 68.3648 73.2653C68.4171 72.6676 68.5539 72.1134 68.7753 71.6027C69.0053 71.0848 69.3131 70.6419 69.6986 70.2741C70.0841 69.9063 70.5417 69.6332 71.0712 69.4547C71.6095 69.2689 72.2133 69.2052 72.8828 69.2638C73.5442 69.3217 74.1199 69.4885 74.6097 69.7642C75.1082 70.0327 75.5154 70.3815 75.8312 70.8107C76.147 71.2398 76.3692 71.7291 76.4978 72.2784C76.6351 72.8204 76.6776 73.3903 76.6253 73.988C76.5542 74.8009 76.3303 75.5241 75.9536 76.1577C75.577 76.7913 75.0644 77.2805 74.4159 77.6252C73.768 77.9621 73.0018 78.0918 72.1172 78.0144ZM72.2082 76.9744C72.8697 77.0322 73.4332 76.9249 73.8987 76.6525C74.3722 76.3807 74.7385 76.0032 74.9976 75.5199C75.2653 75.0294 75.4254 74.4853 75.4777 73.8876C75.5293 73.2978 75.4654 72.7421 75.2862 72.2205C75.1157 71.6917 74.8205 71.2563 74.4007 70.9144C73.9896 70.5652 73.4533 70.3617 72.7918 70.3038C72.1303 70.246 71.5628 70.3529 71.0893 70.6247C70.6245 70.8892 70.2582 71.2667 69.9905 71.7572C69.7234 72.2398 69.564 72.7759 69.5124 73.3657C69.4602 73.9634 69.5233 74.527 69.7018 75.0566C69.881 75.5782 70.1762 76.0136 70.5873 76.3628C71.0064 76.7126 71.5467 76.9165 72.2082 76.9744ZM78.28 69.9287L79.3797 70.025L78.6476 78.393L77.5478 78.2968L78.28 69.9287ZM83.7909 70.4109L84.9027 70.5081L84.1705 78.8762L83.0588 78.7789L83.7909 70.4109ZM78.436 73.6525L84.3175 74.1671L84.2339 75.1234L78.3523 74.6089L78.436 73.6525Z" fill="#E8342A"/>
<defs>
<clipPath id="clip0_417_1687">
<rect width="12" height="12" fill="white" transform="translate(44.156 65.3374) rotate(5)"/>
</clipPath>
</defs>
</svg>
