<svg width="36" height="24" viewBox="0 0 36 24" fill="none" xmlns="http://www.w3.org/2000/svg">
<g clip-path="url(#clip0_328_1034)">
<path d="M0 12H36V24H0V12Z" fill="white"/>
<path d="M0 0H36V12H0V0Z" fill="#ED2939"/>
<path d="M8.20342 1.5832C8.34113 1.58321 8.47733 1.58991 8.61182 1.60225C6.94488 2.3647 5.78672 4.04714 5.78672 6C5.78674 7.95281 6.94493 9.635 8.61182 10.3975C8.47732 10.4098 8.34113 10.4165 8.20342 10.4165C5.7642 10.4165 3.78669 8.4392 3.78662 6C3.78662 3.56074 5.76416 1.5832 8.20342 1.5832Z" fill="white"/>
<path d="M10.62 2.31668L9.94405 4.39705L11.7137 3.11131H9.52629L11.296 4.39705L10.62 2.31668Z" fill="white"/>
<path d="M14.123 4.8619H11.9356L13.7053 6.14764L13.0293 4.06727L12.3534 6.14764L14.123 4.8619Z" fill="white"/>
<path d="M8.45498 8.97998L10.2246 7.69424L8.03722 7.69424L9.80689 8.97998L9.13093 6.89961L8.45498 8.97998Z" fill="white"/>
<path d="M12.7849 8.97974L12.109 6.89938L11.433 8.97975L13.2027 7.69401L11.0153 7.69401L12.7849 8.97974Z" fill="white"/>
<path d="M7.11687 4.86165L8.00171 5.50452L8.88654 6.14739L8.21059 4.06702L7.53463 6.14739L9.3043 4.86165L7.11687 4.86165Z" fill="white"/>
</g>
<defs>
<clipPath id="clip0_328_1034">
<rect width="36" height="24" rx="4.8" fill="white"/>
</clipPath>
</defs>
</svg>
