<svg width="190" height="116" viewBox="0 0 190 116" fill="none" xmlns="http://www.w3.org/2000/svg">
<rect x="1.08335" y="16.6844" width="179" height="98" rx="7" transform="rotate(-5 1.08335 16.6844)" stroke="#171717" stroke-width="2"/>
<path d="M81.1131 42.8088C81.0762 42.3101 81.122 41.8778 81.2506 41.5118C81.3792 41.1459 81.559 40.829 81.7898 40.5612C82.0201 40.2868 82.2771 40.0501 82.5609 39.8513C82.8507 39.6453 83.1386 39.4561 83.4247 39.2839C83.7174 39.111 83.98 38.9375 84.2123 38.7632C84.4513 38.5884 84.6388 38.398 84.7747 38.1921C84.9106 37.9861 84.9666 37.747 84.9428 37.4747C84.908 37.0762 84.7409 36.7729 84.4416 36.5649C84.1418 36.3502 83.7594 36.2632 83.2945 36.3039C82.73 36.3533 82.3238 36.5293 82.0759 36.8321C81.8347 37.1343 81.7169 37.5093 81.7226 37.9572L80.7762 38.04C80.735 37.5684 80.8119 37.1468 81.0069 36.7751C81.2013 36.3967 81.4857 36.0907 81.8601 35.8572C82.2345 35.6237 82.6708 35.4851 83.1689 35.4415C83.7334 35.3922 84.2103 35.4508 84.5996 35.6175C84.9956 35.7836 85.3008 36.0213 85.5153 36.3304C85.7363 36.639 85.8634 36.9826 85.8965 37.3611C85.9297 37.7397 85.8812 38.0651 85.7511 38.3375C85.6276 38.6093 85.4512 38.8489 85.2217 39.0564C84.9917 39.2572 84.7372 39.4468 84.4584 39.6251C84.1795 39.8034 83.8977 39.9853 83.6127 40.1709C83.3339 40.3492 83.0806 40.552 82.8529 40.7794C82.6252 41.0068 82.448 41.2766 82.3214 41.5888C82.2014 41.9004 82.1606 42.2754 82.199 42.7138L81.1131 42.8088ZM81.8685 41.9195L86.2817 41.5334L86.3531 42.3503L81.1131 42.8088L81.8685 41.9195ZM90.1233 42.1811C89.4459 42.2403 88.8737 42.1264 88.407 41.8394C87.9462 41.5451 87.5855 41.1316 87.3247 40.599C87.0706 40.0658 86.9139 39.4604 86.8547 38.783C86.8111 38.2849 86.8266 37.8118 86.9011 37.3636C86.9817 36.9081 87.1271 36.5039 87.3371 36.151C87.5538 35.7974 87.8399 35.5114 88.1956 35.2929C88.5506 35.0677 88.9805 34.9331 89.4853 34.8889C89.99 34.8448 90.4335 34.903 90.8156 35.0637C91.2038 35.2171 91.5319 35.4494 91.8001 35.7605C92.0748 36.0711 92.2881 36.4439 92.44 36.879C92.5979 37.3069 92.6986 37.7698 92.7422 38.2679C92.8014 38.9453 92.7489 39.569 92.5846 40.1388C92.427 40.708 92.1435 41.1779 91.7342 41.5483C91.331 41.9115 90.794 42.1224 90.1233 42.1811ZM90.0474 41.3144C90.4725 41.2772 90.8204 41.123 91.0911 40.8517C91.3679 40.5732 91.5643 40.218 91.6805 39.7862C91.7966 39.3545 91.8317 38.8763 91.7858 38.3516C91.7405 37.8336 91.6232 37.3721 91.4338 36.967C91.2445 36.562 90.9896 36.2497 90.6692 36.0301C90.3555 35.8099 89.9862 35.7184 89.5611 35.7556C89.1294 35.7934 88.7749 35.9482 88.4975 36.2201C88.2268 36.4914 88.0334 36.8429 87.9172 37.2747C87.8011 37.7064 87.7657 38.1813 87.811 38.6994C87.8569 39.224 87.9745 39.6889 88.1639 40.0939C88.3533 40.4989 88.6051 40.8149 88.9194 41.0417C89.2397 41.2612 89.6158 41.3522 90.0474 41.3144ZM93.8278 41.6964C93.7909 41.1977 93.8367 40.7654 93.9653 40.3994C94.0939 40.0335 94.2737 39.7166 94.5045 39.4488C94.7348 39.1744 94.9918 38.9377 95.2756 38.7389C95.5654 38.5329 95.8534 38.3437 96.1394 38.1715C96.4321 37.9986 96.6947 37.8251 96.9271 37.6509C97.1661 37.476 97.3535 37.2856 97.4894 37.0797C97.6253 36.8737 97.6813 36.6346 97.6575 36.3623C97.6227 35.9638 97.4556 35.6605 97.1563 35.4525C96.8565 35.2378 96.4741 35.1508 96.0092 35.1915C95.4447 35.2409 95.0385 35.4169 94.7906 35.7197C94.5494 36.0219 94.4316 36.3969 94.4373 36.8448L93.4909 36.9276C93.4497 36.456 93.5266 36.0344 93.7216 35.6627C93.916 35.2843 94.2004 34.9783 94.5748 34.7448C94.9492 34.5113 95.3855 34.3727 95.8836 34.3292C96.4481 34.2798 96.925 34.3384 97.3144 34.5051C97.7103 34.6712 98.0155 34.9089 98.23 35.218C98.451 35.5266 98.5781 35.8702 98.6113 36.2487C98.6444 36.6273 98.5959 36.9527 98.4658 37.2251C98.3424 37.4969 98.1659 37.7365 97.9364 37.944C97.7064 38.1448 97.452 38.3344 97.1731 38.5127C96.8942 38.691 96.6124 38.8729 96.3275 39.0585C96.0486 39.2368 95.7953 39.4396 95.5676 39.667C95.3399 39.8944 95.1627 40.1642 95.0361 40.4764C94.9162 40.788 94.8754 41.163 94.9137 41.6014L93.8278 41.6964ZM94.5832 40.8071L98.9964 40.421L99.0678 41.2379L93.8278 41.6964L94.5832 40.8071ZM102.443 33.9159L103.34 33.8374L103.95 40.8108L103.053 40.8892L102.443 33.9159ZM99.8948 38.6359L104.916 38.1967L104.986 39.0036L99.9653 39.4429L99.8948 38.6359ZM102.144 33.942L103.081 33.8601L100.155 39.4263L99.6266 39.4725L99.5639 38.7552L102.144 33.942Z" fill="#171717"/>
<path d="M32.7978 63.7476C32.9104 64.2999 33.1442 64.7693 33.4992 65.1559C33.8543 65.5424 34.2966 65.8249 34.8262 66.0034C35.3703 66.1646 35.9691 66.2166 36.6226 66.1595C37.4992 66.0828 38.2192 65.8672 38.7824 65.5128C39.3602 65.141 39.6205 64.6284 39.5634 63.9749C39.5229 63.5126 39.3083 63.17 38.9193 62.9471C38.545 62.7068 38.048 62.5334 37.4283 62.427C36.8233 62.3033 36.1638 62.2004 35.4499 62.1183C34.7346 62.0203 34.0086 61.891 33.2718 61.7307C32.551 61.5689 31.879 61.3225 31.2557 60.9916C30.6311 60.6447 30.1076 60.1685 29.6853 59.563C29.2788 58.9561 29.0324 58.1586 28.9459 57.1703C28.8622 56.214 29.0673 55.3448 29.561 54.5628C30.0533 53.7649 30.7755 53.1154 31.7274 52.6146C32.694 52.0964 33.8227 51.7808 35.1138 51.6678C36.3411 51.5604 37.4625 51.7113 38.4781 52.1203C39.4936 52.5294 40.3259 53.1392 40.975 53.9497C41.6241 54.7602 41.9961 55.7074 42.0909 56.7912L38.648 57.0924C38.509 56.2373 38.1562 55.6016 37.5898 55.1854C37.0379 54.7519 36.2599 54.579 35.2557 54.6669C34.2516 54.7547 33.5025 55.005 33.0086 55.4176C32.5133 55.8143 32.2907 56.2995 32.3409 56.8733C32.3856 57.3834 32.5958 57.7665 32.9715 58.0227C33.3618 58.2616 33.8602 58.4509 34.4667 58.5906C35.0718 58.7143 35.7313 58.8172 36.4451 58.8993C37.175 58.98 37.9003 59.1013 38.6211 59.263C39.3406 59.4089 40.0119 59.6473 40.6351 59.9782C41.2729 60.2918 41.7943 60.7441 42.1993 61.3351C42.6203 61.9246 42.8733 62.7055 42.9584 63.6778C43.0937 65.2239 42.6092 66.4789 41.505 67.4428C40.4168 68.4053 38.8286 68.9779 36.7406 69.1606C35.4495 69.2736 34.2644 69.1283 33.1851 68.7248C32.1218 68.32 31.2496 67.7137 30.5686 66.906C29.9036 66.0968 29.499 65.1445 29.355 64.0489L32.7978 63.7476ZM44.0335 51.2729L47.285 50.9884L48.7493 67.7245L45.4977 68.009L44.0335 51.2729ZM60.3973 66.7054L51.0432 50.6596L54.5817 50.3501L63.9597 66.3938L60.3973 66.7054ZM49.8238 50.7663L52.9559 50.4923L54.4201 67.2284L51.2881 67.5024L49.8238 50.7663ZM60.5588 49.8271L63.7148 49.551L65.179 66.2871L62.0231 66.5632L60.5588 49.8271ZM75.4106 65.7774C73.6414 65.9322 72.101 65.6735 70.7894 65.0012C69.4924 64.3116 68.4672 63.3333 67.7139 62.0661C66.9606 60.7989 66.5128 59.3525 66.3706 57.7267C66.266 56.5312 66.343 55.3922 66.6016 54.3095C66.8748 53.2095 67.3272 52.2304 67.9588 51.3721C68.5904 50.5138 69.3967 49.8168 70.3778 49.2813C71.3734 48.7284 72.5406 48.3934 73.8795 48.2763C76.1269 48.0796 77.9325 48.524 79.2963 49.6092C80.6746 50.6772 81.5791 52.2041 82.0099 54.1902L78.5431 54.4935C78.416 53.9585 78.23 53.4849 77.9851 53.0727C77.7548 52.6431 77.4663 52.2829 77.1197 51.992C76.773 51.7011 76.3536 51.4969 75.8615 51.3793C75.368 51.2458 74.7945 51.2077 74.141 51.2649C73.0093 51.3639 72.1005 51.7164 71.4148 52.3225C70.7449 52.9272 70.2817 53.6904 70.025 54.6123C69.767 55.5182 69.6805 56.4574 69.7656 57.4296C69.8521 58.4179 70.1017 59.3436 70.5145 60.2069C70.9259 61.0543 71.5147 61.7256 72.2807 62.2207C73.0613 62.6985 74.0175 62.8878 75.1492 62.7888C75.8983 62.7233 76.5427 62.5625 77.0825 62.3065C77.6368 62.0331 78.0718 61.6819 78.3876 61.2527C78.7034 60.8236 78.9166 60.3231 79.0272 59.7513C79.1378 59.1795 79.1312 58.5537 79.0075 57.8739L80.1763 58.5666L74.8208 59.0352L74.5739 56.2139L82.2008 55.5467C82.5242 57.5903 82.4617 59.3544 82.0134 60.8392C81.5796 62.3065 80.7971 63.4591 79.6658 64.2969C78.5504 65.1333 77.1321 65.6268 75.4106 65.7774ZM87.2131 47.4952L90.3212 47.2233L86.8842 64.3881L83.5608 64.6789L87.2131 47.4952ZM91.8036 47.0936L98.432 63.3778L95.0848 63.6707L88.6954 47.3655L91.8036 47.0936ZM85.8911 57.9944L94.9047 57.2058L95.1515 60.027L86.1379 60.8156L85.8911 57.9944ZM102.695 54.5246L105.157 54.3092L105.404 57.1304L102.942 57.3459L102.695 54.5246ZM105.157 54.3092C105.97 54.2381 106.657 54.1057 107.219 53.912C107.794 53.701 108.217 53.391 108.486 52.982C108.77 52.5556 108.879 51.9679 108.814 51.2187C108.748 50.4696 108.539 49.9177 108.187 49.563C107.849 49.1911 107.379 48.9591 106.777 48.8673C106.191 48.774 105.491 48.763 104.678 48.8341L104.429 45.989C105.896 45.8607 107.187 45.9324 108.303 46.2042C109.435 46.4746 110.339 46.9897 111.016 47.7496C111.691 48.4936 112.089 49.5509 112.209 50.9217C112.326 52.2606 112.118 53.3709 111.585 54.2528C111.052 55.1346 110.251 55.8069 109.184 56.2697C108.13 56.7152 106.871 57.0021 105.404 57.1304L105.157 54.3092ZM101.967 46.2044L104.429 45.989L104.678 48.8341L102.216 49.0495L101.967 46.2044ZM102.105 47.7824L103.431 62.9405L100.179 63.225L98.8533 48.0669L102.105 47.7824ZM122.878 61.6246C121.109 61.7794 119.568 61.5206 118.257 60.8484C116.959 60.1588 115.934 59.1804 115.181 57.9133C114.428 56.6461 113.98 55.1996 113.838 53.5738C113.733 52.3784 113.81 51.2394 114.069 50.1567C114.342 49.0567 114.794 48.0775 115.426 47.2192C116.057 46.3609 116.864 45.664 117.845 45.1285C118.84 44.5756 120.008 44.2406 121.347 44.1234C122.67 44.0077 123.861 44.1363 124.922 44.5093C125.997 44.8649 126.92 45.4106 127.691 46.1462C128.462 46.8818 129.07 47.7682 129.514 48.8054C129.972 49.8253 130.254 50.933 130.359 52.1284C130.501 53.7542 130.311 55.2565 129.789 56.6352C129.267 58.0139 128.428 59.1555 127.27 60.0598C126.111 60.9482 124.647 61.4698 122.878 61.6246ZM122.616 58.636C123.732 58.5384 124.625 58.1872 125.295 57.5826C125.963 56.9619 126.426 56.1987 126.684 55.2927C126.957 54.3694 127.05 53.4137 126.964 52.4255C126.878 51.4532 126.622 50.5441 126.195 49.6981C125.782 48.8348 125.193 48.1635 124.429 47.6844C123.664 47.2052 122.724 47.0144 121.608 47.112C120.476 47.211 119.568 47.5636 118.882 48.1696C118.212 48.7743 117.749 49.5376 117.492 50.4595C117.234 51.3654 117.148 52.3045 117.233 53.2768C117.319 54.265 117.569 55.1908 117.982 56.0541C118.393 56.9015 118.982 57.5727 119.748 58.0678C120.528 58.5456 121.485 58.735 122.616 58.636ZM135.525 51.4114L138.059 51.1897L138.306 54.0109L135.772 54.2327L135.525 51.4114ZM138.059 51.1897C138.872 51.1186 139.558 50.9782 140.118 50.7687C140.694 50.5577 141.117 50.2477 141.386 49.8386C141.671 49.4282 141.785 48.8883 141.726 48.2188C141.668 47.5494 141.462 47.0373 141.11 46.6827C140.774 46.3266 140.304 46.1027 139.702 46.0108C139.114 45.9016 138.414 45.8826 137.601 45.9537L137.352 43.1086C138.803 42.9817 140.085 43.0462 141.2 43.302C142.33 43.5564 143.233 44.0556 143.909 44.7996C144.598 45.5262 145.003 46.567 145.121 47.9218C145.238 49.2607 145.022 50.3638 144.471 51.231C143.935 52.081 143.133 52.7294 142.064 53.1763C141.009 53.6058 139.756 53.884 138.306 54.0109L138.059 51.1897ZM134.818 43.3303L137.352 43.1086L137.601 45.9537L135.067 46.1754L134.818 43.3303ZM138.475 52.0929L141.727 51.8084L146.156 59.2025L142.451 59.5267L138.475 52.0929ZM134.956 44.9083L136.282 60.0664L133.031 60.3509L131.704 45.1928L134.956 44.9083ZM148.256 57.4288L146.929 42.2707L150.181 41.9862L151.507 57.1443L148.256 57.4288ZM151.645 58.7223L151.396 55.8771L159.836 55.1388L160.085 57.9839L151.645 58.7223ZM150.889 51.7296L150.642 48.9084L158.173 48.2495L158.42 51.0707L150.889 51.7296ZM150.358 44.8376L150.109 41.9925L158.525 41.2562L158.774 44.1013L150.358 44.8376Z" fill="#171717"/>
<g clip-path="url(#clip0_417_1691)">
<path d="M84.9789 80.6689L82.9658 82.6866C82.8773 82.7802 82.7801 82.8256 82.6743 82.8226C82.5685 82.8195 82.4726 82.7788 82.3866 82.7004C82.3006 82.622 82.2302 82.5209 82.1754 82.397C82.1206 82.2731 82.0993 82.1306 82.1116 81.9695L82.3854 78.4651L80.2581 76.3125C80.1612 76.2105 80.0958 76.0902 80.0619 75.9518C80.028 75.8133 80.0224 75.6758 80.0453 75.5393C80.0682 75.4027 80.111 75.2885 80.1736 75.1966C80.2363 75.1047 80.3275 75.0414 80.4472 75.0069L82.9596 74.474L83.6568 71.1352C83.6876 70.9852 83.7458 70.8696 83.8312 70.7885C83.9166 70.7073 84.0071 70.6626 84.1028 70.6542C84.1984 70.6458 84.2953 70.6742 84.3935 70.7393C84.4918 70.8043 84.5691 70.908 84.6255 71.0504L85.8919 74.2175L88.4586 74.306C88.5829 74.3197 88.6837 74.3661 88.761 74.4453C88.8383 74.5244 88.9002 74.6295 88.9469 74.7605C88.9935 74.8914 89.0121 75.028 89.0028 75.1703C88.9934 75.3125 88.9497 75.4421 88.8716 75.5589L87.1504 78.0482L88.0285 81.4518C88.0686 81.6079 88.0724 81.7519 88.04 81.8839C88.0075 82.0159 87.9558 82.1277 87.8846 82.2194C87.8135 82.3111 87.7261 82.3678 87.6225 82.3896C87.5189 82.4115 87.4154 82.3837 87.3119 82.3063L84.9789 80.6689Z" fill="#171717"/>
</g>
<path d="M96.6823 76.9059C96.7476 77.2857 96.8958 77.6019 97.1267 77.8548C97.3576 78.1076 97.6467 78.2911 97.994 78.4053C98.3492 78.5188 98.738 78.557 99.1604 78.5201C99.79 78.465 100.285 78.2972 100.646 78.0167C101.014 77.7275 101.179 77.3637 101.141 76.9254C101.115 76.6305 100.995 76.4081 100.781 76.2582C100.568 76.1082 100.289 76.0041 99.947 75.9457C99.6119 75.8787 99.2463 75.8303 98.8502 75.8008C98.4534 75.7632 98.0556 75.7137 97.6567 75.6522C97.2579 75.5907 96.8837 75.491 96.5344 75.3529C96.1923 75.2061 95.9087 74.994 95.6837 74.7166C95.458 74.4312 95.3242 74.0494 95.2823 73.5712C95.2426 73.117 95.3418 72.6907 95.58 72.2924C95.8182 71.8941 96.1749 71.5658 96.6502 71.3074C97.1248 71.041 97.6968 70.8785 98.3663 70.82C98.972 70.767 99.5283 70.8388 100.035 71.0353C100.542 71.2319 100.958 71.5328 101.283 71.938C101.615 72.3426 101.806 72.8238 101.855 73.3817L100.659 73.4863C100.577 72.9073 100.35 72.4774 99.9804 72.1965C99.6185 71.915 99.0909 71.8046 98.3975 71.8652C97.7042 71.9259 97.1933 72.0991 96.865 72.3848C96.5366 72.6705 96.3916 73.0325 96.43 73.4708C96.4578 73.7896 96.5791 74.0279 96.7937 74.1858C97.0082 74.3437 97.2834 74.4602 97.6192 74.5352C97.9623 74.6016 98.3319 74.6495 98.728 74.6791C99.1241 74.7087 99.5212 74.7503 99.9194 74.8038C100.318 74.8573 100.687 74.9534 101.029 75.0922C101.378 75.2303 101.665 75.438 101.89 75.7155C102.115 75.9849 102.247 76.3548 102.289 76.825C102.357 77.606 102.115 78.2375 101.563 78.7194C101.018 79.1927 100.224 79.475 99.1797 79.5664C98.5341 79.6228 97.9416 79.5502 97.4019 79.3485C96.8696 79.1381 96.4331 78.8309 96.0926 78.4271C95.7601 78.0225 95.5582 77.5503 95.4869 77.0105L96.6823 76.9059ZM103.135 70.5955L104.235 70.4993L104.967 78.8673L103.867 78.9635L103.135 70.5955ZM111.364 78.3076L106.125 70.3339L107.332 70.2283L112.583 78.201L111.364 78.3076ZM105.814 70.3611L106.854 70.2701L107.586 78.6381L106.546 78.7291L105.814 70.3611ZM111.11 69.8978L112.162 69.8057L112.894 78.1738L111.842 78.2658L111.11 69.8978Z" fill="#171717"/>
<defs>
<clipPath id="clip0_417_1691">
<rect width="12" height="12" fill="white" transform="translate(78.126 71.1772) rotate(-5)"/>
</clipPath>
</defs>
</svg>
