<svg preserveAspectRatio="none" width="100%" height="100%" overflow="visible" style="display: block;" viewBox="0 0 189.808 252.497" fill="none" xmlns="http://www.w3.org/2000/svg">
<g id="Vector">
<mask id="path-1-inside-1_0_44" fill="white">
<path d="M6.78154 0.177034H0V6.3222C0.0903202 6.3222 0.180641 6.30743 0.270961 6.30743C4.01172 6.30743 7.04498 9.28041 7.04498 12.9468C7.04498 16.6133 4.01172 19.5862 0.270961 19.5862C0.180641 19.5862 0.0903202 19.5789 0 19.5715V25.1634C3.74076 25.1634 6.77402 28.1363 6.77402 31.8028C6.77402 35.4692 3.74076 38.4422 0 38.4422V44.0193C3.74076 44.0193 6.77402 46.9923 6.77402 50.6587C6.77402 54.3251 3.74076 57.2981 0 57.2981V62.8752C3.74076 62.8752 6.77402 65.8482 6.77402 69.5146C6.77402 73.181 3.74076 76.154 0 76.154V81.7311C3.74076 81.7311 6.77402 84.7041 6.77402 88.3705C6.77402 92.037 3.74076 95.0099 0 95.0099V100.587C3.74076 100.587 6.77402 103.56 6.77402 107.226C6.77402 110.893 3.74076 113.866 0 113.866V119.443C3.74076 119.443 6.77402 122.416 6.77402 126.082C6.77402 129.749 3.74076 132.722 0 132.722V138.299C3.74076 138.299 6.77402 141.272 6.77402 144.938C6.77402 148.605 3.74076 151.578 0 151.578V157.155C3.74076 157.155 6.77402 160.128 6.77402 163.794C6.77402 167.461 3.74076 170.434 0 170.434V176.011C3.74076 176.011 6.77402 178.984 6.77402 182.65C6.77402 186.317 3.74076 189.29 0 189.29V194.867C3.74076 194.867 6.77402 197.84 6.77402 201.506C6.77402 205.173 3.74076 208.146 0 208.146V213.723C3.74076 213.723 6.77402 216.696 6.77402 220.362C6.77402 224.028 3.74076 227.001 0 227.001V232.579C3.74076 232.579 6.77402 235.552 6.77402 239.218C6.77402 242.884 3.74076 245.857 0 245.857V252.497H6.78154C6.78154 252.452 6.78154 252.408 6.78154 252.364C6.78154 248.698 9.8148 245.725 13.5556 245.725C17.2963 245.725 20.3296 248.698 20.3296 252.364C20.3296 252.408 20.3296 252.452 20.3296 252.497H27.1036C27.1036 252.452 27.1036 252.408 27.1036 252.364C27.1036 248.698 30.1368 245.725 33.8776 245.725C37.6184 245.725 40.6516 248.698 40.6516 252.364C40.6516 252.408 40.6516 252.452 40.6516 252.497H47.4256C47.4256 252.452 47.4256 252.408 47.4256 252.364C47.4256 248.698 50.4589 245.725 54.1997 245.725C57.9404 245.725 60.9737 248.698 60.9737 252.364C60.9737 252.408 60.9737 252.452 60.9737 252.497H67.7477C67.7477 252.452 67.7477 252.408 67.7477 252.364C67.7477 248.698 70.7809 245.725 74.5217 245.725C78.2625 245.725 81.2957 248.698 81.2957 252.364C81.2957 252.408 81.2957 252.452 81.2957 252.497H88.0697C88.0697 252.452 88.0697 252.408 88.0697 252.364C88.0697 248.698 91.103 245.725 94.8437 245.725C98.5845 245.725 101.618 248.698 101.618 252.364C101.618 252.408 101.618 252.452 101.618 252.497H108.392C108.392 252.452 108.392 252.408 108.392 252.364C108.392 248.698 111.425 245.725 115.166 245.725C118.907 245.725 121.94 248.698 121.94 252.364C121.94 252.408 121.94 252.452 121.94 252.497H128.714C128.714 252.452 128.714 252.408 128.714 252.364C128.714 248.698 131.747 245.725 135.488 245.725C139.229 245.725 142.262 248.698 142.262 252.364C142.262 252.408 142.262 252.452 142.262 252.497H149.036C149.036 252.452 149.036 252.408 149.036 252.364C149.036 248.698 152.069 245.725 155.81 245.725C159.551 245.725 162.584 248.698 162.584 252.364C162.584 252.408 162.584 252.452 162.584 252.497H169.358C169.433 248.889 172.429 245.99 176.124 245.99C179.82 245.99 182.816 248.889 182.891 252.497H189.808V245.85C189.763 245.85 189.718 245.85 189.672 245.85C185.932 245.85 182.898 242.877 182.898 239.211C182.898 235.544 185.932 232.571 189.672 232.571C189.718 232.571 189.763 232.571 189.808 232.571V226.979C189.763 226.979 189.718 226.979 189.672 226.979C185.932 226.979 182.898 224.006 182.898 220.34C182.898 216.673 185.932 213.7 189.672 213.7C189.718 213.7 189.763 213.7 189.808 213.7V208.109C189.763 208.109 189.718 208.109 189.672 208.109C185.932 208.109 182.898 205.136 182.898 201.469C182.898 197.803 185.932 194.83 189.672 194.83C189.718 194.83 189.763 194.83 189.808 194.83V189.238C189.763 189.238 189.718 189.238 189.672 189.238C185.932 189.238 182.898 186.265 182.898 182.599C182.898 178.932 185.932 175.959 189.672 175.959C189.718 175.959 189.763 175.959 189.808 175.959V170.367C189.763 170.367 189.718 170.367 189.672 170.367C185.932 170.367 182.898 167.394 182.898 163.728C182.898 160.061 185.932 157.088 189.672 157.088C189.718 157.088 189.763 157.088 189.808 157.088V151.497C189.763 151.497 189.718 151.497 189.672 151.497C185.932 151.497 182.898 148.524 182.898 144.857C182.898 141.191 185.932 138.218 189.672 138.218C189.718 138.218 189.763 138.218 189.808 138.218V132.626C189.763 132.626 189.718 132.626 189.672 132.626C185.932 132.626 182.898 129.653 182.898 125.986C182.898 122.32 185.932 119.347 189.672 119.347C189.718 119.347 189.763 119.347 189.808 119.347V113.755C189.763 113.755 189.718 113.755 189.672 113.755C185.932 113.755 182.898 110.782 182.898 107.116C182.898 103.449 185.932 100.476 189.672 100.476C189.718 100.476 189.763 100.476 189.808 100.476V94.8846C189.763 94.8846 189.718 94.8846 189.672 94.8846C185.932 94.8846 182.898 91.9116 182.898 88.2451C182.898 84.5787 185.932 81.6057 189.672 81.6057C189.718 81.6057 189.763 81.6057 189.808 81.6057V76.0139C189.763 76.0139 189.718 76.0139 189.672 76.0139C185.932 76.0139 182.898 73.0409 182.898 69.3744C182.898 65.708 185.932 62.735 189.672 62.735C189.718 62.735 189.763 62.735 189.808 62.735V57.1432C189.763 57.1432 189.718 57.1432 189.672 57.1432C185.932 57.1432 182.898 54.1702 182.898 50.5037C182.898 46.8373 185.932 43.8643 189.672 43.8643C189.718 43.8643 189.763 43.8643 189.808 43.8643V38.2725C189.763 38.2725 189.718 38.2725 189.672 38.2725C185.932 38.2725 182.898 35.2995 182.898 31.6331C182.898 27.9667 185.932 24.9937 189.672 24.9937C189.718 24.9937 189.763 24.9937 189.808 24.9937V19.4018C186.127 19.3281 183.169 16.392 183.169 12.7698C183.169 9.14763 186.127 6.21155 189.808 6.13778V0H182.891C182.891 0.0442627 182.891 0.0885255 182.891 0.132788C182.891 3.79922 179.858 6.7722 176.117 6.7722C172.376 6.7722 169.343 3.79922 169.343 0.132788C169.343 0.0885255 169.343 0.0442627 169.343 0H162.569C162.494 3.60741 159.498 6.50662 155.802 6.50662C152.107 6.50662 149.111 3.60741 149.036 0H142.262C142.187 3.60741 139.191 6.50662 135.495 6.50662C131.8 6.50662 128.804 3.60741 128.729 0H121.955C121.88 3.60741 118.884 6.50662 115.188 6.50662C111.493 6.50662 108.497 3.60741 108.422 0H101.648C101.573 3.60741 98.577 6.50662 94.8814 6.50662C91.1858 6.50662 88.1902 3.60741 88.1149 0H81.3409C81.2656 3.60741 78.27 6.50662 74.5744 6.50662C70.8788 6.50662 67.8832 3.60741 67.8079 0H61.0339C60.9586 3.60741 57.963 6.50662 54.2674 6.50662C50.5718 6.50662 47.5762 3.60741 47.5009 0H40.7269C40.6516 3.60741 37.656 6.50662 33.9604 6.50662C30.2648 6.50662 27.2692 3.60741 27.1939 0H20.4199C20.3446 3.60741 17.349 6.50662 13.6534 6.50662C9.9578 6.50662 6.96218 3.60741 6.88692 0L6.78154 0.177034Z"/>
</mask>
<path d="M6.78154 0.177034H0V6.3222C0.0903202 6.3222 0.180641 6.30743 0.270961 6.30743C4.01172 6.30743 7.04498 9.28041 7.04498 12.9468C7.04498 16.6133 4.01172 19.5862 0.270961 19.5862C0.180641 19.5862 0.0903202 19.5789 0 19.5715V25.1634C3.74076 25.1634 6.77402 28.1363 6.77402 31.8028C6.77402 35.4692 3.74076 38.4422 0 38.4422V44.0193C3.74076 44.0193 6.77402 46.9923 6.77402 50.6587C6.77402 54.3251 3.74076 57.2981 0 57.2981V62.8752C3.74076 62.8752 6.77402 65.8482 6.77402 69.5146C6.77402 73.181 3.74076 76.154 0 76.154V81.7311C3.74076 81.7311 6.77402 84.7041 6.77402 88.3705C6.77402 92.037 3.74076 95.0099 0 95.0099V100.587C3.74076 100.587 6.77402 103.56 6.77402 107.226C6.77402 110.893 3.74076 113.866 0 113.866V119.443C3.74076 119.443 6.77402 122.416 6.77402 126.082C6.77402 129.749 3.74076 132.722 0 132.722V138.299C3.74076 138.299 6.77402 141.272 6.77402 144.938C6.77402 148.605 3.74076 151.578 0 151.578V157.155C3.74076 157.155 6.77402 160.128 6.77402 163.794C6.77402 167.461 3.74076 170.434 0 170.434V176.011C3.74076 176.011 6.77402 178.984 6.77402 182.65C6.77402 186.317 3.74076 189.29 0 189.29V194.867C3.74076 194.867 6.77402 197.84 6.77402 201.506C6.77402 205.173 3.74076 208.146 0 208.146V213.723C3.74076 213.723 6.77402 216.696 6.77402 220.362C6.77402 224.028 3.74076 227.001 0 227.001V232.579C3.74076 232.579 6.77402 235.552 6.77402 239.218C6.77402 242.884 3.74076 245.857 0 245.857V252.497H6.78154C6.78154 252.452 6.78154 252.408 6.78154 252.364C6.78154 248.698 9.8148 245.725 13.5556 245.725C17.2963 245.725 20.3296 248.698 20.3296 252.364C20.3296 252.408 20.3296 252.452 20.3296 252.497H27.1036C27.1036 252.452 27.1036 252.408 27.1036 252.364C27.1036 248.698 30.1368 245.725 33.8776 245.725C37.6184 245.725 40.6516 248.698 40.6516 252.364C40.6516 252.408 40.6516 252.452 40.6516 252.497H47.4256C47.4256 252.452 47.4256 252.408 47.4256 252.364C47.4256 248.698 50.4589 245.725 54.1997 245.725C57.9404 245.725 60.9737 248.698 60.9737 252.364C60.9737 252.408 60.9737 252.452 60.9737 252.497H67.7477C67.7477 252.452 67.7477 252.408 67.7477 252.364C67.7477 248.698 70.7809 245.725 74.5217 245.725C78.2625 245.725 81.2957 248.698 81.2957 252.364C81.2957 252.408 81.2957 252.452 81.2957 252.497H88.0697C88.0697 252.452 88.0697 252.408 88.0697 252.364C88.0697 248.698 91.103 245.725 94.8437 245.725C98.5845 245.725 101.618 248.698 101.618 252.364C101.618 252.408 101.618 252.452 101.618 252.497H108.392C108.392 252.452 108.392 252.408 108.392 252.364C108.392 248.698 111.425 245.725 115.166 245.725C118.907 245.725 121.94 248.698 121.94 252.364C121.94 252.408 121.94 252.452 121.94 252.497H128.714C128.714 252.452 128.714 252.408 128.714 252.364C128.714 248.698 131.747 245.725 135.488 245.725C139.229 245.725 142.262 248.698 142.262 252.364C142.262 252.408 142.262 252.452 142.262 252.497H149.036C149.036 252.452 149.036 252.408 149.036 252.364C149.036 248.698 152.069 245.725 155.81 245.725C159.551 245.725 162.584 248.698 162.584 252.364C162.584 252.408 162.584 252.452 162.584 252.497H169.358C169.433 248.889 172.429 245.99 176.124 245.99C179.82 245.99 182.816 248.889 182.891 252.497H189.808V245.85C189.763 245.85 189.718 245.85 189.672 245.85C185.932 245.85 182.898 242.877 182.898 239.211C182.898 235.544 185.932 232.571 189.672 232.571C189.718 232.571 189.763 232.571 189.808 232.571V226.979C189.763 226.979 189.718 226.979 189.672 226.979C185.932 226.979 182.898 224.006 182.898 220.34C182.898 216.673 185.932 213.7 189.672 213.7C189.718 213.7 189.763 213.7 189.808 213.7V208.109C189.763 208.109 189.718 208.109 189.672 208.109C185.932 208.109 182.898 205.136 182.898 201.469C182.898 197.803 185.932 194.83 189.672 194.83C189.718 194.83 189.763 194.83 189.808 194.83V189.238C189.763 189.238 189.718 189.238 189.672 189.238C185.932 189.238 182.898 186.265 182.898 182.599C182.898 178.932 185.932 175.959 189.672 175.959C189.718 175.959 189.763 175.959 189.808 175.959V170.367C189.763 170.367 189.718 170.367 189.672 170.367C185.932 170.367 182.898 167.394 182.898 163.728C182.898 160.061 185.932 157.088 189.672 157.088C189.718 157.088 189.763 157.088 189.808 157.088V151.497C189.763 151.497 189.718 151.497 189.672 151.497C185.932 151.497 182.898 148.524 182.898 144.857C182.898 141.191 185.932 138.218 189.672 138.218C189.718 138.218 189.763 138.218 189.808 138.218V132.626C189.763 132.626 189.718 132.626 189.672 132.626C185.932 132.626 182.898 129.653 182.898 125.986C182.898 122.32 185.932 119.347 189.672 119.347C189.718 119.347 189.763 119.347 189.808 119.347V113.755C189.763 113.755 189.718 113.755 189.672 113.755C185.932 113.755 182.898 110.782 182.898 107.116C182.898 103.449 185.932 100.476 189.672 100.476C189.718 100.476 189.763 100.476 189.808 100.476V94.8846C189.763 94.8846 189.718 94.8846 189.672 94.8846C185.932 94.8846 182.898 91.9116 182.898 88.2451C182.898 84.5787 185.932 81.6057 189.672 81.6057C189.718 81.6057 189.763 81.6057 189.808 81.6057V76.0139C189.763 76.0139 189.718 76.0139 189.672 76.0139C185.932 76.0139 182.898 73.0409 182.898 69.3744C182.898 65.708 185.932 62.735 189.672 62.735C189.718 62.735 189.763 62.735 189.808 62.735V57.1432C189.763 57.1432 189.718 57.1432 189.672 57.1432C185.932 57.1432 182.898 54.1702 182.898 50.5037C182.898 46.8373 185.932 43.8643 189.672 43.8643C189.718 43.8643 189.763 43.8643 189.808 43.8643V38.2725C189.763 38.2725 189.718 38.2725 189.672 38.2725C185.932 38.2725 182.898 35.2995 182.898 31.6331C182.898 27.9667 185.932 24.9937 189.672 24.9937C189.718 24.9937 189.763 24.9937 189.808 24.9937V19.4018C186.127 19.3281 183.169 16.392 183.169 12.7698C183.169 9.14763 186.127 6.21155 189.808 6.13778V0H182.891C182.891 0.0442627 182.891 0.0885255 182.891 0.132788C182.891 3.79922 179.858 6.7722 176.117 6.7722C172.376 6.7722 169.343 3.79922 169.343 0.132788C169.343 0.0885255 169.343 0.0442627 169.343 0H162.569C162.494 3.60741 159.498 6.50662 155.802 6.50662C152.107 6.50662 149.111 3.60741 149.036 0H142.262C142.187 3.60741 139.191 6.50662 135.495 6.50662C131.8 6.50662 128.804 3.60741 128.729 0H121.955C121.88 3.60741 118.884 6.50662 115.188 6.50662C111.493 6.50662 108.497 3.60741 108.422 0H101.648C101.573 3.60741 98.577 6.50662 94.8814 6.50662C91.1858 6.50662 88.1902 3.60741 88.1149 0H81.3409C81.2656 3.60741 78.27 6.50662 74.5744 6.50662C70.8788 6.50662 67.8832 3.60741 67.8079 0H61.0339C60.9586 3.60741 57.963 6.50662 54.2674 6.50662C50.5718 6.50662 47.5762 3.60741 47.5009 0H40.7269C40.6516 3.60741 37.656 6.50662 33.9604 6.50662C30.2648 6.50662 27.2692 3.60741 27.1939 0H20.4199C20.3446 3.60741 17.349 6.50662 13.6534 6.50662C9.9578 6.50662 6.96218 3.60741 6.88692 0L6.78154 0.177034Z" fill="url(#paint0_linear_0_44)" stroke="var(--stroke-0, #E0E0E0)" stroke-width="1.74136" mask="url(#path-1-inside-1_0_44)"/>
</g>
<defs>
<linearGradient id="paint0_linear_0_44" x1="94.904" y1="0" x2="94.904" y2="252.497" gradientUnits="userSpaceOnUse">
<stop stop-color="white"/>
<stop offset="1" stop-color="#F7F7F7" stop-opacity="0.5"/>
</linearGradient>
</defs>
</svg>
