<svg width="160" height="113" viewBox="0 0 160 113" fill="none" xmlns="http://www.w3.org/2000/svg">
<rect x="1.08335" y="14.0697" width="149" height="98" rx="23" transform="rotate(-5 1.08335 14.0697)" stroke="#5C5C5C" stroke-width="2"/>
<path d="M66.1508 41.503C66.1138 41.0044 66.1597 40.5721 66.2882 40.2061C66.4168 39.8402 66.5966 39.5233 66.8274 39.2555C67.0577 38.9811 67.3148 38.7444 67.5985 38.5456C67.8883 38.3396 68.1763 38.1504 68.4623 37.9782C68.7551 37.8053 69.0176 37.6318 69.25 37.4575C69.489 37.2827 69.6764 37.0923 69.8123 36.8863C69.9482 36.6804 70.0043 36.4413 69.9804 36.169C69.9456 35.7705 69.7785 35.4672 69.4792 35.2592C69.1794 35.0445 68.797 34.9575 68.3321 34.9982C67.7676 35.0476 67.3614 35.2236 67.1135 35.5264C66.8723 35.8286 66.7545 36.2036 66.7602 36.6515L65.8139 36.7343C65.7726 36.2627 65.8495 35.8411 66.0445 35.4693C66.2389 35.091 66.5233 34.785 66.8977 34.5515C67.2721 34.318 67.7084 34.1794 68.2065 34.1358C68.771 34.0865 69.2479 34.1451 69.6373 34.3118C70.0333 34.4779 70.3385 34.7156 70.5529 35.0247C70.774 35.3333 70.9011 35.6769 70.9342 36.0554C70.9673 36.434 70.9188 36.7594 70.7887 37.0318C70.6653 37.3036 70.4888 37.5432 70.2594 37.7507C70.0293 37.9515 69.7749 38.1411 69.496 38.3194C69.2172 38.4977 68.9353 38.6796 68.6504 38.8652C68.3715 39.0435 68.1182 39.2463 67.8905 39.4737C67.6628 39.7011 67.4856 39.9709 67.359 40.2831C67.2391 40.5947 67.1983 40.9697 67.2366 41.408L66.1508 41.503ZM66.9061 40.6138L71.3193 40.2277L71.3907 41.0446L66.1508 41.503L66.9061 40.6138ZM75.1609 40.8754C74.4835 40.9346 73.9114 40.8207 73.4446 40.5337C72.9838 40.2394 72.6231 39.8259 72.3623 39.2933C72.1082 38.76 71.9516 38.1547 71.8923 37.4773C71.8487 36.9792 71.8642 36.5061 71.9388 36.0579C72.0194 35.6024 72.1647 35.1982 72.3747 34.8453C72.5914 34.4917 72.8776 34.2057 73.2332 33.9872C73.5883 33.762 74.0182 33.6274 74.5229 33.5832C75.0276 33.5391 75.4711 33.5973 75.8532 33.7579C76.2414 33.9114 76.5695 34.1436 76.8377 34.4548C77.1125 34.7654 77.3258 35.1382 77.4776 35.5733C77.6355 36.0011 77.7362 36.4641 77.7798 36.9622C77.8391 37.6396 77.7866 38.2633 77.6223 38.8331C77.4646 39.4023 77.1811 39.8721 76.7719 40.2426C76.3687 40.6057 75.8317 40.8167 75.1609 40.8754ZM75.0851 40.0087C75.5101 39.9715 75.858 39.8173 76.1287 39.546C76.4055 39.2674 76.6019 38.9123 76.7181 38.4805C76.8342 38.0488 76.8694 37.5706 76.8235 37.0459C76.7781 36.5279 76.6608 36.0663 76.4714 35.6613C76.2821 35.2563 76.0272 34.944 75.7069 34.7244C75.3932 34.5042 75.0238 34.4127 74.5987 34.4499C74.167 34.4877 73.8125 34.6425 73.5352 34.9144C73.2644 35.1857 73.071 35.5372 72.9549 35.969C72.8387 36.4007 72.8033 36.8756 72.8486 37.3936C72.8945 37.9183 73.0122 38.3832 73.2015 38.7882C73.3909 39.1932 73.6427 39.5092 73.957 39.736C74.2774 39.9555 74.6534 40.0464 75.0851 40.0087ZM78.8655 40.3907C78.8285 39.892 78.8744 39.4597 79.003 39.0937C79.1316 38.7278 79.3113 38.4109 79.5422 38.1431C79.7724 37.8687 80.0295 37.632 80.3132 37.4332C80.603 37.2272 80.891 37.038 81.1771 36.8658C81.4698 36.6929 81.7323 36.5194 81.9647 36.3451C82.2037 36.1703 82.3911 35.9799 82.527 35.774C82.6629 35.568 82.719 35.3289 82.6951 35.0566C82.6603 34.6581 82.4932 34.3548 82.1939 34.1468C81.8941 33.9321 81.5117 33.8451 81.0468 33.8858C80.4823 33.9352 80.0761 34.1112 79.8282 34.414C79.587 34.7162 79.4692 35.0912 79.4749 35.5391L78.5286 35.6219C78.4873 35.1503 78.5642 34.7287 78.7592 34.357C78.9536 33.9786 79.238 33.6726 79.6124 33.4391C79.9869 33.2056 80.4231 33.067 80.9212 33.0234C81.4857 32.9741 81.9626 33.0327 82.352 33.1994C82.748 33.3655 83.0532 33.6032 83.2676 33.9123C83.4887 34.2209 83.6158 34.5645 83.6489 34.943C83.682 35.3216 83.6335 35.647 83.5034 35.9194C83.38 36.1912 83.2035 36.4308 82.9741 36.6383C82.744 36.8391 82.4896 37.0287 82.2107 37.207C81.9319 37.3853 81.65 37.5672 81.3651 37.7528C81.0862 37.9311 80.8329 38.1339 80.6052 38.3613C80.3775 38.5887 80.2003 38.8585 80.0737 39.1707C79.9538 39.4823 79.913 39.8573 79.9513 40.2957L78.8655 40.3907ZM79.6208 39.5014L84.034 39.1153L84.1055 39.9322L78.8655 40.3907L79.6208 39.5014ZM87.2926 34.9354C87.8505 34.8866 88.3247 34.9522 88.7152 35.1322C89.1051 35.3055 89.4124 35.5664 89.6369 35.9148C89.8615 36.2632 89.9941 36.6699 90.0348 37.1348C90.0743 37.5864 90.0074 38.0072 89.834 38.3971C89.6601 38.7804 89.3832 39.0957 89.0033 39.3431C88.6301 39.5899 88.1612 39.738 87.5967 39.7874C87.1185 39.8292 86.6681 39.7682 86.2456 39.6044C85.8297 39.4401 85.4832 39.1893 85.2061 38.8522C84.9356 38.5145 84.78 38.1132 84.7394 37.6483L85.6559 37.5681C85.6996 37.8386 85.7978 38.081 85.9504 38.2952C86.1096 38.5088 86.3248 38.674 86.596 38.7908C86.8672 38.9076 87.1921 38.9495 87.5707 38.9163C87.9359 38.8844 88.232 38.7882 88.4589 38.6278C88.6918 38.4602 88.8576 38.2516 88.9562 38.0021C89.0615 37.752 89.1014 37.4808 89.0758 37.1886C89.034 36.7104 88.855 36.348 88.539 36.1012C88.229 35.8473 87.8084 35.7435 87.2771 35.79C86.8653 35.8261 86.5209 35.9432 86.2438 36.1414C85.9733 36.3391 85.7916 36.5959 85.6988 36.9118L85.141 36.9607C85.1686 36.8177 85.2266 36.6386 85.3148 36.4235C85.4097 36.2077 85.5414 35.9921 85.7099 35.7766C85.8851 35.5605 86.103 35.3741 86.3637 35.2175C86.6244 35.0608 86.934 34.9668 87.2926 34.9354ZM84.7524 36.9946L85.1396 32.815L86.0561 32.7348L85.6391 36.9171L84.7524 36.9946ZM85.299 32.801L88.975 32.4794L89.0456 33.2864L85.3696 33.608L85.299 32.801Z" fill="#5C5C5C"/>
<path d="M34.5092 66.3556L27.9285 50.0672L31.2518 49.7764L37.6173 66.0837L34.5092 66.3556ZM39.0997 65.954L35.9916 66.2259L39.4525 49.059L42.7997 48.7661L39.0997 65.954ZM44.5471 48.6132L47.7987 48.3288L49.2629 65.0648L46.0113 65.3493L44.5471 48.6132ZM51.6637 63.2647L50.3375 48.1066L53.5891 47.8222L54.9152 62.9803L51.6637 63.2647ZM55.0533 64.5582L54.8044 61.7131L63.2441 60.9747L63.4931 63.8199L55.0533 64.5582ZM54.297 57.5655L54.0501 54.7443L61.5814 54.0854L61.8282 56.9066L54.297 57.5655ZM53.7663 50.6736L53.5174 47.8284L61.9332 47.0921L62.1821 49.9373L53.7663 50.6736ZM68.7468 46.496L72.0223 46.2095L73.4865 62.9455L70.211 63.2321L68.7468 46.496ZM63.5347 46.952L77.2344 45.7535L77.4833 48.5986L63.7836 49.7972L63.5347 46.952ZM89.536 61.5414L80.1819 45.4956L83.7204 45.186L93.0984 61.2297L89.536 61.5414ZM78.9625 45.6023L82.0946 45.3283L83.5588 62.0643L80.4268 62.3383L78.9625 45.6023ZM89.6975 44.6631L92.8535 44.387L94.3177 61.123L91.1618 61.3992L89.6975 44.6631ZM99.7044 43.7876L102.813 43.5157L99.3755 60.6805L96.0522 60.9713L99.7044 43.7876ZM104.295 43.386L110.923 59.6702L107.576 59.9631L101.187 43.6579L104.295 43.386ZM98.3825 54.2868L107.396 53.4982L107.643 56.3194L98.6293 57.108L98.3825 54.2868ZM119.054 58.9589L113.095 42.616L116.443 42.3232L122.139 58.689L119.054 58.9589ZM123.645 58.5573L120.537 58.8292L123.328 41.7208L126.652 41.43L123.645 58.5573ZM111.207 42.7813L114.339 42.5073L115.803 59.2433L112.671 59.5174L111.207 42.7813ZM125.432 41.5367L128.564 41.2627L130.028 57.9988L126.896 58.2728L125.432 41.5367Z" fill="#5C5C5C"/>
<g clip-path="url(#clip0_417_1699)">
<path d="M67.5458 79.5796L65.5327 81.5972C65.4442 81.6909 65.347 81.7362 65.2412 81.7332C65.1354 81.7302 65.0395 81.6895 64.9535 81.611C64.8675 81.5326 64.7971 81.4315 64.7423 81.3076C64.6875 81.1838 64.6662 81.0413 64.6785 80.8801L64.9523 77.3757L62.825 75.2231C62.7281 75.1211 62.6627 75.0009 62.6288 74.8624C62.5949 74.724 62.5893 74.5865 62.6122 74.4499C62.6351 74.3134 62.6779 74.1991 62.7405 74.1072C62.8032 74.0153 62.8944 73.9521 63.0141 73.9175L65.5265 73.3847L66.2237 70.0458C66.2545 69.8958 66.3127 69.7802 66.3981 69.6991C66.4835 69.618 66.574 69.5732 66.6697 69.5648C66.7653 69.5565 66.8622 69.5848 66.9604 69.6499C67.0586 69.715 67.136 69.8187 67.1924 69.9611L68.4588 73.1281L71.0255 73.2166C71.1498 73.2303 71.2506 73.2767 71.3279 73.3559C71.4052 73.4351 71.4671 73.5402 71.5138 73.6711C71.5604 73.8021 71.579 73.9387 71.5697 74.0809C71.5603 74.2232 71.5166 74.3527 71.4385 74.4695L69.7173 76.9588L70.5954 80.3624C70.6355 80.5185 70.6393 80.6626 70.6069 80.7946C70.5744 80.9265 70.5227 81.0384 70.4515 81.13C70.3804 81.2217 70.293 81.2785 70.1894 81.3003C70.0858 81.3221 69.9823 81.2943 69.8788 81.217L67.5458 79.5796Z" fill="#5C5C5C"/>
</g>
<path d="M77.4993 70.2233L78.5991 70.1271L79.3312 78.4951L78.2314 78.5913L77.4993 70.2233ZM83.0103 69.7411L84.122 69.6439L84.8541 78.0119L83.7424 78.1092L83.0103 69.7411ZM78.2996 73.8634L84.1812 73.3488L84.2648 74.3052L78.3833 74.8197L78.2996 73.8634ZM88.0913 69.2966L89.1553 69.2035L87.2096 77.8058L86.0381 77.9083L88.0913 69.2966ZM89.5617 69.168L93.1748 77.2839L91.9913 77.3875L88.4978 69.261L89.5617 69.168ZM86.996 74.8131L91.5027 74.4188L91.5864 75.3751L87.0796 75.7694L86.996 74.8131ZM99.1706 76.7594L93.9317 68.7856L95.1391 68.68L100.39 76.6527L99.1706 76.7594ZM93.6209 68.8128L94.6609 68.7218L95.393 77.0899L94.353 77.1809L93.6209 68.8128ZM98.9166 68.3495L99.9686 68.2575L100.701 76.6255L99.6488 76.7176L98.9166 68.3495Z" fill="#5C5C5C"/>
<defs>
<clipPath id="clip0_417_1699">
<rect width="12" height="12" fill="white" transform="translate(60.6929 70.0879) rotate(-5)"/>
</clipPath>
</defs>
</svg>
