<svg preserveAspectRatio="none" width="100%" height="100%" overflow="visible" style="display: block;" viewBox="0 0 1134.16 292.807" fill="none" xmlns="http://www.w3.org/2000/svg">
<g id="Subtitle">
<path d="M0 286.404V6.40351H58V98.9035V193.404V286.404H0ZM58 286.404V193.404H218.113L219.4 286.404H58ZM58 170.804V120.404H218.8V170.804H58ZM58 98.9035V6.40351H217.8L219.098 98.9035H58Z" fill="white"/>
<path d="M395.784 286.404L256.384 6.40351H330.584L447.984 286.404H395.784ZM219.984 6.40351H289.984L369.216 286.404H220.984L219.984 6.40351ZM361.216 6.40351H486.384V286.404H414.384L361.216 6.40351Z" fill="white"/>
<path d="M586.109 140.004C586.109 140.004 593.757 140.004 608.909 140.004C608.909 159.686 608.909 190.404 608.909 190.404H678.109L586.109 140.004ZM608.909 140.004C608.909 87.8295 608.909 6.40351 608.909 6.40351C633.176 6.40351 690.376 9.33685 708.509 15.2035C726.909 21.0702 741.176 30.6702 751.309 44.0035C761.709 57.3368 766.909 75.4702 766.909 98.4035C766.909 121.07 761.709 139.204 751.309 152.804C741.176 166.137 726.909 175.737 708.509 181.604C690.376 187.47 633.176 190.404 608.909 190.404C608.909 190.404 608.909 159.686 608.909 140.004ZM586.109 6.40351H608.909C608.909 6.40351 608.909 87.8295 608.909 140.004C593.757 140.004 586.109 140.004 586.109 140.004V6.40351ZM588.109 157.204H706.109L768.909 286.404H678.909L588.109 157.204ZM586.109 6.40351L678.109 286.404H486.109V6.40351H586.109Z" fill="white"/>
<path d="M766.75 6.40351H867.75V286.404H766.75V6.40351Z" fill="white"/>
<path d="M1134.16 156.404C1132.29 180.404 1126.16 217.47 1115.76 235.604C1105.63 253.737 1091.36 267.87 1072.96 278.004C1054.83 287.87 1032.56 292.804 1006.16 292.804C976.559 292.804 972.833 293.167 953.08 286.404C892.379 265.62 867.596 210.163 867.759 146.004C867.922 82.1107 892.636 27.1124 953.08 6.40351C972.832 -0.363759 983.759 0.00352143 1006.16 0.00352143C1043.76 0.00352143 1073.09 10.0035 1094.16 30.0035C1115.49 49.7369 1128.29 92.4035 1132.56 126.004L1102.16 126.5V155.5L1134.16 156.404Z" fill="white"/>
</g>
</svg>
