<svg width="169" height="36" viewBox="0 0 169 36" fill="none" xmlns="http://www.w3.org/2000/svg">
<path d="M100.63 3.34265C100.816 3.36229 100.934 3.3554 101.063 3.49043C101.15 4.6471 101.082 6.81221 101.082 8.02489V25.5059C101.083 26.8095 101.144 28.9682 101.039 30.2173L100.716 30.1448C100.579 29.9906 100.538 5.62329 100.63 3.34265Z" fill="#B4B4BF"/>
<path d="M118.797 23.8349C118.892 24.0804 118.944 24.3 118.944 24.4896C118.944 24.9158 118.84 25.2905 118.629 25.6091C118.418 25.9278 118.134 26.1732 117.768 26.3499C117.402 26.5221 116.993 26.6082 116.541 26.6082C116.089 26.6082 115.679 26.5092 115.305 26.3154C114.93 26.1173 114.624 25.8633 114.396 25.5532C114.168 25.2431 114.034 24.9115 114 24.567C114.069 24.5455 114.142 24.5368 114.215 24.5368C114.362 24.5368 114.5 24.5756 114.629 24.6575C114.758 24.735 114.861 24.8426 114.939 24.9718C115.102 25.2561 115.331 25.48 115.619 25.6479C115.908 25.8159 116.213 25.9019 116.541 25.9019C116.989 25.9019 117.372 25.79 117.69 25.5618C118.009 25.3336 118.173 25.0106 118.173 24.5885C118.173 24.2096 118.044 23.9168 117.781 23.7144C117.518 23.5119 117.221 23.3742 116.881 23.3053L115.921 23.1072C115.714 23.0641 115.503 22.9952 115.288 22.8962C115.072 22.7971 114.874 22.6636 114.706 22.5C114.37 22.1813 114.198 21.7679 114.198 21.2512C114.198 20.8507 114.301 20.5018 114.512 20.1961C114.723 19.8947 115.003 19.6579 115.352 19.4898C115.705 19.3219 116.08 19.2358 116.476 19.2358C116.967 19.2358 117.38 19.3219 117.721 19.4942C118.061 19.6665 118.323 19.8861 118.504 20.1488C118.685 20.4158 118.806 20.6871 118.862 20.9713L118.81 20.9799C118.728 20.9928 118.664 21.0014 118.612 21.0014C118.474 21.0014 118.345 20.9713 118.229 20.9153C118.112 20.855 118.013 20.7731 117.94 20.6612C117.591 20.1703 117.101 19.9292 116.472 19.9292C116.412 19.9292 116.308 19.9378 116.17 19.9507C115.834 19.9851 115.542 20.1229 115.3 20.3641C115.059 20.6052 114.939 20.8937 114.939 21.234C114.939 21.5096 115.025 21.7507 115.201 21.9531C115.378 22.1555 115.641 22.2933 115.994 22.3622L116.911 22.5388C117.2 22.5948 117.462 22.6679 117.69 22.767C117.923 22.8618 118.13 22.9995 118.315 23.1718C118.535 23.3785 118.694 23.6024 118.789 23.8479L118.797 23.8349Z" fill="#B4B4BF"/>
<path d="M125.459 19.7309C126.01 20.0539 126.445 20.4975 126.76 21.0529C127.078 21.6085 127.233 22.2286 127.233 22.9005C127.233 23.5722 127.074 24.2053 126.76 24.7737C126.445 25.3421 126.006 25.79 125.455 26.1173C124.904 26.4445 124.279 26.6082 123.59 26.6082C122.901 26.6082 122.303 26.4445 121.751 26.1216C121.2 25.7986 120.765 25.355 120.451 24.7995C120.132 24.244 119.977 23.6239 119.977 22.952C119.977 22.2803 120.136 21.6472 120.451 21.0788C120.765 20.5104 121.204 20.0625 121.756 19.7352C122.307 19.408 122.931 19.2443 123.62 19.2443C124.309 19.2443 124.908 19.408 125.459 19.7309ZM125.071 25.5014C125.502 25.2388 125.838 24.8813 126.083 24.4335C126.329 23.9857 126.449 23.4946 126.449 22.9564C126.449 22.4181 126.329 21.9185 126.083 21.4578C125.838 20.997 125.498 20.631 125.063 20.3597C124.624 20.0884 124.137 19.9506 123.59 19.9506C123.043 19.9506 122.557 20.0841 122.13 20.3468C121.7 20.6137 121.364 20.9712 121.123 21.419C120.881 21.8712 120.761 22.3622 120.761 22.9005C120.761 23.4387 120.881 23.9469 121.127 24.4033C121.372 24.8598 121.713 25.2258 122.143 25.4928C122.578 25.7598 123.069 25.8933 123.62 25.8933C124.171 25.8933 124.641 25.7598 125.071 25.4971V25.5014Z" fill="#B4B4BF"/>
<path d="M132.732 26.535H128.56V19.3133C128.766 19.3133 128.943 19.3865 129.089 19.5372C129.236 19.6879 129.313 19.8645 129.313 20.0669V25.8202H132.732V26.535Z" fill="#B4B4BF"/>
<path d="M138.667 19.5372C138.813 19.3908 138.994 19.3133 139.201 19.3133V23.7144C139.201 24.6316 138.964 25.3421 138.486 25.846C138.012 26.3541 137.345 26.6039 136.492 26.6039C135.639 26.6039 134.963 26.3455 134.49 25.8288C134.016 25.312 133.779 24.6187 133.779 23.7531V19.3133C133.986 19.3133 134.162 19.3865 134.309 19.5372C134.455 19.6837 134.533 19.8645 134.533 20.0669V23.723C134.533 24.468 134.714 25.0149 135.075 25.3636C135.437 25.7168 135.915 25.889 136.518 25.889C137.121 25.889 137.616 25.7039 137.948 25.3293C138.279 24.9589 138.447 24.4335 138.447 23.7574V20.0583C138.447 19.8516 138.52 19.6751 138.671 19.5286L138.667 19.5372Z" fill="#B4B4BF"/>
<path d="M145.161 19.5244C145.299 19.6622 145.367 19.8302 145.367 20.0325H142.96V26.5394H142.198V20.0325H140.492C140.294 20.0325 140.126 19.9636 139.984 19.8215C139.847 19.6795 139.778 19.5115 139.778 19.322H144.652C144.85 19.322 145.018 19.391 145.161 19.5287V19.5244Z" fill="#B4B4BF"/>
<path d="M146.336 19.3176H147.09V26.5393H146.336V19.3176Z" fill="#B4B4BF"/>
<path d="M153.898 19.7309C154.449 20.0539 154.884 20.4975 155.199 21.0529C155.517 21.6085 155.672 22.2286 155.672 22.9005C155.672 23.5722 155.513 24.2053 155.199 24.7737C154.884 25.3421 154.445 25.79 153.893 26.1173C153.343 26.4445 152.718 26.6082 152.029 26.6082C151.34 26.6082 150.741 26.4445 150.191 26.1216C149.639 25.7986 149.204 25.355 148.89 24.7995C148.572 24.244 148.416 23.6239 148.416 22.952C148.416 22.2803 148.576 21.6472 148.89 21.0788C149.204 20.5104 149.643 20.0625 150.195 19.7352C150.745 19.408 151.37 19.2443 152.059 19.2443C152.748 19.2443 153.347 19.408 153.898 19.7309ZM153.51 25.5014C153.941 25.2388 154.277 24.8813 154.523 24.4335C154.768 23.9857 154.889 23.4946 154.889 22.9564C154.889 22.4181 154.768 21.9185 154.523 21.4578C154.277 20.997 153.937 20.631 153.502 20.3597C153.062 20.0884 152.576 19.9506 152.029 19.9506C151.482 19.9506 150.996 20.0841 150.569 20.3468C150.138 20.6137 149.803 20.9712 149.561 21.419C149.321 21.8712 149.2 22.3622 149.2 22.9005C149.2 23.4387 149.321 23.9469 149.566 24.4033C149.811 24.8598 150.152 25.2258 150.582 25.4928C151.017 25.7598 151.508 25.8933 152.059 25.8933C152.611 25.8933 153.08 25.7598 153.51 25.4971V25.5014Z" fill="#B4B4BF"/>
<path d="M162.61 19.5329C162.757 19.6794 162.829 19.8516 162.829 20.0583V26.535C162.576 26.535 162.334 26.4747 162.106 26.3585C161.878 26.2421 161.692 26.0785 161.546 25.8719L157.684 20.3769V26.535C157.477 26.535 157.3 26.4617 157.158 26.3197C157.015 26.1775 156.939 26.001 156.939 25.7943V19.3176C157.214 19.3176 157.472 19.3822 157.718 19.507C157.963 19.632 158.166 19.8085 158.32 20.0281L162.072 25.3464V19.3133C162.279 19.3133 162.455 19.3865 162.605 19.5286L162.61 19.5329Z" fill="#B4B4BF"/>
<path d="M168.854 23.8349C168.949 24.0804 169 24.3 169 24.4896C169 24.9158 168.897 25.2905 168.686 25.6091C168.475 25.9278 168.191 26.1732 167.824 26.3499C167.459 26.5221 167.05 26.6082 166.597 26.6082C166.145 26.6082 165.737 26.5092 165.361 26.3154C164.987 26.1173 164.682 25.8633 164.453 25.5532C164.225 25.2431 164.091 24.9115 164.056 24.567C164.126 24.5455 164.199 24.5368 164.272 24.5368C164.419 24.5368 164.557 24.5756 164.686 24.6575C164.815 24.735 164.918 24.8426 164.996 24.9718C165.16 25.2561 165.388 25.48 165.676 25.6479C165.965 25.8159 166.27 25.9019 166.597 25.9019C167.046 25.9019 167.428 25.79 167.748 25.5618C168.066 25.3336 168.23 25.0106 168.23 24.5885C168.23 24.2096 168.101 23.9168 167.838 23.7144C167.575 23.5119 167.278 23.3742 166.938 23.3053L165.977 23.1072C165.771 23.0641 165.56 22.9952 165.345 22.8962C165.129 22.7971 164.931 22.6636 164.764 22.5C164.427 22.1813 164.255 21.7679 164.255 21.2512C164.255 20.8507 164.358 20.5018 164.569 20.1961C164.78 19.8947 165.06 19.6579 165.409 19.4898C165.762 19.3219 166.137 19.2358 166.533 19.2358C167.024 19.2358 167.438 19.3219 167.777 19.4942C168.117 19.6665 168.38 19.8861 168.561 20.1488C168.742 20.4158 168.862 20.6871 168.918 20.9713L168.867 20.9799C168.785 20.9928 168.721 21.0014 168.669 21.0014C168.531 21.0014 168.402 20.9713 168.286 20.9153C168.169 20.855 168.07 20.7731 167.997 20.6612C167.648 20.1703 167.157 19.9292 166.529 19.9292C166.468 19.9292 166.365 19.9378 166.227 19.9507C165.891 19.9851 165.599 20.1229 165.357 20.3641C165.117 20.6052 164.996 20.8937 164.996 21.234C164.996 21.5096 165.082 21.7507 165.258 21.9531C165.435 22.1555 165.698 22.2933 166.051 22.3622L166.968 22.5388C167.256 22.5948 167.519 22.6679 167.748 22.767C167.98 22.8618 168.187 22.9995 168.372 23.1718C168.591 23.3785 168.751 23.6024 168.846 23.8479L168.854 23.8349Z" fill="#B4B4BF"/>
<path d="M115 7.41376H115.837V15.4138H115V7.41376Z" fill="#B4B4BF"/>
<path d="M122.712 7.64456C122.864 7.79711 122.943 7.98256 122.943 8.20511H120.276V15.4138H119.427V8.20511H117.539C117.317 8.20511 117.131 8.12677 116.979 7.97019C116.826 7.81361 116.748 7.62806 116.748 7.41376H122.151C122.374 7.41376 122.559 7.4921 122.712 7.64456Z" fill="#B4B4BF"/>
<path d="M24.3284 26.9476L14.7049 5.62061L9.23836 17.7092H13.6458C15.2276 17.7092 16.6637 18.6364 17.313 20.0807L18.3254 22.3284H7.16123L5.08138 26.9476H0L12.1656 0H17.247L29.4126 26.9476H24.3284Z" fill="#B4B4BF"/>
<path d="M62.575 7.69776C63.4856 7.31258 64.5201 7.12006 65.6728 7.12006V11.7392C64.1321 11.7392 62.8226 12.2785 61.7469 13.3569C60.6684 14.4876 60.1292 15.7944 60.1292 17.2828V24.3038C60.1292 25.7618 58.9462 26.9448 57.4881 26.9448H55.51V7.66198H60.1292V9.16416C60.8473 8.57538 61.6616 8.08569 62.575 7.70051V7.69776Z" fill="#B4B4BF"/>
<path d="M51.6996 13.3569C51.2127 12.1243 50.5304 11.0459 49.6583 10.1215C48.7861 9.19718 47.7517 8.47361 46.5605 7.94538C45.3665 7.41991 44.0652 7.15576 42.6538 7.15576C41.3965 7.15576 40.2796 7.34835 39.3057 7.73353C38.329 8.11871 37.4707 8.60565 36.7278 9.19718V7.65647H32.1086V35.9962H34.0868C35.5448 35.9962 36.7278 34.8132 36.7278 33.355V17.324C36.7278 15.7834 37.2671 14.4766 38.3455 13.3982C39.424 12.3197 40.7335 11.7804 42.2714 11.7804C43.8093 11.7804 45.0694 12.3197 46.1973 13.3982C47.2758 14.4766 47.815 15.7862 47.815 17.324C47.815 18.8619 47.2758 20.133 46.1973 21.2115C45.6581 21.7506 45.0556 22.1551 44.3871 22.4247C43.7186 22.6943 43.0143 22.8291 42.2687 22.8291C42.0321 22.8291 41.8037 22.8153 41.5809 22.7906C41.1132 22.7383 40.673 23.0134 40.497 23.4509L39.1378 26.8321C40.175 27.242 41.3443 27.451 42.6511 27.451C44.0624 27.451 45.3637 27.187 46.5577 26.6615C47.7517 26.136 48.7834 25.4097 49.6555 24.4853C50.5276 23.5609 51.2072 22.4825 51.6969 21.2527C52.1839 20.0202 52.4287 18.7134 52.4287 17.3268C52.4287 15.9402 52.1839 14.5922 51.6969 13.3624L51.6996 13.3569Z" fill="#B4B4BF"/>
<path d="M76.837 7.16125C78.2487 7.16125 79.5717 7.4254 80.8015 7.95088C82.034 8.47635 83.11 9.2026 84.0344 10.127C84.9587 11.0514 85.6824 12.1298 86.21 13.3624C86.7356 14.5949 87.0001 15.9154 87.0001 17.3268C87.0001 18.7381 86.7356 20.0202 86.21 21.2527C85.685 22.4852 84.9587 23.5637 84.0344 24.4853C83.11 25.4097 82.0313 26.136 80.8015 26.6615C79.5691 27.1869 78.2487 27.451 76.837 27.451C75.4259 27.451 74.1055 27.1869 72.8724 26.6615C71.6399 26.136 70.5619 25.4097 69.6402 24.4853C68.7159 23.5609 67.9922 22.4824 67.4639 21.2527C66.9383 20.0202 66.6743 18.7134 66.6743 17.3268C66.6743 15.9402 66.9356 14.5921 67.4639 13.3624C67.9895 12.1298 68.7159 11.0514 69.6402 10.127C70.5646 9.2026 71.6426 8.4791 72.8724 7.95088C74.1055 7.4254 75.4259 7.16125 76.837 7.16125ZM76.837 11.7804C75.2964 11.7804 73.9894 12.3197 72.9113 13.3981C71.8326 14.4766 71.2936 15.7861 71.2936 17.324C71.2936 18.8619 71.8326 20.133 72.9113 21.2115C73.4229 21.7506 74.0196 22.1551 74.7023 22.4247C75.3816 22.6943 76.0945 22.8291 76.837 22.8291C77.5801 22.8291 78.2869 22.6943 78.9555 22.4247C79.6214 22.1551 80.2262 21.7506 80.7659 21.2115C81.844 20.133 82.3837 18.8372 82.3837 17.324C82.3837 15.8109 81.844 14.4766 80.7659 13.3981C79.6348 12.3197 78.3285 11.7804 76.8396 11.7804H76.837Z" fill="#B4B4BF"/>
</svg>
