<svg width="82" height="29" viewBox="0 0 82 29" fill="none" xmlns="http://www.w3.org/2000/svg">
<path d="M0 0H9.36059V9.36059H0V0Z" fill="#B4B4BF"/>
<path d="M9.36059 0H18.7212V9.36059H9.36059V0Z" fill="#B4B4BF" fill-opacity="0.7"/>
<path d="M18.7212 0H28.0818V9.36059H18.7212V0Z" fill="#B4B4BF" fill-opacity="0.5"/>
<path d="M0 9.36059H9.36059V18.7212H0V9.36059Z" fill="#B4B4BF" fill-opacity="0.8"/>
<path d="M9.36059 9.36059H18.7212V18.7212H9.36059V9.36059Z" fill="#B4B4BF" fill-opacity="0.6"/>
<path d="M18.7212 9.36059H28.0818V18.7212H18.7212V9.36059Z" fill="#B4B4BF" fill-opacity="0.4"/>
<path d="M0 18.7212H9.36059V28.0818H0V18.7212Z" fill="#B4B4BF" fill-opacity="0.7"/>
<path d="M9.36059 18.7212H18.7212V28.0818H9.36059V18.7212Z" fill="#B4B4BF" fill-opacity="0.4"/>
<path d="M18.7212 18.7212H28.0818V28.0818H18.7212V18.7212Z" fill="#B4B4BF" fill-opacity="0.2"/>
<path d="M48.19 2.82516H40.6241V7.85198H47.9335V10.6731H40.6241V17.9569H37.6747V0.00399303H48.19V2.82516Z" fill="#B4B4BF"/>
<path d="M62.4646 16.5976C61.1993 17.7261 59.5665 18.2903 57.566 18.2903C55.5655 18.2903 53.9327 17.7261 52.6674 16.5976C51.4022 15.452 50.7695 13.9218 50.7695 12.0068V0.00399303H53.7189V11.8273C53.7189 12.9215 54.0353 13.7935 54.6679 14.4433C55.3176 15.093 56.2836 15.4178 57.566 15.4178C58.8483 15.4178 59.8058 15.093 60.4385 14.4433C61.0882 13.7935 61.413 12.9215 61.413 11.8273V0.00399303H64.3625V12.0068C64.3625 13.9218 63.7298 15.452 62.4646 16.5976Z" fill="#B4B4BF"/>
<path d="M78.5266 0.00399303H81.476V17.9569H79.1678L70.7043 5.77457V17.9569H67.7549V0.00399303H70.0631L78.5266 12.1863V0.00399303Z" fill="#B4B4BF"/>
<path d="M40.6936 20.2C41.7542 20.2 42.6345 20.5719 43.3342 21.3159C44.0414 22.0598 44.3949 22.9769 44.3949 24.0671C44.3949 25.1498 44.0414 26.0669 43.3342 26.8182C42.6345 27.5622 41.7542 27.9342 40.6936 27.9342H37.6551V20.2H40.6936ZM40.6936 26.7188C41.4228 26.7188 42.0157 26.4683 42.4724 25.9675C42.9365 25.4666 43.1685 24.8331 43.1685 24.0671C43.1685 23.2936 42.9365 22.6602 42.4724 22.1666C42.0157 21.6658 41.4228 21.4153 40.6936 21.4153H38.9257V26.7188H40.6936Z" fill="#B4B4BF"/>
<path d="M46.8239 26.7188H50.2491V27.9342H45.5533V20.2H50.1939V21.4153H46.8239V23.4262H49.9176V24.6305H46.8239V26.7188Z" fill="#B4B4BF"/>
<path d="M53.9866 28.0778C53.2427 28.0778 52.6092 27.9084 52.0862 27.5695C51.5706 27.2307 51.2097 26.7667 51.0034 26.1774L52.0973 25.5366C52.4066 26.4057 53.0475 26.8403 54.0198 26.8403C54.4986 26.8403 54.8558 26.7482 55.0915 26.5641C55.3346 26.3726 55.4561 26.1258 55.4561 25.8238C55.4561 25.5071 55.3272 25.2677 55.0694 25.1056C54.8116 24.9362 54.3549 24.7521 53.6994 24.5532C53.3311 24.4427 53.0327 24.3396 52.8044 24.2438C52.5761 24.1481 52.333 24.0155 52.0752 23.8461C51.8247 23.6693 51.6369 23.452 51.5117 23.1942C51.3865 22.9364 51.3239 22.6344 51.3239 22.2882C51.3239 21.6032 51.5669 21.0618 52.0531 20.664C52.5392 20.2589 53.1248 20.0563 53.8099 20.0563C54.4286 20.0563 54.97 20.2073 55.434 20.5093C55.8981 20.8113 56.2553 21.2275 56.5058 21.7578L55.434 22.3766C55.1099 21.6547 54.5685 21.2938 53.8099 21.2938C53.4416 21.2938 53.1469 21.3822 52.9259 21.559C52.705 21.7284 52.5945 21.9604 52.5945 22.255C52.5945 22.5423 52.705 22.7707 52.9259 22.9401C53.1543 23.1021 53.5631 23.2752 54.1524 23.4594C54.447 23.5551 54.6606 23.6288 54.7932 23.6803C54.9332 23.7245 55.1247 23.7982 55.3677 23.9013C55.6182 24.0044 55.806 24.1076 55.9312 24.2107C56.0565 24.3138 56.189 24.4427 56.329 24.5974C56.4763 24.7521 56.5794 24.9289 56.6384 25.1277C56.6973 25.3266 56.7268 25.5513 56.7268 25.8017C56.7268 26.5015 56.4726 27.0576 55.9644 27.4701C55.4635 27.8752 54.8043 28.0778 53.9866 28.0778Z" fill="#B4B4BF"/>
<path d="M57.7675 20.2H59.0381V27.9342H57.7675V20.2Z" fill="#B4B4BF"/>
<path d="M68.108 23.9345V24.4648C68.108 25.5255 67.7581 26.3947 67.0583 27.0723C66.3586 27.7426 65.4452 28.0778 64.3182 28.0778C63.1249 28.0778 62.1379 27.6911 61.3571 26.9177C60.5837 26.1442 60.197 25.194 60.197 24.0671C60.197 22.9474 60.5837 22.0009 61.3571 21.2275C62.1379 20.4467 63.1028 20.0563 64.2519 20.0563C64.9738 20.0563 65.633 20.222 66.2296 20.5535C66.8263 20.885 67.2903 21.3306 67.6218 21.8904L66.528 22.5202C66.3217 22.1519 66.016 21.8573 65.6109 21.6363C65.2058 21.408 64.7528 21.2938 64.2519 21.2938C63.4416 21.2938 62.775 21.559 62.2521 22.0893C61.7291 22.6197 61.4676 23.2826 61.4676 24.0781C61.4676 24.8736 61.7291 25.5329 62.2521 26.0559C62.7824 26.5788 63.4748 26.8403 64.3292 26.8403C65.0143 26.8403 65.5704 26.682 65.9976 26.3652C66.4322 26.0411 66.7084 25.6102 66.8263 25.0725H64.2409V23.9345H68.108Z" fill="#B4B4BF"/>
<path d="M73.9101 20.2H75.1807V27.9342H74.1863L70.5402 22.6859V27.9342H69.2696V20.2H70.2639L73.9101 25.4482V20.2Z" fill="#B4B4BF"/>
<path d="M79.1919 28.0778C78.4479 28.0778 77.8144 27.9084 77.2915 27.5695C76.7759 27.2307 76.4149 26.7667 76.2087 26.1774L77.3025 25.5366C77.6119 26.4057 78.2527 26.8403 79.225 26.8403C79.7038 26.8403 80.0611 26.7482 80.2968 26.5641C80.5398 26.3726 80.6614 26.1258 80.6614 25.8238C80.6614 25.5071 80.5325 25.2677 80.2747 25.1056C80.0168 24.9362 79.5602 24.7521 78.9046 24.5532C78.5363 24.4427 78.238 24.3396 78.0096 24.2438C77.7813 24.1481 77.5382 24.0155 77.2804 23.8461C77.03 23.6693 76.8421 23.452 76.7169 23.1942C76.5917 22.9364 76.5291 22.6344 76.5291 22.2882C76.5291 21.6032 76.7722 21.0618 77.2583 20.664C77.7445 20.2589 78.3301 20.0563 79.0151 20.0563C79.6338 20.0563 80.1752 20.2073 80.6393 20.5093C81.1033 20.8113 81.4606 21.2275 81.711 21.7578L80.6393 22.3766C80.3152 21.6547 79.7738 21.2938 79.0151 21.2938C78.6468 21.2938 78.3522 21.3822 78.1312 21.559C77.9102 21.7284 77.7997 21.9604 77.7997 22.255C77.7997 22.5423 77.9102 22.7707 78.1312 22.9401C78.3595 23.1021 78.7683 23.2752 79.3576 23.4594C79.6522 23.5551 79.8659 23.6288 79.9984 23.6803C80.1384 23.7245 80.3299 23.7982 80.573 23.9013C80.8234 24.0044 81.0113 24.1076 81.1365 24.2107C81.2617 24.3138 81.3943 24.4427 81.5342 24.5974C81.6816 24.7521 81.7847 24.9289 81.8436 25.1277C81.9025 25.3266 81.932 25.5513 81.932 25.8017C81.932 26.5015 81.6779 27.0576 81.1696 27.4701C80.6687 27.8752 80.0095 28.0778 79.1919 28.0778Z" fill="#B4B4BF"/>
</svg>
