<svg width="153" height="24" viewBox="0 0 153 24" fill="none" xmlns="http://www.w3.org/2000/svg">
<path d="M110.718 1.26401L112.403 1.26681C112.449 2.56954 112.407 4.14444 112.407 5.46395L112.406 14.1479C112.406 15.7731 112.376 17.5144 112.426 19.1315C111.885 19.1687 111.247 19.1494 110.699 19.1464C110.712 18.7094 110.78 17.4769 110.655 17.1072C110.655 17.1072 109.351 18.2176 109.125 18.3686C108.237 18.962 107.212 19.325 106.144 19.424C104.467 19.572 102.651 19.1978 101.342 18.1106C100.146 17.171 99.3913 16.2189 98.9189 14.7484C96.9035 8.47563 104.236 3.15537 109.53 7.2918C109.85 7.54188 110.368 8.24193 110.652 8.39422C110.807 7.94156 110.717 2.14705 110.718 1.26401ZM106.083 17.8681C107.986 17.676 109.637 16.4866 110.404 14.7551C111.171 13.0237 110.935 11.0184 109.786 9.50681C108.638 7.9953 106.755 7.21162 104.858 7.45585C101.981 7.82628 99.9394 10.4113 100.274 13.2586C100.609 16.1059 103.197 18.1594 106.083 17.8681Z" fill="#B4B4BF"/>
<path d="M122.012 5.84345C122.249 5.861 122.541 5.84924 122.79 5.86059C124.969 5.95995 126.485 6.85908 127.744 8.57897C127.788 7.90828 127.745 6.88593 127.754 6.17821C128.318 6.17552 128.897 6.16225 129.458 6.20769C129.379 9.57237 129.493 12.979 129.445 16.3477C129.432 17.2495 129.424 18.2315 129.474 19.1272C128.973 19.1711 128.263 19.1496 127.741 19.147C127.744 18.8335 127.819 17.3691 127.72 17.1931L127.61 17.179C127.435 17.2778 126.786 17.8981 126.557 18.0943C124.354 19.6498 121.553 19.9824 119.149 18.6263C113.92 15.6784 114.701 8.02133 120.4 6.16611C120.96 5.9837 121.479 5.98615 122.012 5.84345ZM123.304 17.8471C126.206 17.4558 128.238 14.8145 127.844 11.9468C127.449 9.07906 124.776 7.07027 121.874 7.45936C118.97 7.84863 116.935 10.491 117.33 13.3602C117.726 16.2296 120.4 18.2387 123.304 17.8471Z" fill="#B4B4BF"/>
<path d="M79.0136 5.87117C82.7995 5.59121 86.1023 8.38749 86.4024 12.1268C86.7025 15.8662 83.8874 19.1418 80.1039 19.4549C76.2968 19.7699 72.9566 16.9668 72.6542 13.204C72.3523 9.44119 75.2041 6.15289 79.0136 5.87117ZM80.1584 17.8823C83.0031 17.5426 85.0458 15.0098 84.7451 12.1942C84.4444 9.37856 81.9122 7.32245 79.0586 7.57668C77.1734 7.74458 75.5261 8.90303 74.7483 10.6078C73.97 12.3126 74.1825 14.2993 75.303 15.8063C76.424 17.3132 78.2797 18.1066 80.1584 17.8823Z" fill="#B4B4BF"/>
<path d="M12.6377 9.71786C13.0577 8.59712 12.9146 7.55391 13.0718 6.39638C13.2852 4.8249 13.9402 3.30206 14.8841 2.01562C15.4241 1.27984 16.5126 0.12375 17.4882 0.00515403C18.243 -0.0865918 18.7443 1.07001 19.0023 1.60274C20.09 4.09999 20.8706 7.83152 17.6311 9.11935C16.1606 9.69147 14.7896 10.0034 13.433 10.875C13.2399 10.5129 12.8943 10.036 12.6377 9.71786Z" fill="#B4B4BF"/>
<path d="M11.5129 11.9635C10.7769 12.3547 10.0854 12.8225 9.45016 13.359C8.06462 14.5335 6.88416 15.8994 4.83223 15.2061C2.89821 14.5527 1.24412 12.779 0.246782 11.0563C-0.260795 10.1795 0.040479 9.66834 0.913176 9.27511C3.05035 8.34158 6.00112 8.49766 8.12348 9.40532C9.14865 9.84375 9.89963 10.3818 10.9865 10.7508C11.1297 11.1176 11.3194 11.6278 11.5129 11.9635Z" fill="#B4B4BF"/>
<path d="M58.2513 1.27143C58.736 1.24897 59.3599 1.26289 59.8554 1.26009C59.8802 1.6042 59.8725 2.01786 59.8666 2.36478C59.8317 4.39306 59.9264 6.46385 59.8394 8.48727C60.0122 8.33614 60.2217 8.10601 60.3798 7.93606C61.5559 6.66661 62.9054 5.91755 64.6652 5.85731C66.7807 5.78485 68.6825 6.97148 69.317 9.00718C69.8207 10.6238 69.7053 12.4883 69.7041 14.1811C69.6935 15.838 69.697 17.495 69.7148 19.1518C69.1465 19.1569 68.5789 19.1521 68.0107 19.1375L68.0154 11.5392C67.9272 10.3153 67.8769 9.00461 66.841 8.15157C65.0801 6.70176 62.5533 7.40181 61.1712 8.94759C60.7071 9.46178 60.3673 10.0735 60.1773 10.7366C59.7962 12.0981 59.8607 14.5714 59.8619 15.9846C59.8625 16.9222 59.837 18.2161 59.8956 19.1417C59.4694 19.1724 58.6999 19.148 58.2489 19.1462C58.1595 13.2826 58.2465 7.14992 58.2513 1.27143Z" fill="#B4B4BF"/>
<path d="M131.772 6.18348C132.149 6.17705 133.136 6.06207 133.424 6.2681C133.669 6.4435 136.753 13.4705 137.154 14.3655C137.353 14.8094 137.603 15.7843 137.995 16.076C138.403 15.8932 141.641 7.15636 142.501 6.21658C142.908 6.16547 143.678 5.99738 143.988 6.29559C144.078 6.63287 143.475 7.75587 143.306 8.13765L141.815 11.5084C141.588 12.0206 141.215 12.7961 141.031 13.306C140.918 13.4758 140.059 15.5025 139.925 15.8078L137.658 20.9228C137.24 21.8678 136.739 23.0952 136.266 23.9892C135.967 23.9914 134.904 24.0435 134.72 23.8978C134.641 23.2797 136.982 18.9836 137.036 18.1292C137.047 17.9454 136.326 16.478 136.174 16.1356L133.048 9.15562C132.842 8.69752 131.802 6.4859 131.772 6.18348Z" fill="#B4B4BF"/>
<path d="M13.8554 11.1583C15.3907 10.2761 17.744 9.47188 19.5234 9.82168C20.8688 10.0862 21.5663 11.9599 21.0232 13.102C20.7344 13.8528 20.232 14.4451 19.481 14.765C17.9205 15.4298 16.2498 14.5662 14.9465 13.7286C14.7781 13.6204 14.5998 13.5137 14.4221 13.4225C14.2283 12.5962 14.0269 12.0113 13.635 11.2571L13.8554 11.1583Z" fill="#B4B4BF"/>
<path d="M13.8554 11.1583C13.809 11.4177 14.1106 12.3116 14.3254 12.296C16.3265 12.1505 19.1398 12.1736 21.0232 13.102C20.7344 13.8528 20.232 14.4451 19.481 14.765C17.9205 15.4298 16.2498 14.5662 14.9465 13.7286C14.7781 13.6204 14.5998 13.5137 14.4221 13.4225C14.2283 12.5962 14.0269 12.0113 13.635 11.2571L13.8554 11.1583Z" fill="#B4B4BF"/>
<path d="M11.7629 12.4122C12.4397 13.3794 12.5637 13.4782 13.4169 14.2618C13.5291 15.2955 13.474 16.0239 13.3303 17.0133C12.7995 20.666 7.28163 20.1139 7.73481 16.6139C7.92894 15.1145 10.466 13.221 11.7629 12.4122Z" fill="#B4B4BF"/>
<path d="M49.4887 5.89971C51.1036 5.63881 52.9531 6.91365 53.2775 7.66779C53.2562 7.91957 52.3263 8.73325 52.2517 8.68348C50.9306 7.7971 49.5319 6.7706 48.0851 8.18859C47.5418 8.72103 47.4215 9.65665 47.9558 10.2904C49.6071 12.2489 53.355 12.4566 53.371 15.6613C53.4178 17.8149 51.6568 19.4149 49.4863 19.4509L49.4449 19.4536C48.4549 19.514 45.6136 18.7059 45.5519 17.6295C45.5931 17.4922 46.3135 16.6981 46.4393 16.6109C46.8235 16.6932 47.8164 17.7895 48.6794 17.9196C50.0936 18.1327 51.5006 17.4525 51.7651 15.9841C52.0836 14.2148 49.2489 13.3601 48.1067 12.5787C47.5019 12.165 46.9527 11.8017 46.5622 11.1638C46.1117 10.4828 45.9118 9.46342 46.1071 8.68763C46.4197 7.41818 47.2815 6.72127 48.5417 6.18564C48.8969 6.03465 49.107 5.96137 49.4887 5.89971Z" fill="#B4B4BF"/>
<path d="M149.178 5.85205C150.256 5.8262 151.192 6.20506 152.079 6.79791C152.343 6.97494 152.819 7.22794 152.908 7.54545C152.87 7.77084 152.569 8.0308 152.407 8.18561C152.293 8.29451 152.059 8.53762 151.899 8.56429C151.805 8.58008 150.413 7.37532 149.348 7.36157C148.767 7.35415 148.252 7.60294 147.845 8.00308C147.537 8.30691 147.315 8.69506 147.319 9.13603C147.336 11.0776 150.721 11.9576 152.015 13.2512C152.696 13.9319 153.009 14.7805 153 15.7316C152.99 16.7939 152.616 17.6324 151.853 18.3682C150.969 19.2214 149.975 19.4537 148.779 19.4409C147.834 19.4911 145.604 18.6597 145.292 17.6662C145.246 17.5205 146.02 16.6736 146.168 16.5011C146.362 16.6376 146.753 16.9628 146.935 17.1364C147.953 18.1085 150.018 18.3133 150.935 17.0305C152.846 14.3579 148.84 13.3689 147.295 12.1446C146.553 11.5575 145.926 10.8019 145.808 9.81514C145.581 7.45275 146.94 6.13394 149.178 5.85205Z" fill="#B4B4BF"/>
<path d="M38.465 6.05639C39.1797 6.01695 39.8468 6.24424 40.2433 6.43659C40.0074 6.82019 39.7214 7.33309 39.4309 7.67265C39.4309 7.67265 38.8666 7.5586 38.465 7.6079C34.8944 8.04636 35.2649 12.6156 35.2568 15.2199C35.2527 16.5732 35.2304 17.8571 35.2847 19.1433C34.859 19.1684 34.3235 19.1566 33.8895 19.1588L33.6431 19.1399C33.6202 19.1115 33.5924 19.0771 33.5597 19.0366C33.5235 18.1806 33.5547 16.8831 33.5558 16.0607L33.5425 6.32688C34.1196 6.32138 34.6967 6.32752 35.2736 6.34536C35.2638 6.66468 35.1803 7.73166 35.3537 7.94109C35.5469 7.84751 36.0698 7.07477 36.6829 6.67989C37.4032 6.21594 37.7198 6.09752 38.465 6.05639Z" fill="#B4B4BF"/>
<path d="M89.1021 1.2719C89.5958 1.24816 90.2404 1.26324 90.7459 1.26096C90.7873 3.06051 90.7482 5.02035 90.7482 6.83037L90.7535 19.1348C90.4019 19.1753 89.4413 19.1975 89.137 19.054C89.0542 18.8303 89.0879 16.3587 89.0921 15.9075C89.1376 11.0355 89.0287 6.14149 89.1021 1.2719Z" fill="#B4B4BF"/>
<path d="M94.1049 6.18371C94.479 6.17406 95.3568 6.11084 95.6486 6.2867C95.7114 6.52128 95.6906 8.37387 95.6906 8.74565L95.6877 14.7387L95.6906 17.6012C95.6912 17.9172 95.7362 18.9582 95.6202 19.1568C95.2444 19.1611 94.3737 19.2056 94.073 19.0489C93.906 18.5214 94.0884 13.6363 94.0357 12.7401C93.9889 11.9528 94.0132 6.37864 94.1049 6.18371Z" fill="#B4B4BF"/>
<path d="M41.4511 6.32477C41.4511 6.32477 42.6223 6.33097 43.1061 6.32477L43.0943 15.7754C43.0956 16.2821 43.1661 18.905 43.0218 19.1256L42.8553 19.1984C42.618 19.1509 41.7199 19.1511 41.3983 19.1373C41.4558 17.9241 41.4295 16.5977 41.4301 15.3755L41.4286 9.474C41.426 8.52364 41.4194 7.56346 41.419 6.61245C41.4189 6.42905 41.4511 6.32477 41.4511 6.32477Z" fill="#B4B4BF"/>
<path d="M29.1696 6.32659L30.6134 6.33185C30.527 9.4133 30.6492 12.5502 30.5996 15.6375C30.5811 16.7843 30.5813 17.9857 30.6188 19.1312C30.2955 19.1793 29.5277 19.159 29.1704 19.1588L29.1696 6.32659Z" fill="#B4B4BF"/>
<path d="M10.9865 10.7508C10.4862 9.02909 11.2229 8.0636 12.6377 9.71786C12.8943 10.036 13.2399 10.5129 13.433 10.875L13.635 11.2571C14.0269 12.0113 14.2283 12.5962 14.4221 13.4225C14.5414 14.2319 14.3022 14.8763 13.4169 14.2618C12.5637 13.4782 12.4397 13.3794 11.7629 12.4122C11.676 12.2869 11.5856 12.1018 11.5129 11.9635C11.3194 11.6278 11.1297 11.1176 10.9865 10.7508Z" fill="#B4B4BF"/>
<path d="M42.181 0.644545C42.982 0.498921 43.7524 1.01709 43.9089 1.80679C44.0654 2.59644 43.5497 3.36351 42.7523 3.52703C42.2284 3.63452 41.6865 3.4555 41.3334 3.05828C40.9802 2.66106 40.8704 2.10699 41.0459 1.60754C41.2213 1.10809 41.6548 0.740283 42.181 0.644545Z" fill="#B4B4BF"/>
<path d="M29.8103 0.647704C30.6162 0.491319 31.3977 1.0103 31.5555 1.80662C31.7133 2.60299 31.1876 3.37486 30.3816 3.53036C29.5761 3.6857 28.7957 3.16677 28.638 2.3711C28.4803 1.57537 29.005 0.803914 29.8103 0.647704Z" fill="#B4B4BF"/>
<path d="M94.7673 0.647822C95.5669 0.490969 96.3459 1.0003 96.5116 1.78919C96.6779 2.57813 96.1695 3.35199 95.3728 3.52346C94.5654 3.69722 93.7693 3.18701 93.6012 2.38765C93.4331 1.5883 93.9569 0.806722 94.7673 0.647822Z" fill="#B4B4BF"/>
</svg>
