<svg width="87" height="23" viewBox="0 0 87 23" fill="none" xmlns="http://www.w3.org/2000/svg">
<path d="M33.078 18.5384H33.7024V22.1268H33.078V21.5096C32.767 21.9833 32.3149 22.2201 31.7216 22.2201C31.2192 22.2201 30.791 22.0383 30.4369 21.6747C30.0829 21.3063 29.9058 20.8589 29.9058 20.3326C29.9058 19.8063 30.0829 19.3613 30.4369 18.9977C30.791 18.6293 31.2192 18.4451 31.7216 18.4451C32.3149 18.4451 32.767 18.6819 33.078 19.1556V18.5384ZM31.8005 21.6173C32.1642 21.6173 32.468 21.4953 32.712 21.2513C32.956 21.0025 33.078 20.6962 33.078 20.3326C33.078 19.969 32.956 19.6652 32.712 19.4211C32.468 19.1723 32.1642 19.0479 31.8005 19.0479C31.4417 19.0479 31.1403 19.1723 30.8962 19.4211C30.6522 19.6652 30.5302 19.969 30.5302 20.3326C30.5302 20.6962 30.6522 21.0025 30.8962 21.2513C31.1403 21.4953 31.4417 21.6173 31.8005 21.6173Z" fill="#B4B4BF"/>
<path d="M41.3517 19.6364V19.9379C41.3517 20.5934 41.1268 21.1388 40.6771 21.5742C40.2273 22.0048 39.6316 22.2201 38.89 22.2201C38.1245 22.2201 37.4905 21.9689 36.9881 21.4666C36.4905 20.9594 36.2417 20.3422 36.2417 19.6149C36.2417 18.8877 36.4905 18.2728 36.9881 17.7704C37.4905 17.2633 38.1197 17.0097 38.8756 17.0097C39.3398 17.0097 39.7656 17.1221 40.1531 17.347C40.5407 17.5671 40.8397 17.859 41.0503 18.2226L40.4761 18.5599C40.3326 18.2872 40.1149 18.0695 39.823 17.9068C39.5359 17.7393 39.2177 17.6556 38.8685 17.6556C38.2943 17.6556 37.823 17.8446 37.4546 18.2226C37.0862 18.5958 36.902 19.0599 36.902 19.6149C36.902 20.1699 37.0862 20.634 37.4546 21.0072C37.8278 21.3804 38.3087 21.567 38.8972 21.567C39.3996 21.567 39.8063 21.445 40.1173 21.201C40.4283 20.9522 40.6173 20.6316 40.6842 20.2393H38.8398V19.6364H41.3517Z" fill="#B4B4BF"/>
<path d="M45.0912 17.103V17.7346H43.6056V22.1268H42.9453V17.7346H41.4669V17.103H45.0912Z" fill="#B4B4BF"/>
<path d="M45.4732 20.6197C45.5354 20.9403 45.6813 21.1891 45.9109 21.3661C46.1454 21.5431 46.4325 21.6316 46.7722 21.6316C47.2459 21.6316 47.5903 21.457 47.8057 21.1077L48.3367 21.4091C47.9875 21.9498 47.4612 22.2201 46.7578 22.2201C46.1885 22.2201 45.7243 22.0431 45.3655 21.689C45.0114 21.3302 44.8344 20.8781 44.8344 20.3326C44.8344 19.7919 45.009 19.3422 45.3583 18.9833C45.7076 18.6245 46.1597 18.4451 46.7148 18.4451C47.2411 18.4451 47.6693 18.6317 47.9994 19.0049C48.3344 19.3733 48.5018 19.8183 48.5018 20.3398C48.5018 20.4307 48.4946 20.524 48.4803 20.6197H45.4732ZM46.7148 19.0336C46.3798 19.0336 46.1023 19.1293 45.8822 19.3207C45.6621 19.5073 45.5258 19.7585 45.4732 20.0742H47.8702C47.8176 19.7345 47.6836 19.4762 47.4683 19.2991C47.253 19.1221 47.0018 19.0336 46.7148 19.0336Z" fill="#B4B4BF"/>
<path d="M50.8991 22.2201C50.3585 22.2201 49.9087 22.0407 49.5499 21.6819C49.191 21.3182 49.0116 20.8685 49.0116 20.3326C49.0116 19.7967 49.191 19.3494 49.5499 18.9905C49.9087 18.6269 50.3585 18.4451 50.8991 18.4451C51.2532 18.4451 51.5714 18.5312 51.8537 18.7034C52.136 18.8709 52.3465 19.0982 52.4852 19.3853L51.9613 19.6867C51.8704 19.4953 51.7293 19.3422 51.5379 19.2274C51.3513 19.1125 51.1384 19.0551 50.8991 19.0551C50.5403 19.0551 50.2389 19.1771 49.9949 19.4211C49.7556 19.6652 49.636 19.969 49.636 20.3326C49.636 20.6915 49.7556 20.9929 49.9949 21.2369C50.2389 21.4809 50.5403 21.6029 50.8991 21.6029C51.1384 21.6029 51.3537 21.5479 51.5451 21.4379C51.7365 21.323 51.8824 21.1699 51.9829 20.9785L52.514 21.2871C52.3608 21.5694 52.1408 21.7967 51.8537 21.9689C51.5666 22.1364 51.2484 22.2201 50.8991 22.2201Z" fill="#B4B4BF"/>
<path d="M54.9175 18.4451C55.3385 18.4451 55.6759 18.579 55.9294 18.847C56.183 19.1101 56.3098 19.469 56.3098 19.9235V22.1268H55.6854V19.9594C55.6854 19.6675 55.6065 19.4427 55.4486 19.2848C55.2907 19.1221 55.073 19.0408 54.7955 19.0408C54.4845 19.0408 54.2333 19.1388 54.0419 19.335C53.8505 19.5264 53.7548 19.823 53.7548 20.225V22.1268H53.1304V17.103H53.7548V19.0551C54.0084 18.6484 54.396 18.4451 54.9175 18.4451Z" fill="#B4B4BF"/>
<path d="M59.0403 17.103H59.7078V22.1268H59.0403V17.103Z" fill="#B4B4BF"/>
<path d="M62.5079 18.4451C62.929 18.4451 63.2663 18.579 63.5199 18.847C63.7735 19.1101 63.9003 19.469 63.9003 19.9235V22.1268H63.2759V19.9594C63.2759 19.6675 63.1969 19.4427 63.039 19.2848C62.8811 19.1221 62.6634 19.0408 62.3859 19.0408C62.0749 19.0408 61.8237 19.1388 61.6323 19.335C61.441 19.5264 61.3453 19.823 61.3453 20.225V22.1268H60.7209V18.5384H61.3453V19.0551C61.5989 18.6484 61.9864 18.4451 62.5079 18.4451Z" fill="#B4B4BF"/>
<path d="M65.0877 17.8853C64.9681 17.8853 64.8676 17.8446 64.7863 17.7633C64.7049 17.6819 64.6643 17.5838 64.6643 17.469C64.6643 17.3542 64.7049 17.2561 64.7863 17.1748C64.8676 17.0886 64.9681 17.0456 65.0877 17.0456C65.2025 17.0456 65.3006 17.0886 65.382 17.1748C65.4633 17.2561 65.504 17.3542 65.504 17.469C65.504 17.5838 65.4633 17.6819 65.382 17.7633C65.3006 17.8446 65.2025 17.8853 65.0877 17.8853ZM64.7719 22.1268V18.5384H65.3963V22.1268H64.7719Z" fill="#B4B4BF"/>
<path d="M68.301 19.1412H67.3465V21.0862C67.3465 21.2632 67.38 21.39 67.447 21.4666C67.5187 21.5383 67.6264 21.5766 67.7699 21.5814C67.9135 21.5814 68.0905 21.5766 68.301 21.567V22.1268C67.7556 22.1986 67.3561 22.1555 67.1025 21.9977C66.8489 21.835 66.7221 21.5312 66.7221 21.0862V19.1412H66.0116V18.5384H66.7221V17.7202L67.3465 17.5336V18.5384H68.301V19.1412Z" fill="#B4B4BF"/>
<path d="M69.356 17.8853C69.2364 17.8853 69.1359 17.8446 69.0546 17.7633C68.9733 17.6819 68.9326 17.5838 68.9326 17.469C68.9326 17.3542 68.9733 17.2561 69.0546 17.1748C69.1359 17.0886 69.2364 17.0456 69.356 17.0456C69.4708 17.0456 69.5689 17.0886 69.6503 17.1748C69.7316 17.2561 69.7723 17.3542 69.7723 17.469C69.7723 17.5838 69.7316 17.6819 69.6503 17.7633C69.5689 17.8446 69.4708 17.8853 69.356 17.8853ZM69.0402 22.1268V18.5384H69.6646V22.1268H69.0402Z" fill="#B4B4BF"/>
<path d="M73.5885 18.5384H74.2129V22.1268H73.5885V21.5096C73.2775 21.9833 72.8253 22.2201 72.232 22.2201C71.7296 22.2201 71.3014 22.0383 70.9473 21.6747C70.5933 21.3063 70.4163 20.8589 70.4163 20.3326C70.4163 19.8063 70.5933 19.3613 70.9473 18.9977C71.3014 18.6293 71.7296 18.4451 72.232 18.4451C72.8253 18.4451 73.2775 18.6819 73.5885 19.1556V18.5384ZM72.311 21.6173C72.6746 21.6173 72.9784 21.4953 73.2224 21.2513C73.4664 21.0025 73.5885 20.6962 73.5885 20.3326C73.5885 19.969 73.4664 19.6652 73.2224 19.4211C72.9784 19.1723 72.6746 19.0479 72.311 19.0479C71.9521 19.0479 71.6507 19.1723 71.4067 19.4211C71.1627 19.6652 71.0406 19.969 71.0406 20.3326C71.0406 20.6962 71.1627 21.0025 71.4067 21.2513C71.6507 21.4953 71.9521 21.6173 72.311 21.6173Z" fill="#B4B4BF"/>
<path d="M77.111 19.1412H76.1565V21.0862C76.1565 21.2632 76.1899 21.39 76.2569 21.4666C76.3287 21.5383 76.4364 21.5766 76.5799 21.5814C76.7234 21.5814 76.9005 21.5766 77.111 21.567V22.1268C76.5655 22.1986 76.166 22.1555 75.9124 21.9977C75.6589 21.835 75.5321 21.5312 75.5321 21.0862V19.1412H74.8215V18.5384H75.5321V17.7202L76.1565 17.5336V18.5384H77.111V19.1412Z" fill="#B4B4BF"/>
<path d="M78.166 17.8853C78.0464 17.8853 77.9459 17.8446 77.8646 17.7633C77.7832 17.6819 77.7426 17.5838 77.7426 17.469C77.7426 17.3542 77.7832 17.2561 77.8646 17.1748C77.9459 17.0886 78.0464 17.0456 78.166 17.0456C78.2808 17.0456 78.3789 17.0886 78.4603 17.1748C78.5416 17.2561 78.5823 17.3542 78.5823 17.469C78.5823 17.5838 78.5416 17.6819 78.4603 17.7633C78.3789 17.8446 78.2808 17.8853 78.166 17.8853ZM77.8502 22.1268V18.5384H78.4746V22.1268H77.8502Z" fill="#B4B4BF"/>
<path d="M81.9391 18.5384H82.6137L81.1783 22.1268H80.4463L79.0109 18.5384H79.6855L80.8123 21.4594L81.9391 18.5384Z" fill="#B4B4BF"/>
<path d="M83.4394 20.6197C83.5016 20.9403 83.6475 21.1891 83.8772 21.3661C84.1116 21.5431 84.3987 21.6316 84.7384 21.6316C85.2121 21.6316 85.5566 21.457 85.7719 21.1077L86.303 21.4091C85.9537 21.9498 85.4274 22.2201 84.7241 22.2201C84.1547 22.2201 83.6906 22.0431 83.3317 21.689C82.9777 21.3302 82.8007 20.8781 82.8007 20.3326C82.8007 19.7919 82.9753 19.3422 83.3246 18.9833C83.6738 18.6245 84.126 18.4451 84.681 18.4451C85.2073 18.4451 85.6355 18.6317 85.9657 19.0049C86.3006 19.3733 86.4681 19.8183 86.4681 20.3398C86.4681 20.4307 86.4609 20.524 86.4465 20.6197H83.4394ZM84.681 19.0336C84.3461 19.0336 84.0686 19.1293 83.8485 19.3207C83.6284 19.5073 83.492 19.7585 83.4394 20.0742H85.8365C85.7839 19.7345 85.6499 19.4762 85.4346 19.2991C85.2193 19.1221 84.9681 19.0336 84.681 19.0336Z" fill="#B4B4BF"/>
<path d="M13.6551 11.5005C14.2269 11.5005 14.6904 11.964 14.6904 12.5358V12.9276C14.6904 13.7157 14.0515 14.3546 13.2634 14.3546H13.1234C11.7057 14.3546 10.7077 13.8137 10.1294 12.7317C9.19667 14.0562 7.78826 14.7184 5.90415 14.7184C4.60922 14.7184 3.02203 15.6518 3.02203 16.9467V18.44C3.02203 19.2745 2.34552 19.951 1.51101 19.951C0.676505 19.951 0 19.2745 0 18.44V1.87478C0 1.04027 0.676505 0.363763 1.51101 0.363763C2.34552 0.363763 3.02203 1.04027 3.02203 1.87478V8.64636C3.02203 9.67236 3.30185 10.4745 3.86148 11.0528C4.42112 11.6124 5.17662 11.8922 6.128 11.8922C7.20996 11.8922 8.0774 11.5658 8.73031 10.9129C9.38321 10.2413 9.70967 9.21533 9.70967 7.83489V1.87478C9.70967 1.04027 10.3862 0.363763 11.2207 0.363763C12.0552 0.363763 12.7317 1.04027 12.7317 1.87478V10.5771C12.7317 10.8569 12.8156 11.0808 12.9835 11.2487C13.1514 11.4166 13.3753 11.5005 13.6551 11.5005Z" fill="#B4B4BF"/>
<path d="M20.5745 9.21052C20.5745 10.3516 21.4995 11.2767 22.6406 11.2767H27.0103C27.8602 11.2767 28.5493 11.9657 28.5493 12.8156C28.5493 13.6656 27.8602 14.3546 27.0103 14.3546H21.0214C18.9973 14.3546 17.3566 12.7139 17.3566 10.6898V1.97268C17.3566 1.08408 18.0769 0.363725 18.9655 0.363725C19.8541 0.363725 20.5745 1.08408 20.5745 1.97268V9.21052Z" fill="#B4B4BF"/>
<path d="M33.0501 8.64636C32.8609 8.64636 32.719 8.82092 32.7714 9.00278C33.0283 9.89483 33.5118 10.5968 34.2219 11.1088C35.024 11.6684 36.0034 11.9482 37.16 11.9482C38.2345 11.9482 39.1292 11.6888 39.8438 11.1699C40.4547 10.7264 41.2727 10.5073 41.9245 10.8881C42.647 11.3102 42.8717 12.2724 42.2662 12.85C40.9605 14.0956 39.2491 14.7184 37.132 14.7184C34.8562 14.7184 33.0187 14.0282 31.6196 12.6478C30.2205 11.2487 29.521 9.48582 29.521 7.3592C29.521 5.2699 30.2112 3.5257 31.5916 2.12661C32.972 0.708871 34.7442 0 36.9081 0C38.9601 0 40.639 0.718198 41.9449 2.15459C43.2693 3.59099 43.9316 5.33519 43.9316 7.38719C43.9316 8.1131 43.2804 8.64636 42.5545 8.64636H33.0501ZM32.6549 6.18397H40.8816C40.6764 5.04604 40.2007 4.18794 39.4545 3.60965C38.727 3.03136 37.8689 2.74221 36.8802 2.74221C35.7609 2.74221 34.8282 3.05001 34.082 3.66561C33.3358 4.28121 32.8601 5.12066 32.6549 6.18397Z" fill="#B4B4BF"/>
<path d="M57.5895 1.87478C57.5895 1.04027 58.266 0.363763 59.1005 0.363763C59.935 0.363763 60.6115 1.04027 60.6115 1.87478V12.8436C60.6115 13.6781 59.935 14.3546 59.1005 14.3546C58.266 14.3546 57.5895 13.6781 57.5895 12.8436V12.34C56.4516 13.9256 54.8193 14.7184 52.6927 14.7184C50.7713 14.7184 49.1297 14.0095 47.7679 12.5918C46.4061 11.1554 45.7252 9.4112 45.7252 7.3592C45.7252 5.28855 46.4061 3.54436 47.7679 2.12661C49.1297 0.708871 50.7713 0 52.6927 0C54.8193 0 56.4516 0.783489 57.5895 2.35047V1.87478ZM50.0065 10.5771C50.8459 11.4166 51.8999 11.8363 53.1684 11.8363C54.4369 11.8363 55.4909 11.4166 56.3303 10.5771C57.1698 9.719 57.5895 8.64636 57.5895 7.3592C57.5895 6.07204 57.1698 5.00874 56.3303 4.16928C55.4909 3.31117 54.4369 2.88212 53.1684 2.88212C51.8999 2.88212 50.8459 3.31117 50.0065 4.16928C49.167 5.00874 48.7473 6.07204 48.7473 7.3592C48.7473 8.64636 49.167 9.719 50.0065 10.5771Z" fill="#B4B4BF"/>
<path d="M67.156 2.71423C67.7132 1.45032 68.6268 0.646809 69.8969 0.3037C70.7416 0.0755232 71.4652 0.82119 71.4652 1.69611C71.4652 2.61116 70.6711 3.29832 69.7924 3.55386C69.3078 3.69481 68.858 3.9186 68.4431 4.22525C67.585 4.84084 67.156 5.86684 67.156 7.30324V12.8436C67.156 13.6781 66.4795 14.3546 65.645 14.3546C64.8105 14.3546 64.134 13.6781 64.134 12.8436V1.87478C64.134 1.04027 64.8105 0.363763 65.645 0.363763C66.4795 0.363763 67.156 1.04027 67.156 1.87478V2.71423Z" fill="#B4B4BF"/>
<path d="M81.0572 0C82.6615 0 83.958 0.512998 84.9467 1.539C85.9354 2.56499 86.4297 3.97341 86.4297 5.76424V12.8436C86.4297 13.6781 85.7532 14.3546 84.9187 14.3546C84.0842 14.3546 83.4077 13.6781 83.4077 12.8436V6.07204C83.4077 5.02739 83.1279 4.22524 82.5683 3.66561C82.0086 3.10597 81.2438 2.82616 80.2738 2.82616C79.2104 2.82616 78.3523 3.16194 77.6994 3.8335C77.0465 4.48641 76.7201 5.49375 76.7201 6.85553V12.8436C76.7201 13.6781 76.0436 14.3546 75.2091 14.3546C74.3745 14.3546 73.698 13.6781 73.698 12.8436V1.87478C73.698 1.04027 74.3745 0.363763 75.2091 0.363763C76.0436 0.363763 76.7201 1.04027 76.7201 1.87478V2.15459C77.6341 0.718198 79.0799 0 81.0572 0Z" fill="#B4B4BF"/>
</svg>
