<svg width="135" height="30" viewBox="0 0 135 30" fill="none" xmlns="http://www.w3.org/2000/svg">
<path d="M40.0953 10.0209C45.9423 9.33524 48.5215 15.8999 45.8869 20.4331C43.8099 24.0067 38.056 24.2529 36.0311 20.6626L36.0357 24.0612L36.0479 29.0927C35.3238 29.0739 34.5811 29.087 33.8553 29.0916C33.8064 27.0348 33.8516 24.7656 33.8516 22.6938L33.8481 10.2104L36.0528 10.2033C36.0417 10.9653 36.0384 11.7276 36.043 12.4898C36.1027 12.3935 36.1669 12.3001 36.2354 12.2097C37.2735 10.828 38.4181 10.2623 40.0953 10.0209ZM40.7861 21.2977C46.188 20.7113 46.1262 11.6122 39.8911 11.8968C34.1866 12.8325 35.1138 21.6652 40.7075 21.3182C40.7273 21.317 40.7652 21.3032 40.7861 21.2977Z" fill="#B4B4BF"/>
<path d="M134.439 5.70258C134.488 5.69702 134.522 5.722 134.576 5.74402C134.651 6.03488 134.609 9.58732 134.609 10.1756L134.605 23.0651L132.38 23.0611C132.401 22.2634 132.359 21.477 132.445 20.6791C131.233 22.2845 130.091 23.132 127.986 23.2303C126.233 23.3122 124.777 22.7607 123.483 21.5724C119.395 17.4692 122.025 8.86733 128.798 10.0793C130.28 10.3505 131.593 11.2023 132.445 12.4455C132.364 11.8009 132.395 10.623 132.395 9.94446L132.386 5.72662L134.439 5.70258ZM128.755 21.2726C129.842 21.1171 130.82 20.5325 131.471 19.6496C132.948 17.668 132.685 14.1746 130.602 12.6799C129.591 11.9549 128.711 11.8318 127.515 11.8991C121.647 13.0556 123.135 22.1486 128.755 21.2726Z" fill="#B4B4BF"/>
<path d="M111.15 10.0243C113.249 9.79145 115.487 10.5733 116.58 12.4677C116.553 11.7187 116.608 10.9583 116.528 10.2108L118.754 10.199C118.8 11.7163 118.76 13.4693 118.76 15.003L118.748 23.0653L116.531 23.0609C116.579 22.3393 116.569 21.4609 116.581 20.7275L116.224 21.2355C115.359 22.2923 114.127 22.9833 112.774 23.1699C104.482 24.3188 102.951 11.1316 111.15 10.0243ZM112.697 21.3C118.192 20.6101 117.858 11.5097 111.726 11.8969C110.537 12.1149 109.518 12.566 108.832 13.6169C106.814 16.7099 108.451 21.731 112.682 21.3032C112.687 21.3022 112.692 21.3011 112.697 21.3Z" fill="#B4B4BF"/>
<path d="M54.4004 10.0231C57.6973 9.87261 60.3409 11.005 61.2358 14.5117C61.4973 15.5364 61.4328 16.3902 61.3836 17.4336C58.0028 17.3918 54.4996 17.41 51.1163 17.4378C51.1436 17.6008 51.1723 17.7636 51.2025 17.9261C51.8992 21.6555 56.4445 22.7333 58.5353 19.6379L58.8548 19.0633C59.5847 19.0886 60.3991 19.1004 61.1221 19.0497C60.6619 21.2664 58.7824 22.7312 56.6186 23.1226C53.1074 23.8088 49.5491 21.7415 49.0424 18.0477C48.4647 13.8374 50.0933 10.7351 54.4004 10.0231ZM51.1292 15.6689L56.0389 15.68L59.2348 15.6741C58.7301 12.6184 57.3596 11.7175 54.3882 11.8947C52.2035 12.3822 51.5518 13.6438 51.1292 15.6689Z" fill="#B4B4BF"/>
<path d="M86.3017 6.56352C87.3276 6.43809 88.9586 6.69226 89.9318 7.07403C92.2321 7.97656 93.3612 9.31076 94.3504 11.4765C93.4876 11.4939 92.6241 11.4995 91.7606 11.4932C91.6169 11.2532 91.4617 10.9926 91.3036 10.7631C90.5477 9.63931 89.3759 8.86227 88.046 8.60297C81.9871 7.48049 78.9937 14.123 81.9777 18.8197C83.6029 21.3776 87.711 21.9472 90.1166 20.2389C91.622 19.17 92.1974 17.7711 92.5064 15.9939C91.3375 15.964 90.0668 15.9874 88.8893 15.9858L86.002 15.9906L86.0172 14.2439C88.8792 14.2898 91.9404 14.2701 94.8045 14.2377C94.9619 16.5703 94.4406 18.594 92.9252 20.4082C90.1109 23.7785 84.7277 24.0565 81.4319 21.2625C79.8074 19.8798 78.8067 17.9026 78.6544 15.775C78.2522 10.7529 81.2225 6.96442 86.3017 6.56352Z" fill="#B4B4BF"/>
<path d="M69.7956 10.0177C71.8887 9.79384 74.1254 10.3786 75.1816 12.3596C76.1217 14.122 75.9159 16.5772 75.9108 18.539V23.0598L73.7471 23.0618C73.7904 21.761 73.7629 20.2782 73.7665 18.962C73.7153 17.4537 73.9088 15.8713 73.5536 14.3923C73.015 12.1461 71.0049 11.4894 68.9711 12.0214C66.2507 12.7655 66.5806 15.7531 66.5799 17.9129L66.5972 23.065L64.3735 23.071L64.3723 10.211L66.5958 10.1985C66.5893 10.7944 66.5763 11.3903 66.5575 11.9859C67.3481 10.7105 68.3942 10.2992 69.7956 10.0177Z" fill="#B4B4BF"/>
<path d="M103.869 9.96779L103.901 9.98692C103.989 10.2174 103.952 11.8189 103.951 12.1759C103.852 12.1735 103.753 12.1718 103.653 12.1711C99.5263 12.1389 99.8245 15.0973 99.8281 18.1126L99.8389 23.0621L97.6585 23.0673L97.6578 10.2105L99.8425 10.2047L99.8201 12.138C100.998 10.4736 101.834 10.0536 103.869 9.96779Z" fill="#B4B4BF"/>
<path d="M0 0.0118169C6.07171 0.0834766 12.3155 0.0172541 18.4011 0.0145463L23.5505 0.00866126C24.4641 0.0078453 25.6298 -0.0216736 26.5238 0.0331543C26.9067 0.192056 28.1586 0.133077 28.6263 0.126758C29.2238 1.39634 29.9738 2.48341 30.6217 3.71273C30.8364 4.12013 30.2852 4.57807 30.0201 4.79434L30.1389 4.8329C29.5962 5.3632 28.6462 6.11886 28.0365 6.57096C28.8949 7.78305 29.6049 8.78487 30.1494 10.1911C32.3155 15.7853 30.4249 22.1169 25.517 25.581C22.7232 27.5584 19.262 28.3535 15.8854 27.7936C12.4469 27.218 9.38079 25.2923 7.36876 22.4448C5.38806 19.6551 4.58919 16.1959 5.14598 12.82C5.56488 10.4229 6.47819 8.50715 7.9922 6.60699C6.72619 5.57043 5.4677 4.52478 4.21679 3.47003L4.23079 6.15734L3.4047 6.06802C3.25849 6.12073 3.16218 6.16413 3.00558 6.1694L3.00616 2.45968C1.99473 1.70069 1.05706 0.764453 0 0.0118169ZM11.3221 9.41987C10.8514 10.0567 10.4554 10.5977 10.0921 11.309C8.09948 15.21 9.21863 19.9148 12.7508 22.5259C14.6488 23.9135 17.0171 24.4973 19.3425 24.151C21.7095 23.7801 23.8305 22.4795 25.2347 20.538C25.4031 20.3097 25.6388 19.9555 25.7805 19.7081C27.6459 16.0256 27.1772 12.6118 24.6668 9.40413L18.0079 14.9895C16.5324 13.7283 15.0466 12.4792 13.5507 11.2423C13.0738 10.8449 11.7864 9.72076 11.3221 9.41987ZM9.75608 5.0423C10.6383 5.70496 11.5862 6.50517 12.4268 7.23585C14.2395 8.81144 16.2371 10.3076 18.0089 11.9152L18.4325 11.5579C20.5799 9.66899 22.8746 7.89223 25.0355 6.01343C25.397 5.69918 25.7893 5.36933 26.1753 5.08931C23.4316 3.35342 20.4315 2.43651 17.1614 2.66406C14.173 2.85057 12.3071 3.54629 9.75608 5.0423Z" fill="#B4B4BF"/>
<path d="M26.5238 0.0331543C29.6435 -0.0365846 32.8623 0.0898407 35.955 0.00172472C35.1467 0.700104 30.6773 4.58818 30.1389 4.8329L30.0201 4.79434C30.2852 4.57807 30.8364 4.12013 30.6217 3.71273C29.9738 2.48341 29.2238 1.39634 28.6263 0.126758C28.1586 0.133077 26.9067 0.192056 26.5238 0.0331543Z" fill="#B4B4BF"/>
<path d="M3.00558 6.1694C3.16218 6.16413 3.25849 6.12073 3.4047 6.06802L4.23079 6.15734C4.84463 6.68974 5.1055 7.23729 4.64091 7.99634C4.58459 8.0492 4.52705 8.10076 4.46828 8.15087C4.18764 8.38901 3.89878 8.52462 3.52602 8.49213C3.19102 8.4657 2.88136 8.30337 2.66895 8.04285C2.12233 7.37535 2.38735 6.66367 3.00558 6.1694Z" fill="#B4B4BF"/>
</svg>
