<svg width="93" height="17" viewBox="0 0 93 17" fill="none" xmlns="http://www.w3.org/2000/svg">
<path fill-rule="evenodd" clip-rule="evenodd" d="M4.35217 0.0930844C6.14181 0.0926467 7.68813 -0.0390717 9.47097 0.506954C12.6427 1.47821 13.6644 4.72444 12.7677 7.68374C12.323 9.15147 11.1946 10.0644 9.82413 10.7371L13.6 16.9925L9.23844 16.9914L5.99039 11.4927L3.81264 11.4945L3.81354 16.9922L0.0154399 16.993C-0.0178514 14.9285 0.0130991 12.7679 0.01283 10.6965L0.0177236 0.0926797L4.35217 0.0930844ZM8.58474 4.07442C7.60792 3.11119 5.18067 3.36637 3.9053 3.37142L3.83295 3.42541C3.78519 3.81383 3.8092 4.69205 3.80954 5.11334L3.81403 8.28621L5.52125 8.28483C6.68 8.28682 7.51701 8.35573 8.49054 7.64399C9.43872 6.69988 9.52363 5.00027 8.58474 4.07442Z" fill="#B4B4BF"/>
<path d="M53.4532 0.0969607L57.4322 0.0951642L57.4317 16.9923L53.7023 16.9927L53.6989 6.64643L53.6798 6.60145L53.6299 6.59159C53.3123 6.95606 53.0098 7.41739 52.701 7.79385C51.6758 9.04328 50.631 10.6225 49.5848 11.8246C49.1904 11.4041 48.541 10.5059 48.1578 10.0088L45.48 6.53515C45.5378 9.97296 45.4878 13.5441 45.4883 16.9925L41.7833 16.9929L41.7808 10.4339C41.7806 9.57216 41.7518 8.4021 41.8078 7.57237C41.8305 7.23583 42.7652 5.59255 42.9647 5.21647L45.6993 0.0692278C46.9574 1.69483 48.4108 3.8666 49.6146 5.57001C50.8987 3.80773 52.196 1.89037 53.4532 0.0969607Z" fill="#B4B4BF"/>
<path fill-rule="evenodd" clip-rule="evenodd" d="M70.3009 0.00105228C71.2023 2.49435 72.183 5.02703 73.1162 7.51392L76.6803 16.9867C75.3937 17.0135 74.0284 16.9914 72.736 16.992L71.4172 13.351L70.2442 13.353L65.4568 13.3538C65.0349 14.5694 64.6053 15.7821 64.1668 16.9919L60.3336 16.9898L66.7169 0L70.3009 0.00105228ZM66.618 10.1495L70.2667 10.1489C70.071 9.59134 68.557 5.16479 68.4247 5.07482L66.618 10.1495Z" fill="#B4B4BF"/>
<path d="M78.3314 0.095841L82.6583 0.0934606C83.6209 1.68156 84.7024 3.78058 85.616 5.43537C85.9317 4.94685 86.3422 4.15841 86.6442 3.62142L88.6256 0.0949665L92.8542 0.0979295L87.7712 8.34964L91.529 14.4936C91.7506 14.8559 92.907 16.6948 93 16.9415C92.9129 17.0135 92.8101 16.9887 92.6707 16.9925L88.72 16.9903L85.5411 11.3358L82.3378 16.9931L78.1014 16.9905C79.8724 14.2233 81.6336 11.2243 83.3615 8.40477L78.3314 0.095841Z" fill="#B4B4BF"/>
<path d="M17.1173 0.0948691L28.6289 0.0945786L28.6293 3.37546C26.0776 3.34024 23.4458 3.36734 20.8886 3.3724L20.8911 6.84581L27.6953 6.84352L27.6958 10.1185L23.4612 10.1174C22.603 10.111 21.7448 10.1146 20.8867 10.128L20.8907 13.713L25.9869 13.7094C25.5594 14.6466 24.7594 16.046 24.2566 16.9924L17.1151 16.9926L17.1173 0.0948691Z" fill="#B4B4BF"/>
<path d="M37.102 0.0954538L41.7286 0.0963773L32.7694 16.9908L28.1511 16.9932L37.102 0.0954538Z" fill="#B4B4BF"/>
</svg>
