<svg width="131" height="23" viewBox="0 0 131 23" fill="none" xmlns="http://www.w3.org/2000/svg">
<path fill-rule="evenodd" clip-rule="evenodd" d="M124.95 6.18536C128.237 5.86657 130.685 8.66645 130.839 11.8618C130.993 15.0175 129.235 18.3521 125.671 18.3423C123.931 18.3375 122.687 17.5449 121.728 16.0602C121.701 17.1965 121.715 18.3922 121.713 19.533L121.72 22.9156L118.729 22.9108L118.725 6.36436L121.387 6.36462C121.38 7.01918 121.386 7.68382 121.386 8.33942C122.408 6.96889 123.28 6.4533 124.95 6.18536ZM125.917 9.06537C125.287 8.77076 124.822 8.76209 124.157 8.79975C121.704 9.35029 121.398 11.1709 121.771 13.3311C122.037 14.8626 123.887 16.0245 125.392 15.7073C126.344 15.3697 126.988 14.8865 127.438 13.9386C127.88 12.9986 127.937 11.9228 127.595 10.9415C127.309 10.1166 126.705 9.44076 125.917 9.06537Z" fill="#B4B4BF"/>
<path fill-rule="evenodd" clip-rule="evenodd" d="M55.9241 6.18539C60.07 5.79281 62.4034 9.94606 61.6872 13.7725C60.8316 18.3439 55.4467 20.2109 52.7231 16.1011L52.7311 22.9129L49.747 22.9096L49.743 6.36479L52.3308 6.36466L52.3329 8.38184C53.3472 6.9906 54.2301 6.46529 55.9241 6.18539ZM56.9369 9.08582C56.2859 8.76844 55.8291 8.76645 55.1399 8.79913C52.6008 9.32375 52.4673 11.2356 52.774 13.3671C52.9897 14.8662 54.8854 16.0195 56.3478 15.7058C58.3594 15.025 59.2385 12.9465 58.579 10.9837C58.3072 10.1571 57.7158 9.47363 56.9369 9.08582Z" fill="#B4B4BF"/>
<path d="M10.2599 0.0233621C11.2565 -0.063073 11.7528 0.0671672 12.459 0.80874C14.9934 3.47586 17.5174 6.1539 20.0462 8.82655C20.7474 9.56771 21.5382 10.2052 21.5217 11.29C21.512 11.8879 21.2661 12.4575 20.8377 12.8746C20.4153 13.279 19.882 13.4346 19.3067 13.4215C18.0255 13.3921 16.7385 11.6107 15.88 10.7008L11.0531 5.58706L10.8292 5.36928C10.4549 5.40555 5.80141 10.6425 5.04973 11.3376C4.03329 12.2775 3.10225 14.0401 1.33193 13.2786C0.79232 13.0426 0.370131 12.5997 0.160156 12.0494C-0.203887 11.105 0.0793773 10.3468 0.739944 9.63832C3.38869 6.79819 6.07003 3.98625 8.73459 1.16049C9.2464 0.617629 9.54832 0.281493 10.2599 0.0233621Z" fill="#B4B4BF"/>
<path fill-rule="evenodd" clip-rule="evenodd" d="M94.2387 6.19045C94.4605 6.16393 94.6836 6.15428 94.906 6.16154C97.8824 6.23664 100.12 7.94071 100.768 10.9062C100.946 11.7208 100.899 12.4343 100.877 13.2595L91.7722 13.2634C91.8226 13.4927 91.8807 13.7203 91.9463 13.9457C92.7236 16.5519 96.4136 16.9264 97.6731 14.5265C97.9819 14.5926 98.3405 14.6985 98.6493 14.7814C99.1336 14.9445 99.7486 15.0924 100.252 15.2262C98.6238 18.5632 93.8172 19.2816 90.9797 17.1342C89.7382 16.1912 88.9229 14.793 88.7129 13.248C88.3163 10.3094 89.7451 7.48169 92.651 6.513C93.1961 6.33129 93.6694 6.26632 94.2387 6.19045ZM97.8769 11.3139C97.4637 9.47883 96.4702 8.1732 94.3885 8.39319C92.6897 8.76747 92.0382 9.62743 91.7024 11.3029C92.9094 11.3281 94.1164 11.3345 95.3233 11.3219L97.8769 11.3139Z" fill="#B4B4BF"/>
<path fill-rule="evenodd" clip-rule="evenodd" d="M40.1291 6.18924C41.845 5.89542 44.0895 6.74371 45.2231 8.05936C46.6475 9.71247 46.833 11.1826 46.7285 13.2608L37.6637 13.2642C37.7102 13.5114 37.7713 13.7558 37.8466 13.9959C38.0857 14.7634 38.6207 15.404 39.3332 15.7761C40.817 16.5441 42.7647 16.0513 43.541 14.5227C43.8458 14.5847 44.187 14.6895 44.4898 14.7749C45.0126 14.9414 45.5883 15.0822 46.1227 15.2224C45.9758 15.5288 45.7985 15.8196 45.5935 16.0906C43.6279 18.6988 39.3916 19.058 36.8411 17.1241C35.6103 16.1754 34.8013 14.7812 34.5883 13.2418C34.2019 10.3557 35.586 7.54335 38.4253 6.5462C39.0112 6.34045 39.5139 6.26898 40.1291 6.18924ZM43.7449 11.3178C43.4143 9.48872 42.301 8.20811 40.3129 8.38897C38.628 8.73395 37.8723 9.60581 37.6018 11.303C38.7762 11.34 39.9803 11.3247 41.1577 11.322L43.7449 11.3178Z" fill="#B4B4BF"/>
<path d="M72.819 6.36435L75.8182 6.36484L75.814 11.9328C75.8265 12.8296 75.6551 14.5016 75.9501 15.3061C76.031 15.5268 76.3253 15.5981 76.5464 15.6644L76.5381 18.1052C75.5031 18.2923 74.0751 18.4902 73.5078 17.3579C73.2743 16.892 73.2909 16.4723 73.2633 15.9612C73.0525 16.2432 72.8232 16.5106 72.5765 16.7616C71.3426 18.0116 69.3597 18.591 67.6498 18.2575C64.4164 17.6269 64.8427 13.5249 64.8475 11.0804L64.8434 6.36373L67.8564 6.36428L67.846 10.9588C67.8439 12.4107 67.4999 15.7274 69.7121 15.7975C70.8106 15.8323 72.5689 14.7714 72.7644 13.6236C72.8826 12.9312 72.8321 11.8491 72.8307 11.1018L72.819 6.36435Z" fill="#B4B4BF"/>
<path d="M111.672 6.36484L114.691 6.3645L114.686 11.7946C114.69 12.724 114.554 14.3903 114.795 15.2555C114.862 15.494 115.154 15.5901 115.379 15.6732L115.372 18.1156C114.548 18.2381 113.441 18.4376 112.74 17.8354C112.169 17.3443 112.178 16.649 112.129 15.9552C110.99 17.5161 109.404 18.3416 107.476 18.3449C103.341 18.3519 103.724 14.2049 103.723 11.3664L103.722 6.36664L106.711 6.36443L106.702 10.852C106.7 12.7594 106.343 16.5589 109.44 15.6424C110.934 15.2001 111.851 14.035 111.687 12.5839C111.647 12.2294 111.685 11.6937 111.684 11.3225L111.672 6.36484Z" fill="#B4B4BF"/>
<path d="M80.51 2.53917L83.5091 2.54608L83.5071 6.36374L85.9563 6.36429L85.9549 8.70813L83.5091 8.70605C83.4953 9.88174 83.3205 14.1118 83.6529 14.9677C83.7482 15.2126 83.9036 15.3549 84.1406 15.4588C84.8122 15.7524 85.6246 15.3626 86.252 15.1214C86.404 15.7186 86.5484 16.3174 86.6859 16.9179C86.7418 17.1108 86.793 17.3327 86.8434 17.5296C84.8902 18.3635 81.3246 19.3011 80.5922 16.2084C80.4091 15.436 80.5024 14.0415 80.5059 13.1848L80.5114 8.7084L78.9797 8.70446L78.9748 6.36471L80.5107 6.36277L80.51 2.53917Z" fill="#B4B4BF"/>
<path d="M31.7262 6.11244C31.99 6.09365 32.3448 6.09593 32.6166 6.08916L32.619 8.85432C30.9103 8.96335 29.5406 9.33887 28.6407 10.9412C28.6003 13.2938 28.635 15.7481 28.6337 18.109L25.6524 18.108L25.655 16.8726L25.6499 6.36477L28.4095 6.36422L28.4089 8.75704C28.5453 8.52351 28.6869 8.29308 28.8337 8.06597C29.5292 7.01231 30.4922 6.36588 31.7262 6.11244Z" fill="#B4B4BF"/>
<path d="M10.2561 15.2038C11.9789 14.9213 13.6025 16.0947 13.8751 17.8192C14.1476 19.5437 12.965 21.1607 11.239 21.4233C9.52711 21.6838 7.92625 20.5127 7.6559 18.8022C7.38556 17.0918 8.54722 15.4841 10.2561 15.2038Z" fill="#B4B4BF"/>
</svg>
