<svg width="79" height="42" viewBox="0 0 79 42" fill="none" xmlns="http://www.w3.org/2000/svg">
<path d="M42.982 7.41008C43.0448 7.40994 43.1075 7.40979 43.1722 7.40964C43.3042 7.40953 43.4362 7.40981 43.5682 7.41046C43.7692 7.41128 43.9701 7.41046 44.1711 7.40948C44.2999 7.40958 44.4287 7.40978 44.5576 7.41008C44.6468 7.40962 44.6468 7.40962 44.7379 7.40914C45.0974 7.41221 45.4009 7.46005 45.7384 7.58406C45.7895 7.60142 45.8407 7.61877 45.8934 7.63665C46.0294 7.68686 46.1652 7.73753 46.3009 7.78883C46.372 7.81516 46.372 7.81516 46.4447 7.84203C46.49 7.85932 46.5354 7.87661 46.5821 7.89442C46.643 7.91748 46.643 7.91748 46.7051 7.94101C46.8175 7.99623 46.8811 8.05604 46.9656 8.14719C47.05 8.19972 47.1353 8.25076 47.2212 8.30077C47.6215 8.55901 47.9843 8.83988 48.3206 9.17745C48.3539 9.21092 48.3873 9.24439 48.4217 9.27888C48.6975 9.56207 48.911 9.85435 49.1132 10.1949C49.1413 10.2367 49.1694 10.2785 49.1984 10.3215C49.829 11.2801 49.7874 12.5529 49.7843 13.6569C49.7842 13.7261 49.7842 13.7261 49.7841 13.7968C49.7834 14.4224 49.7722 15.0462 49.7452 15.6713C49.7158 16.3545 49.7042 17.0353 49.7663 17.7169C49.8177 18.4137 49.8177 18.4137 49.7523 18.7042C49.7204 18.8819 49.7194 19.0556 49.72 19.2354C49.72 19.2723 49.72 19.3092 49.72 19.3472C49.7205 20.232 49.7288 21.1161 49.7485 22.0007C49.7836 23.611 49.7871 25.2213 49.7881 26.832C49.7883 27.0666 49.7885 27.3013 49.7887 27.536C49.7893 28.1899 49.7899 28.8439 49.79 29.4979C49.79 29.5596 49.79 29.5596 49.7901 29.6227C49.7901 29.6639 49.7901 29.7052 49.7901 29.7477C49.7901 29.8312 49.7901 29.9148 49.7902 29.9983C49.7902 30.0604 49.7902 30.0604 49.7902 30.1238C49.7904 30.8023 49.7913 31.4808 49.7925 32.1593C49.7937 32.8612 49.7943 33.5632 49.7944 34.2651C49.7944 34.6571 49.7947 35.0492 49.7957 35.4413C49.7964 35.773 49.7967 36.1046 49.7963 36.4363C49.7961 36.6053 49.7962 36.7742 49.7969 36.9431C49.7975 37.126 49.7972 37.3088 49.7967 37.4916C49.7973 37.5719 49.7973 37.5719 49.7979 37.6538C49.7976 37.7027 49.7972 37.7515 49.7969 37.8018C49.7969 37.844 49.797 37.8861 49.797 37.9296C49.773 38.0735 49.7243 38.1437 49.6245 38.2489C49.3158 38.3262 48.9921 38.3075 48.6755 38.3069C48.5909 38.307 48.5909 38.307 48.5046 38.307C48.3857 38.3071 48.2668 38.307 48.1479 38.3068C47.9667 38.3065 47.7855 38.3068 47.6042 38.3071C47.4884 38.307 47.3725 38.307 47.2566 38.3069C47.1759 38.307 47.1759 38.307 47.0935 38.3072C46.5126 38.3054 46.5126 38.3054 46.2497 38.2489C46.1042 38.0997 46.0771 37.9919 46.0763 37.7866C46.0757 37.7347 46.0751 37.6828 46.0746 37.6294C46.0748 37.5444 46.0748 37.5444 46.075 37.4578C46.0746 37.3979 46.0742 37.338 46.0737 37.2763C46.0724 37.0783 46.0722 36.8802 46.072 36.6821C46.0712 36.5448 46.0704 36.4075 46.0695 36.2701C46.0676 35.9455 46.0663 35.6208 46.0654 35.2962C46.0637 34.7142 46.0607 34.1321 46.0575 33.5501C46.0566 33.3793 46.0558 33.2085 46.0554 33.0378C46.0549 32.8476 46.0541 32.6575 46.0533 32.4674C46.0532 32.4105 46.0532 32.3535 46.0531 32.2949C46.0528 32.2434 46.0525 32.1919 46.0523 32.1389C46.0521 32.0939 46.052 32.0489 46.0519 32.0026C46.0564 31.9009 46.1075 31.9009 46.0452 31.8497C46.0398 31.7195 46.0377 31.5906 46.0378 31.4604C46.0376 31.4196 46.0374 31.3788 46.0372 31.3367C46.0368 31.201 46.0367 31.0653 46.0366 30.9296C46.0364 30.8354 46.0363 30.7412 46.0361 30.647C46.0358 30.449 46.0357 30.251 46.0357 30.053C46.0357 29.7999 46.035 29.5468 46.0341 29.2937C46.0336 29.0988 46.0335 28.9039 46.0335 28.7091C46.0334 28.6158 46.0332 28.5226 46.0328 28.4293C46.0323 28.2983 46.0325 28.1674 46.0328 28.0364C46.0325 27.9982 46.0322 27.96 46.0319 27.9207C46.033 27.7391 46.038 27.6155 46.0452 27.42C46.0606 27.0092 46.1096 26.719 46.1079 26.3692C46.1079 26.2859 46.1079 26.2027 46.108 26.1194C46.108 25.8942 46.1074 25.6691 46.1067 25.4439C46.1061 25.2083 46.106 24.9726 46.1059 24.737C46.1056 24.2912 46.1047 23.8453 46.1037 23.3995C46.1025 22.8918 46.102 22.3841 46.1015 21.8763C46.1004 20.8323 46.0986 19.7883 46.0963 18.7442C45.5283 18.7418 44.9602 18.74 44.3922 18.7389C44.1284 18.7384 43.8646 18.7377 43.6008 18.7365C43.3462 18.7354 43.0916 18.7348 42.837 18.7345C42.7399 18.7343 42.6428 18.7339 42.5457 18.7334C42.4096 18.7326 42.2735 18.7325 42.1374 18.7326C42.0774 18.732 42.0774 18.732 42.0162 18.7315C41.7885 18.7323 41.6037 18.7619 41.3921 18.8466C41.3881 20.5094 41.3985 22.1719 41.4119 23.8346C41.4139 24.0864 41.4159 24.3383 41.4179 24.5901C41.4331 26.5203 41.4277 30.3804 41.4277 30.3804C41.4277 30.3804 41.4456 31.6649 41.4478 32.3073C41.4484 32.3842 41.4484 32.3842 41.4489 32.4627C41.4489 32.509 41.449 32.5553 41.449 32.603C41.4492 32.6633 41.4492 32.6633 41.4494 32.7248C41.4433 32.8224 41.4458 32.8467 41.4433 32.9248C41.4406 33.005 41.4364 33.0616 41.4362 33.1301C41.4359 33.173 41.4356 33.2159 41.4354 33.2601C41.4353 33.3073 41.4352 33.3545 41.4352 33.4031C41.4349 33.4527 41.4347 33.5023 41.4344 33.5534C41.4339 33.6614 41.4334 33.7694 41.4331 33.8774C41.4325 34.0482 41.4315 34.219 41.4303 34.3899C41.4272 34.8756 41.4244 35.3613 41.4227 35.8471C41.4217 36.1439 41.4199 36.4408 41.4176 36.7377C41.4169 36.8509 41.4164 36.9642 41.4162 37.0775C41.416 37.2359 41.4148 37.3942 41.4134 37.5526C41.4136 37.623 41.4136 37.623 41.4139 37.6949C41.4098 38.0097 41.4097 38.0097 41.3252 38.1749C41.0754 38.3888 40.5509 38.3083 40.2394 38.3087C40.1839 38.3089 40.1283 38.309 40.0711 38.3092C39.9542 38.3095 39.8374 38.3096 39.7205 38.3096C39.5418 38.3097 39.3631 38.3106 39.1843 38.3116C39.0705 38.3117 38.9567 38.3118 38.8429 38.3119C38.7896 38.3123 38.7362 38.3126 38.6813 38.313C38.6315 38.3128 38.5816 38.3127 38.5303 38.3125C38.4866 38.3126 38.443 38.3127 38.3981 38.3127C38.1975 38.2924 38.0578 38.2382 37.9151 38.0953C37.9031 37.9504 37.8972 37.8102 37.8957 37.6652C37.8949 37.6225 37.894 37.5798 37.8931 37.5359C37.8904 37.3992 37.8883 37.2625 37.8863 37.1258C37.8841 36.9893 37.8817 36.8528 37.879 36.7164C37.8774 36.6314 37.876 36.5463 37.8749 36.4613C37.8719 36.294 37.866 36.1562 37.8128 35.9964C37.808 35.88 37.8063 35.7634 37.8062 35.6469C37.8061 35.6113 37.806 35.5756 37.8059 35.5389C37.8057 35.4189 37.8059 35.2989 37.806 35.1789C37.806 35.0917 37.806 35.0046 37.8059 34.9174C37.8058 34.7313 37.8059 34.5452 37.8062 34.3591C37.8064 34.1352 37.8063 33.9113 37.806 33.6874C37.8049 32.7313 37.81 31.7754 37.8247 30.8195C37.86 28.4817 37.8683 26.1443 37.8672 23.8063C37.8672 23.6812 37.8671 23.556 37.8671 23.4309C37.8665 22.193 37.8654 20.9551 37.8641 19.7173C37.8637 19.3183 37.8633 18.9194 37.8629 18.5205C37.8629 18.4765 37.8628 18.4326 37.8628 18.3873C37.8621 17.6561 37.8616 16.9249 37.8612 16.1936C37.861 15.7463 37.8606 15.2991 37.8599 14.8518C37.8595 14.5484 37.8593 14.245 37.8592 13.9416C37.8591 13.7669 37.8589 13.5921 37.8586 13.4174C37.8582 13.2286 37.8581 13.0397 37.8582 12.8509C37.858 12.7953 37.8578 12.7398 37.8576 12.6825C37.8577 12.6323 37.8577 12.5821 37.8578 12.5304C37.8578 12.4869 37.8577 12.4434 37.8577 12.3985C37.864 12.2939 37.864 12.2939 37.9151 12.1915C37.9204 12.1292 37.9256 12.0669 37.9311 12.0027C38.0319 11.037 38.4568 9.96663 39.1423 9.27344C39.175 9.2386 39.2077 9.20375 39.2414 9.16786C39.4881 8.93577 39.7439 8.7132 40.0115 8.50554C40.0372 8.4837 40.0628 8.46185 40.0892 8.43935C40.5788 8.04105 41.2033 7.77227 41.8012 7.58406C41.835 7.57175 41.8688 7.55943 41.9036 7.54675C42.2663 7.42316 42.6011 7.40809 42.982 7.41008ZM42.3636 10.758C42.3255 10.7844 42.2874 10.8107 42.2482 10.8378C42.2188 10.8622 42.1894 10.8865 42.1591 10.9116C42.1591 10.9454 42.1591 10.9792 42.1591 11.014C42.1306 11.0235 42.1022 11.033 42.0728 11.0428C41.704 11.2724 41.5685 11.7472 41.4433 12.1403C41.4042 12.341 41.3857 12.531 41.3855 12.7353C41.3853 12.7904 41.3852 12.8456 41.385 12.9024C41.3851 12.9611 41.3852 13.0198 41.3853 13.0803C41.3853 13.1412 41.3852 13.202 41.3852 13.2646C41.3851 13.3927 41.3852 13.5208 41.3855 13.6489C41.3857 13.8458 41.3855 14.0428 41.3851 14.2397C41.3852 14.3641 41.3852 14.4885 41.3853 14.613C41.3852 14.6722 41.3851 14.7314 41.385 14.7925C41.3852 14.8468 41.3853 14.9012 41.3855 14.9572C41.3855 15.0052 41.3856 15.0533 41.3856 15.1028C41.38 15.211 41.38 15.211 41.4433 15.2631C41.5778 15.2685 41.711 15.2706 41.8456 15.2705C41.8878 15.2707 41.9299 15.2708 41.9733 15.271C42.1134 15.2715 42.2535 15.2716 42.3936 15.2717C42.4906 15.2718 42.5876 15.272 42.6846 15.2722C42.8883 15.2725 43.0919 15.2726 43.2956 15.2726C43.5569 15.2725 43.8182 15.2732 44.0795 15.2741C44.28 15.2747 44.4805 15.2748 44.6809 15.2748C44.7773 15.2748 44.8736 15.2751 44.97 15.2755C45.1046 15.276 45.2393 15.2758 45.374 15.2755C45.434 15.2759 45.434 15.2759 45.4952 15.2764C45.6892 15.2752 45.7774 15.2711 45.9429 15.1607C45.9668 15.0391 45.9668 15.0391 45.9636 14.8956C45.9642 14.8402 45.9649 14.7848 45.9656 14.7277C45.9654 14.6675 45.9653 14.6072 45.9651 14.5452C45.9654 14.4831 45.9656 14.4211 45.9659 14.3572C45.9662 14.2254 45.9662 14.0936 45.9657 13.9619C45.9653 13.7618 45.9668 13.5619 45.9684 13.3619C45.9685 13.2337 45.9685 13.1055 45.9683 12.9774C45.9689 12.9181 45.9694 12.8589 45.97 12.7979C45.9639 12.0677 45.6975 11.3865 45.2015 10.8476C44.739 10.4156 44.2726 10.1965 43.6447 10.2141C43.1346 10.247 42.7684 10.4624 42.3636 10.758Z" fill="#B4B4BF"/>
<path d="M63.9914 14.9475L63.8517 14.9485C63.7235 14.9491 63.2748 14.9485 63.2748 14.9485C63.2748 14.9485 63.2751 15.0392 63.2748 15.102C63.2725 15.631 63.2704 16.0093 63.2722 16.4627C63.2725 16.5529 63.2728 16.6431 63.273 16.7333C63.2734 16.9831 63.274 17.2328 63.2748 17.4826C63.2757 17.7553 63.2763 18.0279 63.2769 18.3005C63.2779 18.7731 63.2791 19.2456 63.2804 19.7182C63.2824 20.4073 63.2842 21.0964 63.2859 21.7856C63.2885 22.9024 63.2913 24.0191 63.2944 25.1359C63.2973 26.2243 63.3002 27.3128 63.3029 28.4012L63.3059 29.6177C63.3129 32.4777 63.3204 35.3377 63.3281 38.1977C63.4833 38.279 63.6055 38.3475 63.7804 38.3697L63.9325 38.3687L64.1062 38.3687L64.2912 38.3663C64.4879 38.3656 64.6846 38.3647 64.8814 38.3628C65.0182 38.3615 65.1549 38.3604 65.2917 38.3597C65.6939 38.3578 66.0961 38.3551 66.4983 38.3513C66.5554 37.8445 66.5567 37.34 66.5562 36.8308C66.5561 36.7278 66.5561 36.6246 66.5561 36.5215C66.5564 36.239 66.5565 35.9564 66.5564 35.6738C66.5562 35.3711 66.5562 35.0684 66.5563 34.7657C66.5564 34.2549 66.5564 33.7441 66.5562 33.2333C66.5559 32.6451 66.5558 32.057 66.5561 31.4688C66.5563 30.9583 66.5564 30.4478 66.5563 29.9373L66.5563 29.7985C66.5562 29.5387 66.5562 29.2789 66.5563 29.0191C66.557 27.7032 66.5517 26.3877 66.5299 25.0719L66.5266 24.8773C66.5237 24.6911 66.5207 24.5049 66.5174 24.3188L66.5142 24.149L66.5117 23.9868L66.5087 23.8392C66.5073 23.7619 66.5043 23.6846 66.4983 23.6076C66.4809 23.5728 66.4983 23.3541 66.4983 23.3541C66.4983 23.3541 67.6946 23.3536 68.2927 23.3541L68.3613 23.3542C68.6431 23.3544 68.9249 23.3546 69.2068 23.3551C69.5055 23.3557 69.8043 23.3562 70.103 23.3564C70.2164 23.3564 70.3297 23.3565 70.4431 23.3566C70.6069 23.357 70.7707 23.3574 70.9344 23.3574L71.0841 23.3574L71.2264 23.358L71.3559 23.3578C71.4241 23.3578 71.4924 23.3563 71.5604 23.3516L71.6627 23.3004V38.3697H74.7818L74.7815 14.943L71.63 14.9485V17.2628L71.629 17.4488C71.629 17.5578 71.6289 17.6667 71.6277 17.7757C71.627 17.8475 71.6264 17.9193 71.6262 17.9912C71.6259 18.1527 71.6259 18.1527 71.6254 18.3143L71.6211 18.8594L71.6115 20.5872H66.4471L66.3958 14.9484C66.3958 14.9484 66.1788 14.9449 65.5949 14.943L65.4443 14.9441C65.3383 14.9441 65.2323 14.9442 65.1264 14.9444C64.9598 14.9454 64.7933 14.9463 64.6268 14.9464C64.5176 14.9464 64.4085 14.9465 64.2994 14.9468L64.1436 14.9473L63.9914 14.9475Z" fill="#B4B4BF"/>
<path d="M30.6762 10.8337C30.855 10.8348 31.0338 10.8337 31.2127 10.8324C31.8091 10.8317 32.3432 10.8434 32.9041 11.0652C32.9411 11.0783 32.978 11.0915 33.016 11.105C33.3794 11.2383 33.7157 11.4151 34.0356 11.6319C34.131 11.6961 34.2273 11.7591 34.3245 11.8207C34.7009 12.0616 35.0218 12.3285 35.3361 12.6458C35.3826 12.6926 35.429 12.7393 35.4768 12.7875C35.8735 13.1983 36.1761 13.6278 36.4323 14.1368C36.4492 14.1701 36.4661 14.2034 36.4835 14.2377C36.6561 14.5833 36.7907 14.8824 36.8062 15.27C36.8083 15.3223 36.8105 15.3746 36.8126 15.4285C36.8146 15.4849 36.8166 15.5414 36.8187 15.5996C36.8208 15.6588 36.823 15.718 36.8252 15.7789C36.8469 16.423 36.8478 17.0668 36.8463 17.7111C36.8462 17.8366 36.8462 17.9621 36.8461 18.0876C36.8459 18.413 36.8454 18.7383 36.8449 19.0637C36.8443 19.3977 36.8441 19.7317 36.8438 20.0656C36.8433 20.7173 36.8424 21.3689 36.8413 22.0206C36.7892 22.0032 36.892 22.0375 36.8413 22.0206C36.8413 22.8653 36.8413 23.8124 36.8413 24.6826C36.8935 24.6652 36.7907 24.6995 36.8413 24.6826C36.8413 25.5442 36.8413 27.2935 36.8413 27.2935C36.8413 27.2935 36.8483 27.6203 36.8478 27.7946C36.8479 27.8363 36.848 27.8779 36.8481 27.9208C36.8483 28.0612 36.8481 28.2015 36.848 28.3419C36.848 28.4422 36.8481 28.5425 36.8482 28.6428C36.8485 28.9158 36.8484 29.1888 36.8482 29.4617C36.8481 29.7468 36.8482 30.0319 36.8483 30.317C36.8484 30.7958 36.8483 31.2746 36.848 31.7534C36.8477 32.3077 36.8478 32.8621 36.8481 33.4165C36.8483 33.8916 36.8484 34.3668 36.8482 34.842C36.8482 35.1261 36.8481 35.4103 36.8483 35.6944C36.8485 35.9614 36.8484 36.2285 36.8481 36.4955C36.848 36.5938 36.848 36.6921 36.8481 36.7904C36.8483 36.924 36.8481 37.0576 36.8478 37.1911C36.8479 37.2306 36.8477 37.264 36.8482 37.3106C36.852 37.6554 36.8566 38.0044 36.8478 38.1903C36.8414 38.243 36.8544 38.315 36.8478 38.3694C36.7018 38.4425 36.6226 38.4086 36.4594 38.4083C36.4085 38.4083 36.4085 38.4083 36.3566 38.4083C36.2443 38.4083 36.132 38.4079 36.0196 38.4075C35.9418 38.4074 35.864 38.4073 35.7862 38.4072C35.5813 38.4071 35.3763 38.4065 35.1714 38.406C34.9623 38.4055 34.7532 38.4052 34.5442 38.405C34.1338 38.4044 33.7235 38.4035 33.3132 38.4025C33.209 38.1877 33.197 37.9965 33.1998 37.7622C33.1998 37.7237 33.1998 37.6853 33.1999 37.6457C33.2001 37.5164 33.2011 37.3872 33.2021 37.258C33.2024 37.1645 33.2027 37.0711 33.2029 36.9777C33.2035 36.7743 33.2044 36.571 33.2056 36.3676C33.2075 36.0367 33.2087 35.7058 33.2099 35.3749C33.2113 34.9567 33.213 34.5386 33.2149 34.1204C33.2186 33.2983 33.221 32.4762 33.223 31.6541C33.2233 31.5247 33.2237 31.3953 33.224 31.2659C33.2245 31.0697 33.2249 30.8736 33.2254 30.6774C33.2272 29.9376 33.2292 29.1979 33.2313 28.4581C33.2314 28.4243 33.2315 28.3905 33.2316 28.3557C33.2348 27.2263 33.2395 26.0969 33.2448 24.9675C33.2501 23.8429 33.2533 22.7182 33.2549 21.5936C33.2559 20.9 33.2585 20.2065 33.2631 19.513C33.2661 19.0374 33.2673 18.5618 33.267 18.0862C33.2668 17.8119 33.2675 17.5377 33.2705 17.2635C33.2732 17.012 33.2735 16.7606 33.2719 16.5091C33.2718 16.4186 33.2725 16.328 33.2742 16.2374C33.2871 15.5026 33.0738 15.0505 32.575 14.5149C32.0968 14.0482 31.5109 13.8531 30.8538 13.8608C30.5513 13.8912 30.3089 13.9992 30.0407 14.1368C29.9827 14.1621 29.9247 14.1875 29.8649 14.2136C29.6115 14.3621 29.43 14.5967 29.2449 14.8215C29.2069 14.8673 29.1689 14.9131 29.1297 14.9603C28.8931 15.2764 28.7825 15.4893 28.7899 15.8881C28.7898 15.929 28.7897 15.97 28.7897 16.0122C28.7897 16.149 28.7912 16.2857 28.7926 16.4225C28.7929 16.521 28.7932 16.6195 28.7933 16.7181C28.7939 16.9869 28.7958 17.2556 28.7979 17.5244C28.8 17.811 28.8008 18.0977 28.8018 18.3843C28.8036 18.8705 28.8061 19.3568 28.8091 19.843C28.8132 20.5082 28.8161 21.1734 28.8185 21.8386C28.8232 23.1404 28.8295 24.4422 28.8363 25.744C28.8395 26.357 28.8425 26.9699 28.8456 27.5828C28.8518 28.8345 28.8581 30.0861 28.8646 31.3378C28.8984 31.3378 28.9321 31.3378 28.9669 31.3378C29.0071 31.5154 29.0245 31.6793 29.0245 31.8613C29.0248 31.9405 29.0248 31.9405 29.025 32.0214C29.0248 32.1075 29.0248 32.1075 29.0247 32.1953C29.0248 32.2866 29.0248 32.2866 29.0249 32.3798C29.0251 32.5462 29.0251 32.7127 29.0249 32.8792C29.0248 33.0534 29.0249 33.2276 29.025 33.4018C29.0251 33.6941 29.0249 33.9864 29.0247 34.2786C29.0244 34.6169 29.0245 34.9552 29.0248 35.2935C29.025 35.5839 29.0251 35.8743 29.0249 36.1647C29.0249 36.3381 29.0248 36.5116 29.025 36.6851C29.0251 36.8781 29.0249 37.0712 29.0247 37.2643C29.0248 37.3221 29.0249 37.3799 29.025 37.4395C29.0248 37.4917 29.0247 37.544 29.0245 37.5978C29.0245 37.6663 29.0245 37.6663 29.0245 37.7362C29.018 37.8393 29.018 37.8393 28.9669 37.8905C28.9551 37.9595 28.9459 38.0289 28.9381 38.0985C28.9308 38.165 28.9234 38.2315 28.9158 38.3001C28.882 38.3001 28.8483 38.3001 28.8135 38.3001C28.8135 38.3339 28.8135 38.3677 28.8135 38.4025C28.3619 38.406 27.9104 38.4088 27.4588 38.4104C27.2491 38.4112 27.0394 38.4123 26.8297 38.4141C26.6275 38.4157 26.4253 38.4166 26.223 38.417C26.1458 38.4173 26.0685 38.4179 25.9912 38.4187C25.8832 38.4198 25.7753 38.42 25.6673 38.4199C25.6057 38.4202 25.5442 38.4206 25.4808 38.4209C25.4332 38.4148 25.3855 38.4087 25.3365 38.4025C25.2322 38.2459 25.2215 38.2164 25.2219 38.0406C25.2218 37.9979 25.2216 37.9552 25.2215 37.9112C25.2219 37.8643 25.2222 37.8173 25.2226 37.7688C25.2226 37.7188 25.2226 37.6687 25.2226 37.6171C25.2226 37.4475 25.2234 37.2779 25.2242 37.1082C25.2244 36.9858 25.2246 36.8633 25.2247 36.7409C25.225 36.4733 25.2256 36.2057 25.2265 35.9382C25.2279 35.5022 25.2287 35.0662 25.2293 34.6302C25.2296 34.4773 25.2298 34.3243 25.2301 34.1714C25.2301 34.1329 25.2302 34.0944 25.2302 34.0547C25.2307 33.7743 25.2312 33.4939 25.2318 33.2135C25.2343 32.0073 25.2341 30.8012 25.2328 29.595C25.2311 27.9876 25.2311 26.3802 25.2329 24.7728C25.2331 24.5394 25.2334 24.3061 25.2336 24.0727C25.2336 24.0264 25.2337 23.9801 25.2337 23.9324C25.2344 23.1667 25.2337 22.401 25.2324 21.6353C25.2311 20.8344 25.2314 20.0336 25.2331 19.2327C25.2341 18.7455 25.2339 18.2584 25.2322 17.7712C25.2311 17.4412 25.2315 17.1112 25.2331 16.7812C25.234 16.5919 25.2342 16.4027 25.2326 16.2134C25.2264 15.4083 25.2383 14.7716 25.6944 14.0856C25.7518 13.9854 25.8072 13.8843 25.8623 13.7829C26.3354 12.9135 27.1699 11.9931 28.0465 11.5259C28.0962 11.4984 28.1458 11.4708 28.1969 11.4424C28.2912 11.3903 28.3857 11.3389 28.4807 11.2884C28.5646 11.2429 28.6472 11.195 28.7282 11.1445C29.3339 10.7923 29.9975 10.8288 30.6762 10.8337Z" fill="#B4B4BF"/>
<path d="M1.45212 15.0003C1.49222 15.0002 1.53233 15.0002 1.57365 15.0001C1.65863 15.0001 1.74361 15.0002 1.82858 15.0004C1.9582 15.0007 2.0878 15.0004 2.21741 15.0001C2.3 15.0001 2.38259 15.0002 2.46518 15.0003C2.50381 15.0002 2.54243 15.0001 2.58223 15C2.77682 15.0008 2.95544 15.0144 3.14489 15.0583C3.21133 15.0646 3.27777 15.071 3.34622 15.0775C3.54493 15.1031 3.6947 15.1443 3.86075 15.2631C3.97394 15.5569 3.97731 15.8324 3.97543 16.1445C3.97553 16.1958 3.97563 16.2471 3.97573 16.3C3.97592 16.4688 3.97537 16.6375 3.9748 16.8063C3.97474 16.9237 3.97471 17.0412 3.97473 17.1587C3.97465 17.4043 3.97422 17.65 3.97354 17.8957C3.97267 18.2111 3.97247 18.5265 3.97251 18.842C3.9725 19.0843 3.97222 19.3266 3.97185 19.5688C3.97168 19.6852 3.97158 19.8016 3.97154 19.9179C3.97143 20.0801 3.97099 20.2422 3.97044 20.4044C3.97046 20.4527 3.97049 20.5011 3.97051 20.5509C3.97029 20.5949 3.97007 20.6389 3.96985 20.6843C3.96976 20.7226 3.96968 20.7609 3.96959 20.8004C3.96301 20.8943 3.96301 20.8943 3.91188 20.9967C3.86126 20.9967 3.81064 20.9967 3.75848 20.9967C3.75875 21.0322 3.75902 21.0676 3.75929 21.1041C3.76039 21.2731 3.76103 21.4421 3.76168 21.611C3.76211 21.6667 3.76253 21.7223 3.76298 21.7796C3.76393 22.1163 3.75625 22.4511 3.74027 22.7874C3.70719 23.4897 3.69943 24.1906 3.69911 24.8935C3.69887 25.0168 3.69862 25.14 3.69834 25.2633C3.69761 25.628 3.69729 25.9927 3.69704 26.3574C3.69691 26.53 3.69672 26.7026 3.69652 26.8752C3.6959 27.4496 3.69538 28.0241 3.6952 28.5985C3.69519 28.635 3.69518 28.6715 3.69517 28.7091C3.69516 28.7457 3.69515 28.7822 3.69513 28.8199C3.69511 28.894 3.69509 28.968 3.69507 29.0421C3.69505 29.0788 3.69504 29.1155 3.69503 29.1534C3.69483 29.7515 3.69393 30.3495 3.69275 30.9476C3.69153 31.564 3.6909 32.1803 3.69084 32.7967C3.69079 33.1419 3.6905 33.4871 3.68957 33.8322C3.68873 34.1559 3.68861 34.4795 3.68906 34.8032C3.6891 34.9219 3.68888 35.0407 3.68837 35.1594C3.68773 35.3213 3.68802 35.4832 3.68856 35.6451C3.68815 35.6922 3.68773 35.7393 3.68731 35.7878C3.68935 36.0519 3.72111 36.2252 3.86075 36.4571C3.88368 36.5302 3.90515 36.6038 3.92466 36.6779C4.00096 36.9215 4.13518 37.0913 4.29917 37.284C4.37207 37.3786 4.37207 37.3786 4.37207 37.481C4.43957 37.5148 4.50706 37.5486 4.5766 37.5834C4.5766 37.6172 4.5766 37.6509 4.5766 37.6858C4.60475 37.691 4.63289 37.6963 4.66189 37.7018C4.80738 37.7447 4.92212 37.8136 5.05278 37.8905C5.35878 38.0608 5.35878 38.0608 5.70152 38.0953C6.15078 37.9603 6.15078 37.9603 6.51965 37.6858C6.57027 37.6858 6.62089 37.6858 6.67304 37.6858C6.68702 37.6553 6.70099 37.6248 6.71539 37.5934C6.7733 37.4847 6.83241 37.4105 6.91593 37.321C7.46773 36.6875 7.56537 36.0633 7.56269 35.2462C7.56297 35.1598 7.56331 35.0734 7.56372 34.987C7.56464 34.7506 7.56461 34.5142 7.56443 34.2778C7.5644 34.0225 7.56525 33.7672 7.56599 33.5119C7.56715 33.0699 7.56776 32.628 7.56799 32.186C7.56832 31.5469 7.56949 30.9078 7.57087 30.2688C7.57308 29.2319 7.57461 28.195 7.57572 27.1582C7.57679 26.1511 7.57819 25.144 7.58001 24.1369C7.58013 24.0748 7.58024 24.0127 7.58035 23.9487C7.58092 23.6372 7.58149 23.3256 7.58207 23.0141C7.58683 20.4304 7.59049 17.8467 7.59343 15.2631C7.66697 15.2378 7.74057 15.2126 7.81421 15.1876C7.85519 15.1736 7.89617 15.1596 7.93839 15.1452C8.07093 15.1041 8.1913 15.0884 8.32986 15.0851C8.37637 15.0835 8.42287 15.0819 8.47078 15.0803C8.51768 15.0794 8.56457 15.0784 8.61289 15.0775C8.70817 15.0749 8.80345 15.0721 8.89871 15.0691C8.94024 15.0682 8.98176 15.0673 9.02454 15.0664C9.13103 15.0645 9.13103 15.0645 9.22968 15.0071C9.30252 15.0022 9.37559 15.0004 9.44859 15.0003C9.49163 15.0002 9.53467 15.0002 9.57902 15.0001C9.62404 15.0003 9.66906 15.0005 9.71544 15.0007C9.76046 15.0005 9.80548 15.0003 9.85186 15.0001C9.91642 15.0002 9.91642 15.0002 9.98229 15.0003C10.0218 15.0004 10.0613 15.0004 10.102 15.0005C10.2012 15.0071 10.2012 15.0071 10.3035 15.0583C10.3737 15.066 10.4442 15.071 10.5148 15.0745C10.556 15.0766 10.5972 15.0788 10.6396 15.081C10.6827 15.083 10.7257 15.085 10.7701 15.0871C10.8135 15.0893 10.8569 15.0915 10.9017 15.0938C11.0091 15.0992 11.1165 15.1044 11.2239 15.1095C11.3019 15.2658 11.2821 15.4287 11.2816 15.6002C11.2817 15.6604 11.2817 15.6604 11.2819 15.7219C11.2821 15.8557 11.2819 15.9895 11.2818 16.1234C11.2818 16.2173 11.2819 16.3113 11.2819 16.4053C11.282 16.6035 11.2819 16.8018 11.2817 17C11.2814 17.2496 11.2815 17.4992 11.2818 17.7488C11.282 17.9439 11.282 18.1389 11.2818 18.3339C11.2818 18.4256 11.2818 18.5173 11.282 18.609C11.2824 19.0851 11.2764 19.56 11.2563 20.0357C11.2211 20.8832 11.2182 21.7298 11.2217 22.5778C11.2224 22.7823 11.2229 22.9867 11.2233 23.1911C11.2242 23.5437 11.2252 23.8962 11.2263 24.2488C11.228 24.807 11.229 25.3652 11.2299 25.9233C11.2301 26.0189 11.2302 26.1145 11.2304 26.2101C11.2306 26.3548 11.2309 26.4995 11.2311 26.6443C11.232 27.1869 11.233 27.7295 11.234 28.2721C11.2341 28.3215 11.2342 28.371 11.2343 28.422C11.2359 29.2254 11.2383 30.0287 11.2408 30.8321C11.2434 31.6605 11.2451 32.4888 11.2458 33.3171C11.2463 33.8263 11.2476 34.3354 11.2499 34.8446C11.2515 35.1933 11.252 35.5421 11.2519 35.8909C11.2518 36.0915 11.2522 36.2922 11.2536 36.4928C11.2593 37.2982 11.2535 38.0488 10.9682 38.812C10.9507 38.8644 10.9331 38.9167 10.9151 38.9707C10.8066 39.2905 10.6237 39.5303 10.4057 39.7847C10.3798 39.8157 10.3538 39.8467 10.327 39.8787C10.2789 39.9357 10.2302 39.9923 10.1811 40.0484C10.1268 40.1109 10.0734 40.1742 10.0208 40.2381C9.80736 40.4936 9.58077 40.6934 9.30957 40.8853C9.26973 40.9138 9.22989 40.9422 9.18885 40.9715C8.68497 41.3229 8.15568 41.6326 7.5423 41.73C7.48746 41.748 7.43262 41.7659 7.37612 41.7844C7.14284 41.8428 6.91714 41.8546 6.67744 41.866C6.52219 41.8757 6.52219 41.8757 6.39833 41.9351C6.25616 41.989 6.1532 41.9992 6.00193 41.9996C5.95315 41.9997 5.90438 41.9999 5.85412 42C5.80377 41.9996 5.75341 41.9992 5.70152 41.9988C5.65117 41.9992 5.60081 41.9996 5.54892 42C5.50015 41.9999 5.45137 41.9997 5.40112 41.9996C5.35696 41.9995 5.3128 41.9994 5.2673 41.9992C5.12412 41.9845 5.01529 41.9398 4.8834 41.8836C4.78464 41.8728 4.68545 41.8655 4.58619 41.8612C4.35776 41.8458 4.17517 41.8141 3.96861 41.7156C3.85035 41.6703 3.85035 41.6703 3.67539 41.6642C3.40305 41.6337 3.18924 41.5072 2.95314 41.3749C2.86819 41.3286 2.78323 41.2822 2.69828 41.2359C2.64274 41.205 2.64274 41.205 2.58608 41.1735C2.4837 41.1176 2.38024 41.0649 2.27563 41.0133C2.27563 40.9795 2.27563 40.9458 2.27563 40.9109C2.2345 40.8919 2.2345 40.8919 2.19254 40.8725C2.04132 40.7929 1.90251 40.7044 1.76431 40.6038C1.76431 40.57 1.76431 40.5362 1.76431 40.5014C1.71369 40.4845 1.66306 40.4676 1.61091 40.4502C1.53781 40.374 1.53781 40.374 1.4639 40.2806C1.37512 40.1687 1.30041 40.0893 1.18247 40.0069C0.994598 39.8389 0.901684 39.6433 0.78959 39.4199C0.767143 39.3758 0.744695 39.3317 0.721567 39.2863C0.659267 39.1627 0.598033 39.0387 0.537123 38.9144C0.500936 38.8424 0.500936 38.8424 0.464019 38.769C0.0815596 37.9245 0.157766 36.9215 0.162139 36.0187C0.162916 35.8223 0.162786 35.626 0.162772 35.4297C0.162865 35.09 0.163511 34.7503 0.164538 34.4105C0.166025 33.9165 0.16659 33.4225 0.166936 32.9285C0.167521 32.123 0.168751 31.3175 0.17043 30.512C0.172045 29.7367 0.173498 28.9613 0.174625 28.1859C0.174694 28.1384 0.174763 28.0909 0.174834 28.0419C0.175588 27.5196 0.176265 26.9974 0.176851 26.4751C0.176903 26.4288 0.176955 26.3824 0.177009 26.3347C0.177216 26.149 0.177423 25.9633 0.177619 25.7777C0.178144 25.2842 0.178796 24.7908 0.179911 24.2974C0.18538 21.8826 0.18538 21.8826 0.160044 19.468C0.159258 19.413 0.158471 19.3581 0.157661 19.3014C0.155387 19.1501 0.152445 18.9987 0.149247 18.8474C0.148655 18.8038 0.148063 18.7602 0.147453 18.7152C0.14189 18.4961 0.12092 18.3313 0.0257957 18.1299C0.0121215 18.0001 0.0121215 18.0001 0.0109403 17.8613C0.0102878 17.8091 0.00963541 17.7568 0.0089632 17.7029C0.0088494 17.647 0.00873559 17.591 0.00861834 17.5334C0.00827796 17.4754 0.00793758 17.4174 0.00758689 17.3576C0.00706976 17.2351 0.00682923 17.1126 0.00684568 16.9901C0.00662199 16.8029 0.00476384 16.6158 0.00282597 16.4286C0.00252591 16.3095 0.00232295 16.1903 0.00222676 16.0712C0.00149193 16.0153 0.000757097 15.9595 0 15.9019C0.00186997 15.5902 0.0142367 15.3938 0.230326 15.1607C0.425948 15.0954 0.613717 15.0879 0.818552 15.0727C1.03576 15.0482 1.22476 14.9997 1.45212 15.0003Z" fill="#B4B4BF"/>
<path d="M18.4879 14.7479C18.6854 14.7964 18.8729 14.812 19.0759 14.8215C19.4928 14.8472 19.8746 14.9437 20.2743 15.0583C20.3293 15.0736 20.3843 15.0889 20.4409 15.1047C20.7759 15.2063 21.0615 15.351 21.3589 15.5352C21.5053 15.6237 21.6551 15.6992 21.8083 15.775C21.9127 15.84 22.0147 15.9088 22.1151 15.9798C22.162 16.0123 22.162 16.0123 22.2098 16.0456C22.4902 16.2511 22.7373 16.4879 22.9844 16.7317C23.0187 16.7651 23.053 16.7986 23.0884 16.8331C23.1205 16.8653 23.1526 16.8975 23.1857 16.9306C23.2146 16.9595 23.2436 16.9883 23.2734 17.018C23.3496 17.1154 23.3726 17.1899 23.3934 17.3108C23.4272 17.3108 23.4609 17.3108 23.4957 17.3108C23.8334 17.7248 24.0574 18.2826 24.0867 18.8105C24.0888 18.8488 24.091 18.887 24.0932 18.9265C24.119 19.4336 24.1152 19.9408 24.1135 20.4484C24.1133 20.5604 24.1131 20.6725 24.113 20.7845C24.1127 21.0239 24.1122 21.2632 24.1116 21.5026C24.1106 21.8813 24.1101 22.2599 24.1097 22.6386C24.1085 23.7146 24.1067 24.7907 24.1044 25.8667C24.1031 26.4624 24.1022 27.0581 24.1018 27.6538C24.1014 28.0302 24.1006 28.4065 24.0995 28.7829C24.0989 29.0166 24.0987 29.2504 24.0987 29.4842C24.0986 29.5925 24.0983 29.7008 24.0978 29.8091C24.0972 29.957 24.0972 30.1049 24.0973 30.2528C24.097 30.2956 24.0967 30.3384 24.0963 30.3825C24.0974 30.6336 24.1353 30.8402 24.2116 31.0818C24.2205 31.2223 24.2251 31.3573 24.224 31.4976C24.2241 31.5375 24.2242 31.5775 24.2243 31.6186C24.2245 31.7494 24.2239 31.8801 24.2233 32.0109C24.2233 32.1021 24.2233 32.1933 24.2233 32.2845C24.2232 32.4749 24.2228 32.6654 24.2221 32.8558C24.2212 33.1004 24.221 33.3451 24.2211 33.5897C24.221 33.7777 24.2208 33.9656 24.2204 34.1536C24.2202 34.2438 24.2201 34.3341 24.2201 34.4244C24.22 34.55 24.2195 34.6756 24.219 34.8012C24.219 34.8388 24.219 34.8763 24.2191 34.915C24.2174 35.1714 24.2174 35.1714 24.1604 35.2285C24.1554 35.3003 24.1537 35.3724 24.1536 35.4444C24.1535 35.5097 24.1535 35.5097 24.1534 35.5762C24.1536 35.622 24.1538 35.6677 24.154 35.7148C24.1538 35.7605 24.1536 35.8063 24.1534 35.8534C24.1535 35.8969 24.1536 35.9404 24.1536 35.9852C24.1537 36.0454 24.1537 36.0454 24.1538 36.1069C24.1501 36.202 24.1501 36.202 24.2116 36.2523C24.218 36.3729 24.2212 36.4919 24.2219 36.6125C24.2222 36.6489 24.2225 36.6854 24.2228 36.723C24.2233 36.8005 24.2236 36.878 24.2238 36.9555C24.2243 37.0729 24.2259 37.1903 24.2275 37.3077C24.2326 38.0122 24.2326 38.0122 24.0582 38.3513C23.9658 38.4437 23.8247 38.4109 23.7002 38.4123C23.6016 38.4136 23.6016 38.4136 23.5011 38.4148C23.4287 38.4154 23.3563 38.416 23.284 38.4165C23.2477 38.4167 23.2114 38.417 23.174 38.4173C22.9817 38.4187 22.7895 38.4196 22.5972 38.4204C22.3987 38.4212 22.2003 38.4235 22.0018 38.4261C21.8491 38.4279 21.6965 38.4285 21.5438 38.4287C21.4707 38.4291 21.3975 38.4299 21.3244 38.4311C21.2218 38.4327 21.1193 38.4326 21.0167 38.4323C20.9584 38.4327 20.9001 38.4332 20.84 38.4336C20.6285 38.3915 20.5617 38.3139 20.4277 38.1465C20.4028 38.0077 20.3937 37.9011 20.3963 37.7627C20.3959 37.7054 20.3959 37.7054 20.3954 37.6469C20.3948 37.5192 20.3959 37.3915 20.3971 37.2638C20.397 37.1721 20.3968 37.0804 20.3965 36.9888C20.396 36.74 20.3971 36.4913 20.3985 36.2425C20.3997 35.9824 20.3995 35.7222 20.3995 35.4621C20.3998 35.0254 20.401 34.5888 20.4028 34.1521C20.405 33.6467 20.4059 33.1413 20.406 32.6359C20.4062 32.0984 20.4072 31.5609 20.4084 31.0233C20.4088 30.8682 20.409 30.713 20.4091 30.5578C20.4094 30.3144 20.4102 30.071 20.4115 29.8276C20.4119 29.738 20.4121 29.6485 20.4121 29.559C20.4122 29.4372 20.4129 29.3154 20.4137 29.1936C20.4136 29.1578 20.4135 29.122 20.4133 29.0852C20.4161 28.841 20.4161 28.841 20.53 28.7269C20.5455 28.5943 20.5455 28.5943 20.5427 28.437C20.5429 28.3754 20.5431 28.3137 20.5433 28.2502C20.543 28.1815 20.5427 28.1128 20.5424 28.0441C20.5425 27.972 20.5426 27.9 20.5427 27.8279C20.543 27.6319 20.5426 27.436 20.5421 27.24C20.5416 27.0352 20.5417 26.8305 20.5417 26.6257C20.5417 26.2819 20.5412 25.9381 20.5405 25.5943C20.5397 25.1962 20.5395 24.7982 20.5395 24.4002C20.5395 24.0179 20.5393 23.6356 20.5388 23.2533C20.5387 23.0903 20.5386 22.9273 20.5385 22.7643C20.5385 22.5726 20.5382 22.3808 20.5377 22.1891C20.5375 22.1185 20.5374 22.048 20.5375 21.9774C20.5375 21.8815 20.5372 21.7856 20.5368 21.6897C20.5368 21.6358 20.5367 21.582 20.5366 21.5266C20.5435 21.4084 20.5435 21.4084 20.4789 21.3551C20.475 21.1979 20.4742 21.0419 20.4757 20.8847C20.476 20.8132 20.476 20.8132 20.4763 20.7402C20.4771 20.5355 20.4785 20.3309 20.4799 20.1262C20.4809 19.977 20.4815 19.8277 20.4821 19.6785C20.4825 19.6329 20.4829 19.5873 20.4834 19.5403C20.5018 19.0149 20.5018 19.0149 20.3255 18.5394C20.3255 18.4888 20.3255 18.4381 20.3255 18.3859C20.2917 18.3859 20.258 18.3859 20.2232 18.3859C20.1698 18.326 20.1191 18.2636 20.0698 18.2003C19.6748 17.7397 19.1089 17.511 18.5129 17.4448C17.7583 17.4194 17.124 17.6658 16.5417 18.1299C16.4056 18.2748 16.2938 18.4257 16.1837 18.5906C16.15 18.6244 16.1162 18.6582 16.0815 18.693C15.9953 19.1624 16.0257 19.6569 16.0303 20.1328C16.0317 20.2748 16.0327 20.4168 16.0335 20.5588C16.0341 20.6208 16.0347 20.6829 16.0353 20.7468C16.0303 20.8943 16.0303 20.8943 15.9792 20.9967C15.975 21.071 15.974 21.1454 15.9746 21.2198C15.9749 21.2671 15.9752 21.3144 15.9755 21.3631C15.9761 21.4155 15.9767 21.4679 15.9773 21.5219C15.9777 21.5775 15.9781 21.6331 15.9785 21.6904C15.98 21.8793 15.9818 22.0682 15.9836 22.2572C15.9847 22.3939 15.9858 22.5306 15.9868 22.6674C15.9892 22.9662 15.9917 23.265 15.9943 23.5638C15.9985 24.0433 16.0022 24.5228 16.0058 25.0023C16.0061 25.0434 16.0065 25.0845 16.0068 25.1268C16.0084 25.3397 16.01 25.5526 16.0116 25.7655C16.0129 25.9423 16.0142 26.1191 16.0156 26.2959C16.0319 28.4436 16.045 30.5914 16.0567 32.7391C16.0598 33.307 16.0629 33.8749 16.0664 34.4428C16.0693 34.931 16.0721 35.4192 16.0746 35.9074C16.0759 36.1594 16.0773 36.4114 16.079 36.6634C16.0804 36.8956 16.0817 37.1278 16.0827 37.3601C16.0832 37.4447 16.0837 37.5294 16.0843 37.614C16.0851 37.7287 16.0856 37.8434 16.086 37.958C16.0866 38.0541 16.0866 38.0541 16.0871 38.152C16.0815 38.3001 16.0815 38.3001 16.0303 38.4025C15.6005 38.4036 15.1707 38.4046 14.7409 38.4051C14.5413 38.4054 14.3417 38.4057 14.1421 38.4063C13.9495 38.4069 13.7569 38.4072 13.5643 38.4073C13.4908 38.4074 13.4173 38.4076 13.3439 38.4079C13.2409 38.4082 13.138 38.4083 13.035 38.4083C12.9764 38.4084 12.9178 38.4085 12.8575 38.4086C12.7281 38.4033 12.6259 38.3849 12.5022 38.3513C12.4612 38.0066 12.4449 37.6697 12.4502 37.3228C12.4508 37.2733 12.4513 37.2238 12.4518 37.1728C12.453 37.065 12.4543 36.9572 12.4557 36.8494C12.458 36.6735 12.4599 36.4976 12.4617 36.3216C12.4644 36.0648 12.4672 35.8079 12.4701 35.551C12.478 34.8484 12.4845 34.1457 12.4903 33.443C12.4908 33.3881 12.4908 33.3881 12.4913 33.3321C12.5046 31.7217 12.5022 30.1114 12.4958 28.501C12.4944 28.1397 12.4933 27.7785 12.4922 27.4173C12.4912 27.0917 12.4902 26.7661 12.4892 26.4405C12.4891 26.4048 12.489 26.3691 12.4889 26.3323C12.4861 25.4483 12.4824 24.5644 12.4773 23.6805C12.4738 23.0556 12.4716 22.4308 12.4706 21.8059C12.47 21.4604 12.4687 21.115 12.4659 20.7695C12.4633 20.4497 12.4623 20.13 12.4626 19.8101C12.4624 19.6938 12.4617 19.5774 12.4602 19.4611C12.4495 18.5672 12.5942 18.0134 13.1669 17.3108C13.2204 17.2384 13.2736 17.1659 13.3267 17.0932C13.4346 16.9485 13.5507 16.8242 13.6782 16.6965C13.7014 16.6542 13.7246 16.612 13.7485 16.5685C13.854 16.4061 13.9768 16.3416 14.1384 16.2357C14.1938 16.1803 14.2481 16.1236 14.3014 16.0662C14.5239 15.8365 14.785 15.6807 15.0588 15.519C15.0986 15.4952 15.1383 15.4714 15.1793 15.4468C15.8323 15.0685 16.5453 14.8479 17.2987 14.8133C17.444 14.8035 17.5735 14.7826 17.7145 14.7479C17.9832 14.682 18.2192 14.682 18.4879 14.7479Z" fill="#B4B4BF"/>
<path d="M59.6664 14.6909C59.7548 14.6899 59.7548 14.6899 59.8449 14.6889C59.909 14.6885 59.9731 14.6881 60.0392 14.6877C60.1373 14.6871 60.1373 14.6871 60.2373 14.6865C60.376 14.6857 60.5147 14.6852 60.6533 14.6848C60.8311 14.6843 61.0088 14.6825 61.1865 14.6805C61.3559 14.6788 61.5252 14.6786 61.6946 14.6781C61.7585 14.6772 61.8224 14.6763 61.8883 14.6754C61.9771 14.6756 61.9771 14.6756 62.0677 14.6759C62.1199 14.6756 62.1721 14.6753 62.2258 14.675C62.3565 14.6999 62.3565 14.6999 62.4491 14.7906C62.5114 14.9075 62.534 14.9847 62.5447 15.1158C62.5479 15.1562 62.5512 15.1966 62.5546 15.2382C62.5654 15.4521 62.5683 15.6653 62.5678 15.8794C62.5679 15.9267 62.5679 15.9741 62.568 16.0229C62.568 16.1223 62.5679 16.2216 62.5677 16.321C62.5674 16.4724 62.5677 16.6238 62.568 16.7753C62.568 16.8723 62.5679 16.9694 62.5678 17.0664C62.5679 17.1113 62.5681 17.1561 62.5682 17.2024C62.5657 17.8489 62.5657 17.8489 62.4396 18.0211C62.2751 18.1351 62.1263 18.1363 61.9331 18.1365C61.878 18.1367 61.8228 18.1368 61.7661 18.137C61.7066 18.1369 61.6472 18.1368 61.5859 18.1367C61.525 18.1367 61.464 18.1368 61.4012 18.1368C61.2724 18.1369 61.1435 18.1368 61.0147 18.1366C60.8166 18.1363 60.6185 18.1366 60.4205 18.1369C60.2955 18.1369 60.1705 18.1368 60.0456 18.1367C59.9859 18.1368 59.9263 18.1369 59.8648 18.137C59.7826 18.1368 59.7826 18.1368 59.6988 18.1365C59.6503 18.1365 59.6018 18.1364 59.5519 18.1364C59.442 18.1299 59.442 18.1299 59.3908 18.0787C59.3147 18.0743 59.2384 18.0732 59.1621 18.0737C59.0932 18.0739 59.0932 18.0739 59.0228 18.0742C58.9745 18.0746 58.9261 18.0751 58.8763 18.0755C58.8278 18.0757 58.7792 18.076 58.7292 18.0762C58.6089 18.0768 58.4885 18.0776 58.3682 18.0787C58.2729 18.2411 58.2534 18.3591 58.2543 18.5464C58.2543 18.5986 58.2543 18.6509 58.2543 18.7047C58.2549 18.7608 58.2554 18.8168 58.2559 18.8746C58.2561 18.9323 58.2562 18.9899 58.2564 19.0493C58.2569 19.2335 58.2582 19.4176 58.2595 19.6017C58.26 19.7265 58.2605 19.8514 58.2609 19.9762C58.262 20.2823 58.2638 20.5883 58.2659 20.8943C58.2997 20.8943 58.3334 20.8943 58.3682 20.8943C58.3835 23.8055 58.3978 26.7167 58.4103 29.6279C58.4111 29.8091 58.4119 29.9903 58.4126 30.1715C58.4131 30.29 58.4136 30.4085 58.4142 30.527C58.4176 31.3255 58.4214 32.124 58.4257 32.9225C58.429 33.5506 58.4317 34.1787 58.4334 34.8068C58.4343 35.124 58.4355 35.4411 58.4377 35.7583C58.4396 36.0469 58.4405 36.3355 58.4407 36.6241C58.441 36.7258 58.4415 36.8275 58.4425 36.9292C58.4514 37.9031 58.4514 37.9031 58.2148 38.3513C58.1241 38.442 57.9928 38.409 57.8701 38.4091C57.7759 38.4093 57.7759 38.4093 57.6797 38.4096C57.6106 38.4095 57.5415 38.4094 57.4724 38.4093C57.4018 38.4093 57.3313 38.4093 57.2608 38.4094C57.1127 38.4095 56.9646 38.4094 56.8166 38.4091C56.6269 38.4088 56.4373 38.409 56.2476 38.4093C56.1018 38.4095 55.9561 38.4094 55.8103 38.4093C55.7404 38.4093 55.6705 38.4093 55.6006 38.4094C55.5027 38.4096 55.4048 38.4093 55.3068 38.4091C55.2511 38.409 55.1954 38.409 55.138 38.409C55.0117 38.4033 54.91 38.384 54.7889 38.3513C54.7872 37.4053 54.7862 36.4592 54.7857 35.5132C54.7857 35.4766 54.7857 35.4399 54.7856 35.4021C54.7838 32.3035 54.7997 29.2051 54.8209 26.1066C54.8319 24.5057 54.8427 22.9049 54.8445 21.304C54.8447 21.1638 54.845 21.0236 54.8453 20.8835C54.8476 19.9472 54.8274 19.0141 54.7889 18.0787C54.7393 18.0789 54.6896 18.0791 54.6385 18.0794C54.1713 18.0815 53.704 18.083 53.2368 18.084C52.9966 18.0845 52.7563 18.0853 52.5161 18.0864C52.2844 18.0875 52.0526 18.0881 51.8209 18.0884C51.7324 18.0886 51.6439 18.089 51.5554 18.0895C51.4316 18.0903 51.3078 18.0904 51.1841 18.0903C51.1473 18.0907 51.1106 18.0911 51.0727 18.0914C50.8849 18.0906 50.808 18.0837 50.6471 17.9763C50.5961 17.823 50.5892 17.7205 50.5886 17.5603C50.5883 17.5068 50.5879 17.4533 50.5876 17.3982C50.5875 17.3405 50.5875 17.2827 50.5874 17.2232C50.5872 17.1638 50.5871 17.1044 50.5869 17.0432C50.5866 16.9175 50.5865 16.7917 50.5865 16.666C50.5864 16.4736 50.5855 16.2813 50.5845 16.089C50.5844 15.9668 50.5843 15.8447 50.5842 15.7226C50.5839 15.6651 50.5835 15.6075 50.5831 15.5482C50.5833 15.4944 50.5834 15.4406 50.5836 15.3852C50.5835 15.338 50.5834 15.2908 50.5834 15.2422C50.5972 15.0968 50.6381 14.986 50.6983 14.8535C50.7898 14.8527 50.7898 14.8527 50.8833 14.8519C51.4581 14.8469 52.0329 14.8417 52.6077 14.8361C52.9033 14.8333 53.1988 14.8306 53.4943 14.8281C53.7795 14.8256 54.0646 14.8229 54.3497 14.8201C54.4586 14.819 54.5674 14.8181 54.6763 14.8172C54.8286 14.816 54.9809 14.8144 55.1332 14.8128C55.2009 14.8124 55.2009 14.8124 55.27 14.8119C55.3116 14.8114 55.3532 14.8109 55.3961 14.8104C55.4501 14.8099 55.4501 14.8099 55.5052 14.8094C55.6125 14.8019 55.7076 14.7779 55.8115 14.7511C55.9269 14.7469 56.0424 14.7456 56.1578 14.7461C56.2094 14.7462 56.2094 14.7462 56.2619 14.7464C56.3363 14.7465 56.4107 14.7469 56.485 14.7473C56.6025 14.7479 56.72 14.7483 56.8376 14.7485C57.0868 14.7491 57.336 14.7501 57.5852 14.7511C57.8745 14.7523 58.1638 14.7534 58.4531 14.754C58.5691 14.7543 58.6852 14.755 58.8012 14.7556C58.8719 14.7558 58.9426 14.756 59.0133 14.7561C59.0752 14.7564 59.1372 14.7567 59.201 14.7569C59.3706 14.7498 59.4805 14.6927 59.6664 14.6909Z" fill="#B4B4BF"/>
<path d="M44.3642 0.0874236C44.7288 0.224418 45.0832 0.415268 45.3885 0.65835C45.4846 0.738778 45.4846 0.738778 45.6362 0.724141C45.6457 0.768487 45.6457 0.768487 45.6553 0.81373C45.6876 0.93011 45.7327 1.02748 45.7896 1.13369C45.8233 1.13369 45.8571 1.13369 45.8918 1.13369C46.029 1.24477 46.0849 1.35972 46.1479 1.52264C46.1656 1.56787 46.1834 1.61311 46.2016 1.65972C46.2196 1.7068 46.2376 1.75389 46.2561 1.8024C46.2925 1.8958 46.3288 1.98919 46.3652 2.08257C46.389 2.14464 46.389 2.14464 46.4134 2.20796C46.4531 2.31232 46.4531 2.31232 46.5054 2.41352C46.543 2.84302 46.5106 3.16515 46.3009 3.53978C46.2725 3.59495 46.2441 3.65011 46.2148 3.70696C45.8346 4.4372 45.3232 4.95744 44.5656 5.29635C43.8161 5.46479 43.0501 5.43173 42.3637 5.07558C42.3307 5.05895 42.2978 5.04232 42.2638 5.02518C41.7001 4.70858 41.3315 4.22937 41.0854 3.64216C41.0643 3.60013 41.0433 3.55809 41.0216 3.51478C40.8027 3.05127 40.8129 2.57466 40.9754 2.09459C41.1055 1.74456 41.2607 1.42717 41.4944 1.13369C41.5211 1.09871 41.5478 1.06374 41.5753 1.0277C41.9697 0.541253 42.5216 0.193613 43.1367 0.0788248C43.5571 -0.00937767 43.9362 -0.0452078 44.3642 0.0874236Z" fill="#B4B4BF"/>
<path d="M18.2035 8.18877C18.2802 8.18882 18.2802 8.18882 18.3585 8.18887C18.7332 8.19116 18.7332 8.19116 18.7915 8.24956C18.84 8.25167 18.8885 8.25378 18.9385 8.25596C19.2372 8.29465 19.471 8.49058 19.7119 8.65911C19.752 8.68649 19.7922 8.71388 19.8335 8.7421C20.0358 8.88568 20.1501 9.00464 20.2743 9.22224C20.381 9.26719 20.381 9.26719 20.4789 9.27343C20.4831 9.31355 20.4873 9.35367 20.4916 9.39501C20.5247 9.55484 20.5647 9.65744 20.6331 9.80196C20.7707 10.1416 20.7646 10.4695 20.7601 10.8316C20.7613 10.9273 20.7613 10.9273 20.7625 11.0249C20.7601 11.5946 20.63 12.0483 20.2935 12.5082C20.2733 12.5374 20.2532 12.5666 20.2324 12.5967C20.1813 12.6687 20.1259 12.7376 20.0698 12.8058C20.0361 12.8058 20.0023 12.8058 19.9675 12.8058C19.9675 12.8396 19.9675 12.8733 19.9675 12.9082C19.4414 13.3349 18.8796 13.5418 18.2067 13.5353C18.1457 13.5359 18.1457 13.5359 18.0835 13.5365C17.354 13.5341 16.7745 13.2649 16.2428 12.7672C15.9996 12.5135 15.8309 12.2467 15.6724 11.9355C15.6483 11.8907 15.6241 11.8459 15.5993 11.7997C15.3273 11.2389 15.3306 10.6532 15.5254 10.0669C15.8258 9.33549 16.4241 8.63429 17.1552 8.30075C17.5019 8.19043 17.8425 8.1842 18.2035 8.18877Z" fill="#B4B4BF"/>
<path d="M30.8013 3.99092C30.8675 3.98983 30.8675 3.98983 30.9351 3.98872C31.0715 4.00127 31.1494 4.03691 31.2679 4.10291C31.352 4.12649 31.4361 4.15004 31.5203 4.1733C31.645 4.21112 31.7661 4.25485 31.8878 4.30128C31.9291 4.31699 31.9704 4.33269 32.0129 4.34887C32.1581 4.42041 32.2686 4.51123 32.3928 4.61484C32.4552 4.65839 32.4552 4.65839 32.5188 4.70283C32.8784 4.96217 33.0402 5.23449 33.2109 5.63871C33.2298 5.67467 33.2486 5.71064 33.268 5.74769C33.5244 6.29161 33.4062 7.25567 33.2223 7.80523C33.1028 8.1082 32.9237 8.32424 32.6996 8.55673C32.6722 8.58788 32.6449 8.61903 32.6167 8.65112C32.2137 9.09234 31.6544 9.33501 31.0633 9.37582C30.2272 9.40554 29.5837 9.25747 28.9375 8.69891C28.3875 8.17946 28.0486 7.50448 28.0209 6.73936C28.0419 6.15986 28.2637 5.66802 28.5578 5.17797C28.5817 5.13454 28.6056 5.09112 28.6301 5.04638C28.9324 4.58271 29.5724 4.25559 30.0942 4.11091C30.1801 4.094 30.2664 4.07887 30.3531 4.06651C30.515 4.04173 30.6298 3.99219 30.8013 3.99092Z" fill="#B4B4BF"/>
<path d="M75.7786 15.3068H79V38.4462H75.7786V15.3068Z" fill="#B4B4BF"/>
</svg>
