<svg width="33" height="36" viewBox="0 0 33 36" fill="none" xmlns="http://www.w3.org/2000/svg">
<path fill-rule="evenodd" clip-rule="evenodd" d="M8.35732 0H12.0135V7.88327C12.0135 11.5484 9.81977 13.7559 6.03497 13.7559C2.10026 13.7559 0 11.4547 0 7.88327V0H3.65638V7.90063C3.65638 9.4746 4.55465 10.3708 6.01627 10.3708C7.47756 10.3708 8.35732 9.4746 8.35732 7.90063V0ZM6.19366 27.2982L7.3512 27.5793C10.6157 28.3662 11.8159 29.8795 11.8159 31.7719C11.8159 34.2638 9.59074 36 5.87091 36C3.78934 36 1.22348 35.1279 0.234314 33.3337L2.50126 31.5003C3.41909 32.4308 4.45764 32.9931 5.85187 32.9931C7.05832 32.9931 8.01662 32.5903 8.01662 31.8662C8.01662 31.2852 7.57893 31.0616 6.38333 30.7618L5.16865 30.462C1.92317 29.6564 0.666131 27.8262 0.666131 26.0648C0.666131 23.7855 2.68236 21.8554 6.21235 21.8554C8.30094 21.8554 10.3842 22.7406 11.3422 24.3427L9.07544 26.1763C8.30404 25.4814 7.36409 24.9741 6.19366 24.9741C4.92994 24.9741 4.31342 25.49 4.31342 25.9706C4.31342 26.6078 4.90283 26.9797 6.19366 27.2982ZM20.964 22.2442H32.5834V25.4185H28.6096V35.5755H24.9378V25.4185H20.964V22.2442ZM29.3626 9.12922H24.1849V3.95152H29.3626V9.12922Z" fill="#B4B4BF"/>
</svg>
