<svg width="117" height="38" viewBox="0 0 117 38" fill="none" xmlns="http://www.w3.org/2000/svg">
<path d="M21.6527 28.6098C21.2642 26.7981 20.7383 24.9976 20.0892 23.2604L20.0855 23.2507C19.7508 22.3739 19.3407 21.5188 18.8679 20.7076C18.5153 20.1044 18.1187 19.5206 17.6846 18.9666C18.0724 18.4754 18.4286 17.9557 18.7461 17.4167C19.2331 16.5876 19.6611 15.7153 20.0168 14.8265C20.7839 12.9246 21.3195 10.8139 21.6332 9.37722C21.9006 8.15151 22.1771 6.60222 22.1771 6.13028V6.10717C22.1666 5.48089 21.9365 4.87401 21.5309 4.39983C21.2395 4.05761 20.8937 3.77205 20.5023 3.55137C19.9002 3.19722 19.1316 2.90497 18.1523 2.65893C16.3878 2.21755 14.0767 1.97375 11.6436 1.97375C9.21064 1.97375 6.89792 2.21681 5.12977 2.65968C4.14896 2.90795 3.3803 3.2002 2.78195 3.55212C2.39202 3.77355 2.04616 4.05835 1.75632 4.39908C1.34996 4.87549 1.12062 5.48164 1.11017 6.10717L1.10867 6.178L1.11465 6.24808C1.14752 6.63131 1.20205 7.01676 1.276 7.39401C1.33725 7.74219 1.47023 8.4557 1.68386 9.41599C2.0103 10.8527 2.55934 12.9626 3.32204 14.8511C4.07426 16.7143 5.00502 18.046 5.85212 18.9741C5.38749 19.4998 4.96095 20.0634 4.58073 20.6524C4.05035 21.4763 3.60365 22.3575 3.25257 23.2716C2.55039 25.1034 2.02449 27.1649 1.70703 28.568C1.50234 29.4613 1.36489 30.1629 1.28496 30.5938C1.12287 31.4705 1.10867 31.7047 1.10867 31.8687V31.894C1.12062 32.5196 1.35145 33.1257 1.75557 33.5969C2.04616 33.9384 2.39202 34.224 2.7827 34.4453C3.3803 34.7965 4.17062 35.097 5.13276 35.3379C6.89569 35.7807 9.20839 36.0245 11.6436 36.0245C14.0788 36.0245 16.39 35.7807 18.153 35.3386C19.1144 35.0977 19.9055 34.7973 20.503 34.4462C20.8944 34.2247 21.2404 33.9391 21.5287 33.6007C21.9365 33.125 22.1666 32.5181 22.1771 31.8926V31.8687C22.1771 31.2842 21.9119 29.8072 21.6504 28.6091L21.6527 28.6098Z" fill="#B4B4BF"/>
<path d="M12.7423 37.3073C10.1525 37.3073 7.68887 37.0472 5.80419 36.5737C4.72925 36.3046 3.88216 35.9803 3.21136 35.5844C1.52463 34.5831 1.2684 33.2463 1.2684 32.5373C1.2684 32.3792 1.2684 32.1614 1.45964 31.1259C1.54405 30.6673 1.68972 29.9248 1.90484 28.9816C2.24847 27.4786 2.8117 25.2837 3.549 23.3616C3.91129 22.4176 4.35053 21.5051 4.86147 20.6321C5.22078 20.0423 5.61296 19.4437 6.03427 18.8963C5.64955 18.5273 5.27083 17.9853 4.79947 17.2576C4.27433 16.3659 4.01214 15.7725 3.62818 14.8115C2.81022 12.7977 2.22904 10.5609 1.88468 9.03924C1.67104 8.09983 1.52911 7.34905 1.44693 6.88381C1.2684 5.87581 1.2684 5.64021 1.2684 5.49855C1.2684 4.791 1.52014 3.45421 3.21136 2.45142C3.88216 2.05553 4.72925 1.72971 5.80419 1.46205C7.68962 0.990111 10.1525 0.729909 12.7423 0.729909C15.3322 0.729909 17.7973 0.990111 19.6812 1.46205C20.4834 1.64845 21.2604 1.92952 21.9962 2.29858C21.7885 2.12039 21.5667 1.95935 21.3336 1.81695C20.6389 1.39346 19.7738 1.04976 18.6765 0.765696C16.7694 0.272131 14.2789 0 11.6666 0C9.05438 0 6.56613 0.272131 4.66351 0.765696C3.56169 1.04976 2.69293 1.39346 2.00345 1.81695C0.259956 2.88384 0 4.29222 0 5.03704C0 5.18243 0 5.42697 0.178533 6.47077C0.260703 6.95166 0.403379 7.72854 0.617021 8.69926C0.962136 10.2724 1.5448 12.5844 2.35978 14.6675C2.74448 15.6613 3.20239 16.6254 3.73052 17.5514C4.01662 18.0471 4.32812 18.4333 4.66426 18.8972C3.66927 20.2764 2.86848 21.8793 2.28283 23.4749C1.54479 25.4618 0.980064 27.7306 0.636444 29.2858C0.421308 30.2595 0.274149 31.0282 0.189738 31.5016C0 32.5723 0 32.799 0 32.963C0 33.7078 0.259956 35.1162 2.00345 36.183C2.69817 36.6066 3.56244 36.9502 4.66053 37.2343C6.56613 37.7294 9.05439 38 11.6659 38C14.2774 38 16.7664 37.7278 18.6727 37.2343C19.7701 36.9502 20.6396 36.6066 21.3299 36.183C21.5188 36.0683 21.6995 35.9415 21.8729 35.8043C21.173 36.1413 20.4379 36.4 19.6812 36.5775C17.7965 37.0501 15.3322 37.3073 12.7423 37.3073Z" fill="#B4B4BF"/>
<path d="M18.7846 23.7457C18.4761 22.9375 18.1019 22.1554 17.6657 21.4084C17.3302 20.8343 16.9545 20.2848 16.5414 19.7637C16.2754 19.4312 16.0334 19.1344 15.8348 18.9286C16.0484 18.7176 16.2509 18.5238 16.4421 18.2919C16.85 17.7946 17.2189 17.2676 17.5454 16.7136C17.9987 15.942 18.3932 15.1381 18.7249 14.3076C19.4562 12.4944 19.9701 10.465 20.2727 9.08119C20.5849 7.64822 20.7851 6.37703 20.7851 6.13024C20.7799 5.82605 20.6686 5.5323 20.4706 5.30118C20.2839 5.08123 20.0591 4.89708 19.8066 4.75616C19.3254 4.47137 18.6554 4.2201 17.8143 4.00762C16.1582 3.59309 13.9672 3.3642 11.6441 3.3642C9.32089 3.3642 7.12919 3.59309 5.47309 4.00762C4.63272 4.2201 3.96191 4.47062 3.48084 4.75616C3.22911 4.89708 3.005 5.08198 2.81825 5.30118C2.6203 5.53305 2.50974 5.82605 2.50452 6.13024C2.53365 6.46873 2.58145 6.80573 2.64719 7.13975C2.72189 7.56322 2.85262 8.24915 3.04384 9.10878C3.35834 10.494 3.88572 12.5235 4.61554 14.3315C5.64341 16.8776 6.99025 18.2509 7.81793 18.9279C7.59159 19.1255 7.32192 19.4274 7.03507 19.7421C6.56222 20.2595 6.13419 20.8157 5.75397 21.4047C5.27365 22.1495 4.87251 22.942 4.55503 23.7689C3.89095 25.5008 3.37701 27.5033 3.06626 28.8782C2.86756 29.7453 2.73385 30.4267 2.65616 30.8465C2.50377 31.6718 2.50377 31.8194 2.50377 31.8687C2.50899 32.1728 2.62105 32.4659 2.819 32.697C3.00575 32.9162 3.2306 33.1011 3.48159 33.242C3.96266 33.5268 4.63347 33.7795 5.47384 33.9898C7.12994 34.4058 9.32163 34.634 11.6448 34.634C13.968 34.634 16.159 34.4051 17.815 33.9898C18.6561 33.7788 19.3263 33.5268 19.8073 33.242C20.0591 33.1011 20.2839 32.9162 20.4714 32.697C20.6693 32.4659 20.7806 32.1728 20.7858 31.8687C20.7858 31.5265 20.6006 30.3216 20.2898 28.8998C19.9141 27.147 19.4114 25.4254 18.7846 23.7457Z" fill="white"/>
<path d="M11.3469 35.9359C13.7425 35.9359 16.0217 35.6951 17.7652 35.2575C18.7595 35.0084 19.543 34.7079 20.1638 34.3419C21.7243 33.4152 21.9611 32.179 21.9611 31.5229C21.9611 31.3767 21.9611 31.1747 21.784 30.2174C21.7064 29.7932 21.5711 29.1057 21.3717 28.2334C21.0542 26.843 20.5328 24.8128 19.8508 23.0346C19.5154 22.1616 19.1091 21.3168 18.6362 20.5101C18.3037 19.9644 17.9415 19.4112 17.5515 18.9042C17.9071 18.5628 18.2574 18.0609 18.6937 17.3877C19.1792 16.5631 19.422 16.0137 19.7776 15.1249C20.5343 13.2618 21.0721 11.1928 21.3904 9.78518C21.5876 8.91659 21.7191 8.22173 21.7952 7.79153C21.9604 6.85883 21.9604 6.64113 21.9604 6.50991C21.9604 5.8553 21.7273 4.6184 20.1631 3.69093C19.5423 3.32484 18.7586 3.02363 17.7645 2.77536C16.0201 2.33847 13.7418 2.09765 11.3462 2.09765C8.95056 2.09765 6.66997 2.33847 4.92722 2.77536C4.18545 2.94759 3.46608 3.20779 2.78556 3.54927C2.97755 3.38449 3.18297 3.23538 3.39886 3.10341C4.04127 2.71125 4.84206 2.39364 5.85723 2.13119C7.62164 1.67417 9.92539 1.42291 12.3427 1.42291C14.76 1.42291 17.0607 1.67491 18.8206 2.13119C19.8396 2.39364 20.6433 2.71125 21.2812 3.10341C22.8941 4.09054 23.1346 5.39305 23.1346 6.08195C23.1346 6.21616 23.1346 6.4428 22.9695 7.40831C22.8933 7.85341 22.7611 8.57214 22.5639 9.4698C22.2442 10.9251 21.7056 13.0634 20.9518 14.9908C20.5963 15.91 20.1727 16.8017 19.6842 17.6584C19.4197 18.1169 19.1314 18.4741 18.8206 18.9035C19.7409 20.1799 20.482 21.662 21.0235 23.1382C21.7064 24.9768 22.2285 27.0749 22.5468 28.5138C22.7461 29.4144 22.8814 30.1257 22.9598 30.5634C23.1354 31.5542 23.1354 31.7637 23.1354 31.915C23.1354 32.6047 22.8948 33.9072 21.2821 34.8936C20.6396 35.2857 19.8403 35.6034 18.8237 35.8658C17.0614 36.3236 14.7592 36.574 12.3434 36.574C9.92764 36.574 7.62539 36.3221 5.86171 35.8658C4.84654 35.6034 4.04277 35.2857 3.40334 34.8936C3.22854 34.787 3.0612 34.6699 2.90136 34.5432C3.54901 34.8548 4.22877 35.0942 4.92871 35.2582C6.6722 35.6958 8.95205 35.9336 11.3477 35.9336L11.3469 35.9359Z" fill="#B4B4BF"/>
<path d="M39.7016 19.1667C38.0368 15.1467 36.7682 12.0738 35.8956 9.94788L35.8479 9.82942H32.3476L32.4565 10.0931C35.7683 18.0999 38.2457 24.1 39.8889 28.0932L39.9366 28.2116H43.4426L43.3356 27.948C42.5765 26.1137 41.3651 23.1867 39.7016 19.1667Z" fill="#B4B4BF"/>
<path d="M42.917 20.8328H46.4154L50.9704 9.82942H47.472L42.917 20.8328Z" fill="#B4B4BF"/>
<path d="M63.2733 22.1588C63.2816 22.6174 63.1951 23.0726 63.0193 23.4961C62.8433 23.9195 62.5818 24.302 62.2511 24.6198C61.9283 24.9442 61.5445 25.2018 61.1219 25.3776C60.6992 25.5533 60.2461 25.6438 59.7882 25.6438C59.3305 25.6438 58.8774 25.5533 58.4547 25.3776C58.032 25.2018 57.6482 24.9442 57.3255 24.6198C56.9945 24.3022 56.7327 23.9197 56.5565 23.4962C56.3803 23.0728 56.2934 22.6175 56.3013 22.1588V9.8353H53.0648V22.1588C53.0945 23.9222 53.8159 25.6031 55.0733 26.8396C56.3308 28.0761 58.0238 28.769 59.7873 28.769C61.5508 28.769 63.2438 28.0761 64.5014 26.8396C65.7588 25.6031 66.4801 23.9222 66.5098 22.1588V9.8353H63.2733V22.1588Z" fill="#B4B4BF"/>
<path d="M82.169 18.5592C82.9751 17.5508 83.3867 16.2835 83.3268 14.994V14.9558C83.256 13.572 82.6496 12.2701 81.6359 11.3256C81.1448 10.8441 80.5633 10.4645 79.9249 10.2088C79.2864 9.95298 78.6036 9.82605 77.916 9.83526H68.6991V13.0719H77.9427C78.5194 13.0719 79.0724 13.3009 79.4802 13.7087C79.8879 14.1165 80.117 14.6695 80.117 15.2462C80.117 15.8228 79.8879 16.3759 79.4802 16.7836C79.0724 17.1914 78.5194 17.4205 77.9427 17.4205H68.6991V28.2174H71.9357V20.6322H75.522L80.2526 28.2174H84.0472L79.2228 20.4908C80.3967 20.2023 81.4364 19.5206 82.169 18.5592Z" fill="#B4B4BF"/>
<path d="M100.007 21.5703C99.8356 21.0045 99.563 20.4743 99.2027 20.0056C98.7821 19.5365 98.2714 19.1571 97.7009 18.8898C97.1663 18.6064 96.612 18.3619 96.0425 18.158C95.6049 18.0128 94.9572 17.8179 94.1204 17.5848L92.9492 17.237C92.6893 17.1625 92.3531 17.046 91.9499 16.8836C91.6343 16.7675 91.3329 16.6156 91.0519 16.4308C90.838 16.2698 90.6454 16.0823 90.4787 15.8729C90.3149 15.6793 90.2013 15.4483 90.1482 15.2003C90.1011 14.6219 90.2791 14.0477 90.645 13.5973C90.9062 13.2895 91.2325 13.0435 91.6003 12.877C92.0502 12.6742 92.5318 12.5501 93.0237 12.5101C94.5255 12.4089 95.968 12.9229 97.3131 14.0387L97.4583 14.159L99.5599 11.6561L99.4147 11.5338C98.7545 10.9721 98.0228 10.5005 97.2386 10.1314C96.52 9.79051 95.7621 9.5396 94.9821 9.38436C94.2625 9.24403 93.5275 9.1997 92.7963 9.25253C91.9026 9.31824 91.0274 9.54139 90.2112 9.91169C89.4138 10.2767 88.7062 10.8121 88.1382 11.4803C87.2128 12.5797 86.7619 14.0016 86.8848 15.4334V15.5652C86.9509 16.0252 87.0761 16.4748 87.2574 16.9027C87.4109 17.2758 87.6029 17.6319 87.8306 17.965C88.0736 18.2994 88.3721 18.5896 88.7133 18.8229C89.0763 19.0827 89.3973 19.2929 89.6686 19.4496C90.0401 19.6513 90.4273 19.8226 90.8265 19.9616C91.3251 20.1527 91.7035 20.2769 91.9728 20.3628C92.2423 20.4488 92.6397 20.5539 93.1994 20.724C93.7287 20.8749 94.1376 20.999 94.4108 21.0927C94.6841 21.1863 95.0261 21.3239 95.4388 21.4997C95.7546 21.6213 96.0493 21.7922 96.3118 22.006C96.5066 22.1895 96.6671 22.4062 96.7857 22.6461C96.9134 22.901 96.9727 23.1847 96.9577 23.4695C96.913 23.7867 96.7807 24.0852 96.5755 24.3312C96.2373 24.728 95.785 25.0109 95.2801 25.1413C94.5302 25.3589 93.7417 25.4091 92.9701 25.2884C91.3328 25.0974 89.7221 24.3656 88.1802 23.1409L88.0312 23.0243L85.9925 25.5579L86.1415 25.6782C88.165 27.3042 90.345 28.269 92.5861 28.5441C93.0091 28.6023 93.4355 28.6316 93.8625 28.6321C94.6785 28.6352 95.4906 28.5167 96.2718 28.2805C97.3908 27.9434 98.3869 27.2865 99.1377 26.3909C99.7172 25.6583 100.086 24.7819 100.206 23.8555V23.8192C100.29 23.0638 100.222 22.2992 100.007 21.5703Z" fill="#B4B4BF"/>
<path d="M116.706 9.82942H102.437V13.066H116.706V9.82942Z" fill="#B4B4BF"/>
<path d="M102.437 28.2116H116.706V24.975H105.674V20.6264H116.706V17.4146H102.437V28.2116Z" fill="#B4B4BF"/>
</svg>
