<svg width="64" height="64" viewBox="0 0 64 64" fill="none" xmlns="http://www.w3.org/2000/svg">
<path d="M0 0C0 8.48693 3.37142 16.6263 9.37258 22.6274C15.3737 28.6286 23.5131 32 32 32C40.4869 32 48.6263 28.6286 54.6274 22.6274C60.6286 16.6263 64 8.48693 64 4.06901e-06L0 0Z" fill="white"/>
<path d="M64 64C64 55.5131 60.6286 47.3737 54.6274 41.3726C48.6263 35.3714 40.4869 32 32 32C23.5131 32 15.3738 35.3714 9.37259 41.3726C3.37143 47.3737 4.61935e-06 55.5131 3.33786e-06 64H64Z" fill="white"/>
</svg>
