<svg width="64" height="64" viewBox="0 0 64 64" fill="none" xmlns="http://www.w3.org/2000/svg">
<path d="M32 12.9298C32 5.78888 26.2111 0 19.0702 0H0V19.0702C0 26.2111 5.78888 32 12.9298 32H32V12.9298Z" fill="white"/>
<path d="M32 12.9298C32 5.78888 37.7889 0 44.9298 0H64V19.0702C64 26.2111 58.2111 32 51.0702 32H32V12.9298Z" fill="white"/>
<path d="M32 51.0702C32 58.2111 26.2111 64 19.0702 64H0V44.9298C0 37.7889 5.78888 32 12.9298 32H32V51.0702Z" fill="white"/>
<path d="M32 51.0702C32 58.2111 37.7889 64 44.9298 64H64V44.9298C64 37.7889 58.2111 32 51.0702 32H32V51.0702Z" fill="white"/>
</svg>
