<svg width="64" height="64" viewBox="0 0 64 64" fill="none" xmlns="http://www.w3.org/2000/svg">
<path d="M64 32C64 23.5131 60.6286 15.3737 54.6274 9.37258C48.6263 3.37142 40.4869 6.40745e-07 32 0C23.5131 -6.40745e-07 15.3738 3.37142 9.37259 9.37258C3.37142 15.3737 1.28149e-06 23.5131 0 32L64 32Z" fill="white"/>
<path d="M64 64C64 55.5131 60.6286 47.3737 54.6274 41.3726C48.6263 35.3714 40.4869 32 32 32C23.5131 32 15.3738 35.3714 9.37259 41.3726C3.37142 47.3737 1.28149e-06 55.5131 0 64L64 64Z" fill="white"/>
</svg>
