<svg width="63" height="74" viewBox="0 0 63 74" fill="none" xmlns="http://www.w3.org/2000/svg">
<path d="M46.4956 31.3663L46.8373 31.6055C49.3467 33.3621 52.7764 32.9464 54.7935 30.6411L55.7595 29.5372C57.8335 27.1669 57.5117 23.5456 55.0524 21.5781L54.4011 21.0571C53.9711 20.7131 53.899 20.0867 54.2397 19.654L57.467 15.5543C60.1892 12.0965 59.5562 7.0801 56.0604 4.40686C52.8025 1.91552 48.1791 2.33577 45.4238 5.37369L41.6953 9.48454C41.3198 9.89853 40.6892 9.95426 40.2469 9.61252L39.7641 9.23939C37.553 7.53081 34.3864 7.87761 32.5975 10.0243L30.0996 13.0218C28.656 14.7541 28.89 17.3287 30.6223 18.7723L31.7629 19.7228M46.4956 31.3663L31.8817 49.901M31.7629 19.7228L33.5669 21.1485L36.3863 23.3767L39.2796 25.6634L46.4956 31.3663M31.8817 49.901L18.4729 66.9073C17.6896 67.9007 16.6124 68.6211 15.3952 68.9656L6.64293 71.4427C5.41192 71.7911 4.08824 71.5045 3.11159 70.6781C2.15453 69.8683 1.6523 68.6428 1.7658 67.3942L2.61094 58.0977C2.71657 56.9357 3.15872 55.8297 3.88326 54.9152L6.53778 51.5644L31.7629 19.7228M31.8817 49.901L6.53778 51.5644M33.5669 21.1485L38.1788 16.1584M39.2796 25.6634L43.8817 20.9109" stroke="#E8342A" stroke-width="3.5" stroke-linecap="round" stroke-linejoin="round"/>
<path opacity="0.2" d="M2.77288 56.3169L6.57486 51.5644L31.763 50.1387L17.5056 68.1981L5.14912 72.0001L1.82239 69.1486L2.77288 56.3169Z" fill="#E8342A"/>
</svg>
