<svg width="80" height="85" viewBox="0 0 80 85" fill="none" xmlns="http://www.w3.org/2000/svg">
<path opacity="0.2" d="M2.07337 68.5575L16.5402 5.60965C16.7797 4.56756 17.7965 3.89817 18.8484 4.0901L36.5743 7.32441C37.696 7.52908 38.4199 8.62865 38.1645 9.73989L23.5144 73.4851C23.267 74.5616 22.1938 75.2337 21.1173 74.9863L3.57459 70.9546C2.49808 70.7072 1.82597 69.634 2.07337 68.5575Z" fill="#E8342A"/>
<path d="M38.6704 6.97321L23.6877 3.52984C19.3816 2.54022 15.0887 5.22869 14.0991 9.53472L1.9554 62.3739C0.965776 66.68 3.65425 70.9729 7.96027 71.9626L18.3799 74.3572C21.2595 75.019 24.1303 73.2211 24.7921 70.3416M33.1301 34.0614L36.3754 19.9403L39.0627 10.0121C39.3401 8.98716 39.199 7.89405 38.6704 6.97321M51.2007 30.2092L54.5967 25.2716L54.863 24.8844C57.349 21.2699 56.4604 16.3277 52.8712 13.8054L43.9346 7.52535C42.3937 6.44251 40.4024 6.23365 38.6704 6.97321M25.3912 67.7346L24.7921 70.3416M50.3857 31.3942L43.322 41.6643L41.9636 43.6393L35.4433 53.1194L33.4057 56.082L25.3912 67.7346M25.3912 67.7346L29.7849 48.6169M24.7921 70.3416L37.3471 62.7058M54.5967 25.2716C58.1338 23.0386 62.8081 24.0557 65.0977 27.5563L69.1225 33.7101C71.5972 37.4938 70.4472 42.5749 66.5844 44.9242L60.8195 48.4303M50.3857 31.3942L60.8195 48.4303M50.3857 31.3942L51.2007 30.2092M37.3471 62.7058L48.9543 55.6465L60.8195 48.4303M48.9543 55.6465L41.9636 43.6393M33.4057 56.082L37.3471 62.7058M35.4433 53.1194L29.7849 48.6169M29.7849 48.6169L33.1301 34.0614M33.1301 34.0614L43.322 41.6643M51.2007 30.2092L36.3754 19.9403" stroke="#E8342A" stroke-width="3.5"/>
<circle cx="14.7703" cy="60.189" r="4.25" transform="rotate(12.9431 14.7703 60.189)" stroke="#E8342A" stroke-width="3.5"/>
</svg>
