<svg width="93" height="88" viewBox="0 0 93 88" fill="none" xmlns="http://www.w3.org/2000/svg">
<g opacity="0.2">
<path d="M38.1253 11.6265L11.6748 33.891C9.92995 35.3597 10.3973 38.1612 12.5244 38.9841L44.2848 51.2696C45.266 51.6491 46.3742 51.487 47.2056 50.8423L74.817 29.4294C76.6503 28.0077 76.2452 25.1322 74.0905 24.2724L41.1691 11.1353C40.1415 10.7253 38.9717 10.914 38.1253 11.6265Z" fill="#E8342A"/>
<path d="M42.1095 37.257L15.5446 58.8435C13.7769 60.2799 14.1918 63.0848 16.2996 63.948L48.1909 77.0079C49.203 77.4224 50.3604 77.2532 51.2116 76.5665L78.7143 54.3767C80.5175 52.9219 80.0611 50.059 77.8948 49.2371L45.0657 36.7804C44.0658 36.401 42.9395 36.5825 42.1095 37.257Z" fill="#E8342A"/>
</g>
<path d="M9.55566 48.5973L44.1834 61.2668C46.7845 62.2185 49.6928 61.757 51.8716 60.0469L80.3177 37.7197M11.5231 61.3962L46.1509 74.0657C48.752 75.0174 51.6603 74.5559 53.8391 72.8458L82.2852 50.5186M11.6749 33.891L38.1253 11.6265C38.9717 10.914 40.1416 10.7253 41.1691 11.1353L74.0905 24.2724C76.2452 25.1322 76.6504 28.0077 74.8171 29.4294L47.2056 50.8423C46.3743 51.487 45.266 51.6491 44.2849 51.2696L12.5245 38.9841C10.3974 38.1612 9.93001 35.3597 11.6749 33.891Z" stroke="#E8342A" stroke-width="4" stroke-linecap="round" stroke-linejoin="round"/>
</svg>
