<svg width="100" height="98" viewBox="0 0 100 98" fill="none" xmlns="http://www.w3.org/2000/svg">
<path opacity="0.2" d="M43.632 65.254L51.2479 46.3049L66.0909 60.7536C66.9874 61.6262 67.0907 63.0192 66.5961 64.1684C65.3309 67.1078 64.7248 71.6756 65.5309 78.3646C65.6955 79.7306 65.9191 81.1851 66.2079 82.7323C66.4644 84.1064 65.6032 85.4542 64.2374 85.7518L55.9408 87.5594C54.5383 87.8649 53.1685 86.9426 52.8578 85.5412C52.5245 84.0379 52.1553 82.6481 51.7596 81.365C49.7338 74.7959 47.0144 71.0224 44.8694 69.1374C43.783 68.1827 43.0927 66.596 43.632 65.254Z" fill="#E8342A"/>
<g opacity="0.2">
<path d="M24.2509 32.4515C25.0249 36.0038 22.8211 39.5003 19.3287 40.2612C15.8363 41.0221 12.3777 38.7592 11.6038 35.207C10.8299 31.6547 13.0336 28.1582 16.526 27.3973C20.0184 26.6364 23.477 28.8992 24.2509 32.4515Z" fill="#E8342A"/>
<path d="M82.1286 20.6836C82.9025 24.2359 80.6988 27.7324 77.2064 28.4933C73.714 29.2542 70.2554 26.9914 69.4815 23.4391C68.7075 19.8868 70.9113 16.3903 74.4037 15.6294C77.8961 14.8685 81.3546 17.1314 82.1286 20.6836Z" fill="#E8342A"/>
<path d="M70.434 46.8123L83.0811 44.0568L85.8838 56.9207L73.2367 59.6762L70.434 46.8123Z" fill="#E8342A"/>
<path d="M20.6359 57.6619L33.283 54.9064L36.0857 67.7703L23.4386 70.5258L20.6359 57.6619Z" fill="#E8342A"/>
<path d="M39.449 22.403L52.0961 19.6475L54.8988 32.5115L42.2517 35.2669L39.449 22.403Z" fill="#E8342A"/>
</g>
<path d="M51.9724 82.3421C52.3681 83.6252 52.7374 85.015 53.0707 86.5183C53.3814 87.9197 54.7512 88.842 56.1537 88.5365L64.4502 86.7289C65.8161 86.4313 66.6773 85.0835 66.4208 83.7094C66.1319 82.1622 65.9084 80.7077 65.7438 79.3417C64.9377 72.6527 65.5438 68.0849 66.8089 65.1455C67.3036 63.9963 67.2002 62.6033 66.3037 61.7307L51.4608 47.282L43.8449 66.2311C43.3055 67.5731 43.9958 69.1598 45.0823 70.1145C47.2273 71.9995 49.9467 75.773 51.9724 82.3421ZM51.4608 47.282L54.9338 63.2229M65.7438 79.3417L51.9724 82.3421M54.1197 27.1485C71.5264 27.4908 77.5478 45.2617 77.5478 45.2617M26.9593 56.2836C26.9593 56.2836 25.0086 37.2902 41.1449 29.8703M53.7057 26.4547L70.5795 22.7784M23.1528 33.1113L40.5151 29.3285M24.2509 32.4511C25.0248 36.0034 22.8211 39.4999 19.3287 40.2608C15.8363 41.0217 12.3777 38.7589 11.6038 35.2066C10.8298 31.6543 13.0336 28.1578 16.526 27.3969C20.0184 26.636 23.477 28.8989 24.2509 32.4511ZM58.9335 65.549C59.3417 67.4221 58.1796 69.2659 56.338 69.6671C54.4964 70.0684 52.6726 68.8751 52.2645 67.002C51.8564 65.1288 53.0185 63.285 54.8601 62.8838C56.7017 62.4826 58.5254 63.6758 58.9335 65.549ZM82.1286 20.6833C82.9025 24.2355 80.6988 27.7321 77.2064 28.493C73.714 29.2539 70.2554 26.991 69.4815 23.4387C68.7075 19.8864 70.9113 16.3899 74.4037 15.629C77.8961 14.8681 81.3546 17.131 82.1286 20.6833ZM70.434 46.8119L83.0811 44.0564L85.8838 56.9204L73.2367 59.6758L70.434 46.8119ZM20.6359 57.6615L33.283 54.906L36.0857 67.77L23.4386 70.5254L20.6359 57.6615ZM39.449 22.4026L52.0961 19.6472L54.8988 32.5111L42.2517 35.2665L39.449 22.4026Z" stroke="#E8342A" stroke-width="3.5"/>
</svg>
