<svg width="89" height="89" viewBox="0 0 89 89" fill="none" xmlns="http://www.w3.org/2000/svg">
<path opacity="0.2" d="M34.5722 60.064L29.8813 25.087C29.528 22.453 32.521 20.6943 34.6501 22.2848L62.8749 43.3695C64.9893 44.949 64.1808 48.2922 61.5784 48.7311L50.0712 50.6718C49.3758 50.7891 48.7439 51.1476 48.2865 51.6844L39.8292 61.6109C38.1457 63.5868 34.9173 62.6369 34.5722 60.064Z" fill="#E8342A"/>
<path d="M27.6512 25.3858C27.0333 20.7765 32.2709 17.6993 35.9968 20.4826L64.2212 41.5673C67.9213 44.3313 66.5071 50.1815 61.9531 50.9498L50.4455 52.8905C50.2717 52.9199 50.1137 53.0097 49.9994 53.1439L41.5415 63.0703C38.5953 66.5277 32.9462 64.8652 32.3423 60.3629L27.6512 25.3858ZM33.3038 24.0869C32.7715 23.6895 32.0231 24.1294 32.1113 24.7878L36.8024 59.7648C36.8887 60.4081 37.6955 60.6451 38.1164 60.1512L46.574 50.2256C47.3744 49.2863 48.4801 48.6584 49.697 48.4531L61.2046 46.5124C61.855 46.4026 62.0568 45.5665 61.5282 45.1717L33.3038 24.0869Z" fill="#E8342A"/>
<path d="M6.24455 63.6059L5.50418 66.394L8.29232 67.1344L7.13742 71.4837L0 69.5884L1.89528 62.451L6.24455 63.6059ZM31.4885 73.2939L30.3335 77.6432L16.0587 73.8526L17.2136 69.5034L31.4885 73.2939ZM54.6846 79.4534L53.5297 83.8027L39.2548 80.0121L40.4097 75.6629L54.6846 79.4534ZM71.4837 80.9295L69.5884 88.0669L62.451 86.1717L63.6059 81.8224L66.394 82.5628L67.1344 79.7746L71.4837 80.9295ZM12.4041 40.4097L8.61352 54.6846L4.26424 53.5297L8.05479 39.2548L12.4041 40.4097ZM77.6432 57.7334L73.8526 72.0082L69.5034 70.8533L73.2939 56.5785L77.6432 57.7334ZM18.5636 17.2136L14.773 31.4885L10.4238 30.3335L14.2143 16.0587L18.5636 17.2136ZM83.8027 34.5373L80.0121 48.8121L75.6629 47.6572L79.4534 33.3824L83.8027 34.5373ZM25.616 1.89528L24.4611 6.24455L21.6729 5.50418L20.9326 8.29232L16.5833 7.13742L18.4786 0L25.616 1.89528ZM88.0669 18.4786L86.1717 25.616L81.8224 24.4611L82.5628 21.6729L79.7746 20.9326L80.9295 16.5833L88.0669 18.4786ZM48.8121 8.05479L47.6572 12.4041L33.3824 8.61352L34.5373 4.26424L48.8121 8.05479ZM72.0082 14.2143L70.8533 18.5636L56.5785 14.773L57.7334 10.4238L72.0082 14.2143Z" fill="#E8342A"/>
</svg>
