<svg width="78" height="72" viewBox="0 0 78 72" fill="none" xmlns="http://www.w3.org/2000/svg">
<path opacity="0.2" d="M19.0675 31.722L40.771 20.5674L60.6161 33.3446L59.2109 56.8741L37.9607 67.6265L17.7134 54.3959L19.0675 31.722Z" fill="#E8342A"/>
<path d="M17.7134 54.3959L19.0675 31.722L40.771 20.5674M19.0675 31.722L39.3914 43.6691M59.2109 56.8741L60.6161 33.3446L40.771 20.5674M40.771 20.5674L41.8696 2.17164M60.6161 33.3446L39.3914 43.6691M39.3914 43.6691L37.9607 67.6265M59.2109 56.8741L37.9607 67.6265L17.7134 54.3959M17.7134 54.3959L1.75019 62.888M59.2109 56.8741L73.6221 67.1801M66.6239 69.3382L73.6221 67.1801L73.6798 59.0262M8.44185 65.8636L1.75019 62.888L3.4935 55.264M47.5524 7.66304L41.8696 2.17164L36.0015 6.97322" stroke="#E8342A" stroke-width="3.5" stroke-linecap="round" stroke-linejoin="round"/>
</svg>
